<svg width="28" height="24" viewBox="0 0 28 24" fill="none" xmlns="http://www.w3.org/2000/svg">
<path d="M17.6094 9L16.742 9.49767L17.0302 10H17.6094V9ZM12.6875 0.421875L13.5549 -0.0757942L13.55 -0.0842552L13.545 -0.0926208L12.6875 0.421875ZM8.23438 0.984375L9.19576 0.708889L9.1922 0.697025L8.23438 0.984375ZM10.5312 9V10H11.858L11.4926 8.72454L10.5312 9ZM5.75 9L4.95841 9.61105L5.25865 10H5.75V9ZM3.6875 6.32812L2.88742 6.92818L2.89591 6.93918L3.6875 6.32812ZM0.5 6.9375L1.45881 6.65341L1.45782 6.65015L0.5 6.9375ZM2 12L2.95951 12.2817L3.04259 11.9987L2.9588 11.7159L2 12ZM0.5 17.1094L1.45784 17.3967L1.45951 17.3911L0.5 17.1094ZM3.6875 17.7188L2.8908 17.1144L2.8875 17.1188L3.6875 17.7188ZM5.75 15V14H5.25343L4.95331 14.3956L5.75 15ZM10.5312 15L11.493 15.274L11.8559 14H10.5312V15ZM8.23438 23.0625L9.1923 23.3499L9.19611 23.3365L8.23438 23.0625ZM12.6875 23.625L13.545 24.1395L13.5506 24.1301L13.556 24.1206L12.6875 23.625ZM17.6094 15V14H17.0287L16.7408 14.5044L17.6094 15ZM23 8H17.6094V10H23V8ZM18.4767 8.50233L13.5549 -0.0757942L11.8201 0.919544L16.742 9.49767L18.4767 8.50233ZM13.545 -0.0926208C13.2955 -0.508488 12.7839 -1 12.0312 -1V1C11.9411 1 11.8765 0.968262 11.8474 0.948353C11.823 0.931614 11.8224 0.923744 11.83 0.936371L13.545 -0.0926208ZM12.0312 -1H8.98438V1H12.0312V-1ZM8.98438 -1C7.80746 -1 6.94098 0.153175 7.27655 1.27172L9.1922 0.697025C9.2241 0.80336 9.18895 0.882183 9.16328 0.916405C9.13514 0.953934 9.07336 1 8.98438 1V-1ZM7.27306 1.25984L9.56994 9.27546L11.4926 8.72454L9.19569 0.708912L7.27306 1.25984ZM10.5312 8H5.75V10H10.5312V8ZM6.54159 8.38895L4.47909 5.71707L2.89591 6.93918L4.95841 9.61105L6.54159 8.38895ZM4.4875 5.72813C4.25088 5.41263 3.80204 5 3.125 5V7C3.03157 7 2.9557 6.96943 2.91141 6.94175C2.87455 6.91871 2.8701 6.90493 2.8875 6.92812L4.4875 5.72813ZM3.125 5H1.25V7H3.125V5ZM1.25 5C0.143854 5 -0.813147 6.04045 -0.457827 7.22485L1.45782 6.65015C1.48978 6.75667 1.4566 6.85913 1.40977 6.91766C1.36476 6.97394 1.30252 7 1.25 7V5ZM-0.458797 7.22159L1.0412 12.2841L2.9588 11.7159L1.4588 6.65341L-0.458797 7.22159ZM1.04049 11.7183L-0.459505 16.8277L1.45951 17.3911L2.95951 12.2817L1.04049 11.7183ZM-0.457827 16.822C-0.834024 18.076 0.222364 19 1.25 19V17C1.26498 17 1.32669 17.008 1.38816 17.0797C1.41912 17.1158 1.44756 17.1665 1.46154 17.2294C1.47595 17.2942 1.47078 17.3535 1.45782 17.3967L-0.457827 16.822ZM1.25 19H3.125V17H1.25V19ZM3.125 19C3.67413 19 4.15802 18.7581 4.4875 18.3187L2.8875 17.1188C2.89922 17.1031 2.93342 17.0657 2.99419 17.0353C3.05497 17.0049 3.10546 17 3.125 17V19ZM4.48419 18.3231L6.54669 15.6044L4.95331 14.3956L2.89081 17.1144L4.48419 18.3231ZM5.75 16H10.5312V14H5.75V16ZM9.56952 14.726L7.27264 22.7885L9.19611 23.3365L11.493 15.274L9.56952 14.726ZM7.27655 22.7752C6.92123 23.9595 7.87823 25 8.98438 25V23C9.0369 23 9.09913 23.0261 9.14415 23.0823C9.19098 23.1409 9.22416 23.2433 9.1922 23.3498L7.27655 22.7752ZM8.98438 25H12.0312V23H8.98438V25ZM12.0312 25C12.6784 25 13.2313 24.6623 13.545 24.1395L11.83 23.1105C11.8412 23.0918 11.8666 23.0607 11.9111 23.035C11.9567 23.0086 12.0014 23 12.0312 23V25ZM13.556 24.1206L18.4779 15.4956L16.7408 14.5044L11.819 23.1294L13.556 24.1206ZM17.6094 16H23V14H17.6094V16ZM23 16C24.0323 16 25.3301 15.6055 26.3708 14.9956C27.3504 14.4216 28.5 13.4131 28.5 12H26.5C26.5 12.2744 26.22 12.7659 25.3597 13.27C24.5606 13.7383 23.6084 14 23 14V16ZM28.5 12C28.5 11.2886 28.1896 10.6791 27.8008 10.205C27.4122 9.73103 26.9021 9.33671 26.3749 9.02438C25.3388 8.41066 24.0393 8 23 8V10C23.6013 10 24.5518 10.269 25.3556 10.7451C25.7482 10.9777 26.0556 11.2309 26.2543 11.4732C26.453 11.7155 26.5 11.8911 26.5 12H28.5Z" fill="black"/>
</svg>
