<svg width="28" height="24" viewBox="0 0 28 24" fill="none" xmlns="http://www.w3.org/2000/svg">
<path d="M23 9H17.6094L12.6875 0.421875C12.5469 0.1875 12.3125 0 12.0312 0H8.98438C8.46875 0 8.09375 0.515625 8.23438 0.984375L10.5312 9H5.75L3.6875 6.32812C3.54688 6.14062 3.35938 6 3.125 6H1.25C0.734375 6 0.359375 6.46875 0.5 6.9375L2 12L0.5 17.1094C0.359375 17.5781 0.734375 18 1.25 18H3.125C3.35938 18 3.54688 17.9062 3.6875 17.7188L5.75 15H10.5312L8.23438 23.0625C8.09375 23.5312 8.46875 24 8.98438 24H12.0312C12.3125 24 12.5469 23.8594 12.6875 23.625L17.6094 15H23C24.6406 15 27.5 13.6875 27.5 12C27.5 10.3594 24.6406 9 23 9Z" fill="black"/>
</svg>
