<svg fill="none" height="16" viewBox="0 0 10 16" width="10" xmlns="http://www.w3.org/2000/svg"><path d="m.453125 7.20312-.707108-.7071-.018592.01859-.017594.01955zm7.968755 7.96878-.69123-.7227-.02704.0259-.02503.0278zm1.07812-1.0313.6912.7227.0271-.0259.025-.0278zm-4.54688-6.1406-.70343-.71076-.71445.70709.71078.71078zm4.54688-4.5.7034.71077.0037-.00366zm-2.67188-2.671875-.66896-.7432938-.01955.0175938-.01859.018592zm-7.118289 5.706035c-.744901.82767-.795461 2.13817.036186 2.96982l1.414213-1.41421c-.00926-.00926-.02351-.0296-.02351-.07219 0-.04355.01634-.09731.0597-.14549zm.036186 2.96982 6.375003 6.37502 1.41421-1.4142-6.375-6.37503zm6.375003 6.37502c.83742.8374 2.20536.8938 3.04415-.0382l-1.48659-1.3379c-.01197.0133-.01981.017-.02205.018-.00286.0013-.00701.0025-.01395.0025-.01087 0-.05256-.0038-.10735-.0586zm2.99208.0155 1.0781-1.0312-1.38242-1.4453-1.07813 1.0312zm1.1302-1.0849c.7449-.8277.7955-2.1382-.0362-2.9698l-1.41421 1.4142c.00926.0092.02352.0296.02352.0722 0 .0435-.01634.0973-.0597.1455zm-.0362-2.9698-4.54687-4.54691-1.41421 1.41422 4.54687 4.54689zm-4.55054-3.12904 4.54684-4.5-1.40683-1.42152-4.54688 4.5zm4.55054-4.50365c.8124-.8124.8124-2.19557 0-3.00797l-1.41421 1.41422c.00024.00023.02352.02735.02352.08976 0 .06242-.02328.08954-.02352.08977zm0-3.00797-1.07812-1.078123-1.41421 1.414213 1.07812 1.07813zm-1.07812-1.078123c-.83165-.831646-2.14215-.781086-2.96982-.0361858l1.33793 1.4865888c.04818-.04336.10194-.0597.14549-.0597.04259 0 .06293.01425.07219.02351zm-3.00796 0-6.375003 6.375003 1.414213 1.41421 6.375-6.375z" fill="#000"/></svg>