<svg width="11" height="16" viewBox="0 0 11 16" fill="none" xmlns="http://www.w3.org/2000/svg">
<path d="M10 7.20312L10.7433 6.53416L10.7257 6.51461L10.7071 6.49602L10 7.20312ZM3.625 0.828125L4.33211 0.121017L4.31351 0.102425L4.29396 0.0848312L3.625 0.828125ZM0.953125 1.90625L0.246017 1.19914L0.227425 1.21774L0.209831 1.23729L0.953125 1.90625ZM5.5 8.04688L6.20343 8.75764L6.91789 8.05054L6.20711 7.33977L5.5 8.04688ZM0.953125 12.5469L0.249683 11.8361L0.246017 11.8398L0.953125 12.5469ZM0.953125 14.1406L0.209831 14.8096L0.234863 14.8374L0.261902 14.8633L0.953125 14.1406ZM2.03125 15.1719L2.77454 14.5029L2.74951 14.4751L2.72247 14.4492L2.03125 15.1719ZM10.7071 9.50398C11.5388 8.67233 11.4882 7.36183 10.7433 6.53416L9.25671 7.87209C9.30007 7.92027 9.31641 7.97403 9.31641 8.01758C9.31641 8.06017 9.30215 8.08051 9.29289 8.08977L10.7071 9.50398ZM10.7071 6.49602L4.33211 0.121017L2.91789 1.53523L9.29289 7.91023L10.7071 6.49602ZM4.29396 0.0848312C3.4663 -0.660069 2.15579 -0.710629 1.32414 0.121017L2.73836 1.53523C2.74762 1.52597 2.76796 1.51172 2.81055 1.51172C2.8541 1.51172 2.90786 1.52806 2.95604 1.57142L4.29396 0.0848312ZM1.32414 0.121017L0.246017 1.19914L1.66023 2.61336L2.73836 1.53523L1.32414 0.121017ZM0.209831 1.23729C-0.535069 2.06495 -0.585629 3.37546 0.246017 4.20711L1.66023 2.79289C1.65097 2.78363 1.63672 2.76329 1.63672 2.7207C1.63672 2.67715 1.65306 2.62339 1.69642 2.57521L0.209831 1.23729ZM0.246017 4.20711L4.79289 8.75398L6.20711 7.33977L1.66023 2.79289L0.246017 4.20711ZM4.79657 7.33611L0.249691 11.8361L1.65656 13.2576L6.20343 8.75764L4.79657 7.33611ZM0.246017 11.8398C-0.585629 12.6714 -0.535069 13.9819 0.209831 14.8096L1.69642 13.4717C1.65306 13.4235 1.63672 13.3697 1.63672 13.3262C1.63672 13.2836 1.65097 13.2632 1.66023 13.254L0.246017 11.8398ZM0.261902 14.8633L1.34003 15.8945L2.72247 14.4492L1.64435 13.418L0.261902 14.8633ZM1.28796 15.8408C2.12675 16.7728 3.49469 16.7164 4.33211 15.879L2.91789 14.4648C2.86311 14.5196 2.82141 14.5234 2.81055 14.5234C2.80361 14.5234 2.79945 14.5222 2.7966 14.5209C2.79435 14.5199 2.78652 14.5162 2.77454 14.5029L1.28796 15.8408ZM4.33211 15.879L10.7071 9.50398L9.29289 8.08977L2.91789 14.4648L4.33211 15.879Z" fill="black"/>
</svg>
