<svg width="16" height="10" viewBox="0 0 16 10" fill="none" xmlns="http://www.w3.org/2000/svg">
<path d="M15.125 1.57812L14.4024 2.26935L14.4282 2.29639L14.456 2.32142L15.125 1.57812ZM14.0938 0.5L14.8164 -0.191223L14.7905 -0.218262L14.7627 -0.243294L14.0938 0.5ZM7.95312 5.04688L7.24236 5.75031L7.94945 6.46476L8.66023 5.75398L7.95312 5.04688ZM3.45312 0.5L4.16389 -0.203442L4.16023 -0.207108L3.45312 0.5ZM1.85938 0.5L1.19041 -0.243294L1.1626 -0.218262L1.13673 -0.191223L1.85938 0.5ZM0.828125 1.57812L1.49709 2.32142L1.5249 2.29639L1.55077 2.26935L0.828125 1.57812ZM6.49602 10.254C7.30842 11.0664 8.64471 11.0664 9.45711 10.254L8.04289 8.83977C8.03175 8.85091 8.01045 8.86328 7.97656 8.86328C7.94267 8.86328 7.92138 8.85091 7.91023 8.83977L6.49602 10.254ZM9.45711 10.254L15.8321 3.87898L14.4179 2.46477L8.04289 8.83977L9.45711 10.254ZM15.8321 3.87898C16.6695 3.04156 16.726 1.67362 15.794 0.834831L14.456 2.32142C14.4693 2.33339 14.473 2.34123 14.474 2.34347C14.4753 2.34633 14.4766 2.35048 14.4766 2.35742C14.4766 2.36829 14.4727 2.40998 14.4179 2.46477L15.8321 3.87898ZM15.8476 0.886902L14.8164 -0.191223L13.3711 1.19122L14.4024 2.26935L15.8476 0.886902ZM14.7627 -0.243294C13.935 -0.988194 12.6245 -1.03875 11.7929 -0.207108L13.2071 1.20711C13.2164 1.19785 13.2367 1.18359 13.2793 1.18359C13.3228 1.18359 13.3766 1.19993 13.4248 1.24329L14.7627 -0.243294ZM11.7929 -0.207108L7.24602 4.33977L8.66023 5.75398L13.2071 1.20711L11.7929 -0.207108ZM8.66389 4.34344L4.16389 -0.203434L2.74236 1.20343L7.24236 5.75031L8.66389 4.34344ZM4.16023 -0.207108C3.32858 -1.03875 2.01808 -0.988194 1.19041 -0.243294L2.52834 1.24329C2.57652 1.19993 2.63028 1.18359 2.67383 1.18359C2.71642 1.18359 2.73676 1.19785 2.74602 1.20711L4.16023 -0.207108ZM1.13673 -0.191223L0.105484 0.886902L1.55077 2.26935L2.58202 1.19122L1.13673 -0.191223ZM0.159161 0.834831C-0.772827 1.67362 -0.716396 3.04156 0.121017 3.87898L1.53523 2.46477C1.48045 2.40998 1.47656 2.36829 1.47656 2.35742C1.47656 2.35048 1.47783 2.34633 1.4791 2.34347C1.48009 2.34123 1.48378 2.33339 1.49709 2.32142L0.159161 0.834831ZM0.121017 3.87898L6.49602 10.254L7.91023 8.83977L1.53523 2.46477L0.121017 3.87898Z" fill="black"/>
</svg>
