<svg width="17" height="10" viewBox="0 0 17 10" fill="none" xmlns="http://www.w3.org/2000/svg">
<path d="M9.29688 0.5L10.004 -0.207108L9.98539 -0.2257L9.96584 -0.243294L9.29688 0.5ZM1.32812 8.46875L2.05077 7.77753L2.0249 7.75049L1.99709 7.72546L1.32812 8.46875ZM2.35938 9.54688L1.63673 10.2381L1.6626 10.2651L1.69041 10.2902L2.35938 9.54688ZM8.5 5L9.21076 4.29657L8.50367 3.58211L7.79289 4.29289L8.5 5ZM13 9.54688L12.2892 10.2503L12.2929 10.254L13 9.54688ZM15.6719 6.875L16.4152 6.20603L16.3976 6.18649L16.379 6.16789L15.6719 6.875ZM9.96584 -0.243294C9.13817 -0.988194 7.82767 -1.03875 6.99602 -0.207108L8.41023 1.20711C8.41949 1.19785 8.43983 1.18359 8.48242 1.18359C8.52597 1.18359 8.57973 1.19993 8.62791 1.24329L9.96584 -0.243294ZM6.99602 -0.207108L0.621017 6.16789L2.03523 7.58211L8.41023 1.20711L6.99602 -0.207108ZM0.621017 6.16789C-0.216396 7.00531 -0.272827 8.37325 0.659161 9.21204L1.99709 7.72546C1.98378 7.71348 1.98009 7.70565 1.9791 7.70341C1.97783 7.70055 1.97656 7.6964 1.97656 7.68945C1.97656 7.67859 1.98045 7.63689 2.03523 7.58211L0.621017 6.16789ZM0.605484 9.15997L1.63673 10.2381L3.08202 8.85565L2.05077 7.77753L0.605484 9.15997ZM1.69041 10.2902C2.51808 11.0351 3.82858 11.0856 4.66023 10.254L3.24602 8.83977C3.23676 8.84903 3.21642 8.86328 3.17383 8.86328C3.13028 8.86328 3.07652 8.84695 3.02834 8.80358L1.69041 10.2902ZM4.66023 10.254L9.20711 5.70711L7.79289 4.29289L3.24602 8.83977L4.66023 10.254ZM7.78924 5.70343L12.2892 10.2503L13.7108 8.84344L9.21076 4.29657L7.78924 5.70343ZM12.2929 10.254C13.1053 11.0664 14.4885 11.0664 15.3009 10.254L13.8866 8.83977C13.8864 8.84 13.8593 8.86328 13.7969 8.86328C13.7345 8.86328 13.7073 8.84 13.7071 8.83977L12.2929 10.254ZM15.3009 10.254L16.379 9.17586L14.9648 7.76164L13.8866 8.83977L15.3009 10.254ZM16.379 9.17586C17.2106 8.34421 17.1601 7.0337 16.4152 6.20603L14.9286 7.54397C14.9719 7.59215 14.9883 7.6459 14.9883 7.68945C14.9883 7.73204 14.974 7.75239 14.9648 7.76164L16.379 9.17586ZM16.379 6.16789L10.004 -0.207108L8.58977 1.20711L14.9648 7.58211L16.379 6.16789Z" fill="black"/>
</svg>
