<svg width="25" height="20" viewBox="0 0 25 20" fill="none" xmlns="http://www.w3.org/2000/svg">
<path d="M9.5 12.6719L8.79604 13.3821L9.50314 14.083L10.2071 13.379L9.5 12.6719ZM4.20312 7.42188L3.49601 8.12899L3.49917 8.13212L4.20312 7.42188ZM7.90227 19.3321C8.76154 20.1914 10.1916 20.1914 11.0509 19.3321L9.63664 17.9179C9.60543 17.9491 9.5507 17.9766 9.47656 17.9766C9.40242 17.9766 9.34769 17.9491 9.31648 17.9179L7.90227 19.3321ZM11.0509 19.3321L24.8321 5.55086L23.4179 4.13664L9.63664 17.9179L11.0509 19.3321ZM24.8321 5.55086C25.6914 4.69158 25.6914 3.26154 24.8321 2.40227L23.4179 3.81648C23.4491 3.84769 23.4766 3.90242 23.4766 3.97656C23.4766 4.0507 23.4491 4.10543 23.4179 4.13664L24.8321 5.55086ZM24.8321 2.40227L23.1446 0.714767L21.7304 2.12898L23.4179 3.81648L24.8321 2.40227ZM23.1446 0.714767C22.2853 -0.144505 20.9022 -0.144505 20.0429 0.714767L21.4571 2.12898C21.5353 2.05075 21.6522 2.05075 21.7304 2.12898L23.1446 0.714767ZM20.0429 0.714767L8.79289 11.9648L10.2071 13.379L21.4571 2.12898L20.0429 0.714767ZM10.204 11.9616L4.90708 6.71163L3.49917 8.13212L8.79604 13.3821L10.204 11.9616ZM4.91023 6.71477C4.05096 5.8555 2.66779 5.8555 1.80852 6.71477L3.22273 8.12898C3.30096 8.05075 3.41779 8.05075 3.49602 8.12898L4.91023 6.71477ZM1.80852 6.71477L0.121017 8.40227L1.53523 9.81648L3.22273 8.12898L1.80852 6.71477ZM0.121017 8.40227C-0.738256 9.26154 -0.738256 10.6916 0.121017 11.5509L1.53523 10.1366C1.50402 10.1054 1.47656 10.0507 1.47656 9.97656C1.47656 9.90242 1.50402 9.84769 1.53523 9.81648L0.121017 8.40227ZM0.121017 11.5509L7.90227 19.3321L9.31648 17.9179L1.53523 10.1366L0.121017 11.5509Z" fill="black"/>
</svg>
