<svg width="27" height="26" viewBox="0 0 27 26" fill="none" xmlns="http://www.w3.org/2000/svg">
<path d="M22.3125 1.1875L21.9244 0.265865L21.9088 0.272442L21.8934 0.279541L22.3125 1.1875ZM2.8125 10.1875L3.22916 11.0966L3.23156 11.0955L2.8125 10.1875ZM11.9531 14.5469H12.9531V13.5469H11.9531V14.5469ZM16.3125 23.6875L15.4045 23.2684L15.4034 23.2708L16.3125 23.6875ZM25.3125 4.1875L26.2205 4.60656L26.2276 4.59118L26.2341 4.57556L25.3125 4.1875ZM21.8934 0.279541L2.39344 9.27954L3.23156 11.0955L22.7316 2.09546L21.8934 0.279541ZM2.39585 9.27843C-0.803955 10.745 0.209902 15.5469 3.70312 15.5469V13.5469C2.4151 13.5469 1.92896 11.6925 3.22915 11.0966L2.39585 9.27843ZM3.70312 15.5469H11.9531V13.5469H3.70312V15.5469ZM10.9531 14.5469V22.7969H12.9531V14.5469H10.9531ZM10.9531 22.7969C10.9531 26.2901 15.755 27.304 17.2216 24.1042L15.4034 23.2708C14.8075 24.571 12.9531 24.0849 12.9531 22.7969H10.9531ZM17.2205 24.1066L26.2205 4.60656L24.4045 3.76844L15.4045 23.2684L17.2205 24.1066ZM26.2341 4.57556C26.7992 3.23352 26.3137 1.876 25.4688 1.03117C24.624 0.186344 23.2665 -0.299202 21.9244 0.265865L22.7006 2.10913C23.1398 1.9242 23.6573 2.04803 24.0546 2.44539C24.452 2.84275 24.5758 3.36023 24.3909 3.79944L26.2341 4.57556Z" fill="black"/>
</svg>
