<svg width="8" height="24" viewBox="0 0 8 24" fill="none" xmlns="http://www.w3.org/2000/svg">
<path d="M4 8.625C2.125 8.625 0.625 10.1719 0.625 12C0.625 13.875 2.125 15.375 4 15.375C5.82812 15.375 7.375 13.875 7.375 12C7.375 10.1719 5.82812 8.625 4 8.625ZM0.625 3.75C0.625 5.625 2.125 7.125 4 7.125C5.82812 7.125 7.375 5.625 7.375 3.75C7.375 1.92188 5.82812 0.375 4 0.375C2.125 0.375 0.625 1.92188 0.625 3.75ZM0.625 20.25C0.625 22.125 2.125 23.625 4 23.625C5.82812 23.625 7.375 22.125 7.375 20.25C7.375 18.4219 5.82812 16.875 4 16.875C2.125 16.875 0.625 18.4219 0.625 20.25Z" fill="black"/>
</svg>
