<svg width="25" height="8" viewBox="0 0 25 8" fill="none" xmlns="http://www.w3.org/2000/svg">
<path d="M15.875 4C15.875 2.17188 14.3281 0.625 12.5 0.625C10.625 0.625 9.125 2.17188 9.125 4C9.125 5.875 10.625 7.375 12.5 7.375C14.3281 7.375 15.875 5.875 15.875 4ZM20.75 0.625C18.875 0.625 17.375 2.17188 17.375 4C17.375 5.875 18.875 7.375 20.75 7.375C22.5781 7.375 24.125 5.875 24.125 4C24.125 2.17188 22.5781 0.625 20.75 0.625ZM4.25 0.625C2.375 0.625 0.875 2.17188 0.875 4C0.875 5.875 2.375 7.375 4.25 7.375C6.07812 7.375 7.625 5.875 7.625 4C7.625 2.17188 6.07812 0.625 4.25 0.625Z" fill="black"/>
</svg>
