<svg width="7" height="24" viewBox="0 0 7 24" fill="none" xmlns="http://www.w3.org/2000/svg">
<path d="M3.5 7.625C1.06371 7.625 -0.875 9.62864 -0.875 12H1.125C1.125 10.7151 2.18629 9.625 3.5 9.625V7.625ZM-0.875 12C-0.875 14.4273 1.07272 16.375 3.5 16.375V14.375C2.17728 14.375 1.125 13.3227 1.125 12H-0.875ZM3.5 16.375C5.87136 16.375 7.875 14.4363 7.875 12H5.875C5.875 13.3137 4.78489 14.375 3.5 14.375V16.375ZM7.875 12C7.875 9.61959 5.88041 7.625 3.5 7.625V9.625C4.77584 9.625 5.875 10.7242 5.875 12H7.875ZM-0.875 3.75C-0.875 6.17728 1.07272 8.125 3.5 8.125V6.125C2.17728 6.125 1.125 5.07272 1.125 3.75H-0.875ZM3.5 8.125C5.87136 8.125 7.875 6.18629 7.875 3.75H5.875C5.875 5.06371 4.78489 6.125 3.5 6.125V8.125ZM7.875 3.75C7.875 1.36959 5.88041 -0.625 3.5 -0.625V1.375C4.77584 1.375 5.875 2.47416 5.875 3.75H7.875ZM3.5 -0.625C1.06371 -0.625 -0.875 1.37864 -0.875 3.75H1.125C1.125 2.46511 2.18629 1.375 3.5 1.375V-0.625ZM-0.875 20.25C-0.875 22.6773 1.07272 24.625 3.5 24.625V22.625C2.17728 22.625 1.125 21.5727 1.125 20.25H-0.875ZM3.5 24.625C5.87136 24.625 7.875 22.6863 7.875 20.25H5.875C5.875 21.5637 4.78489 22.625 3.5 22.625V24.625ZM7.875 20.25C7.875 17.8696 5.88041 15.875 3.5 15.875V17.875C4.77584 17.875 5.875 18.9742 5.875 20.25H7.875ZM3.5 15.875C1.06371 15.875 -0.875 17.8786 -0.875 20.25H1.125C1.125 18.9651 2.18629 17.875 3.5 17.875V15.875Z" fill="black"/>
</svg>
