<svg width="25" height="8" viewBox="0 0 25 8" fill="none" xmlns="http://www.w3.org/2000/svg">
<path d="M16.875 4C16.875 1.61959 14.8804 -0.375 12.5 -0.375V1.625C13.7758 1.625 14.875 2.72416 14.875 4H16.875ZM12.5 -0.375C10.0637 -0.375 8.125 1.62864 8.125 4H10.125C10.125 2.71511 11.1863 1.625 12.5 1.625V-0.375ZM8.125 4C8.125 6.42728 10.0727 8.375 12.5 8.375V6.375C11.1773 6.375 10.125 5.32272 10.125 4H8.125ZM12.5 8.375C14.8714 8.375 16.875 6.43629 16.875 4H14.875C14.875 5.31371 13.7849 6.375 12.5 6.375V8.375ZM20.75 -0.375C18.3137 -0.375 16.375 1.62864 16.375 4H18.375C18.375 2.71511 19.4363 1.625 20.75 1.625V-0.375ZM16.375 4C16.375 6.42728 18.3227 8.375 20.75 8.375V6.375C19.4273 6.375 18.375 5.32272 18.375 4H16.375ZM20.75 8.375C23.1214 8.375 25.125 6.43629 25.125 4H23.125C23.125 5.31371 22.0349 6.375 20.75 6.375V8.375ZM25.125 4C25.125 1.61959 23.1304 -0.375 20.75 -0.375V1.625C22.0258 1.625 23.125 2.72416 23.125 4H25.125ZM4.25 -0.375C1.81371 -0.375 -0.125 1.62864 -0.125 4H1.875C1.875 2.71511 2.93629 1.625 4.25 1.625V-0.375ZM-0.125 4C-0.125 6.42728 1.82272 8.375 4.25 8.375V6.375C2.92728 6.375 1.875 5.32272 1.875 4H-0.125ZM4.25 8.375C6.62136 8.375 8.625 6.43629 8.625 4H6.625C6.625 5.31371 5.53489 6.375 4.25 6.375V8.375ZM8.625 4C8.625 1.61959 6.63041 -0.375 4.25 -0.375V1.625C5.52584 1.625 6.625 2.72416 6.625 4H8.625Z" fill="black"/>
</svg>
