<svg width="25" height="26" viewBox="0 0 25 26" fill="none" xmlns="http://www.w3.org/2000/svg">
<path d="M14.0938 5.40625L14.8009 4.69914L14.0938 3.99203L13.3866 4.69914L14.0938 5.40625ZM1.0625 18.4375L0.355392 17.7304L0.105057 17.9807L0.0679932 18.3328L1.0625 18.4375ZM0.5 23.7812L1.49123 23.9134L1.49306 23.8997L1.49451 23.8859L0.5 23.7812ZM1.71875 25L1.61407 24.0055L1.6003 24.0069L1.58659 24.0088L1.71875 25ZM7.0625 24.4375L7.16718 25.432L7.51927 25.3949L7.76961 25.1446L7.0625 24.4375ZM20.0938 11.4062L20.8009 12.1134L21.508 11.4062L20.8009 10.6991L20.0938 11.4062ZM23.7969 4.51562L23.0898 5.22273L23.0993 5.23228L23.1091 5.24158L23.7969 4.51562ZM20.9844 1.70312L20.2584 2.39087L20.2677 2.40068L20.2773 2.41023L20.9844 1.70312ZM15.1719 4.32812L14.4648 3.62102L13.7577 4.32812L14.4648 5.03523L15.1719 4.32812ZM21.1719 10.3281L20.4648 11.0352L21.1719 11.7423L21.879 11.0352L21.1719 10.3281ZM13.3866 4.69914L0.355392 17.7304L1.76961 19.1446L14.8009 6.11336L13.3866 4.69914ZM0.0679932 18.3328L-0.494507 23.6766L1.49451 23.8859L2.05701 18.5422L0.0679932 18.3328ZM-0.491226 23.6491C-0.672062 25.0053 0.494671 26.1721 1.85091 25.9912L1.58659 24.0088C1.57263 24.0106 1.56265 24.009 1.55343 24.0058C1.54261 24.0019 1.5297 23.9944 1.51765 23.9823C1.50561 23.9703 1.49809 23.9574 1.49425 23.9466C1.49097 23.9373 1.48937 23.9274 1.49123 23.9134L-0.491226 23.6491ZM1.82343 25.9945L7.16718 25.432L6.95782 23.443L1.61407 24.0055L1.82343 25.9945ZM7.76961 25.1446L20.8009 12.1134L19.3866 10.6991L6.35539 23.7304L7.76961 25.1446ZM20.8009 10.6991L14.8009 4.69914L13.3866 6.11336L19.3866 12.1134L20.8009 10.6991ZM24.504 3.80852L21.6915 0.996017L20.2773 2.41023L23.0898 5.22273L24.504 3.80852ZM21.7103 1.01538C20.4618 -0.302483 18.36 -0.274231 17.0898 0.996017L18.504 2.41023C19.015 1.89923 19.8194 1.92748 20.2584 2.39087L21.7103 1.01538ZM17.0898 0.996017L14.4648 3.62102L15.879 5.03523L18.504 2.41023L17.0898 0.996017ZM14.4648 5.03523L20.4648 11.0352L21.879 9.62102L15.879 3.62102L14.4648 5.03523ZM21.879 11.0352L24.504 8.41023L23.0898 6.99602L20.4648 9.62102L21.879 11.0352ZM24.504 8.41023C25.7742 7.13998 25.8025 5.03817 24.4846 3.78967L23.1091 5.24158C23.5725 5.68058 23.6008 6.48502 23.0898 6.99602L24.504 8.41023Z" fill="black"/>
</svg>
