<svg width="24" height="25" viewBox="0 0 24 25" fill="none" xmlns="http://www.w3.org/2000/svg">
<path d="M5.4375 4.60938L4.47598 4.33466L3.92737 6.25477L5.7935 5.54386L5.4375 4.60938ZM5.57812 3.48438H6.57812V3.46652L6.57749 3.44868L5.57812 3.48438ZM3.09375 1.04688L3.03137 2.04493L3.0447 2.04576L3.05806 2.04624L3.09375 1.04688ZM1.5 5.78125H2.5V5.24607L2.0547 4.9492L1.5 5.78125ZM4.5 19.4688L4.10608 18.5496L3.5 18.8094V19.4688H4.5ZM23.3438 18.1562L23.8984 18.9883L23.9215 18.9729L23.9437 18.9563L23.3438 18.1562ZM21.8438 4.14062L21.4498 3.22148L21.4338 3.22836L21.418 3.23581L21.8438 4.14062ZM16.3594 4.64062C15.2896 4.64062 14.3075 4.29716 13.0383 3.87209C11.8068 3.45963 10.3715 3 8.625 3V5C10.0191 5 11.1854 5.36068 12.4031 5.76854C13.5832 6.16377 14.8979 6.64062 16.3594 6.64062V4.64062ZM8.625 3C7.31145 3 6.15924 3.26432 5.0815 3.67489L5.7935 5.54386C6.68451 5.20443 7.5948 5 8.625 5V3ZM6.39902 4.88409C6.51307 4.48495 6.57812 4.11021 6.57812 3.67188H4.57812C4.57812 3.88979 4.54943 4.07755 4.47598 4.33466L6.39902 4.88409ZM6.57812 3.67188C6.57812 3.67169 6.57812 3.67151 6.57812 3.67133C6.57812 3.67114 6.57812 3.67096 6.57812 3.67078C6.57812 3.6706 6.57812 3.67041 6.57812 3.67023C6.57812 3.67005 6.57812 3.66987 6.57812 3.66969C6.57812 3.66951 6.57812 3.66932 6.57812 3.66914C6.57812 3.66896 6.57812 3.66878 6.57812 3.6686C6.57812 3.66842 6.57812 3.66824 6.57812 3.66806C6.57812 3.66788 6.57812 3.66769 6.57812 3.66751C6.57812 3.66734 6.57812 3.66715 6.57812 3.66697C6.57812 3.66679 6.57812 3.66661 6.57812 3.66644C6.57812 3.66626 6.57812 3.66608 6.57812 3.6659C6.57812 3.66572 6.57812 3.66554 6.57812 3.66536C6.57812 3.66518 6.57812 3.665 6.57812 3.66483C6.57812 3.66465 6.57812 3.66447 6.57812 3.66429C6.57812 3.66411 6.57812 3.66393 6.57812 3.66375C6.57812 3.66358 6.57812 3.6634 6.57812 3.66322C6.57812 3.66304 6.57812 3.66287 6.57812 3.66269C6.57812 3.66251 6.57812 3.66233 6.57812 3.66216C6.57812 3.66198 6.57812 3.6618 6.57812 3.66163C6.57812 3.66145 6.57812 3.66128 6.57812 3.6611C6.57812 3.66092 6.57812 3.66075 6.57812 3.66057C6.57812 3.6604 6.57812 3.66022 6.57812 3.66005C6.57812 3.65987 6.57812 3.65969 6.57812 3.65952C6.57812 3.65934 6.57812 3.65917 6.57812 3.659C6.57812 3.65882 6.57812 3.65865 6.57812 3.65847C6.57812 3.6583 6.57812 3.65812 6.57812 3.65795C6.57812 3.65778 6.57812 3.6576 6.57812 3.65743C6.57812 3.65725 6.57812 3.65708 6.57812 3.65691C6.57812 3.65673 6.57812 3.65656 6.57812 3.65639C6.57812 3.65622 6.57812 3.65604 6.57812 3.65587C6.57812 3.6557 6.57812 3.65553 6.57812 3.65535C6.57812 3.65518 6.57812 3.65501 6.57812 3.65483C6.57812 3.65466 6.57812 3.65449 6.57812 3.65432C6.57812 3.65415 6.57812 3.65398 6.57812 3.6538C6.57812 3.65363 6.57812 3.65346 6.57812 3.65329C6.57812 3.65312 6.57812 3.65295 6.57812 3.65278C6.57812 3.65261 6.57812 3.65244 6.57812 3.65227C6.57812 3.6521 6.57812 3.65193 6.57812 3.65176C6.57812 3.65158 6.57812 3.65142 6.57812 3.65125C6.57812 3.65108 6.57812 3.65091 6.57812 3.65074C6.57812 3.65057 6.57812 3.6504 6.57812 3.65023C6.57812 3.65006 6.57812 3.64989 6.57812 3.64972C6.57812 3.64956 6.57812 3.64939 6.57812 3.64922C6.57812 3.64905 6.57812 3.64888 6.57812 3.64871C6.57812 3.64854 6.57812 3.64838 6.57812 3.64821C6.57812 3.64804 6.57812 3.64788 6.57812 3.64771C6.57812 3.64754 6.57812 3.64737 6.57812 3.64721C6.57812 3.64704 6.57812 3.64687 6.57812 3.64671C6.57812 3.64654 6.57812 3.64637 6.57812 3.64621C6.57812 3.64604 6.57812 3.64587 6.57812 3.64571C6.57812 3.64554 6.57812 3.64537 6.57812 3.64521C6.57812 3.64504 6.57812 3.64488 6.57812 3.64471C6.57812 3.64455 6.57812 3.64438 6.57812 3.64421C6.57812 3.64405 6.57812 3.64389 6.57812 3.64372C6.57812 3.64355 6.57812 3.64339 6.57812 3.64323C6.57812 3.64306 6.57812 3.6429 6.57812 3.64273C6.57812 3.64257 6.57812 3.64241 6.57812 3.64224C6.57812 3.64208 6.57812 3.64191 6.57812 3.64175C6.57812 3.64159 6.57812 3.64143 6.57812 3.64126C6.57812 3.6411 6.57812 3.64093 6.57812 3.64077C6.57812 3.64061 6.57812 3.64045 6.57812 3.64028C6.57812 3.64012 6.57812 3.63996 6.57812 3.6398C6.57812 3.63963 6.57812 3.63947 6.57812 3.63931C6.57812 3.63915 6.57812 3.63898 6.57812 3.63882C6.57812 3.63866 6.57812 3.6385 6.57812 3.63834C6.57812 3.63818 6.57812 3.63802 6.57812 3.63786C6.57812 3.6377 6.57812 3.63754 6.57812 3.63737C6.57812 3.63721 6.57812 3.63705 6.57812 3.63689C6.57812 3.63673 6.57812 3.63657 6.57812 3.63641C6.57812 3.63625 6.57812 3.63609 6.57812 3.63593C6.57812 3.63577 6.57812 3.63561 6.57812 3.63545C6.57812 3.63529 6.57812 3.63514 6.57812 3.63498C6.57812 3.63482 6.57812 3.63465 6.57812 3.6345C6.57812 3.63434 6.57812 3.63418 6.57812 3.63402C6.57812 3.63386 6.57812 3.63371 6.57812 3.63354C6.57812 3.63339 6.57812 3.63323 6.57812 3.63307C6.57812 3.63292 6.57812 3.63276 6.57812 3.6326C6.57812 3.63244 6.57812 3.63228 6.57812 3.63213C6.57812 3.63197 6.57812 3.63181 6.57812 3.63166C6.57812 3.6315 6.57812 3.63134 6.57812 3.63118C6.57812 3.63103 6.57812 3.63087 6.57812 3.63071C6.57812 3.63056 6.57812 3.6304 6.57812 3.63025C6.57812 3.63009 6.57812 3.62993 6.57812 3.62978C6.57812 3.62962 6.57812 3.62947 6.57812 3.62931C6.57812 3.62915 6.57812 3.629 6.57812 3.62885C6.57812 3.62869 6.57812 3.62853 6.57812 3.62838C6.57812 3.62822 6.57812 3.62807 6.57812 3.62791C6.57812 3.62776 6.57812 3.62761 6.57812 3.62745C6.57812 3.6273 6.57812 3.62714 6.57812 3.62699C6.57812 3.62683 6.57812 3.62668 6.57812 3.62653C6.57812 3.62637 6.57812 3.62622 6.57812 3.62607C6.57812 3.62591 6.57812 3.62576 6.57812 3.62561C6.57812 3.62545 6.57812 3.6253 6.57812 3.62515C6.57812 3.625 6.57812 3.62484 6.57812 3.62469C6.57812 3.62454 6.57812 3.62439 6.57812 3.62423C6.57812 3.62408 6.57812 3.62393 6.57812 3.62378C6.57812 3.62362 6.57812 3.62347 6.57812 3.62332C6.57812 3.62317 6.57812 3.62302 6.57812 3.62286C6.57812 3.62271 6.57812 3.62256 6.57812 3.62241C6.57812 3.62226 6.57812 3.62211 6.57812 3.62196C6.57812 3.62181 6.57812 3.62166 6.57812 3.62151C6.57812 3.62136 6.57812 3.6212 6.57812 3.62106C6.57812 3.62091 6.57812 3.62075 6.57812 3.62061C6.57812 3.62046 6.57812 3.6203 6.57812 3.62016C6.57812 3.62001 6.57812 3.61986 6.57812 3.61971C6.57812 3.61956 6.57812 3.61941 6.57812 3.61926C6.57812 3.61911 6.57812 3.61896 6.57812 3.61881C6.57812 3.61866 6.57812 3.61852 6.57812 3.61837C6.57812 3.61822 6.57812 3.61807 6.57812 3.61792C6.57812 3.61777 6.57812 3.61763 6.57812 3.61748C6.57812 3.61733 6.57812 3.61718 6.57812 3.61703C6.57812 3.61689 6.57812 3.61674 6.57812 3.61659C6.57812 3.61644 6.57812 3.61629 6.57812 3.61615C6.57812 3.616 6.57812 3.61585 6.57812 3.61571C6.57812 3.61556 6.57812 3.61541 6.57812 3.61527C6.57812 3.61512 6.57812 3.61497 6.57812 3.61483C6.57812 3.61468 6.57812 3.61454 6.57812 3.61439C6.57812 3.61424 6.57812 3.6141 6.57812 3.61395C6.57812 3.6138 6.57812 3.61366 6.57812 3.61351C6.57812 3.61337 6.57812 3.61322 6.57812 3.61308C6.57812 3.61293 6.57812 3.61279 6.57812 3.61264C6.57812 3.6125 6.57812 3.61235 6.57812 3.61221C6.57812 3.61206 6.57812 3.61192 6.57812 3.61177C6.57812 3.61163 6.57812 3.61148 6.57812 3.61134C6.57812 3.6112 6.57812 3.61105 6.57812 3.61091C6.57812 3.61077 6.57812 3.61062 6.57812 3.61048C6.57812 3.61034 6.57812 3.61019 6.57812 3.61005C6.57812 3.60991 6.57812 3.60976 6.57812 3.60962C6.57812 3.60947 6.57812 3.60933 6.57812 3.60919C6.57812 3.60905 6.57812 3.60891 6.57812 3.60876C6.57812 3.60862 6.57812 3.60848 6.57812 3.60833C6.57812 3.60819 6.57812 3.60805 6.57812 3.60791C6.57812 3.60777 6.57812 3.60762 6.57812 3.60748C6.57812 3.60734 6.57812 3.6072 6.57812 3.60706C6.57812 3.60692 6.57812 3.60678 6.57812 3.60664C6.57812 3.60649 6.57812 3.60635 6.57812 3.60621C6.57812 3.60607 6.57812 3.60593 6.57812 3.60579C6.57812 3.60565 6.57812 3.60551 6.57812 3.60537C6.57812 3.60523 6.57812 3.60509 6.57812 3.60495C6.57812 3.6048 6.57812 3.60467 6.57812 3.60453C6.57812 3.60439 6.57812 3.60425 6.57812 3.60411C6.57812 3.60397 6.57812 3.60383 6.57812 3.60369C6.57812 3.60355 6.57812 3.60341 6.57812 3.60327C6.57812 3.60313 6.57812 3.60299 6.57812 3.60286C6.57812 3.60271 6.57812 3.60258 6.57812 3.60244C6.57812 3.6023 6.57812 3.60216 6.57812 3.60202C6.57812 3.60188 6.57812 3.60175 6.57812 3.60161C6.57812 3.60147 6.57812 3.60133 6.57812 3.60119C6.57812 3.60106 6.57812 3.60092 6.57812 3.60078C6.57812 3.60064 6.57812 3.60051 6.57812 3.60037C6.57812 3.60023 6.57812 3.60009 6.57812 3.59996C6.57812 3.59982 6.57812 3.59968 6.57812 3.59954C6.57812 3.59941 6.57812 3.59927 6.57812 3.59914C6.57812 3.599 6.57812 3.59886 6.57812 3.59873C6.57812 3.59859 6.57812 3.59845 6.57812 3.59832C6.57812 3.59818 6.57812 3.59805 6.57812 3.59791C6.57812 3.59777 6.57812 3.59764 6.57812 3.5975C6.57812 3.59737 6.57812 3.59723 6.57812 3.5971C6.57812 3.59696 6.57812 3.59683 6.57812 3.59669C6.57812 3.59656 6.57812 3.59642 6.57812 3.59629C6.57812 3.59615 6.57812 3.59602 6.57812 3.59588C6.57812 3.59575 6.57812 3.59562 6.57812 3.59548C6.57812 3.59534 6.57812 3.59521 6.57812 3.59508C6.57812 3.59494 6.57812 3.59481 6.57812 3.59467C6.57812 3.59454 6.57812 3.59441 6.57812 3.59427C6.57812 3.59414 6.57812 3.59401 6.57812 3.59387C6.57812 3.59374 6.57812 3.59361 6.57812 3.59347C6.57812 3.59334 6.57812 3.59321 6.57812 3.59307C6.57812 3.59294 6.57812 3.59281 6.57812 3.59267C6.57812 3.59254 6.57812 3.59241 6.57812 3.59228C6.57812 3.59215 6.57812 3.59201 6.57812 3.59188C6.57812 3.59175 6.57812 3.59162 6.57812 3.59148C6.57812 3.59135 6.57812 3.59122 6.57812 3.59109C6.57812 3.59096 6.57812 3.59083 6.57812 3.59069C6.57812 3.59056 6.57812 3.59043 6.57812 3.5903C6.57812 3.59017 6.57812 3.59004 6.57812 3.58991C6.57812 3.58978 6.57812 3.58965 6.57812 3.58952C6.57812 3.58939 6.57812 3.58925 6.57812 3.58912C6.57812 3.58899 6.57812 3.58886 6.57812 3.58873C6.57812 3.5886 6.57812 3.58847 6.57812 3.58834C6.57812 3.58821 6.57812 3.58808 6.57812 3.58795C6.57812 3.58782 6.57812 3.58769 6.57812 3.58756C6.57812 3.58743 6.57812 3.5873 6.57812 3.58717C6.57812 3.58704 6.57812 3.58692 6.57812 3.58679C6.57812 3.58666 6.57812 3.58653 6.57812 3.5864C6.57812 3.58627 6.57812 3.58614 6.57812 3.58601C6.57812 3.58588 6.57812 3.58576 6.57812 3.58563C6.57812 3.5855 6.57812 3.58537 6.57812 3.58524C6.57812 3.58511 6.57812 3.58499 6.57812 3.58486C6.57812 3.58473 6.57812 3.5846 6.57812 3.58448C6.57812 3.58435 6.57812 3.58422 6.57812 3.58409C6.57812 3.58397 6.57812 3.58384 6.57812 3.58371C6.57812 3.58358 6.57812 3.58345 6.57812 3.58333C6.57812 3.5832 6.57812 3.58307 6.57812 3.58295C6.57812 3.58282 6.57812 3.5827 6.57812 3.58257C6.57812 3.58244 6.57812 3.58231 6.57812 3.58219C6.57812 3.58206 6.57812 3.58194 6.57812 3.58181C6.57812 3.58168 6.57812 3.58155 6.57812 3.58143C6.57812 3.5813 6.57812 3.58118 6.57812 3.58105C6.57812 3.58092 6.57812 3.5808 6.57812 3.58068C6.57812 3.58055 6.57812 3.58043 6.57812 3.5803C6.57812 3.58017 6.57812 3.58005 6.57812 3.57992C6.57812 3.5798 6.57812 3.57967 6.57812 3.57955C6.57812 3.57942 6.57812 3.5793 6.57812 3.57917C6.57812 3.57905 6.57812 3.57893 6.57812 3.5788C6.57812 3.57867 6.57812 3.57855 6.57812 3.57843C6.57812 3.5783 6.57812 3.57818 6.57812 3.57806C6.57812 3.57793 6.57812 3.57781 6.57812 3.57768C6.57812 3.57756 6.57812 3.57743 6.57812 3.57731C6.57812 3.57719 6.57812 3.57706 6.57812 3.57694C6.57812 3.57682 6.57812 3.57669 6.57812 3.57657C6.57812 3.57645 6.57812 3.57632 6.57812 3.5762C6.57812 3.57608 6.57812 3.57595 6.57812 3.57583C6.57812 3.57571 6.57812 3.57559 6.57812 3.57547C6.57812 3.57534 6.57812 3.57522 6.57812 3.5751C6.57812 3.57497 6.57812 3.57485 6.57812 3.57473C6.57812 3.57461 6.57812 3.57449 6.57812 3.57436C6.57812 3.57424 6.57812 3.57412 6.57812 3.574C6.57812 3.57388 6.57812 3.57376 6.57812 3.57364C6.57812 3.57351 6.57812 3.57339 6.57812 3.57327C6.57812 3.57315 6.57812 3.57303 6.57812 3.57291C6.57812 3.57278 6.57812 3.57267 6.57812 3.57254C6.57812 3.57242 6.57812 3.5723 6.57812 3.57218C6.57812 3.57206 6.57812 3.57194 6.57812 3.57182C6.57812 3.5717 6.57812 3.57158 6.57812 3.57146C6.57812 3.57134 6.57812 3.57122 6.57812 3.5711C6.57812 3.57098 6.57812 3.57086 6.57812 3.57074C6.57812 3.57062 6.57812 3.5705 6.57812 3.57038C6.57812 3.57026 6.57812 3.57014 6.57812 3.57002C6.57812 3.5699 6.57812 3.56978 6.57812 3.56966C6.57812 3.56954 6.57812 3.56942 6.57812 3.5693C6.57812 3.56918 6.57812 3.56907 6.57812 3.56895C6.57812 3.56883 6.57812 3.56871 6.57812 3.56859C6.57812 3.56847 6.57812 3.56835 6.57812 3.56823C6.57812 3.56812 6.57812 3.568 6.57812 3.56788C6.57812 3.56776 6.57812 3.56764 6.57812 3.56752C6.57812 3.56741 6.57812 3.56729 6.57812 3.56717C6.57812 3.56705 6.57812 3.56693 6.57812 3.56681C6.57812 3.5667 6.57812 3.56658 6.57812 3.56646C6.57812 3.56635 6.57812 3.56623 6.57812 3.56611C6.57812 3.56599 6.57812 3.56588 6.57812 3.56576C6.57812 3.56564 6.57812 3.56553 6.57812 3.56541C6.57812 3.56529 6.57812 3.56517 6.57812 3.56506C6.57812 3.56494 6.57812 3.56482 6.57812 3.5647C6.57812 3.56459 6.57812 3.56447 6.57812 3.56436C6.57812 3.56424 6.57812 3.56413 6.57812 3.56401C6.57812 3.56389 6.57812 3.56377 6.57812 3.56366C6.57812 3.56354 6.57812 3.56343 6.57812 3.56331C6.57812 3.56319 6.57812 3.56308 6.57812 3.56296C6.57812 3.56285 6.57812 3.56273 6.57812 3.56262C6.57812 3.5625 6.57812 3.56239 6.57812 3.56227C6.57812 3.56216 6.57812 3.56204 6.57812 3.56192C6.57812 3.56181 6.57812 3.5617 6.57812 3.56158C6.57812 3.56146 6.57812 3.56135 6.57812 3.56123C6.57812 3.56112 6.57812 3.561 6.57812 3.56089C6.57812 3.56078 6.57812 3.56066 6.57812 3.56055C6.57812 3.56043 6.57812 3.56032 6.57812 3.5602C6.57812 3.56009 6.57812 3.55997 6.57812 3.55986C6.57812 3.55975 6.57812 3.55963 6.57812 3.55952C6.57812 3.55941 6.57812 3.55929 6.57812 3.55918C6.57812 3.55906 6.57812 3.55895 6.57812 3.55884C6.57812 3.55872 6.57812 3.55861 6.57812 3.5585C6.57812 3.55838 6.57812 3.55827 6.57812 3.55816C6.57812 3.55804 6.57812 3.55793 6.57812 3.55782C6.57812 3.5577 6.57812 3.55759 6.57812 3.55748C6.57812 3.55737 6.57812 3.55725 6.57812 3.55714C6.57812 3.55703 6.57812 3.55692 6.57812 3.5568C6.57812 3.55669 6.57812 3.55658 6.57812 3.55647C6.57812 3.55635 6.57812 3.55624 6.57812 3.55613C6.57812 3.55602 6.57812 3.5559 6.57812 3.55579C6.57812 3.55568 6.57812 3.55557 6.57812 3.55546C6.57812 3.55534 6.57812 3.55523 6.57812 3.55512C6.57812 3.55501 6.57812 3.5549 6.57812 3.55479C6.57812 3.55468 6.57812 3.55456 6.57812 3.55445C6.57812 3.55434 6.57812 3.55423 6.57812 3.55412C6.57812 3.55401 6.57812 3.55389 6.57812 3.55378C6.57812 3.55367 6.57812 3.55356 6.57812 3.55345C6.57812 3.55334 6.57812 3.55323 6.57812 3.55312C6.57812 3.55301 6.57812 3.5529 6.57812 3.55279C6.57812 3.55268 6.57812 3.55257 6.57812 3.55246C6.57812 3.55235 6.57812 3.55223 6.57812 3.55213C6.57812 3.55202 6.57812 3.55191 6.57812 3.5518C6.57812 3.55169 6.57812 3.55157 6.57812 3.55146C6.57812 3.55136 6.57812 3.55125 6.57812 3.55114C6.57812 3.55103 6.57812 3.55092 6.57812 3.55081C6.57812 3.5507 6.57812 3.55059 6.57812 3.55048C6.57812 3.55037 6.57812 3.55026 6.57812 3.55015C6.57812 3.55004 6.57812 3.54993 6.57812 3.54982C6.57812 3.54971 6.57812 3.54961 6.57812 3.5495C6.57812 3.54939 6.57812 3.54928 6.57812 3.54917C6.57812 3.54906 6.57812 3.54895 6.57812 3.54884C6.57812 3.54874 6.57812 3.54863 6.57812 3.54852C6.57812 3.54841 6.57812 3.5483 6.57812 3.54819C6.57812 3.54808 6.57812 3.54798 6.57812 3.54787C6.57812 3.54776 6.57812 3.54765 6.57812 3.54755C6.57812 3.54744 6.57812 3.54733 6.57812 3.54722C6.57812 3.54711 6.57812 3.547 6.57812 3.5469C6.57812 3.54679 6.57812 3.54668 6.57812 3.54657C6.57812 3.54647 6.57812 3.54636 6.57812 3.54625C6.57812 3.54615 6.57812 3.54604 6.57812 3.54593C6.57812 3.54582 6.57812 3.54572 6.57812 3.54561C6.57812 3.5455 6.57812 3.54539 6.57812 3.54529C6.57812 3.54518 6.57812 3.54507 6.57812 3.54497C6.57812 3.54486 6.57812 3.54475 6.57812 3.54465C6.57812 3.54454 6.57812 3.54443 6.57812 3.54433C6.57812 3.54422 6.57812 3.54411 6.57812 3.54401C6.57812 3.5439 6.57812 3.5438 6.57812 3.54369C6.57812 3.54358 6.57812 3.54348 6.57812 3.54337C6.57812 3.54326 6.57812 3.54316 6.57812 3.54305C6.57812 3.54295 6.57812 3.54284 6.57812 3.54274C6.57812 3.54263 6.57812 3.54252 6.57812 3.54242C6.57812 3.54231 6.57812 3.54221 6.57812 3.5421C6.57812 3.542 6.57812 3.54189 6.57812 3.54178C6.57812 3.54168 6.57812 3.54157 6.57812 3.54147C6.57812 3.54136 6.57812 3.54126 6.57812 3.54115C6.57812 3.54105 6.57812 3.54094 6.57812 3.54084C6.57812 3.54073 6.57812 3.54063 6.57812 3.54052C6.57812 3.54042 6.57812 3.54031 6.57812 3.54021C6.57812 3.5401 6.57812 3.54 6.57812 3.53989C6.57812 3.53979 6.57812 3.53968 6.57812 3.53958C6.57812 3.53948 6.57812 3.53937 6.57812 3.53927C6.57812 3.53917 6.57812 3.53906 6.57812 3.53896C6.57812 3.53885 6.57812 3.53875 6.57812 3.53864C6.57812 3.53854 6.57812 3.53844 6.57812 3.53833C6.57812 3.53823 6.57812 3.53812 6.57812 3.53802C6.57812 3.53791 6.57812 3.53781 6.57812 3.53771C6.57812 3.53761 6.57812 3.5375 6.57812 3.5374C6.57812 3.5373 6.57812 3.53719 6.57812 3.53709C6.57812 3.53698 6.57812 3.53688 6.57812 3.53678C6.57812 3.53667 6.57812 3.53657 6.57812 3.53647C6.57812 3.53637 6.57812 3.53626 6.57812 3.53616C6.57812 3.53606 6.57812 3.53595 6.57812 3.53585C6.57812 3.53575 6.57812 3.53564 6.57812 3.53554C6.57812 3.53544 6.57812 3.53534 6.57812 3.53523C6.57812 3.53513 6.57812 3.53503 6.57812 3.53493C6.57812 3.53482 6.57812 3.53472 6.57812 3.53462C6.57812 3.53452 6.57812 3.53441 6.57812 3.53431C6.57812 3.53421 6.57812 3.53411 6.57812 3.534C6.57812 3.53391 6.57812 3.5338 6.57812 3.5337C6.57812 3.5336 6.57812 3.5335 6.57812 3.53339C6.57812 3.53329 6.57812 3.53319 6.57812 3.53309C6.57812 3.53299 6.57812 3.53288 6.57812 3.53278C6.57812 3.53268 6.57812 3.53258 6.57812 3.53248C6.57812 3.53238 6.57812 3.53228 6.57812 3.53217C6.57812 3.53207 6.57812 3.53197 6.57812 3.53187C6.57812 3.53177 6.57812 3.53167 6.57812 3.53157C6.57812 3.53146 6.57812 3.53136 6.57812 3.53126C6.57812 3.53116 6.57812 3.53106 6.57812 3.53096C6.57812 3.53086 6.57812 3.53076 6.57812 3.53065C6.57812 3.53056 6.57812 3.53046 6.57812 3.53035C6.57812 3.53025 6.57812 3.53015 6.57812 3.53005C6.57812 3.52995 6.57812 3.52985 6.57812 3.52975C6.57812 3.52965 6.57812 3.52955 6.57812 3.52945C6.57812 3.52935 6.57812 3.52925 6.57812 3.52915C6.57812 3.52905 6.57812 3.52895 6.57812 3.52885C6.57812 3.52875 6.57812 3.52865 6.57812 3.52855C6.57812 3.52845 6.57812 3.52835 6.57812 3.52825C6.57812 3.52815 6.57812 3.52805 6.57812 3.52795C6.57812 3.52785 6.57812 3.52775 6.57812 3.52765C6.57812 3.52755 6.57812 3.52745 6.57812 3.52735C6.57812 3.52725 6.57812 3.52715 6.57812 3.52705C6.57812 3.52695 6.57812 3.52685 6.57812 3.52675C6.57812 3.52665 6.57812 3.52655 6.57812 3.52645C6.57812 3.52636 6.57812 3.52626 6.57812 3.52616C6.57812 3.52606 6.57812 3.52596 6.57812 3.52586C6.57812 3.52576 6.57812 3.52566 6.57812 3.52556C6.57812 3.52546 6.57812 3.52536 6.57812 3.52526C6.57812 3.52517 6.57812 3.52507 6.57812 3.52497C6.57812 3.52487 6.57812 3.52477 6.57812 3.52467C6.57812 3.52457 6.57812 3.52448 6.57812 3.52438C6.57812 3.52428 6.57812 3.52418 6.57812 3.52408C6.57812 3.52398 6.57812 3.52388 6.57812 3.52378C6.57812 3.52369 6.57812 3.52359 6.57812 3.52349C6.57812 3.52339 6.57812 3.52329 6.57812 3.5232C6.57812 3.5231 6.57812 3.523 6.57812 3.5229C6.57812 3.5228 6.57812 3.52271 6.57812 3.52261C6.57812 3.52251 6.57812 3.52241 6.57812 3.52231C6.57812 3.52222 6.57812 3.52212 6.57812 3.52202C6.57812 3.52192 6.57812 3.52182 6.57812 3.52172C6.57812 3.52163 6.57812 3.52153 6.57812 3.52143C6.57812 3.52134 6.57812 3.52124 6.57812 3.52114C6.57812 3.52104 6.57812 3.52095 6.57812 3.52085C6.57812 3.52075 6.57812 3.52065 6.57812 3.52056C6.57812 3.52046 6.57812 3.52036 6.57812 3.52026C6.57812 3.52016 6.57812 3.52007 6.57812 3.51997C6.57812 3.51987 6.57812 3.51978 6.57812 3.51968C6.57812 3.51958 6.57812 3.51949 6.57812 3.51939C6.57812 3.51929 6.57812 3.5192 6.57812 3.5191C6.57812 3.519 6.57812 3.51891 6.57812 3.51881C6.57812 3.51871 6.57812 3.51862 6.57812 3.51852C6.57812 3.51842 6.57812 3.51833 6.57812 3.51823C6.57812 3.51813 6.57812 3.51804 6.57812 3.51794C6.57812 3.51784 6.57812 3.51775 6.57812 3.51765C6.57812 3.51755 6.57812 3.51746 6.57812 3.51736C6.57812 3.51726 6.57812 3.51717 6.57812 3.51707C6.57812 3.51697 6.57812 3.51688 6.57812 3.51678C6.57812 3.51669 6.57812 3.51659 6.57812 3.51649C6.57812 3.5164 6.57812 3.5163 6.57812 3.5162C6.57812 3.51611 6.57812 3.51601 6.57812 3.51591C6.57812 3.51582 6.57812 3.51572 6.57812 3.51563C6.57812 3.51553 6.57812 3.51543 6.57812 3.51534C6.57812 3.51524 6.57812 3.51515 6.57812 3.51505C6.57812 3.51496 6.57812 3.51486 6.57812 3.51477C6.57812 3.51467 6.57812 3.51457 6.57812 3.51448C6.57812 3.51438 6.57812 3.51429 6.57812 3.51419C6.57812 3.5141 6.57812 3.514 6.57812 3.5139C6.57812 3.51381 6.57812 3.51371 6.57812 3.51362C6.57812 3.51352 6.57812 3.51343 6.57812 3.51333C6.57812 3.51324 6.57812 3.51314 6.57812 3.51305C6.57812 3.51295 6.57812 3.51286 6.57812 3.51276C6.57812 3.51266 6.57812 3.51257 6.57812 3.51247C6.57812 3.51238 6.57812 3.51228 6.57812 3.51219C6.57812 3.5121 6.57812 3.512 6.57812 3.51191C6.57812 3.51181 6.57812 3.51171 6.57812 3.51162C6.57812 3.51152 6.57812 3.51143 6.57812 3.51134C6.57812 3.51124 6.57812 3.51115 6.57812 3.51105C6.57812 3.51096 6.57812 3.51086 6.57812 3.51077C6.57812 3.51067 6.57812 3.51058 6.57812 3.51048C6.57812 3.51039 6.57812 3.51029 6.57812 3.5102C6.57812 3.51011 6.57812 3.51001 6.57812 3.50991C6.57812 3.50982 6.57812 3.50973 6.57812 3.50963C6.57812 3.50954 6.57812 3.50944 6.57812 3.50935C6.57812 3.50925 6.57812 3.50916 6.57812 3.50907C6.57812 3.50897 6.57812 3.50888 6.57812 3.50878C6.57812 3.50869 6.57812 3.50859 6.57812 3.5085C6.57812 3.50841 6.57812 3.50831 6.57812 3.50822C6.57812 3.50813 6.57812 3.50803 6.57812 3.50793C6.57812 3.50784 6.57812 3.50775 6.57812 3.50765C6.57812 3.50756 6.57812 3.50747 6.57812 3.50737C6.57812 3.50728 6.57812 3.50718 6.57812 3.50709C6.57812 3.507 6.57812 3.5069 6.57812 3.50681C6.57812 3.50671 6.57812 3.50662 6.57812 3.50653C6.57812 3.50643 6.57812 3.50634 6.57812 3.50624C6.57812 3.50615 6.57812 3.50606 6.57812 3.50596C6.57812 3.50587 6.57812 3.50578 6.57812 3.50568C6.57812 3.50559 6.57812 3.5055 6.57812 3.5054C6.57812 3.50531 6.57812 3.50521 6.57812 3.50512C6.57812 3.50503 6.57812 3.50494 6.57812 3.50484C6.57812 3.50475 6.57812 3.50465 6.57812 3.50456C6.57812 3.50447 6.57812 3.50438 6.57812 3.50428C6.57812 3.50419 6.57812 3.50409 6.57812 3.504C6.57812 3.50391 6.57812 3.50381 6.57812 3.50372C6.57812 3.50363 6.57812 3.50354 6.57812 3.50344C6.57812 3.50335 6.57812 3.50325 6.57812 3.50316C6.57812 3.50307 6.57812 3.50298 6.57812 3.50288C6.57812 3.50279 6.57812 3.5027 6.57812 3.5026C6.57812 3.50251 6.57812 3.50242 6.57812 3.50232C6.57812 3.50223 6.57812 3.50214 6.57812 3.50204C6.57812 3.50195 6.57812 3.50186 6.57812 3.50177C6.57812 3.50167 6.57812 3.50158 6.57812 3.50149C6.57812 3.50139 6.57812 3.5013 6.57812 3.50121C6.57812 3.50111 6.57812 3.50102 6.57812 3.50093C6.57812 3.50084 6.57812 3.50074 6.57812 3.50065C6.57812 3.50056 6.57812 3.50047 6.57812 3.50037C6.57812 3.50028 6.57812 3.50019 6.57812 3.5001C6.57812 3.5 6.57812 3.49991 6.57812 3.49982C6.57812 3.49973 6.57812 3.49963 6.57812 3.49954C6.57812 3.49945 6.57812 3.49936 6.57812 3.49926C6.57812 3.49917 6.57812 3.49908 6.57812 3.49899C6.57812 3.49889 6.57812 3.4988 6.57812 3.49871C6.57812 3.49862 6.57812 3.49852 6.57812 3.49843C6.57812 3.49834 6.57812 3.49825 6.57812 3.49815C6.57812 3.49806 6.57812 3.49797 6.57812 3.49788C6.57812 3.49778 6.57812 3.49769 6.57812 3.4976C6.57812 3.49751 6.57812 3.49741 6.57812 3.49732C6.57812 3.49723 6.57812 3.49714 6.57812 3.49704C6.57812 3.49695 6.57812 3.49686 6.57812 3.49677C6.57812 3.49667 6.57812 3.49658 6.57812 3.49649C6.57812 3.4964 6.57812 3.4963 6.57812 3.49621C6.57812 3.49612 6.57812 3.49603 6.57812 3.49594C6.57812 3.49585 6.57812 3.49575 6.57812 3.49566C6.57812 3.49557 6.57812 3.49548 6.57812 3.49538C6.57812 3.49529 6.57812 3.4952 6.57812 3.49511C6.57812 3.49501 6.57812 3.49492 6.57812 3.49483C6.57812 3.49474 6.57812 3.49465 6.57812 3.49456C6.57812 3.49446 6.57812 3.49437 6.57812 3.49428C6.57812 3.49419 6.57812 3.49409 6.57812 3.494C6.57812 3.49391 6.57812 3.49382 6.57812 3.49373C6.57812 3.49363 6.57812 3.49354 6.57812 3.49345C6.57812 3.49336 6.57812 3.49327 6.57812 3.49318C6.57812 3.49308 6.57812 3.49299 6.57812 3.4929C6.57812 3.49281 6.57812 3.49272 6.57812 3.49262C6.57812 3.49253 6.57812 3.49244 6.57812 3.49235C6.57812 3.49226 6.57812 3.49216 6.57812 3.49207C6.57812 3.49198 6.57812 3.49189 6.57812 3.4918C6.57812 3.49171 6.57812 3.49162 6.57812 3.49152C6.57812 3.49143 6.57812 3.49134 6.57812 3.49125C6.57812 3.49115 6.57812 3.49106 6.57812 3.49097C6.57812 3.49088 6.57812 3.49079 6.57812 3.4907C6.57812 3.4906 6.57812 3.49051 6.57812 3.49042C6.57812 3.49033 6.57812 3.49024 6.57812 3.49015C6.57812 3.49006 6.57812 3.48996 6.57812 3.48987C6.57812 3.48978 6.57812 3.48969 6.57812 3.4896C6.57812 3.48951 6.57812 3.48941 6.57812 3.48932C6.57812 3.48923 6.57812 3.48914 6.57812 3.48904C6.57812 3.48895 6.57812 3.48886 6.57812 3.48877C6.57812 3.48868 6.57812 3.48859 6.57812 3.48849C6.57812 3.4884 6.57812 3.48831 6.57812 3.48822C6.57812 3.48813 6.57812 3.48804 6.57812 3.48795C6.57812 3.48785 6.57812 3.48776 6.57812 3.48767C6.57812 3.48758 6.57812 3.48749 6.57812 3.4874C6.57812 3.4873 6.57812 3.48721 6.57812 3.48712C6.57812 3.48703 6.57812 3.48694 6.57812 3.48685C6.57812 3.48676 6.57812 3.48666 6.57812 3.48657C6.57812 3.48648 6.57812 3.48639 6.57812 3.4863C6.57812 3.48621 6.57812 3.48611 6.57812 3.48602C6.57812 3.48593 6.57812 3.48584 6.57812 3.48575C6.57812 3.48566 6.57812 3.48557 6.57812 3.48547C6.57812 3.48538 6.57812 3.48529 6.57812 3.4852C6.57812 3.48511 6.57812 3.48502 6.57812 3.48492C6.57812 3.48483 6.57812 3.48474 6.57812 3.48465C6.57812 3.48456 6.57812 3.48447 6.57812 3.48438H4.57812C4.57812 3.48447 4.57812 3.48456 4.57812 3.48465C4.57812 3.48474 4.57812 3.48483 4.57812 3.48492C4.57812 3.48502 4.57812 3.48511 4.57812 3.4852C4.57812 3.48529 4.57812 3.48538 4.57812 3.48547C4.57812 3.48557 4.57812 3.48566 4.57812 3.48575C4.57812 3.48584 4.57812 3.48593 4.57812 3.48602C4.57812 3.48611 4.57812 3.48621 4.57812 3.4863C4.57812 3.48639 4.57812 3.48648 4.57812 3.48657C4.57812 3.48666 4.57812 3.48676 4.57812 3.48685C4.57812 3.48694 4.57812 3.48703 4.57812 3.48712C4.57812 3.48721 4.57812 3.4873 4.57812 3.4874C4.57812 3.48749 4.57812 3.48758 4.57812 3.48767C4.57812 3.48776 4.57812 3.48785 4.57812 3.48795C4.57812 3.48804 4.57812 3.48813 4.57812 3.48822C4.57812 3.48831 4.57812 3.4884 4.57812 3.48849C4.57812 3.48859 4.57812 3.48868 4.57812 3.48877C4.57812 3.48886 4.57812 3.48895 4.57812 3.48904C4.57812 3.48914 4.57812 3.48923 4.57812 3.48932C4.57812 3.48941 4.57812 3.48951 4.57812 3.4896C4.57812 3.48969 4.57812 3.48978 4.57812 3.48987C4.57812 3.48996 4.57812 3.49006 4.57812 3.49015C4.57812 3.49024 4.57812 3.49033 4.57812 3.49042C4.57812 3.49051 4.57812 3.4906 4.57812 3.4907C4.57812 3.49079 4.57812 3.49088 4.57812 3.49097C4.57812 3.49106 4.57812 3.49115 4.57812 3.49125C4.57812 3.49134 4.57812 3.49143 4.57812 3.49152C4.57812 3.49162 4.57812 3.49171 4.57812 3.4918C4.57812 3.49189 4.57812 3.49198 4.57812 3.49207C4.57812 3.49216 4.57812 3.49226 4.57812 3.49235C4.57812 3.49244 4.57812 3.49253 4.57812 3.49262C4.57812 3.49272 4.57812 3.49281 4.57812 3.4929C4.57812 3.49299 4.57812 3.49308 4.57812 3.49318C4.57812 3.49327 4.57812 3.49336 4.57812 3.49345C4.57812 3.49354 4.57812 3.49363 4.57812 3.49373C4.57812 3.49382 4.57812 3.49391 4.57812 3.494C4.57812 3.49409 4.57812 3.49419 4.57812 3.49428C4.57812 3.49437 4.57812 3.49446 4.57812 3.49456C4.57812 3.49465 4.57812 3.49474 4.57812 3.49483C4.57812 3.49492 4.57812 3.49501 4.57812 3.49511C4.57812 3.4952 4.57812 3.49529 4.57812 3.49538C4.57812 3.49548 4.57812 3.49557 4.57812 3.49566C4.57812 3.49575 4.57812 3.49585 4.57812 3.49594C4.57812 3.49603 4.57812 3.49612 4.57812 3.49621C4.57812 3.4963 4.57812 3.4964 4.57812 3.49649C4.57812 3.49658 4.57812 3.49667 4.57812 3.49677C4.57812 3.49686 4.57812 3.49695 4.57812 3.49704C4.57812 3.49714 4.57812 3.49723 4.57812 3.49732C4.57812 3.49741 4.57812 3.49751 4.57812 3.4976C4.57812 3.49769 4.57812 3.49778 4.57812 3.49788C4.57812 3.49797 4.57812 3.49806 4.57812 3.49815C4.57812 3.49825 4.57812 3.49834 4.57812 3.49843C4.57812 3.49852 4.57812 3.49862 4.57812 3.49871C4.57812 3.4988 4.57812 3.49889 4.57812 3.49899C4.57812 3.49908 4.57812 3.49917 4.57812 3.49926C4.57812 3.49936 4.57812 3.49945 4.57812 3.49954C4.57812 3.49963 4.57812 3.49973 4.57812 3.49982C4.57812 3.49991 4.57812 3.5 4.57812 3.5001C4.57812 3.50019 4.57812 3.50028 4.57812 3.50037C4.57812 3.50047 4.57812 3.50056 4.57812 3.50065C4.57812 3.50074 4.57812 3.50084 4.57812 3.50093C4.57812 3.50102 4.57812 3.50111 4.57812 3.50121C4.57812 3.5013 4.57812 3.50139 4.57812 3.50149C4.57812 3.50158 4.57812 3.50167 4.57812 3.50177C4.57812 3.50186 4.57812 3.50195 4.57812 3.50204C4.57812 3.50214 4.57812 3.50223 4.57812 3.50232C4.57812 3.50242 4.57812 3.50251 4.57812 3.5026C4.57812 3.5027 4.57812 3.50279 4.57812 3.50288C4.57812 3.50298 4.57812 3.50307 4.57812 3.50316C4.57812 3.50325 4.57812 3.50335 4.57812 3.50344C4.57812 3.50354 4.57812 3.50363 4.57812 3.50372C4.57812 3.50381 4.57812 3.50391 4.57812 3.504C4.57812 3.50409 4.57812 3.50419 4.57812 3.50428C4.57812 3.50438 4.57812 3.50447 4.57812 3.50456C4.57812 3.50465 4.57812 3.50475 4.57812 3.50484C4.57812 3.50494 4.57812 3.50503 4.57812 3.50512C4.57812 3.50521 4.57812 3.50531 4.57812 3.5054C4.57812 3.5055 4.57812 3.50559 4.57812 3.50568C4.57812 3.50578 4.57812 3.50587 4.57812 3.50596C4.57812 3.50606 4.57812 3.50615 4.57812 3.50624C4.57812 3.50634 4.57812 3.50643 4.57812 3.50653C4.57812 3.50662 4.57812 3.50671 4.57812 3.50681C4.57812 3.5069 4.57812 3.507 4.57812 3.50709C4.57812 3.50718 4.57812 3.50728 4.57812 3.50737C4.57812 3.50747 4.57812 3.50756 4.57812 3.50765C4.57812 3.50775 4.57812 3.50784 4.57812 3.50793C4.57812 3.50803 4.57812 3.50813 4.57812 3.50822C4.57812 3.50831 4.57812 3.50841 4.57812 3.5085C4.57812 3.50859 4.57812 3.50869 4.57812 3.50878C4.57812 3.50888 4.57812 3.50897 4.57812 3.50907C4.57812 3.50916 4.57812 3.50925 4.57812 3.50935C4.57812 3.50944 4.57812 3.50954 4.57812 3.50963C4.57812 3.50973 4.57812 3.50982 4.57812 3.50991C4.57812 3.51001 4.57812 3.51011 4.57812 3.5102C4.57812 3.51029 4.57812 3.51039 4.57812 3.51048C4.57812 3.51058 4.57812 3.51067 4.57812 3.51077C4.57812 3.51086 4.57812 3.51096 4.57812 3.51105C4.57812 3.51115 4.57812 3.51124 4.57812 3.51134C4.57812 3.51143 4.57812 3.51152 4.57812 3.51162C4.57812 3.51171 4.57812 3.51181 4.57812 3.51191C4.57812 3.512 4.57812 3.5121 4.57812 3.51219C4.57812 3.51228 4.57812 3.51238 4.57812 3.51247C4.57812 3.51257 4.57812 3.51266 4.57812 3.51276C4.57812 3.51286 4.57812 3.51295 4.57812 3.51305C4.57812 3.51314 4.57812 3.51324 4.57812 3.51333C4.57812 3.51343 4.57812 3.51352 4.57812 3.51362C4.57812 3.51371 4.57812 3.51381 4.57812 3.5139C4.57812 3.514 4.57812 3.5141 4.57812 3.51419C4.57812 3.51429 4.57812 3.51438 4.57812 3.51448C4.57812 3.51457 4.57812 3.51467 4.57812 3.51477C4.57812 3.51486 4.57812 3.51496 4.57812 3.51505C4.57812 3.51515 4.57812 3.51524 4.57812 3.51534C4.57812 3.51543 4.57812 3.51553 4.57812 3.51563C4.57812 3.51572 4.57812 3.51582 4.57812 3.51591C4.57812 3.51601 4.57812 3.51611 4.57812 3.5162C4.57812 3.5163 4.57812 3.5164 4.57812 3.51649C4.57812 3.51659 4.57812 3.51669 4.57812 3.51678C4.57812 3.51688 4.57812 3.51697 4.57812 3.51707C4.57812 3.51717 4.57812 3.51726 4.57812 3.51736C4.57812 3.51746 4.57812 3.51755 4.57812 3.51765C4.57812 3.51775 4.57812 3.51784 4.57812 3.51794C4.57812 3.51804 4.57812 3.51813 4.57812 3.51823C4.57812 3.51833 4.57812 3.51842 4.57812 3.51852C4.57812 3.51862 4.57812 3.51871 4.57812 3.51881C4.57812 3.51891 4.57812 3.519 4.57812 3.5191C4.57812 3.5192 4.57812 3.51929 4.57812 3.51939C4.57812 3.51949 4.57812 3.51958 4.57812 3.51968C4.57812 3.51978 4.57812 3.51987 4.57812 3.51997C4.57812 3.52007 4.57812 3.52016 4.57812 3.52026C4.57812 3.52036 4.57812 3.52046 4.57812 3.52056C4.57812 3.52065 4.57812 3.52075 4.57812 3.52085C4.57812 3.52095 4.57812 3.52104 4.57812 3.52114C4.57812 3.52124 4.57812 3.52134 4.57812 3.52143C4.57812 3.52153 4.57812 3.52163 4.57812 3.52172C4.57812 3.52182 4.57812 3.52192 4.57812 3.52202C4.57812 3.52212 4.57812 3.52222 4.57812 3.52231C4.57812 3.52241 4.57812 3.52251 4.57812 3.52261C4.57812 3.52271 4.57812 3.5228 4.57812 3.5229C4.57812 3.523 4.57812 3.5231 4.57812 3.5232C4.57812 3.52329 4.57812 3.52339 4.57812 3.52349C4.57812 3.52359 4.57812 3.52369 4.57812 3.52378C4.57812 3.52388 4.57812 3.52398 4.57812 3.52408C4.57812 3.52418 4.57812 3.52428 4.57812 3.52438C4.57812 3.52448 4.57812 3.52457 4.57812 3.52467C4.57812 3.52477 4.57812 3.52487 4.57812 3.52497C4.57812 3.52507 4.57812 3.52517 4.57812 3.52526C4.57812 3.52536 4.57812 3.52546 4.57812 3.52556C4.57812 3.52566 4.57812 3.52576 4.57812 3.52586C4.57812 3.52596 4.57812 3.52606 4.57812 3.52616C4.57812 3.52626 4.57812 3.52636 4.57812 3.52645C4.57812 3.52655 4.57812 3.52665 4.57812 3.52675C4.57812 3.52685 4.57812 3.52695 4.57812 3.52705C4.57812 3.52715 4.57812 3.52725 4.57812 3.52735C4.57812 3.52745 4.57812 3.52755 4.57812 3.52765C4.57812 3.52775 4.57812 3.52785 4.57812 3.52795C4.57812 3.52805 4.57812 3.52815 4.57812 3.52825C4.57812 3.52835 4.57812 3.52845 4.57812 3.52855C4.57812 3.52865 4.57812 3.52875 4.57812 3.52885C4.57812 3.52895 4.57812 3.52905 4.57812 3.52915C4.57812 3.52925 4.57812 3.52935 4.57812 3.52945C4.57812 3.52955 4.57812 3.52965 4.57812 3.52975C4.57812 3.52985 4.57812 3.52995 4.57812 3.53005C4.57812 3.53015 4.57812 3.53025 4.57812 3.53035C4.57812 3.53046 4.57812 3.53056 4.57812 3.53065C4.57812 3.53076 4.57812 3.53086 4.57812 3.53096C4.57812 3.53106 4.57812 3.53116 4.57812 3.53126C4.57812 3.53136 4.57812 3.53146 4.57812 3.53157C4.57812 3.53167 4.57812 3.53177 4.57812 3.53187C4.57812 3.53197 4.57812 3.53207 4.57812 3.53217C4.57812 3.53228 4.57812 3.53238 4.57812 3.53248C4.57812 3.53258 4.57812 3.53268 4.57812 3.53278C4.57812 3.53288 4.57812 3.53299 4.57812 3.53309C4.57812 3.53319 4.57812 3.53329 4.57812 3.53339C4.57812 3.5335 4.57812 3.5336 4.57812 3.5337C4.57812 3.5338 4.57812 3.53391 4.57812 3.534C4.57812 3.53411 4.57812 3.53421 4.57812 3.53431C4.57812 3.53441 4.57812 3.53452 4.57812 3.53462C4.57812 3.53472 4.57812 3.53482 4.57812 3.53493C4.57812 3.53503 4.57812 3.53513 4.57812 3.53523C4.57812 3.53534 4.57812 3.53544 4.57812 3.53554C4.57812 3.53564 4.57812 3.53575 4.57812 3.53585C4.57812 3.53595 4.57812 3.53606 4.57812 3.53616C4.57812 3.53626 4.57812 3.53637 4.57812 3.53647C4.57812 3.53657 4.57812 3.53667 4.57812 3.53678C4.57812 3.53688 4.57812 3.53698 4.57812 3.53709C4.57812 3.53719 4.57812 3.5373 4.57812 3.5374C4.57812 3.5375 4.57812 3.53761 4.57812 3.53771C4.57812 3.53781 4.57812 3.53791 4.57812 3.53802C4.57812 3.53812 4.57812 3.53823 4.57812 3.53833C4.57812 3.53844 4.57812 3.53854 4.57812 3.53864C4.57812 3.53875 4.57812 3.53885 4.57812 3.53896C4.57812 3.53906 4.57812 3.53917 4.57812 3.53927C4.57812 3.53937 4.57812 3.53948 4.57812 3.53958C4.57812 3.53968 4.57812 3.53979 4.57812 3.53989C4.57812 3.54 4.57812 3.5401 4.57812 3.54021C4.57812 3.54031 4.57812 3.54042 4.57812 3.54052C4.57812 3.54063 4.57812 3.54073 4.57812 3.54084C4.57812 3.54094 4.57812 3.54105 4.57812 3.54115C4.57812 3.54126 4.57812 3.54136 4.57812 3.54147C4.57812 3.54157 4.57812 3.54168 4.57812 3.54178C4.57812 3.54189 4.57812 3.542 4.57812 3.5421C4.57812 3.54221 4.57812 3.54231 4.57812 3.54242C4.57812 3.54252 4.57812 3.54263 4.57812 3.54274C4.57812 3.54284 4.57812 3.54295 4.57812 3.54305C4.57812 3.54316 4.57812 3.54326 4.57812 3.54337C4.57812 3.54348 4.57812 3.54358 4.57812 3.54369C4.57812 3.5438 4.57812 3.5439 4.57812 3.54401C4.57812 3.54411 4.57812 3.54422 4.57812 3.54433C4.57812 3.54443 4.57812 3.54454 4.57812 3.54465C4.57812 3.54475 4.57812 3.54486 4.57812 3.54497C4.57812 3.54507 4.57812 3.54518 4.57812 3.54529C4.57812 3.54539 4.57812 3.5455 4.57812 3.54561C4.57812 3.54572 4.57812 3.54582 4.57812 3.54593C4.57812 3.54604 4.57812 3.54615 4.57812 3.54625C4.57812 3.54636 4.57812 3.54647 4.57812 3.54657C4.57812 3.54668 4.57812 3.54679 4.57812 3.5469C4.57812 3.547 4.57812 3.54711 4.57812 3.54722C4.57812 3.54733 4.57812 3.54744 4.57812 3.54755C4.57812 3.54765 4.57812 3.54776 4.57812 3.54787C4.57812 3.54798 4.57812 3.54808 4.57812 3.54819C4.57812 3.5483 4.57812 3.54841 4.57812 3.54852C4.57812 3.54863 4.57812 3.54874 4.57812 3.54884C4.57812 3.54895 4.57812 3.54906 4.57812 3.54917C4.57812 3.54928 4.57812 3.54939 4.57812 3.5495C4.57812 3.54961 4.57812 3.54971 4.57812 3.54982C4.57812 3.54993 4.57812 3.55004 4.57812 3.55015C4.57812 3.55026 4.57812 3.55037 4.57812 3.55048C4.57812 3.55059 4.57812 3.5507 4.57812 3.55081C4.57812 3.55092 4.57812 3.55103 4.57812 3.55114C4.57812 3.55125 4.57812 3.55136 4.57812 3.55146C4.57812 3.55157 4.57812 3.55169 4.57812 3.5518C4.57812 3.55191 4.57812 3.55202 4.57812 3.55213C4.57812 3.55223 4.57812 3.55235 4.57812 3.55246C4.57812 3.55257 4.57812 3.55268 4.57812 3.55279C4.57812 3.5529 4.57812 3.55301 4.57812 3.55312C4.57812 3.55323 4.57812 3.55334 4.57812 3.55345C4.57812 3.55356 4.57812 3.55367 4.57812 3.55378C4.57812 3.55389 4.57812 3.55401 4.57812 3.55412C4.57812 3.55423 4.57812 3.55434 4.57812 3.55445C4.57812 3.55456 4.57812 3.55468 4.57812 3.55479C4.57812 3.5549 4.57812 3.55501 4.57812 3.55512C4.57812 3.55523 4.57812 3.55534 4.57812 3.55546C4.57812 3.55557 4.57812 3.55568 4.57812 3.55579C4.57812 3.5559 4.57812 3.55602 4.57812 3.55613C4.57812 3.55624 4.57812 3.55635 4.57812 3.55647C4.57812 3.55658 4.57812 3.55669 4.57812 3.5568C4.57812 3.55692 4.57812 3.55703 4.57812 3.55714C4.57812 3.55725 4.57812 3.55737 4.57812 3.55748C4.57812 3.55759 4.57812 3.5577 4.57812 3.55782C4.57812 3.55793 4.57812 3.55804 4.57812 3.55816C4.57812 3.55827 4.57812 3.55838 4.57812 3.5585C4.57812 3.55861 4.57812 3.55872 4.57812 3.55884C4.57812 3.55895 4.57812 3.55906 4.57812 3.55918C4.57812 3.55929 4.57812 3.55941 4.57812 3.55952C4.57812 3.55963 4.57812 3.55975 4.57812 3.55986C4.57812 3.55997 4.57812 3.56009 4.57812 3.5602C4.57812 3.56032 4.57812 3.56043 4.57812 3.56055C4.57812 3.56066 4.57812 3.56078 4.57812 3.56089C4.57812 3.561 4.57812 3.56112 4.57812 3.56123C4.57812 3.56135 4.57812 3.56146 4.57812 3.56158C4.57812 3.5617 4.57812 3.56181 4.57812 3.56192C4.57812 3.56204 4.57812 3.56216 4.57812 3.56227C4.57812 3.56239 4.57812 3.5625 4.57812 3.56262C4.57812 3.56273 4.57812 3.56285 4.57812 3.56296C4.57812 3.56308 4.57812 3.56319 4.57812 3.56331C4.57812 3.56343 4.57812 3.56354 4.57812 3.56366C4.57812 3.56377 4.57812 3.56389 4.57812 3.56401C4.57812 3.56413 4.57812 3.56424 4.57812 3.56436C4.57812 3.56447 4.57812 3.56459 4.57812 3.5647C4.57812 3.56482 4.57812 3.56494 4.57812 3.56506C4.57812 3.56517 4.57812 3.56529 4.57812 3.56541C4.57812 3.56553 4.57812 3.56564 4.57812 3.56576C4.57812 3.56588 4.57812 3.56599 4.57812 3.56611C4.57812 3.56623 4.57812 3.56635 4.57812 3.56646C4.57812 3.56658 4.57812 3.5667 4.57812 3.56681C4.57812 3.56693 4.57812 3.56705 4.57812 3.56717C4.57812 3.56729 4.57812 3.56741 4.57812 3.56752C4.57812 3.56764 4.57812 3.56776 4.57812 3.56788C4.57812 3.568 4.57812 3.56812 4.57812 3.56823C4.57812 3.56835 4.57812 3.56847 4.57812 3.56859C4.57812 3.56871 4.57812 3.56883 4.57812 3.56895C4.57812 3.56907 4.57812 3.56918 4.57812 3.5693C4.57812 3.56942 4.57812 3.56954 4.57812 3.56966C4.57812 3.56978 4.57812 3.5699 4.57812 3.57002C4.57812 3.57014 4.57812 3.57026 4.57812 3.57038C4.57812 3.5705 4.57812 3.57062 4.57812 3.57074C4.57812 3.57086 4.57812 3.57098 4.57812 3.5711C4.57812 3.57122 4.57812 3.57134 4.57812 3.57146C4.57812 3.57158 4.57812 3.5717 4.57812 3.57182C4.57812 3.57194 4.57812 3.57206 4.57812 3.57218C4.57812 3.5723 4.57812 3.57242 4.57812 3.57254C4.57812 3.57267 4.57812 3.57278 4.57812 3.57291C4.57812 3.57303 4.57812 3.57315 4.57812 3.57327C4.57812 3.57339 4.57812 3.57351 4.57812 3.57364C4.57812 3.57376 4.57812 3.57388 4.57812 3.574C4.57812 3.57412 4.57812 3.57424 4.57812 3.57436C4.57812 3.57449 4.57812 3.57461 4.57812 3.57473C4.57812 3.57485 4.57812 3.57497 4.57812 3.5751C4.57812 3.57522 4.57812 3.57534 4.57812 3.57547C4.57812 3.57559 4.57812 3.57571 4.57812 3.57583C4.57812 3.57595 4.57812 3.57608 4.57812 3.5762C4.57812 3.57632 4.57812 3.57645 4.57812 3.57657C4.57812 3.57669 4.57812 3.57682 4.57812 3.57694C4.57812 3.57706 4.57812 3.57719 4.57812 3.57731C4.57812 3.57743 4.57812 3.57756 4.57812 3.57768C4.57812 3.57781 4.57812 3.57793 4.57812 3.57806C4.57812 3.57818 4.57812 3.5783 4.57812 3.57843C4.57812 3.57855 4.57812 3.57867 4.57812 3.5788C4.57812 3.57893 4.57812 3.57905 4.57812 3.57917C4.57812 3.5793 4.57812 3.57942 4.57812 3.57955C4.57812 3.57967 4.57812 3.5798 4.57812 3.57992C4.57812 3.58005 4.57812 3.58017 4.57812 3.5803C4.57812 3.58043 4.57812 3.58055 4.57812 3.58068C4.57812 3.5808 4.57812 3.58092 4.57812 3.58105C4.57812 3.58118 4.57812 3.5813 4.57812 3.58143C4.57812 3.58155 4.57812 3.58168 4.57812 3.58181C4.57812 3.58194 4.57812 3.58206 4.57812 3.58219C4.57812 3.58231 4.57812 3.58244 4.57812 3.58257C4.57812 3.5827 4.57812 3.58282 4.57812 3.58295C4.57812 3.58307 4.57812 3.5832 4.57812 3.58333C4.57812 3.58345 4.57812 3.58358 4.57812 3.58371C4.57812 3.58384 4.57812 3.58397 4.57812 3.58409C4.57812 3.58422 4.57812 3.58435 4.57812 3.58448C4.57812 3.5846 4.57812 3.58473 4.57812 3.58486C4.57812 3.58499 4.57812 3.58511 4.57812 3.58524C4.57812 3.58537 4.57812 3.5855 4.57812 3.58563C4.57812 3.58576 4.57812 3.58588 4.57812 3.58601C4.57812 3.58614 4.57812 3.58627 4.57812 3.5864C4.57812 3.58653 4.57812 3.58666 4.57812 3.58679C4.57812 3.58692 4.57812 3.58704 4.57812 3.58717C4.57812 3.5873 4.57812 3.58743 4.57812 3.58756C4.57812 3.58769 4.57812 3.58782 4.57812 3.58795C4.57812 3.58808 4.57812 3.58821 4.57812 3.58834C4.57812 3.58847 4.57812 3.5886 4.57812 3.58873C4.57812 3.58886 4.57812 3.58899 4.57812 3.58912C4.57812 3.58925 4.57812 3.58939 4.57812 3.58952C4.57812 3.58965 4.57812 3.58978 4.57812 3.58991C4.57812 3.59004 4.57812 3.59017 4.57812 3.5903C4.57812 3.59043 4.57812 3.59056 4.57812 3.59069C4.57812 3.59083 4.57812 3.59096 4.57812 3.59109C4.57812 3.59122 4.57812 3.59135 4.57812 3.59148C4.57812 3.59162 4.57812 3.59175 4.57812 3.59188C4.57812 3.59201 4.57812 3.59215 4.57812 3.59228C4.57812 3.59241 4.57812 3.59254 4.57812 3.59267C4.57812 3.59281 4.57812 3.59294 4.57812 3.59307C4.57812 3.59321 4.57812 3.59334 4.57812 3.59347C4.57812 3.59361 4.57812 3.59374 4.57812 3.59387C4.57812 3.59401 4.57812 3.59414 4.57812 3.59427C4.57812 3.59441 4.57812 3.59454 4.57812 3.59467C4.57812 3.59481 4.57812 3.59494 4.57812 3.59508C4.57812 3.59521 4.57812 3.59534 4.57812 3.59548C4.57812 3.59562 4.57812 3.59575 4.57812 3.59588C4.57812 3.59602 4.57812 3.59615 4.57812 3.59629C4.57812 3.59642 4.57812 3.59656 4.57812 3.59669C4.57812 3.59683 4.57812 3.59696 4.57812 3.5971C4.57812 3.59723 4.57812 3.59737 4.57812 3.5975C4.57812 3.59764 4.57812 3.59777 4.57812 3.59791C4.57812 3.59805 4.57812 3.59818 4.57812 3.59832C4.57812 3.59845 4.57812 3.59859 4.57812 3.59873C4.57812 3.59886 4.57812 3.599 4.57812 3.59914C4.57812 3.59927 4.57812 3.59941 4.57812 3.59954C4.57812 3.59968 4.57812 3.59982 4.57812 3.59996C4.57812 3.60009 4.57812 3.60023 4.57812 3.60037C4.57812 3.60051 4.57812 3.60064 4.57812 3.60078C4.57812 3.60092 4.57812 3.60106 4.57812 3.60119C4.57812 3.60133 4.57812 3.60147 4.57812 3.60161C4.57812 3.60175 4.57812 3.60188 4.57812 3.60202C4.57812 3.60216 4.57812 3.6023 4.57812 3.60244C4.57812 3.60258 4.57812 3.60271 4.57812 3.60286C4.57812 3.60299 4.57812 3.60313 4.57812 3.60327C4.57812 3.60341 4.57812 3.60355 4.57812 3.60369C4.57812 3.60383 4.57812 3.60397 4.57812 3.60411C4.57812 3.60425 4.57812 3.60439 4.57812 3.60453C4.57812 3.60467 4.57812 3.6048 4.57812 3.60495C4.57812 3.60509 4.57812 3.60523 4.57812 3.60537C4.57812 3.60551 4.57812 3.60565 4.57812 3.60579C4.57812 3.60593 4.57812 3.60607 4.57812 3.60621C4.57812 3.60635 4.57812 3.60649 4.57812 3.60664C4.57812 3.60678 4.57812 3.60692 4.57812 3.60706C4.57812 3.6072 4.57812 3.60734 4.57812 3.60748C4.57812 3.60762 4.57812 3.60777 4.57812 3.60791C4.57812 3.60805 4.57812 3.60819 4.57812 3.60833C4.57812 3.60848 4.57812 3.60862 4.57812 3.60876C4.57812 3.60891 4.57812 3.60905 4.57812 3.60919C4.57812 3.60933 4.57812 3.60947 4.57812 3.60962C4.57812 3.60976 4.57812 3.60991 4.57812 3.61005C4.57812 3.61019 4.57812 3.61034 4.57812 3.61048C4.57812 3.61062 4.57812 3.61077 4.57812 3.61091C4.57812 3.61105 4.57812 3.6112 4.57812 3.61134C4.57812 3.61148 4.57812 3.61163 4.57812 3.61177C4.57812 3.61192 4.57812 3.61206 4.57812 3.61221C4.57812 3.61235 4.57812 3.6125 4.57812 3.61264C4.57812 3.61279 4.57812 3.61293 4.57812 3.61308C4.57812 3.61322 4.57812 3.61337 4.57812 3.61351C4.57812 3.61366 4.57812 3.6138 4.57812 3.61395C4.57812 3.6141 4.57812 3.61424 4.57812 3.61439C4.57812 3.61454 4.57812 3.61468 4.57812 3.61483C4.57812 3.61497 4.57812 3.61512 4.57812 3.61527C4.57812 3.61541 4.57812 3.61556 4.57812 3.61571C4.57812 3.61585 4.57812 3.616 4.57812 3.61615C4.57812 3.61629 4.57812 3.61644 4.57812 3.61659C4.57812 3.61674 4.57812 3.61689 4.57812 3.61703C4.57812 3.61718 4.57812 3.61733 4.57812 3.61748C4.57812 3.61763 4.57812 3.61777 4.57812 3.61792C4.57812 3.61807 4.57812 3.61822 4.57812 3.61837C4.57812 3.61852 4.57812 3.61866 4.57812 3.61881C4.57812 3.61896 4.57812 3.61911 4.57812 3.61926C4.57812 3.61941 4.57812 3.61956 4.57812 3.61971C4.57812 3.61986 4.57812 3.62001 4.57812 3.62016C4.57812 3.6203 4.57812 3.62046 4.57812 3.62061C4.57812 3.62075 4.57812 3.62091 4.57812 3.62106C4.57812 3.6212 4.57812 3.62136 4.57812 3.62151C4.57812 3.62166 4.57812 3.62181 4.57812 3.62196C4.57812 3.62211 4.57812 3.62226 4.57812 3.62241C4.57812 3.62256 4.57812 3.62271 4.57812 3.62286C4.57812 3.62302 4.57812 3.62317 4.57812 3.62332C4.57812 3.62347 4.57812 3.62362 4.57812 3.62378C4.57812 3.62393 4.57812 3.62408 4.57812 3.62423C4.57812 3.62439 4.57812 3.62454 4.57812 3.62469C4.57812 3.62484 4.57812 3.625 4.57812 3.62515C4.57812 3.6253 4.57812 3.62545 4.57812 3.62561C4.57812 3.62576 4.57812 3.62591 4.57812 3.62607C4.57812 3.62622 4.57812 3.62637 4.57812 3.62653C4.57812 3.62668 4.57812 3.62683 4.57812 3.62699C4.57812 3.62714 4.57812 3.6273 4.57812 3.62745C4.57812 3.62761 4.57812 3.62776 4.57812 3.62791C4.57812 3.62807 4.57812 3.62822 4.57812 3.62838C4.57812 3.62853 4.57812 3.62869 4.57812 3.62885C4.57812 3.629 4.57812 3.62915 4.57812 3.62931C4.57812 3.62947 4.57812 3.62962 4.57812 3.62978C4.57812 3.62993 4.57812 3.63009 4.57812 3.63025C4.57812 3.6304 4.57812 3.63056 4.57812 3.63071C4.57812 3.63087 4.57812 3.63103 4.57812 3.63118C4.57812 3.63134 4.57812 3.6315 4.57812 3.63166C4.57812 3.63181 4.57812 3.63197 4.57812 3.63213C4.57812 3.63228 4.57812 3.63244 4.57812 3.6326C4.57812 3.63276 4.57812 3.63292 4.57812 3.63307C4.57812 3.63323 4.57812 3.63339 4.57812 3.63354C4.57812 3.63371 4.57812 3.63386 4.57812 3.63402C4.57812 3.63418 4.57812 3.63434 4.57812 3.6345C4.57812 3.63465 4.57812 3.63482 4.57812 3.63498C4.57812 3.63514 4.57812 3.63529 4.57812 3.63545C4.57812 3.63561 4.57812 3.63577 4.57812 3.63593C4.57812 3.63609 4.57812 3.63625 4.57812 3.63641C4.57812 3.63657 4.57812 3.63673 4.57812 3.63689C4.57812 3.63705 4.57812 3.63721 4.57812 3.63737C4.57812 3.63754 4.57812 3.6377 4.57812 3.63786C4.57812 3.63802 4.57812 3.63818 4.57812 3.63834C4.57812 3.6385 4.57812 3.63866 4.57812 3.63882C4.57812 3.63898 4.57812 3.63915 4.57812 3.63931C4.57812 3.63947 4.57812 3.63963 4.57812 3.6398C4.57812 3.63996 4.57812 3.64012 4.57812 3.64028C4.57812 3.64045 4.57812 3.64061 4.57812 3.64077C4.57812 3.64093 4.57812 3.6411 4.57812 3.64126C4.57812 3.64143 4.57812 3.64159 4.57812 3.64175C4.57812 3.64191 4.57812 3.64208 4.57812 3.64224C4.57812 3.64241 4.57812 3.64257 4.57812 3.64273C4.57812 3.6429 4.57812 3.64306 4.57812 3.64323C4.57812 3.64339 4.57812 3.64355 4.57812 3.64372C4.57812 3.64389 4.57812 3.64405 4.57812 3.64421C4.57812 3.64438 4.57812 3.64455 4.57812 3.64471C4.57812 3.64488 4.57812 3.64504 4.57812 3.64521C4.57812 3.64537 4.57812 3.64554 4.57812 3.64571C4.57812 3.64587 4.57812 3.64604 4.57812 3.64621C4.57812 3.64637 4.57812 3.64654 4.57812 3.64671C4.57812 3.64687 4.57812 3.64704 4.57812 3.64721C4.57812 3.64737 4.57812 3.64754 4.57812 3.64771C4.57812 3.64788 4.57812 3.64804 4.57812 3.64821C4.57812 3.64838 4.57812 3.64854 4.57812 3.64871C4.57812 3.64888 4.57812 3.64905 4.57812 3.64922C4.57812 3.64939 4.57812 3.64956 4.57812 3.64972C4.57812 3.64989 4.57812 3.65006 4.57812 3.65023C4.57812 3.6504 4.57812 3.65057 4.57812 3.65074C4.57812 3.65091 4.57812 3.65108 4.57812 3.65125C4.57812 3.65142 4.57812 3.65158 4.57812 3.65176C4.57812 3.65193 4.57812 3.6521 4.57812 3.65227C4.57812 3.65244 4.57812 3.65261 4.57812 3.65278C4.57812 3.65295 4.57812 3.65312 4.57812 3.65329C4.57812 3.65346 4.57812 3.65363 4.57812 3.6538C4.57812 3.65398 4.57812 3.65415 4.57812 3.65432C4.57812 3.65449 4.57812 3.65466 4.57812 3.65483C4.57812 3.65501 4.57812 3.65518 4.57812 3.65535C4.57812 3.65553 4.57812 3.6557 4.57812 3.65587C4.57812 3.65604 4.57812 3.65622 4.57812 3.65639C4.57812 3.65656 4.57812 3.65673 4.57812 3.65691C4.57812 3.65708 4.57812 3.65725 4.57812 3.65743C4.57812 3.6576 4.57812 3.65778 4.57812 3.65795C4.57812 3.65812 4.57812 3.6583 4.57812 3.65847C4.57812 3.65865 4.57812 3.65882 4.57812 3.659C4.57812 3.65917 4.57812 3.65934 4.57812 3.65952C4.57812 3.65969 4.57812 3.65987 4.57812 3.66005C4.57812 3.66022 4.57812 3.6604 4.57812 3.66057C4.57812 3.66075 4.57812 3.66092 4.57812 3.6611C4.57812 3.66128 4.57812 3.66145 4.57812 3.66163C4.57812 3.6618 4.57812 3.66198 4.57812 3.66216C4.57812 3.66233 4.57812 3.66251 4.57812 3.66269C4.57812 3.66287 4.57812 3.66304 4.57812 3.66322C4.57812 3.6634 4.57812 3.66358 4.57812 3.66375C4.57812 3.66393 4.57812 3.66411 4.57812 3.66429C4.57812 3.66447 4.57812 3.66465 4.57812 3.66483C4.57812 3.665 4.57812 3.66518 4.57812 3.66536C4.57812 3.66554 4.57812 3.66572 4.57812 3.6659C4.57812 3.66608 4.57812 3.66626 4.57812 3.66644C4.57812 3.66661 4.57812 3.66679 4.57812 3.66697C4.57812 3.66715 4.57812 3.66734 4.57812 3.66751C4.57812 3.66769 4.57812 3.66788 4.57812 3.66806C4.57812 3.66824 4.57812 3.66842 4.57812 3.6686C4.57812 3.66878 4.57812 3.66896 4.57812 3.66914C4.57812 3.66932 4.57812 3.66951 4.57812 3.66969C4.57812 3.66987 4.57812 3.67005 4.57812 3.67023C4.57812 3.67041 4.57812 3.6706 4.57812 3.67078C4.57812 3.67096 4.57812 3.67114 4.57812 3.67133C4.57812 3.67151 4.57812 3.67169 4.57812 3.67188H6.57812ZM6.57749 3.44868C6.51104 1.58813 4.94209 0.112251 3.12944 0.0475121L3.05806 2.04624C3.87041 2.07525 4.55146 2.75562 4.57876 3.52007L6.57749 3.44868ZM3.15613 0.0488243C1.05526 -0.0824814 -0.625 1.62058 -0.625 3.625H1.375C1.375 2.72317 2.13224 1.98873 3.03137 2.04493L3.15613 0.0488243ZM-0.625 3.625C-0.625 4.8934 -0.0388832 5.95718 0.945301 6.6133L2.0547 4.9492C1.63263 4.66782 1.375 4.2316 1.375 3.625H-0.625ZM0.5 5.78125V23.875H2.5V5.78125H0.5ZM0.5 23.875C0.5 25.0835 1.41647 26 2.625 26V24C2.58065 24 2.55441 23.9923 2.54203 23.9873C2.52983 23.9825 2.52512 23.9781 2.52351 23.9765C2.5219 23.9749 2.51751 23.9702 2.51266 23.958C2.50774 23.9456 2.5 23.9193 2.5 23.875H0.5ZM2.625 26H3.375V24H2.625V26ZM3.375 26C4.50914 26 5.5 25.1107 5.5 23.875H3.5C3.5 23.9065 3.49413 23.9258 3.48949 23.9367C3.48457 23.9483 3.47785 23.9579 3.46923 23.9663C3.45201 23.983 3.4212 24 3.375 24V26ZM5.5 23.875V19.4688H3.5V23.875H5.5ZM4.89392 20.3879C6.09359 19.8737 7.60067 19.4375 9.84375 19.4375V17.4375C7.30558 17.4375 5.53141 17.9388 4.10608 18.5496L4.89392 20.3879ZM9.84375 19.4375C10.9135 19.4375 11.8957 19.781 13.1648 20.206C14.3963 20.6185 15.8316 21.0781 17.5781 21.0781V19.0781C16.184 19.0781 15.0178 18.7174 13.8 18.3096C12.62 17.9144 11.3052 17.4375 9.84375 17.4375V19.4375ZM17.5781 21.0781C20.0892 21.0781 22.1091 20.1812 23.8984 18.9883L22.7891 17.3242C21.2034 18.3813 19.5671 19.0781 17.5781 19.0781V21.0781ZM23.9437 18.9563C24.5165 18.5267 25 17.7829 25 16.9375H23C23 17.0296 22.921 17.2233 22.7438 17.3562L23.9437 18.9563ZM25 16.9375V5.5H23V16.9375H25ZM25 5.5C25 3.63639 23.0308 2.54392 21.4498 3.22148L22.2377 5.05977C22.4041 4.98846 22.6006 5.00637 22.7642 5.10782C22.923 5.20621 23 5.34845 23 5.5H25ZM21.418 3.23581C19.8521 3.97269 18.0504 4.64062 16.3594 4.64062V6.64062C18.5121 6.64062 20.6479 5.80856 22.2695 5.04544L21.418 3.23581Z" fill="black"/>
</svg>
