<svg width="25" height="25" viewBox="0 0 25 25" fill="none" xmlns="http://www.w3.org/2000/svg">
<path d="M16.8594 5.64062C14.3281 5.64062 12.2656 4 9.125 4C7.95312 4 6.92188 4.23438 5.9375 4.60938C6.03125 4.28125 6.07812 4 6.07812 3.67188C6.07812 3.57812 6.07812 3.53125 6.07812 3.48438C6.03125 2.17188 4.90625 1.09375 3.59375 1.04688C2.09375 0.953125 0.875 2.17188 0.875 3.625C0.875 4.5625 1.29688 5.3125 2 5.78125V23.875C2 24.5312 2.46875 25 3.125 25H3.875C4.48438 25 5 24.5312 5 23.875V19.4688C6.3125 18.9062 7.95312 18.4375 10.3438 18.4375C12.875 18.4375 14.9375 20.0781 18.0781 20.0781C20.3281 20.0781 22.1562 19.2812 23.8438 18.1562C24.2188 17.875 24.5 17.4062 24.5 16.9375V5.5C24.5 4.42188 23.3281 3.71875 22.3438 4.14062C20.75 4.89062 18.7812 5.64062 16.8594 5.64062Z" fill="black"/>
</svg>
