<svg width="25" height="18" viewBox="0 0 25 18" fill="none" xmlns="http://www.w3.org/2000/svg">
<path d="M13.25 3L12.5429 3.70711L12.8358 4H13.25V3ZM10.25 0L10.9571 -0.707108L10.6642 -1H10.25V0ZM22.25 2H13.25V4H22.25V2ZM13.9571 2.29289L10.9571 -0.707108L9.54289 0.707108L12.5429 3.70711L13.9571 2.29289ZM10.25 -1H2.75V1H10.25V-1ZM2.75 -1C0.918575 -1 -0.5 0.49258 -0.5 2.25H1.5C1.5 1.56992 2.05017 1 2.75 1V-1ZM-0.5 2.25V15.75H1.5V2.25H-0.5ZM-0.5 15.75C-0.5 17.5679 0.932091 19 2.75 19V17C2.03666 17 1.5 16.4633 1.5 15.75H-0.5ZM2.75 19H22.25V17H2.75V19ZM22.25 19C24.0074 19 25.5 17.5814 25.5 15.75H23.5C23.5 16.4498 22.9301 17 22.25 17V19ZM25.5 15.75V5.25H23.5V15.75H25.5ZM25.5 5.25C25.5 3.47897 24.021 2 22.25 2V4C22.9165 4 23.5 4.58353 23.5 5.25H25.5Z" fill="black"/>
</svg>
