<svg width="516" height="919" viewBox="0 0 516 919" fill="none" xmlns="http://www.w3.org/2000/svg">
<path d="M513 44.8828H1V109H513V44.8828Z" fill="white"/>
<path d="M512.2 45.6836H1.7998V108.198H512.2V45.6836Z" stroke="#D0D0D0"/>
<path d="M1.368 4.792V3.432H10.12V4.792H6.592V15H5.104V4.792H1.368ZM11.6706 11.208C11.6706 11.7307 11.756 12.2053 11.9266 12.632C12.1026 13.0533 12.3666 13.3893 12.7186 13.64C13.076 13.8907 13.5213 14.016 14.0546 14.016C14.5826 14.016 15.036 13.8933 15.4146 13.648C15.7986 13.4027 16.044 13.048 16.1506 12.584H17.5506C17.4493 13.144 17.2253 13.616 16.8786 14C16.532 14.384 16.1133 14.6747 15.6226 14.872C15.132 15.064 14.62 15.16 14.0866 15.16C13.3133 15.16 12.6333 14.992 12.0466 14.656C11.46 14.32 11.0013 13.8373 10.6706 13.208C10.34 12.5787 10.1746 11.824 10.1746 10.944C10.1746 10.0747 10.324 9.312 10.6226 8.656C10.9213 8 11.3533 7.488 11.9186 7.12C12.4893 6.752 13.1746 6.568 13.9746 6.568C15.1426 6.568 16.0386 6.93867 16.6626 7.68C17.2866 8.416 17.5986 9.41067 17.5986 10.664V11.208H11.6706ZM11.6786 10.208H16.1746C16.1746 9.49867 15.9933 8.90133 15.6306 8.416C15.268 7.93067 14.7133 7.688 13.9666 7.688C13.4493 7.688 13.02 7.81333 12.6786 8.064C12.3373 8.30933 12.084 8.62667 11.9186 9.016C11.7533 9.4 11.6733 9.79733 11.6786 10.208ZM26.3638 15H24.7558L22.3478 11.76L19.9557 15H18.3318L21.5238 10.704L18.5878 6.728H20.2038L22.3478 9.632L24.4998 6.728H26.1158L23.1718 10.704L26.3638 15ZM32.161 7.808H30.297V12.952C30.297 13.3947 30.3663 13.6667 30.505 13.768C30.649 13.864 30.9157 13.912 31.305 13.912H32.209V14.904C32.1023 14.9413 31.9477 14.9733 31.745 15C31.5423 15.0267 31.289 15.04 30.985 15.04C30.1263 15.04 29.5477 14.8667 29.249 14.52C28.9557 14.1733 28.809 13.6667 28.809 13V7.808H27.465V6.728H28.849L29.209 4.32H30.297V6.72H32.161V7.808ZM39.606 3.44V4.976H38.094V3.44H39.606ZM39.574 6.728V15H38.142V6.728H39.574ZM42.2865 15V6.728H43.7185V7.928C43.9212 7.58133 44.2385 7.27467 44.6705 7.008C45.1025 6.74133 45.6492 6.608 46.3105 6.608C46.8332 6.608 47.3132 6.712 47.7505 6.92C48.1932 7.128 48.5452 7.45333 48.8065 7.896C49.0732 8.33333 49.2065 8.89867 49.2065 9.592V15H47.7265V9.736C47.7265 9.09067 47.5558 8.61333 47.2145 8.304C46.8785 7.98933 46.4412 7.832 45.9025 7.832C45.5292 7.832 45.1798 7.89333 44.8545 8.016C44.5292 8.13333 44.2652 8.31467 44.0625 8.56C43.8598 8.8 43.7585 9.104 43.7585 9.472V15H42.2865ZM51.5209 17.576V6.728H52.9929L53.0089 8.168C53.1369 7.944 53.3155 7.70933 53.5449 7.464C53.7795 7.21333 54.0755 7.00267 54.4329 6.832C54.7902 6.656 55.2222 6.568 55.7289 6.568C56.7155 6.568 57.5209 6.90933 58.1449 7.592C58.7689 8.27467 59.0809 9.328 59.0809 10.752C59.0809 12.1707 58.7742 13.2613 58.1609 14.024C57.5475 14.7813 56.6969 15.16 55.6089 15.16C55.1182 15.16 54.6995 15.072 54.3529 14.896C54.0115 14.7147 53.7315 14.496 53.5129 14.24C53.2942 13.984 53.1262 13.7387 53.0089 13.504V17.576H51.5209ZM55.3289 14.008C56.0115 14.008 56.5689 13.7493 57.0009 13.232C57.4329 12.7093 57.6489 11.8987 57.6489 10.8C57.6489 9.86133 57.4515 9.11467 57.0569 8.56C56.6622 8 56.0862 7.72 55.3289 7.72C54.5609 7.72 53.9795 8.00533 53.5849 8.576C53.1902 9.14667 52.9929 9.888 52.9929 10.8C52.9929 11.392 53.0809 11.9307 53.2569 12.416C53.4329 12.9013 53.6942 13.288 54.0409 13.576C54.3875 13.864 54.8169 14.008 55.3289 14.008ZM63.9203 15.16C63.3443 15.1547 62.8163 15.048 62.3363 14.84C61.8563 14.6267 61.4696 14.312 61.1763 13.896C60.8883 13.48 60.7443 12.9627 60.7443 12.344V6.728H62.2243V12.192C62.2243 12.7307 62.3896 13.168 62.7203 13.504C63.0563 13.84 63.5603 14.008 64.2323 14.008C64.8403 14.008 65.3283 13.8507 65.6963 13.536C66.0696 13.216 66.2563 12.7413 66.2563 12.112V6.728H67.7283V15H66.5523L66.4003 13.416C66.2509 14.04 65.9469 14.488 65.4883 14.76C65.0296 15.032 64.5069 15.1653 63.9203 15.16ZM74.3485 7.808H72.4845V12.952C72.4845 13.3947 72.5538 13.6667 72.6925 13.768C72.8365 13.864 73.1032 13.912 73.4925 13.912H74.3965V14.904C74.2898 14.9413 74.1352 14.9733 73.9325 15C73.7298 15.0267 73.4765 15.04 73.1725 15.04C72.3138 15.04 71.7352 14.8667 71.4365 14.52C71.1432 14.1733 70.9965 13.6667 70.9965 13V7.808H69.6525V6.728H71.0365L71.3965 4.32H72.4845V6.72H74.3485V7.808ZM82.2495 15.104C81.6522 15.104 81.2042 15 80.9055 14.792C80.6068 14.5787 80.4068 14.304 80.3055 13.968C80.2095 13.6267 80.1615 13.2613 80.1615 12.872V3.112H81.6175V12.728C81.6175 13.1493 81.6975 13.464 81.8575 13.672C82.0228 13.8747 82.2522 13.9867 82.5455 14.008L82.9935 14.016V14.976C82.7268 15.0613 82.4788 15.104 82.2495 15.104ZM87.137 15.16C86.3317 15.16 85.6757 14.9493 85.169 14.528C84.6623 14.1067 84.409 13.5173 84.409 12.76C84.409 11.8427 84.729 11.16 85.369 10.712C86.009 10.264 87.0357 10.024 88.449 9.992L89.929 9.952V9.304C89.929 8.79733 89.7743 8.39733 89.465 8.104C89.161 7.80533 88.6917 7.656 88.057 7.656C87.5823 7.66133 87.1637 7.776 86.801 8C86.4383 8.21867 86.2063 8.57333 86.105 9.064H84.801C84.8437 8.25867 85.1583 7.64267 85.745 7.216C86.3317 6.784 87.1263 6.568 88.129 6.568C89.2063 6.568 90.0117 6.79467 90.545 7.248C91.0837 7.70133 91.353 8.36 91.353 9.224V15H90.089L89.985 13.448C89.6597 14.0933 89.2517 14.5413 88.761 14.792C88.2703 15.0373 87.729 15.16 87.137 15.16ZM87.585 14.096C87.953 14.096 88.3157 14.008 88.673 13.832C89.0357 13.656 89.3343 13.432 89.569 13.16C89.8037 12.8827 89.9237 12.5893 89.929 12.28V10.864L88.697 10.888C87.7477 10.904 87.0357 11.0453 86.561 11.312C86.0863 11.5733 85.849 12.008 85.849 12.616C85.849 13.0853 86.009 13.4507 86.329 13.712C86.6543 13.968 87.073 14.096 87.585 14.096ZM97.9683 15.16C97.3229 15.16 96.8083 15.0507 96.4243 14.832C96.0403 14.6133 95.7523 14.3573 95.5603 14.064C95.3683 13.7707 95.2376 13.5173 95.1683 13.304L95.0082 15H93.8803V3.112H95.3683V8.04C95.4589 7.85867 95.6163 7.65333 95.8403 7.424C96.0643 7.19467 96.3603 6.99467 96.7283 6.824C97.1016 6.65333 97.5523 6.568 98.0803 6.568C99.1149 6.568 99.9363 6.928 100.544 7.648C101.158 8.368 101.464 9.42933 101.464 10.832C101.464 12.1333 101.171 13.1813 100.584 13.976C100.003 14.7653 99.1309 15.16 97.9683 15.16ZM97.7043 14.024C98.3709 14.024 98.9149 13.7653 99.3363 13.248C99.7629 12.7253 99.9763 11.896 99.9763 10.76C99.9763 9.79467 99.7789 9.048 99.3843 8.52C98.9949 7.98667 98.4243 7.72 97.6723 7.72C96.8509 7.72 96.2643 7.98667 95.9123 8.52C95.5603 9.048 95.3789 9.79467 95.3683 10.76C95.3683 11.9173 95.5469 12.752 95.9043 13.264C96.2669 13.7707 96.8669 14.024 97.7043 14.024ZM104.452 11.208C104.452 11.7307 104.537 12.2053 104.708 12.632C104.884 13.0533 105.148 13.3893 105.5 13.64C105.857 13.8907 106.303 14.016 106.836 14.016C107.364 14.016 107.817 13.8933 108.196 13.648C108.58 13.4027 108.825 13.048 108.932 12.584H110.332C110.231 13.144 110.007 13.616 109.66 14C109.313 14.384 108.895 14.6747 108.404 14.872C107.913 15.064 107.401 15.16 106.868 15.16C106.095 15.16 105.415 14.992 104.828 14.656C104.241 14.32 103.783 13.8373 103.452 13.208C103.121 12.5787 102.956 11.824 102.956 10.944C102.956 10.0747 103.105 9.312 103.404 8.656C103.703 8 104.135 7.488 104.7 7.12C105.271 6.752 105.956 6.568 106.756 6.568C107.924 6.568 108.82 6.93867 109.444 7.68C110.068 8.416 110.38 9.41067 110.38 10.664V11.208H104.452ZM104.46 10.208H108.956C108.956 9.49867 108.775 8.90133 108.412 8.416C108.049 7.93067 107.495 7.688 106.748 7.688C106.231 7.688 105.801 7.81333 105.46 8.064C105.119 8.30933 104.865 8.62667 104.7 9.016C104.535 9.4 104.455 9.79733 104.46 10.208ZM114.5 15.104C113.902 15.104 113.454 15 113.156 14.792C112.857 14.5787 112.657 14.304 112.556 13.968C112.46 13.6267 112.412 13.2613 112.412 12.872V3.112H113.868V12.728C113.868 13.1493 113.948 13.464 114.108 13.672C114.273 13.8747 114.502 13.9867 114.796 14.008L115.244 14.016V14.976C114.977 15.0613 114.729 15.104 114.5 15.104Z" fill="#1B1B1B"/>
<path d="M513 203.883H1V268H513V203.883Z" fill="white"/>
<path d="M512.2 204.684H1.7998V267.198H512.2V204.684Z" stroke="#D0D0D0"/>
<path d="M1.368 163.792V162.432H10.12V163.792H6.592V174H5.104V163.792H1.368ZM11.6706 170.208C11.6706 170.731 11.756 171.205 11.9266 171.632C12.1026 172.053 12.3666 172.389 12.7186 172.64C13.076 172.891 13.5213 173.016 14.0546 173.016C14.5826 173.016 15.036 172.893 15.4146 172.648C15.7986 172.403 16.044 172.048 16.1506 171.584H17.5506C17.4493 172.144 17.2253 172.616 16.8786 173C16.532 173.384 16.1133 173.675 15.6226 173.872C15.132 174.064 14.62 174.16 14.0866 174.16C13.3133 174.16 12.6333 173.992 12.0466 173.656C11.46 173.32 11.0013 172.837 10.6706 172.208C10.34 171.579 10.1746 170.824 10.1746 169.944C10.1746 169.075 10.324 168.312 10.6226 167.656C10.9213 167 11.3533 166.488 11.9186 166.12C12.4893 165.752 13.1746 165.568 13.9746 165.568C15.1426 165.568 16.0386 165.939 16.6626 166.68C17.2866 167.416 17.5986 168.411 17.5986 169.664V170.208H11.6706ZM11.6786 169.208H16.1746C16.1746 168.499 15.9933 167.901 15.6306 167.416C15.268 166.931 14.7133 166.688 13.9666 166.688C13.4493 166.688 13.02 166.813 12.6786 167.064C12.3373 167.309 12.084 167.627 11.9186 168.016C11.7533 168.4 11.6733 168.797 11.6786 169.208ZM26.3638 174H24.7558L22.3478 170.76L19.9557 174H18.3318L21.5238 169.704L18.5878 165.728H20.2038L22.3478 168.632L24.4998 165.728H26.1158L23.1718 169.704L26.3638 174ZM32.161 166.808H30.297V171.952C30.297 172.395 30.3663 172.667 30.505 172.768C30.649 172.864 30.9157 172.912 31.305 172.912H32.209V173.904C32.1023 173.941 31.9477 173.973 31.745 174C31.5423 174.027 31.289 174.04 30.985 174.04C30.1263 174.04 29.5477 173.867 29.249 173.52C28.9557 173.173 28.809 172.667 28.809 172V166.808H27.465V165.728H28.849L29.209 163.32H30.297V165.72H32.161V166.808ZM39.606 162.44V163.976H38.094V162.44H39.606ZM39.574 165.728V174H38.142V165.728H39.574ZM42.2865 174V165.728H43.7185V166.928C43.9212 166.581 44.2385 166.275 44.6705 166.008C45.1025 165.741 45.6492 165.608 46.3105 165.608C46.8332 165.608 47.3132 165.712 47.7505 165.92C48.1932 166.128 48.5452 166.453 48.8065 166.896C49.0732 167.333 49.2065 167.899 49.2065 168.592V174H47.7265V168.736C47.7265 168.091 47.5558 167.613 47.2145 167.304C46.8785 166.989 46.4412 166.832 45.9025 166.832C45.5292 166.832 45.1798 166.893 44.8545 167.016C44.5292 167.133 44.2652 167.315 44.0625 167.56C43.8598 167.8 43.7585 168.104 43.7585 168.472V174H42.2865ZM51.5209 176.576V165.728H52.9929L53.0089 167.168C53.1369 166.944 53.3155 166.709 53.5449 166.464C53.7795 166.213 54.0755 166.003 54.4329 165.832C54.7902 165.656 55.2222 165.568 55.7289 165.568C56.7155 165.568 57.5209 165.909 58.1449 166.592C58.7689 167.275 59.0809 168.328 59.0809 169.752C59.0809 171.171 58.7742 172.261 58.1609 173.024C57.5475 173.781 56.6969 174.16 55.6089 174.16C55.1182 174.16 54.6995 174.072 54.3529 173.896C54.0115 173.715 53.7315 173.496 53.5129 173.24C53.2942 172.984 53.1262 172.739 53.0089 172.504V176.576H51.5209ZM55.3289 173.008C56.0115 173.008 56.5689 172.749 57.0009 172.232C57.4329 171.709 57.6489 170.899 57.6489 169.8C57.6489 168.861 57.4515 168.115 57.0569 167.56C56.6622 167 56.0862 166.72 55.3289 166.72C54.5609 166.72 53.9795 167.005 53.5849 167.576C53.1902 168.147 52.9929 168.888 52.9929 169.8C52.9929 170.392 53.0809 170.931 53.2569 171.416C53.4329 171.901 53.6942 172.288 54.0409 172.576C54.3875 172.864 54.8169 173.008 55.3289 173.008ZM63.9203 174.16C63.3443 174.155 62.8163 174.048 62.3363 173.84C61.8563 173.627 61.4696 173.312 61.1763 172.896C60.8883 172.48 60.7443 171.963 60.7443 171.344V165.728H62.2243V171.192C62.2243 171.731 62.3896 172.168 62.7203 172.504C63.0563 172.84 63.5603 173.008 64.2323 173.008C64.8403 173.008 65.3283 172.851 65.6963 172.536C66.0696 172.216 66.2563 171.741 66.2563 171.112V165.728H67.7283V174H66.5523L66.4003 172.416C66.2509 173.04 65.9469 173.488 65.4883 173.76C65.0296 174.032 64.5069 174.165 63.9203 174.16ZM74.3485 166.808H72.4845V171.952C72.4845 172.395 72.5538 172.667 72.6925 172.768C72.8365 172.864 73.1032 172.912 73.4925 172.912H74.3965V173.904C74.2898 173.941 74.1352 173.973 73.9325 174C73.7298 174.027 73.4765 174.04 73.1725 174.04C72.3138 174.04 71.7352 173.867 71.4365 173.52C71.1432 173.173 70.9965 172.667 70.9965 172V166.808H69.6525V165.728H71.0365L71.3965 163.32H72.4845V165.72H74.3485V166.808ZM80.1615 174V165.728H81.5695V167.32C81.7775 166.728 82.1055 166.288 82.5535 166C83.0068 165.712 83.4948 165.568 84.0175 165.568C84.1402 165.568 84.2575 165.576 84.3695 165.592C84.4868 165.608 84.5802 165.635 84.6495 165.672V167.104C84.5695 167.067 84.4655 167.043 84.3375 167.032C84.2148 167.016 84.1108 167.008 84.0255 167.008C83.3695 166.965 82.8068 167.091 82.3375 167.384C81.8682 167.677 81.6335 168.168 81.6335 168.856V174H80.1615ZM87.2331 170.208C87.2331 170.731 87.3185 171.205 87.4891 171.632C87.6651 172.053 87.9291 172.389 88.2811 172.64C88.6385 172.891 89.0838 173.016 89.6171 173.016C90.1451 173.016 90.5985 172.893 90.9771 172.648C91.3611 172.403 91.6065 172.048 91.7131 171.584H93.1131C93.0118 172.144 92.7878 172.616 92.4411 173C92.0945 173.384 91.6758 173.675 91.1851 173.872C90.6945 174.064 90.1825 174.16 89.6491 174.16C88.8758 174.16 88.1958 173.992 87.6091 173.656C87.0225 173.32 86.5638 172.837 86.2331 172.208C85.9025 171.579 85.7371 170.824 85.7371 169.944C85.7371 169.075 85.8865 168.312 86.1851 167.656C86.4838 167 86.9158 166.488 87.4811 166.12C88.0518 165.752 88.7371 165.568 89.5371 165.568C90.7051 165.568 91.6011 165.939 92.2251 166.68C92.8491 167.416 93.1611 168.411 93.1611 169.664V170.208H87.2331ZM87.2411 169.208H91.7371C91.7371 168.499 91.5558 167.901 91.1931 167.416C90.8305 166.931 90.2758 166.688 89.5291 166.688C89.0118 166.688 88.5825 166.813 88.2411 167.064C87.8998 167.309 87.6465 167.627 87.4811 168.016C87.3158 168.4 87.2358 168.797 87.2411 169.208ZM102.249 176.576H100.761V172.504C100.643 172.739 100.475 172.984 100.257 173.24C100.038 173.496 99.7554 173.715 99.4088 173.896C99.0674 174.072 98.6488 174.16 98.1528 174.16C97.4914 174.16 96.8994 174.008 96.3768 173.704C95.8541 173.395 95.4408 172.915 95.1368 172.264C94.8328 171.613 94.6808 170.776 94.6808 169.752C94.6808 168.435 94.9688 167.408 95.5448 166.672C96.1261 165.936 96.9581 165.568 98.0408 165.568C98.5474 165.568 98.9794 165.656 99.3368 165.832C99.6941 166.003 99.9874 166.213 100.217 166.464C100.451 166.709 100.63 166.944 100.753 167.168L100.777 165.728H102.249V176.576ZM98.4328 173.008C98.9501 173.008 99.3821 172.864 99.7288 172.576C100.075 172.288 100.337 171.901 100.513 171.416C100.689 170.931 100.777 170.392 100.777 169.8C100.777 168.888 100.579 168.147 100.185 167.576C99.7901 167.005 99.2061 166.72 98.4328 166.72C97.7554 166.72 97.1981 166.976 96.7608 167.488C96.3288 167.995 96.1128 168.765 96.1128 169.8C96.1128 170.797 96.3101 171.581 96.7048 172.152C97.1048 172.723 97.6808 173.008 98.4328 173.008ZM107.733 174.16C107.157 174.155 106.629 174.048 106.149 173.84C105.669 173.627 105.282 173.312 104.989 172.896C104.701 172.48 104.557 171.963 104.557 171.344V165.728H106.037V171.192C106.037 171.731 106.202 172.168 106.533 172.504C106.869 172.84 107.373 173.008 108.045 173.008C108.653 173.008 109.141 172.851 109.509 172.536C109.882 172.216 110.069 171.741 110.069 171.112V165.728H111.541V174H110.365L110.213 172.416C110.063 173.04 109.759 173.488 109.301 173.76C108.842 174.032 108.319 174.165 107.733 174.16ZM115.59 162.44V163.976H114.078V162.44H115.59ZM115.558 165.728V174H114.126V165.728H115.558ZM118.271 174V165.728H119.679V167.32C119.887 166.728 120.215 166.288 120.663 166C121.116 165.712 121.604 165.568 122.127 165.568C122.25 165.568 122.367 165.576 122.479 165.592C122.596 165.608 122.69 165.635 122.759 165.672V167.104C122.679 167.067 122.575 167.043 122.447 167.032C122.324 167.016 122.22 167.008 122.135 167.008C121.479 166.965 120.916 167.091 120.447 167.384C119.978 167.677 119.743 168.168 119.743 168.856V174H118.271ZM125.343 170.208C125.343 170.731 125.428 171.205 125.599 171.632C125.775 172.053 126.039 172.389 126.391 172.64C126.748 172.891 127.193 173.016 127.727 173.016C128.255 173.016 128.708 172.893 129.087 172.648C129.471 172.403 129.716 172.048 129.823 171.584H131.223C131.121 172.144 130.897 172.616 130.551 173C130.204 173.384 129.785 173.675 129.295 173.872C128.804 174.064 128.292 174.16 127.759 174.16C126.985 174.16 126.305 173.992 125.719 173.656C125.132 173.32 124.673 172.837 124.343 172.208C124.012 171.579 123.847 170.824 123.847 169.944C123.847 169.075 123.996 168.312 124.295 167.656C124.593 167 125.025 166.488 125.591 166.12C126.161 165.752 126.847 165.568 127.647 165.568C128.815 165.568 129.711 165.939 130.335 166.68C130.959 167.416 131.271 168.411 131.271 169.664V170.208H125.343ZM125.351 169.208H129.847C129.847 168.499 129.665 167.901 129.303 167.416C128.94 166.931 128.385 166.688 127.639 166.688C127.121 166.688 126.692 166.813 126.351 167.064C126.009 167.309 125.756 167.627 125.591 168.016C125.425 168.4 125.345 168.797 125.351 169.208ZM136.286 174.16C135.209 174.16 134.355 173.792 133.726 173.056C133.102 172.32 132.79 171.245 132.79 169.832C132.79 168.541 133.073 167.509 133.638 166.736C134.209 165.957 135.054 165.568 136.174 165.568C136.697 165.568 137.142 165.653 137.51 165.824C137.883 165.995 138.182 166.195 138.406 166.424C138.635 166.653 138.795 166.859 138.886 167.04V162.112H140.374V174H139.246L139.086 172.304C139.017 172.517 138.886 172.771 138.694 173.064C138.502 173.357 138.214 173.613 137.83 173.832C137.446 174.051 136.931 174.16 136.286 174.16ZM136.55 173.024C137.387 173.024 137.985 172.771 138.342 172.264C138.705 171.752 138.886 170.917 138.886 169.76C138.875 168.795 138.694 168.048 138.342 167.52C137.99 166.987 137.403 166.72 136.582 166.72C135.905 166.72 135.35 166.963 134.918 167.448C134.491 167.928 134.278 168.699 134.278 169.76C134.278 170.795 134.47 171.597 134.854 172.168C135.243 172.739 135.809 173.024 136.55 173.024Z" fill="#1B1B1B"/>
<path d="M150.432 167.832L149.184 165.808L147.896 167.88L147.016 167.28L148.528 165.4L146.424 164.808L146.76 163.872L148.768 164.68L148.624 162.432H149.712L149.568 164.688L151.6 163.808L151.904 164.744L149.848 165.392L151.32 167.2L150.432 167.832Z" fill="black"/>
<line x1="2" y1="318" x2="2" y2="409" stroke="#830005" stroke-width="2"/>
<path d="M22 400.824H515V463H22V400.824Z" fill="white" stroke="#830005" stroke-width="2"/>
<path d="M29.688 364.932H24.624V369.9H22.296V358.332H24.624V362.972H29.688V358.332H32.024V369.9H29.688V364.932ZM36.0138 366.3C36.0084 366.935 36.1604 367.439 36.4698 367.812C36.7791 368.186 37.2138 368.372 37.7738 368.372C38.1738 368.372 38.5231 368.287 38.8218 368.116C39.1258 367.946 39.3364 367.666 39.4538 367.276H41.5578C41.4671 367.863 41.2324 368.364 40.8538 368.78C40.4804 369.196 40.0271 369.514 39.4938 369.732C38.9604 369.951 38.4058 370.06 37.8298 370.06C37.0084 370.06 36.2884 369.89 35.6698 369.548C35.0511 369.202 34.5684 368.714 34.2218 368.084C33.8751 367.455 33.7018 366.714 33.7018 365.86C33.7018 365.034 33.8591 364.29 34.1738 363.628C34.4884 362.962 34.9444 362.436 35.5418 362.052C36.1444 361.663 36.8671 361.468 37.7098 361.468C38.5524 361.468 39.2591 361.647 39.8298 362.004C40.4058 362.356 40.8378 362.85 41.1258 363.484C41.4191 364.114 41.5658 364.842 41.5658 365.668V366.3H36.0138ZM36.0058 364.908H39.3818C39.3818 364.407 39.2431 363.98 38.9658 363.628C38.6884 363.276 38.2698 363.1 37.7098 363.1C37.3471 363.1 37.0378 363.188 36.7818 363.364C36.5311 363.54 36.3391 363.767 36.2058 364.044C36.0724 364.316 36.0058 364.604 36.0058 364.908ZM45.8275 370.044C45.2142 370.044 44.7288 369.972 44.3715 369.828C44.0195 369.684 43.7582 369.495 43.5875 369.26C43.4168 369.02 43.3075 368.756 43.2595 368.468C43.2115 368.175 43.1875 367.879 43.1875 367.58V358.012H45.4755V367.292C45.4755 367.596 45.5422 367.844 45.6755 368.036C45.8088 368.228 46.0542 368.343 46.4115 368.38L46.8035 368.404V369.844C46.6435 369.903 46.4782 369.951 46.3075 369.988C46.1422 370.026 45.9822 370.044 45.8275 370.044ZM48.3281 372.476V361.628H50.6721L50.6801 362.82C50.9308 362.436 51.2801 362.116 51.7281 361.86C52.1761 361.599 52.6828 361.468 53.2481 361.468C54.1708 361.468 54.9308 361.812 55.5281 362.5C56.1308 363.188 56.4321 364.255 56.4321 365.7C56.4321 366.703 56.2828 367.527 55.9841 368.172C55.6908 368.812 55.2855 369.287 54.7681 369.596C54.2508 369.906 53.6668 370.06 53.0161 370.06C52.4828 370.06 52.0135 369.924 51.6081 369.652C51.2081 369.38 50.8935 369.05 50.6641 368.66V372.476H48.3281ZM52.4561 368.348C52.9575 368.348 53.3815 368.14 53.7281 367.724C54.0748 367.303 54.2481 366.634 54.2481 365.716C54.2481 364.922 54.0828 364.298 53.7521 363.844C53.4268 363.391 52.9948 363.164 52.4561 363.164C51.8481 363.164 51.3975 363.41 51.1041 363.9C50.8108 364.386 50.6641 364.991 50.6641 365.716C50.6641 366.18 50.7281 366.612 50.8561 367.012C50.9841 367.412 51.1815 367.735 51.4481 367.98C51.7148 368.226 52.0508 368.348 52.4561 368.348ZM62.798 361.628V363.252H61.054V369.9H58.718V363.252H57.19V361.628H58.718V360.436C58.718 359.77 58.9127 359.252 59.302 358.884C59.6967 358.516 60.254 358.332 60.974 358.332H62.87L62.878 359.884H61.79C61.4913 359.884 61.286 359.959 61.174 360.108C61.0673 360.252 61.014 360.492 61.014 360.828V361.628H62.798ZM67.2199 370.06C66.7132 370.06 66.2172 369.956 65.7319 369.748C65.2519 369.54 64.8545 369.236 64.5399 368.836C64.2252 368.431 64.0679 367.935 64.0679 367.348V361.628H66.4039V367.052C66.4039 367.436 66.5292 367.751 66.7799 367.996C67.0305 368.242 67.3985 368.364 67.8839 368.364C68.3372 368.364 68.6999 368.247 68.9719 368.012C69.2439 367.772 69.3799 367.439 69.3799 367.012V361.628H71.6919V369.9H69.9319L69.6599 368.26C69.5639 368.746 69.3825 369.119 69.1159 369.38C68.8545 369.636 68.5532 369.812 68.2119 369.908C67.8759 370.01 67.5452 370.06 67.2199 370.06ZM76.2806 370.044C75.6673 370.044 75.182 369.972 74.8246 369.828C74.4726 369.684 74.2113 369.495 74.0406 369.26C73.87 369.02 73.7606 368.756 73.7126 368.468C73.6646 368.175 73.6406 367.879 73.6406 367.58V358.012H75.9286V367.292C75.9286 367.596 75.9953 367.844 76.1286 368.036C76.262 368.228 76.5073 368.343 76.8646 368.38L77.2566 368.404V369.844C77.0966 369.903 76.9313 369.951 76.7606 369.988C76.5953 370.026 76.4353 370.044 76.2806 370.044ZM84.0606 366.3C84.0553 366.935 84.2073 367.439 84.5166 367.812C84.826 368.186 85.2606 368.372 85.8206 368.372C86.2206 368.372 86.57 368.287 86.8686 368.116C87.1726 367.946 87.3833 367.666 87.5006 367.276H89.6046C89.514 367.863 89.2793 368.364 88.9006 368.78C88.5273 369.196 88.074 369.514 87.5406 369.732C87.0073 369.951 86.4526 370.06 85.8766 370.06C85.0553 370.06 84.3353 369.89 83.7166 369.548C83.098 369.202 82.6153 368.714 82.2686 368.084C81.922 367.455 81.7486 366.714 81.7486 365.86C81.7486 365.034 81.906 364.29 82.2206 363.628C82.5353 362.962 82.9913 362.436 83.5886 362.052C84.1913 361.663 84.914 361.468 85.7566 361.468C86.5993 361.468 87.306 361.647 87.8766 362.004C88.4526 362.356 88.8846 362.85 89.1726 363.484C89.466 364.114 89.6126 364.842 89.6126 365.668V366.3H84.0606ZM84.0526 364.908H87.4286C87.4286 364.407 87.29 363.98 87.0126 363.628C86.7353 363.276 86.3166 363.1 85.7566 363.1C85.394 363.1 85.0846 363.188 84.8286 363.364C84.578 363.54 84.386 363.767 84.2526 364.044C84.1193 364.316 84.0526 364.604 84.0526 364.908ZM91.2344 369.9V361.628H93.4824V363.588C93.6797 362.954 94.0024 362.442 94.4504 362.052C94.8984 361.663 95.4504 361.468 96.1064 361.468C96.2824 361.468 96.4024 361.484 96.4664 361.516V363.74C96.4184 363.724 96.3597 363.714 96.2904 363.708C96.2264 363.698 96.1677 363.69 96.1144 363.684C95.1917 363.604 94.5357 363.727 94.1464 364.052C93.7624 364.378 93.5704 364.818 93.5704 365.372V369.9H91.2344ZM97.7344 369.9V361.628H99.9824V363.588C100.18 362.954 100.502 362.442 100.95 362.052C101.398 361.663 101.95 361.468 102.606 361.468C102.782 361.468 102.902 361.484 102.966 361.516V363.74C102.918 363.724 102.86 363.714 102.79 363.708C102.726 363.698 102.668 363.69 102.614 363.684C101.692 363.604 101.036 363.727 100.646 364.052C100.262 364.378 100.07 364.818 100.07 365.372V369.9H97.7344ZM107.74 370.06C106.929 370.06 106.222 369.887 105.62 369.54C105.022 369.194 104.558 368.703 104.228 368.068C103.902 367.434 103.74 366.682 103.74 365.812C103.74 364.943 103.902 364.183 104.228 363.532C104.558 362.882 105.022 362.375 105.62 362.012C106.222 361.65 106.932 361.468 107.748 361.468C108.564 361.468 109.27 361.647 109.868 362.004C110.465 362.362 110.926 362.866 111.252 363.516C111.577 364.162 111.74 364.927 111.74 365.812C111.74 366.644 111.58 367.38 111.26 368.02C110.945 368.655 110.489 369.154 109.892 369.516C109.3 369.879 108.582 370.06 107.74 370.06ZM107.748 368.324C108.158 368.324 108.489 368.204 108.74 367.964C108.99 367.724 109.172 367.41 109.284 367.02C109.401 366.626 109.46 366.196 109.46 365.732C109.46 365.295 109.406 364.884 109.3 364.5C109.193 364.111 109.014 363.796 108.764 363.556C108.518 363.311 108.18 363.188 107.748 363.188C107.337 363.188 107.004 363.303 106.748 363.532C106.497 363.762 106.313 364.068 106.196 364.452C106.078 364.836 106.02 365.263 106.02 365.732C106.02 366.164 106.073 366.58 106.18 366.98C106.286 367.375 106.465 367.698 106.716 367.948C106.966 368.199 107.31 368.324 107.748 368.324ZM113.297 369.9V361.628H115.545V363.588C115.742 362.954 116.065 362.442 116.513 362.052C116.961 361.663 117.513 361.468 118.169 361.468C118.345 361.468 118.465 361.484 118.529 361.516V363.74C118.481 363.724 118.422 363.714 118.353 363.708C118.289 363.698 118.23 363.69 118.177 363.684C117.254 363.604 116.598 363.727 116.209 364.052C115.825 364.378 115.633 364.818 115.633 365.372V369.9H113.297ZM123.188 369.9V361.628H125.476V362.796C125.726 362.434 126.062 362.122 126.484 361.86C126.91 361.599 127.446 361.468 128.092 361.468C128.513 361.468 128.942 361.58 129.38 361.804C129.822 362.028 130.166 362.359 130.411 362.796C130.678 362.418 131.028 362.103 131.46 361.852C131.897 361.596 132.382 361.468 132.916 361.468C133.326 361.468 133.74 361.562 134.156 361.748C134.572 361.935 134.918 362.244 135.196 362.676C135.478 363.108 135.62 363.698 135.62 364.444V369.9H133.284V364.732C133.284 364.231 133.145 363.879 132.868 363.676C132.59 363.474 132.286 363.372 131.956 363.372C131.748 363.372 131.537 363.415 131.324 363.5C131.11 363.58 130.929 363.711 130.78 363.892C130.63 364.074 130.556 364.311 130.556 364.604V369.9H128.228V364.524C128.228 364.151 128.086 363.866 127.804 363.668C127.521 363.471 127.225 363.372 126.916 363.372C126.596 363.372 126.284 363.474 125.98 363.676C125.676 363.879 125.524 364.188 125.524 364.604V369.9H123.188ZM139.436 366.3C139.43 366.935 139.582 367.439 139.892 367.812C140.201 368.186 140.636 368.372 141.196 368.372C141.596 368.372 141.945 368.287 142.244 368.116C142.548 367.946 142.758 367.666 142.876 367.276H144.98C144.889 367.863 144.654 368.364 144.276 368.78C143.902 369.196 143.449 369.514 142.916 369.732C142.382 369.951 141.828 370.06 141.252 370.06C140.43 370.06 139.71 369.89 139.092 369.548C138.473 369.202 137.99 368.714 137.644 368.084C137.297 367.455 137.124 366.714 137.124 365.86C137.124 365.034 137.281 364.29 137.596 363.628C137.91 362.962 138.366 362.436 138.964 362.052C139.566 361.663 140.289 361.468 141.132 361.468C141.974 361.468 142.681 361.647 143.252 362.004C143.828 362.356 144.26 362.85 144.548 363.484C144.841 364.114 144.988 364.842 144.988 365.668V366.3H139.436ZM139.428 364.908H142.804C142.804 364.407 142.665 363.98 142.388 363.628C142.11 363.276 141.692 363.1 141.132 363.1C140.769 363.1 140.46 363.188 140.204 363.364C139.953 363.54 139.761 363.767 139.628 364.044C139.494 364.316 139.428 364.604 139.428 364.908ZM149.85 370.06C149.269 370.06 148.714 369.967 148.186 369.78C147.658 369.588 147.207 369.29 146.834 368.884C146.461 368.479 146.226 367.948 146.13 367.292H148.154C148.255 367.735 148.479 368.042 148.826 368.212C149.178 368.378 149.514 368.46 149.834 368.46C150.282 368.46 150.642 368.391 150.914 368.252C151.191 368.108 151.33 367.89 151.33 367.596C151.33 367.372 151.247 367.194 151.082 367.06C150.922 366.927 150.655 366.826 150.282 366.756L148.826 366.452C148.095 366.298 147.506 366.036 147.058 365.668C146.615 365.295 146.391 364.767 146.386 364.084C146.381 363.338 146.674 362.716 147.266 362.22C147.863 361.719 148.727 361.468 149.858 361.468C150.877 361.468 151.69 361.695 152.298 362.148C152.911 362.596 153.223 363.226 153.234 364.036H151.282C151.223 363.716 151.063 363.471 150.802 363.3C150.546 363.124 150.223 363.036 149.834 363.036C149.429 363.036 149.095 363.108 148.834 363.252C148.573 363.396 148.442 363.615 148.442 363.908C148.442 364.127 148.549 364.3 148.762 364.428C148.975 364.551 149.306 364.658 149.754 364.748L151.098 365.052C151.711 365.202 152.178 365.42 152.498 365.708C152.823 365.996 153.042 366.3 153.154 366.62C153.271 366.935 153.33 367.218 153.33 367.468C153.33 368.295 153.007 368.935 152.362 369.388C151.717 369.836 150.879 370.06 149.85 370.06ZM158.131 370.06C157.55 370.06 156.995 369.967 156.467 369.78C155.939 369.588 155.489 369.29 155.115 368.884C154.742 368.479 154.507 367.948 154.411 367.292H156.435C156.537 367.735 156.761 368.042 157.107 368.212C157.459 368.378 157.795 368.46 158.115 368.46C158.563 368.46 158.923 368.391 159.195 368.252C159.473 368.108 159.611 367.89 159.611 367.596C159.611 367.372 159.529 367.194 159.363 367.06C159.203 366.927 158.937 366.826 158.563 366.756L157.107 366.452C156.377 366.298 155.787 366.036 155.339 365.668C154.897 365.295 154.673 364.767 154.667 364.084C154.662 363.338 154.955 362.716 155.547 362.22C156.145 361.719 157.009 361.468 158.139 361.468C159.158 361.468 159.971 361.695 160.579 362.148C161.193 362.596 161.505 363.226 161.515 364.036H159.563C159.505 363.716 159.345 363.471 159.083 363.3C158.827 363.124 158.505 363.036 158.115 363.036C157.71 363.036 157.377 363.108 157.115 363.252C156.854 363.396 156.723 363.615 156.723 363.908C156.723 364.127 156.83 364.3 157.043 364.428C157.257 364.551 157.587 364.658 158.035 364.748L159.379 365.052C159.993 365.202 160.459 365.42 160.779 365.708C161.105 365.996 161.323 366.3 161.435 366.62C161.553 366.935 161.611 367.218 161.611 367.468C161.611 368.295 161.289 368.935 160.643 369.388C159.998 369.836 159.161 370.06 158.131 370.06ZM165.713 370.06C164.918 370.06 164.254 369.842 163.721 369.404C163.187 368.967 162.921 368.343 162.921 367.532C162.921 366.626 163.257 365.938 163.929 365.468C164.606 364.994 165.678 364.748 167.145 364.732L168.177 364.716V364.22C168.177 363.842 168.065 363.551 167.841 363.348C167.622 363.14 167.281 363.039 166.817 363.044C166.475 363.05 166.15 363.13 165.841 363.284C165.537 363.439 165.329 363.708 165.217 364.092H163.273C163.315 363.196 163.675 362.535 164.353 362.108C165.03 361.682 165.886 361.468 166.921 361.468C168.19 361.468 169.089 361.703 169.617 362.172C170.15 362.636 170.417 363.274 170.417 364.084V369.9H168.465L168.273 368.476C167.99 369.074 167.635 369.487 167.209 369.716C166.787 369.946 166.289 370.06 165.713 370.06ZM166.497 368.524C166.779 368.524 167.049 368.46 167.305 368.332C167.561 368.199 167.769 368.028 167.929 367.82C168.094 367.607 168.177 367.38 168.177 367.14V365.916L167.337 365.932C166.947 365.938 166.585 365.983 166.249 366.068C165.913 366.154 165.641 366.298 165.433 366.5C165.23 366.698 165.129 366.964 165.129 367.3C165.129 367.684 165.259 367.986 165.521 368.204C165.787 368.418 166.113 368.524 166.497 368.524ZM176.316 372.636C174.844 372.636 173.724 372.45 172.956 372.076C172.194 371.703 171.812 371.212 171.812 370.604C171.812 370.322 171.887 370.087 172.036 369.9C172.186 369.708 172.359 369.554 172.556 369.436C172.759 369.319 172.943 369.231 173.108 369.172C173.279 369.108 173.383 369.066 173.42 369.044C173.335 368.996 173.21 368.927 173.044 368.836C172.884 368.74 172.738 368.612 172.604 368.452C172.471 368.287 172.404 368.074 172.404 367.812C172.404 367.519 172.543 367.25 172.82 367.004C173.103 366.754 173.53 366.578 174.1 366.476C173.551 366.226 173.135 365.882 172.852 365.444C172.575 365.002 172.436 364.551 172.436 364.092C172.436 363.548 172.604 363.084 172.94 362.7C173.282 362.311 173.748 362.015 174.34 361.812C174.932 361.604 175.602 361.5 176.348 361.5C176.919 361.5 177.386 361.562 177.748 361.684C178.111 361.802 178.447 361.956 178.756 362.148C178.922 362.084 179.151 361.994 179.444 361.876C179.743 361.759 180.05 361.636 180.364 361.508C180.684 361.38 180.959 361.268 181.188 361.172L181.18 362.98L179.748 363.212C179.807 363.362 179.852 363.519 179.884 363.684C179.916 363.844 179.932 363.978 179.932 364.084C179.932 364.564 179.791 365.012 179.508 365.428C179.226 365.844 178.807 366.18 178.252 366.436C177.698 366.692 177.01 366.82 176.188 366.82C176.087 366.82 175.951 366.818 175.78 366.812C175.61 366.807 175.474 366.799 175.372 366.788C175.058 366.804 174.842 366.844 174.724 366.908C174.607 366.972 174.548 367.047 174.548 367.132C174.548 367.26 174.666 367.346 174.9 367.388C175.14 367.431 175.506 367.466 175.996 367.492C176.167 367.503 176.404 367.519 176.708 367.54C177.012 367.556 177.348 367.575 177.716 367.596C178.724 367.666 179.479 367.916 179.98 368.348C180.482 368.775 180.732 369.314 180.732 369.964C180.732 370.743 180.364 371.383 179.628 371.884C178.898 372.386 177.794 372.636 176.316 372.636ZM176.252 365.516C176.695 365.516 177.05 365.396 177.316 365.156C177.588 364.916 177.724 364.586 177.724 364.164C177.724 363.732 177.588 363.386 177.316 363.124C177.05 362.863 176.695 362.732 176.252 362.732C175.81 362.732 175.452 362.866 175.18 363.132C174.908 363.394 174.772 363.738 174.772 364.164C174.772 364.575 174.903 364.903 175.164 365.148C175.431 365.394 175.794 365.516 176.252 365.516ZM176.692 371.332C177.343 371.332 177.807 371.252 178.084 371.092C178.362 370.932 178.5 370.703 178.5 370.404C178.5 370.154 178.394 369.951 178.18 369.796C177.967 369.636 177.655 369.543 177.244 369.516L175.348 369.388C174.975 369.367 174.674 369.455 174.444 369.652C174.215 369.85 174.1 370.076 174.1 370.332C174.1 370.679 174.311 370.932 174.732 371.092C175.154 371.252 175.807 371.332 176.692 371.332ZM184.248 366.3C184.243 366.935 184.395 367.439 184.704 367.812C185.013 368.186 185.448 368.372 186.008 368.372C186.408 368.372 186.757 368.287 187.056 368.116C187.36 367.946 187.571 367.666 187.688 367.276H189.792C189.701 367.863 189.467 368.364 189.088 368.78C188.715 369.196 188.261 369.514 187.728 369.732C187.195 369.951 186.64 370.06 186.064 370.06C185.243 370.06 184.523 369.89 183.904 369.548C183.285 369.202 182.803 368.714 182.456 368.084C182.109 367.455 181.936 366.714 181.936 365.86C181.936 365.034 182.093 364.29 182.408 363.628C182.723 362.962 183.179 362.436 183.776 362.052C184.379 361.663 185.101 361.468 185.944 361.468C186.787 361.468 187.493 361.647 188.064 362.004C188.64 362.356 189.072 362.85 189.36 363.484C189.653 364.114 189.8 364.842 189.8 365.668V366.3H184.248ZM184.24 364.908H187.616C187.616 364.407 187.477 363.98 187.2 363.628C186.923 363.276 186.504 363.1 185.944 363.1C185.581 363.1 185.272 363.188 185.016 363.364C184.765 363.54 184.573 363.767 184.44 364.044C184.307 364.316 184.24 364.604 184.24 364.908Z" fill="#830005"/>
<path d="M21.304 323.512V321.432H30.56V323.512H27.144V333H24.8V323.512H21.304ZM32.5606 329.4C32.5553 330.035 32.7073 330.539 33.0166 330.912C33.326 331.285 33.7606 331.472 34.3206 331.472C34.7206 331.472 35.07 331.387 35.3686 331.216C35.6726 331.045 35.8833 330.765 36.0006 330.376H38.1046C38.014 330.963 37.7793 331.464 37.4006 331.88C37.0273 332.296 36.574 332.613 36.0406 332.832C35.5073 333.051 34.9526 333.16 34.3766 333.16C33.5553 333.16 32.8353 332.989 32.2166 332.648C31.598 332.301 31.1153 331.813 30.7686 331.184C30.422 330.555 30.2486 329.813 30.2486 328.96C30.2486 328.133 30.406 327.389 30.7206 326.728C31.0353 326.061 31.4913 325.536 32.0886 325.152C32.6913 324.763 33.414 324.568 34.2566 324.568C35.0993 324.568 35.806 324.747 36.3766 325.104C36.9526 325.456 37.3846 325.949 37.6726 326.584C37.966 327.213 38.1126 327.941 38.1126 328.768V329.4H32.5606ZM32.5526 328.008H35.9286C35.9286 327.507 35.79 327.08 35.5126 326.728C35.2353 326.376 34.8166 326.2 34.2566 326.2C33.894 326.2 33.5846 326.288 33.3286 326.464C33.078 326.64 32.886 326.867 32.7526 327.144C32.6193 327.416 32.5526 327.704 32.5526 328.008ZM47.2138 333H44.7738L42.7977 330.304L40.8138 333H38.3658L41.5498 328.688L38.6458 324.728H41.0858L42.8058 327.048L44.5178 324.728H46.9658L44.0378 328.688L47.2138 333ZM53.4463 326.352H51.6063L51.6223 330.76C51.6223 331.064 51.6809 331.256 51.7983 331.336C51.9156 331.411 52.1023 331.448 52.3583 331.448H53.4703V332.888C53.3583 332.936 53.1903 332.981 52.9663 333.024C52.7423 333.067 52.4276 333.088 52.0223 333.088C51.2969 333.088 50.7343 332.995 50.3343 332.808C49.9396 332.621 49.6649 332.36 49.5103 332.024C49.3556 331.688 49.2783 331.299 49.2783 330.856V326.352H47.9342V324.728H49.3583L49.9423 322.232H51.6063V324.72H53.4463V326.352ZM60.9385 321.44V323.544H58.6665V321.44H60.9385ZM60.9145 324.728V333H58.6825V324.728H60.9145ZM63.0781 333V324.728H65.3741V325.896C65.5661 325.597 65.8515 325.317 66.2301 325.056C66.6088 324.789 67.1235 324.656 67.7741 324.656C68.2808 324.656 68.7528 324.755 69.1901 324.952C69.6328 325.149 69.9901 325.461 70.2621 325.888C70.5341 326.309 70.6701 326.861 70.6701 327.544V333H68.3341V327.832C68.3341 327.384 68.1981 327.048 67.9261 326.824C67.6595 326.6 67.3368 326.488 66.9581 326.488C66.5741 326.488 66.2195 326.589 65.8941 326.792C65.5741 326.995 65.4141 327.299 65.4141 327.704V333H63.0781ZM72.5625 335.576V324.728H74.9065L74.9145 325.92C75.1652 325.536 75.5145 325.216 75.9625 324.96C76.4105 324.699 76.9172 324.568 77.4825 324.568C78.4052 324.568 79.1652 324.912 79.7625 325.6C80.3652 326.288 80.6665 327.355 80.6665 328.8C80.6665 329.803 80.5172 330.627 80.2185 331.272C79.9252 331.912 79.5198 332.387 79.0025 332.696C78.4852 333.005 77.9012 333.16 77.2505 333.16C76.7172 333.16 76.2478 333.024 75.8425 332.752C75.4425 332.48 75.1278 332.149 74.8985 331.76V335.576H72.5625ZM76.6905 331.448C77.1918 331.448 77.6158 331.24 77.9625 330.824C78.3092 330.403 78.4825 329.733 78.4825 328.816C78.4825 328.021 78.3172 327.397 77.9865 326.944C77.6612 326.491 77.2292 326.264 76.6905 326.264C76.0825 326.264 75.6318 326.509 75.3385 327C75.0452 327.485 74.8985 328.091 74.8985 328.816C74.8985 329.28 74.9625 329.712 75.0905 330.112C75.2185 330.512 75.4158 330.835 75.6825 331.08C75.9492 331.325 76.2852 331.448 76.6905 331.448ZM85.1574 333.16C84.6507 333.16 84.1547 333.056 83.6694 332.848C83.1894 332.64 82.792 332.336 82.4774 331.936C82.1627 331.531 82.0054 331.035 82.0054 330.448V324.728H84.3414V330.152C84.3414 330.536 84.4667 330.851 84.7174 331.096C84.968 331.341 85.336 331.464 85.8214 331.464C86.2747 331.464 86.6374 331.347 86.9094 331.112C87.1814 330.872 87.3174 330.539 87.3174 330.112V324.728H89.6294V333H87.8694L87.5974 331.36C87.5014 331.845 87.32 332.219 87.0534 332.48C86.792 332.736 86.4907 332.912 86.1494 333.008C85.8134 333.109 85.4827 333.16 85.1574 333.16ZM96.5713 326.352H94.7313L94.7473 330.76C94.7473 331.064 94.8059 331.256 94.9233 331.336C95.0406 331.411 95.2273 331.448 95.4833 331.448H96.5953V332.888C96.4833 332.936 96.3153 332.981 96.0913 333.024C95.8673 333.067 95.5526 333.088 95.1473 333.088C94.4219 333.088 93.8593 332.995 93.4593 332.808C93.0646 332.621 92.7899 332.36 92.6353 332.024C92.4806 331.688 92.4033 331.299 92.4033 330.856V326.352H91.0592V324.728H92.4833L93.0673 322.232H94.7313V324.72H96.5713V326.352ZM103.514 329.4C103.508 330.035 103.66 330.539 103.97 330.912C104.279 331.285 104.714 331.472 105.274 331.472C105.674 331.472 106.023 331.387 106.322 331.216C106.626 331.045 106.836 330.765 106.954 330.376H109.058C108.967 330.963 108.732 331.464 108.354 331.88C107.98 332.296 107.527 332.613 106.994 332.832C106.46 333.051 105.906 333.16 105.33 333.16C104.508 333.16 103.788 332.989 103.17 332.648C102.551 332.301 102.068 331.813 101.722 331.184C101.375 330.555 101.202 329.813 101.202 328.96C101.202 328.133 101.359 327.389 101.674 326.728C101.988 326.061 102.444 325.536 103.042 325.152C103.644 324.763 104.367 324.568 105.21 324.568C106.052 324.568 106.759 324.747 107.33 325.104C107.906 325.456 108.338 325.949 108.626 326.584C108.919 327.213 109.066 327.941 109.066 328.768V329.4H103.514ZM103.506 328.008H106.882C106.882 327.507 106.743 327.08 106.466 326.728C106.188 326.376 105.77 326.2 105.21 326.2C104.847 326.2 104.538 326.288 104.282 326.464C104.031 326.64 103.839 326.867 103.706 327.144C103.572 327.416 103.506 327.704 103.506 328.008ZM110.688 333V324.728H112.936V326.688C113.133 326.053 113.456 325.541 113.904 325.152C114.352 324.763 114.904 324.568 115.56 324.568C115.736 324.568 115.856 324.584 115.92 324.616V326.84C115.872 326.824 115.813 326.813 115.744 326.808C115.68 326.797 115.621 326.789 115.568 326.784C114.645 326.704 113.989 326.827 113.6 327.152C113.216 327.477 113.024 327.917 113.024 328.472V333H110.688ZM117.188 333V324.728H119.436V326.688C119.633 326.053 119.956 325.541 120.404 325.152C120.852 324.763 121.404 324.568 122.06 324.568C122.236 324.568 122.356 324.584 122.42 324.616V326.84C122.372 326.824 122.313 326.813 122.244 326.808C122.18 326.797 122.121 326.789 122.068 326.784C121.145 326.704 120.489 326.827 120.1 327.152C119.716 327.477 119.524 327.917 119.524 328.472V333H117.188ZM127.193 333.16C126.382 333.16 125.675 332.987 125.073 332.64C124.475 332.293 124.011 331.803 123.681 331.168C123.355 330.533 123.193 329.781 123.193 328.912C123.193 328.043 123.355 327.283 123.681 326.632C124.011 325.981 124.475 325.475 125.073 325.112C125.675 324.749 126.385 324.568 127.201 324.568C128.017 324.568 128.723 324.747 129.321 325.104C129.918 325.461 130.379 325.965 130.705 326.616C131.03 327.261 131.193 328.027 131.193 328.912C131.193 329.744 131.033 330.48 130.713 331.12C130.398 331.755 129.942 332.253 129.345 332.616C128.753 332.979 128.035 333.16 127.193 333.16ZM127.201 331.424C127.611 331.424 127.942 331.304 128.193 331.064C128.443 330.824 128.625 330.509 128.737 330.12C128.854 329.725 128.913 329.296 128.913 328.832C128.913 328.395 128.859 327.984 128.753 327.6C128.646 327.211 128.467 326.896 128.217 326.656C127.971 326.411 127.633 326.288 127.201 326.288C126.79 326.288 126.457 326.403 126.201 326.632C125.95 326.861 125.766 327.168 125.649 327.552C125.531 327.936 125.473 328.363 125.473 328.832C125.473 329.264 125.526 329.68 125.633 330.08C125.739 330.475 125.918 330.797 126.169 331.048C126.419 331.299 126.763 331.424 127.201 331.424ZM132.75 333V324.728H134.998V326.688C135.195 326.053 135.518 325.541 135.966 325.152C136.414 324.763 136.966 324.568 137.622 324.568C137.798 324.568 137.918 324.584 137.982 324.616V326.84C137.934 326.824 137.875 326.813 137.806 326.808C137.742 326.797 137.683 326.789 137.63 326.784C136.707 326.704 136.051 326.827 135.662 327.152C135.278 327.477 135.086 327.917 135.086 328.472V333H132.75Z" fill="#1B1B1B"/>
<path d="M513 527H1V760H513V527Z" fill="white"/>
<path d="M512.502 528.926H1.49854V758.076H512.502V528.926Z" stroke="#D0D0D0"/>
<path d="M1.368 503.792V502.432H10.12V503.792H6.592V514H5.104V503.792H1.368ZM11.6706 510.208C11.6706 510.731 11.756 511.205 11.9266 511.632C12.1026 512.053 12.3666 512.389 12.7186 512.64C13.076 512.891 13.5213 513.016 14.0546 513.016C14.5826 513.016 15.036 512.893 15.4146 512.648C15.7986 512.403 16.044 512.048 16.1506 511.584H17.5506C17.4493 512.144 17.2253 512.616 16.8786 513C16.532 513.384 16.1133 513.675 15.6226 513.872C15.132 514.064 14.62 514.16 14.0866 514.16C13.3133 514.16 12.6333 513.992 12.0466 513.656C11.46 513.32 11.0013 512.837 10.6706 512.208C10.34 511.579 10.1746 510.824 10.1746 509.944C10.1746 509.075 10.324 508.312 10.6226 507.656C10.9213 507 11.3533 506.488 11.9186 506.12C12.4893 505.752 13.1746 505.568 13.9746 505.568C15.1426 505.568 16.0386 505.939 16.6626 506.68C17.2866 507.416 17.5986 508.411 17.5986 509.664V510.208H11.6706ZM11.6786 509.208H16.1746C16.1746 508.499 15.9933 507.901 15.6306 507.416C15.268 506.931 14.7133 506.688 13.9666 506.688C13.4493 506.688 13.02 506.813 12.6786 507.064C12.3373 507.309 12.084 507.627 11.9186 508.016C11.7533 508.4 11.6733 508.797 11.6786 509.208ZM26.3638 514H24.7558L22.3478 510.76L19.9557 514H18.3318L21.5238 509.704L18.5878 505.728H20.2038L22.3478 508.632L24.4998 505.728H26.1158L23.1718 509.704L26.3638 514ZM32.161 506.808H30.297V511.952C30.297 512.395 30.3663 512.667 30.505 512.768C30.649 512.864 30.9157 512.912 31.305 512.912H32.209V513.904C32.1023 513.941 31.9477 513.973 31.745 514C31.5423 514.027 31.289 514.04 30.985 514.04C30.1263 514.04 29.5477 513.867 29.249 513.52C28.9557 513.173 28.809 512.667 28.809 512V506.808H27.465V505.728H28.849L29.209 503.32H30.297V505.72H32.161V506.808ZM39.606 502.44V503.976H38.094V502.44H39.606ZM39.574 505.728V514H38.142V505.728H39.574ZM42.2865 514V505.728H43.7185V506.928C43.9212 506.581 44.2385 506.275 44.6705 506.008C45.1025 505.741 45.6492 505.608 46.3105 505.608C46.8332 505.608 47.3132 505.712 47.7505 505.92C48.1932 506.128 48.5452 506.453 48.8065 506.896C49.0732 507.333 49.2065 507.899 49.2065 508.592V514H47.7265V508.736C47.7265 508.091 47.5558 507.613 47.2145 507.304C46.8785 506.989 46.4412 506.832 45.9025 506.832C45.5292 506.832 45.1798 506.893 44.8545 507.016C44.5292 507.133 44.2652 507.315 44.0625 507.56C43.8598 507.8 43.7585 508.104 43.7585 508.472V514H42.2865ZM51.5209 516.576V505.728H52.9929L53.0089 507.168C53.1369 506.944 53.3155 506.709 53.5449 506.464C53.7795 506.213 54.0755 506.003 54.4329 505.832C54.7902 505.656 55.2222 505.568 55.7289 505.568C56.7155 505.568 57.5209 505.909 58.1449 506.592C58.7689 507.275 59.0809 508.328 59.0809 509.752C59.0809 511.171 58.7742 512.261 58.1609 513.024C57.5475 513.781 56.6969 514.16 55.6089 514.16C55.1182 514.16 54.6995 514.072 54.3529 513.896C54.0115 513.715 53.7315 513.496 53.5129 513.24C53.2942 512.984 53.1262 512.739 53.0089 512.504V516.576H51.5209ZM55.3289 513.008C56.0115 513.008 56.5689 512.749 57.0009 512.232C57.4329 511.709 57.6489 510.899 57.6489 509.8C57.6489 508.861 57.4515 508.115 57.0569 507.56C56.6622 507 56.0862 506.72 55.3289 506.72C54.5609 506.72 53.9795 507.005 53.5849 507.576C53.1902 508.147 52.9929 508.888 52.9929 509.8C52.9929 510.392 53.0809 510.931 53.2569 511.416C53.4329 511.901 53.6942 512.288 54.0409 512.576C54.3875 512.864 54.8169 513.008 55.3289 513.008ZM63.9203 514.16C63.3443 514.155 62.8163 514.048 62.3363 513.84C61.8563 513.627 61.4696 513.312 61.1763 512.896C60.8883 512.48 60.7443 511.963 60.7443 511.344V505.728H62.2243V511.192C62.2243 511.731 62.3896 512.168 62.7203 512.504C63.0563 512.84 63.5603 513.008 64.2323 513.008C64.8403 513.008 65.3283 512.851 65.6963 512.536C66.0696 512.216 66.2563 511.741 66.2563 511.112V505.728H67.7283V514H66.5523L66.4003 512.416C66.2509 513.04 65.9469 513.488 65.4883 513.76C65.0296 514.032 64.5069 514.165 63.9203 514.16ZM74.3485 506.808H72.4845V511.952C72.4845 512.395 72.5538 512.667 72.6925 512.768C72.8365 512.864 73.1032 512.912 73.4925 512.912H74.3965V513.904C74.2898 513.941 74.1352 513.973 73.9325 514C73.7298 514.027 73.4765 514.04 73.1725 514.04C72.3138 514.04 71.7352 513.867 71.4365 513.52C71.1432 513.173 70.9965 512.667 70.9965 512V506.808H69.6525V505.728H71.0365L71.3965 503.32H72.4845V505.72H74.3485V506.808ZM82.2495 514.104C81.6522 514.104 81.2042 514 80.9055 513.792C80.6068 513.579 80.4068 513.304 80.3055 512.968C80.2095 512.627 80.1615 512.261 80.1615 511.872V502.112H81.6175V511.728C81.6175 512.149 81.6975 512.464 81.8575 512.672C82.0228 512.875 82.2522 512.987 82.5455 513.008L82.9935 513.016V513.976C82.7268 514.061 82.4788 514.104 82.2495 514.104ZM87.137 514.16C86.3317 514.16 85.6757 513.949 85.169 513.528C84.6623 513.107 84.409 512.517 84.409 511.76C84.409 510.843 84.729 510.16 85.369 509.712C86.009 509.264 87.0357 509.024 88.449 508.992L89.929 508.952V508.304C89.929 507.797 89.7743 507.397 89.465 507.104C89.161 506.805 88.6917 506.656 88.057 506.656C87.5823 506.661 87.1637 506.776 86.801 507C86.4383 507.219 86.2063 507.573 86.105 508.064H84.801C84.8437 507.259 85.1583 506.643 85.745 506.216C86.3317 505.784 87.1263 505.568 88.129 505.568C89.2063 505.568 90.0117 505.795 90.545 506.248C91.0837 506.701 91.353 507.36 91.353 508.224V514H90.089L89.985 512.448C89.6597 513.093 89.2517 513.541 88.761 513.792C88.2703 514.037 87.729 514.16 87.137 514.16ZM87.585 513.096C87.953 513.096 88.3157 513.008 88.673 512.832C89.0357 512.656 89.3343 512.432 89.569 512.16C89.8037 511.883 89.9237 511.589 89.929 511.28V509.864L88.697 509.888C87.7477 509.904 87.0357 510.045 86.561 510.312C86.0863 510.573 85.849 511.008 85.849 511.616C85.849 512.085 86.009 512.451 86.329 512.712C86.6543 512.968 87.073 513.096 87.585 513.096ZM97.9683 514.16C97.3229 514.16 96.8083 514.051 96.4243 513.832C96.0403 513.613 95.7523 513.357 95.5603 513.064C95.3683 512.771 95.2376 512.517 95.1683 512.304L95.0082 514H93.8803V502.112H95.3683V507.04C95.4589 506.859 95.6163 506.653 95.8403 506.424C96.0643 506.195 96.3603 505.995 96.7283 505.824C97.1016 505.653 97.5523 505.568 98.0803 505.568C99.1149 505.568 99.9363 505.928 100.544 506.648C101.158 507.368 101.464 508.429 101.464 509.832C101.464 511.133 101.171 512.181 100.584 512.976C100.003 513.765 99.1309 514.16 97.9683 514.16ZM97.7043 513.024C98.3709 513.024 98.9149 512.765 99.3363 512.248C99.7629 511.725 99.9763 510.896 99.9763 509.76C99.9763 508.795 99.7789 508.048 99.3843 507.52C98.9949 506.987 98.4243 506.72 97.6723 506.72C96.8509 506.72 96.2643 506.987 95.9123 507.52C95.5603 508.048 95.3789 508.795 95.3683 509.76C95.3683 510.917 95.5469 511.752 95.9043 512.264C96.2669 512.771 96.8669 513.024 97.7043 513.024ZM104.452 510.208C104.452 510.731 104.537 511.205 104.708 511.632C104.884 512.053 105.148 512.389 105.5 512.64C105.857 512.891 106.303 513.016 106.836 513.016C107.364 513.016 107.817 512.893 108.196 512.648C108.58 512.403 108.825 512.048 108.932 511.584H110.332C110.231 512.144 110.007 512.616 109.66 513C109.313 513.384 108.895 513.675 108.404 513.872C107.913 514.064 107.401 514.16 106.868 514.16C106.095 514.16 105.415 513.992 104.828 513.656C104.241 513.32 103.783 512.837 103.452 512.208C103.121 511.579 102.956 510.824 102.956 509.944C102.956 509.075 103.105 508.312 103.404 507.656C103.703 507 104.135 506.488 104.7 506.12C105.271 505.752 105.956 505.568 106.756 505.568C107.924 505.568 108.82 505.939 109.444 506.68C110.068 507.416 110.38 508.411 110.38 509.664V510.208H104.452ZM104.46 509.208H108.956C108.956 508.499 108.775 507.901 108.412 507.416C108.049 506.931 107.495 506.688 106.748 506.688C106.231 506.688 105.801 506.813 105.46 507.064C105.119 507.309 104.865 507.627 104.7 508.016C104.535 508.4 104.455 508.797 104.46 509.208ZM114.5 514.104C113.902 514.104 113.454 514 113.156 513.792C112.857 513.579 112.657 513.304 112.556 512.968C112.46 512.627 112.412 512.261 112.412 511.872V502.112H113.868V511.728C113.868 512.149 113.948 512.464 114.108 512.672C114.273 512.875 114.502 512.987 114.796 513.008L115.244 513.016V513.976C114.977 514.061 114.729 514.104 114.5 514.104Z" fill="#1B1B1B"/>
<path d="M516 854.883H2V919H516V854.883Z" fill="white"/>
<path d="M515.197 855.684H2.80322V918.198H515.197V855.684Z" stroke="#D0D0D0"/>
<path fill-rule="evenodd" clip-rule="evenodd" d="M500 861.79L503.17 870.375L504.58 866.556L500 854.125L495.41 866.556L496.83 870.375L500 861.79ZM500 895.21L496.83 886.625L495.42 890.444L500 902.875L504.59 890.444L503.17 886.625L500 895.21Z" fill="black"/>
<path d="M3.528 813.432C3.57067 813.432 3.74667 813.432 4.056 813.432C4.36533 813.432 4.72 813.435 5.12 813.44C5.52533 813.44 5.89067 813.443 6.216 813.448C8.33867 813.48 9.872 813.981 10.816 814.952C11.76 815.917 12.232 817.315 12.232 819.144C12.232 821.064 11.728 822.52 10.72 823.512C9.71733 824.504 8.16533 825 6.064 825H3.528V813.432ZM5.048 814.704V823.728H6.064C7.01867 823.728 7.84 823.581 8.528 823.288C9.216 822.989 9.744 822.507 10.112 821.84C10.4853 821.173 10.672 820.283 10.672 819.168C10.672 818.053 10.4907 817.171 10.128 816.52C9.77067 815.869 9.25333 815.405 8.576 815.128C7.89867 814.845 7.08267 814.704 6.128 814.704H5.048ZM14.3178 825V816.728H15.7258V818.32C15.9338 817.728 16.2618 817.288 16.7098 817C17.1631 816.712 17.6511 816.568 18.1738 816.568C18.2964 816.568 18.4138 816.576 18.5258 816.592C18.6431 816.608 18.7364 816.635 18.8058 816.672V818.104C18.7258 818.067 18.6218 818.043 18.4938 818.032C18.3711 818.016 18.2671 818.008 18.1818 818.008C17.5258 817.965 16.9631 818.091 16.4938 818.384C16.0244 818.677 15.7898 819.168 15.7898 819.856V825H14.3178ZM23.6214 825.16C22.4747 825.16 21.5547 824.795 20.8614 824.064C20.168 823.333 19.8214 822.277 19.8214 820.896C19.8214 820.032 19.968 819.275 20.2614 818.624C20.5547 817.973 20.984 817.469 21.5494 817.112C22.1147 816.749 22.8054 816.568 23.6214 816.568C24.7627 816.568 25.6747 816.941 26.3574 817.688C27.04 818.435 27.3814 819.504 27.3814 820.896C27.3814 821.739 27.2374 822.48 26.9494 823.12C26.6667 823.76 26.2454 824.261 25.6854 824.624C25.1307 824.981 24.4427 825.16 23.6214 825.16ZM23.6214 823.992C24.3627 823.992 24.9307 823.715 25.3254 823.16C25.72 822.6 25.9174 821.835 25.9174 820.864C25.9174 820.272 25.8374 819.741 25.6774 819.272C25.5227 818.797 25.2774 818.421 24.9414 818.144C24.6054 817.867 24.1654 817.728 23.6214 817.728C22.8694 817.728 22.2934 818.005 21.8934 818.56C21.4934 819.109 21.2934 819.877 21.2934 820.864C21.2934 821.445 21.3734 821.973 21.5334 822.448C21.6934 822.923 21.944 823.299 22.2854 823.576C22.6267 823.853 23.072 823.992 23.6214 823.992ZM29.3178 827.576V816.728H30.7898L30.8058 818.168C30.9338 817.944 31.1124 817.709 31.3418 817.464C31.5764 817.213 31.8724 817.003 32.2298 816.832C32.5871 816.656 33.0191 816.568 33.5258 816.568C34.5124 816.568 35.3178 816.909 35.9418 817.592C36.5658 818.275 36.8778 819.328 36.8778 820.752C36.8778 822.171 36.5711 823.261 35.9578 824.024C35.3444 824.781 34.4938 825.16 33.4058 825.16C32.9151 825.16 32.4964 825.072 32.1498 824.896C31.8084 824.715 31.5284 824.496 31.3098 824.24C31.0911 823.984 30.9231 823.739 30.8058 823.504V827.576H29.3178ZM33.1258 824.008C33.8084 824.008 34.3658 823.749 34.7978 823.232C35.2298 822.709 35.4458 821.899 35.4458 820.8C35.4458 819.861 35.2484 819.115 34.8538 818.56C34.4591 818 33.8831 817.72 33.1258 817.72C32.3578 817.72 31.7764 818.005 31.3818 818.576C30.9871 819.147 30.7898 819.888 30.7898 820.8C30.7898 821.392 30.8778 821.931 31.0538 822.416C31.2298 822.901 31.4911 823.288 31.8378 823.576C32.1844 823.864 32.6138 824.008 33.1258 824.008ZM41.8018 825.16C40.7244 825.16 39.8711 824.792 39.2418 824.056C38.6178 823.32 38.3058 822.245 38.3058 820.832C38.3058 819.541 38.5884 818.509 39.1538 817.736C39.7244 816.957 40.5698 816.568 41.6898 816.568C42.2124 816.568 42.6578 816.653 43.0258 816.824C43.3991 816.995 43.6978 817.195 43.9218 817.424C44.1511 817.653 44.3111 817.859 44.4018 818.04V813.112H45.8898V825H44.7618L44.6018 823.304C44.5324 823.517 44.4018 823.771 44.2098 824.064C44.0178 824.357 43.7298 824.613 43.3458 824.832C42.9618 825.051 42.4471 825.16 41.8018 825.16ZM42.0658 824.024C42.9031 824.024 43.5004 823.771 43.8578 823.264C44.2204 822.752 44.4018 821.917 44.4018 820.76C44.3911 819.795 44.2098 819.048 43.8578 818.52C43.5058 817.987 42.9191 817.72 42.0978 817.72C41.4204 817.72 40.8658 817.963 40.4338 818.448C40.0071 818.928 39.7938 819.699 39.7938 820.76C39.7938 821.795 39.9858 822.597 40.3698 823.168C40.7591 823.739 41.3244 824.024 42.0658 824.024ZM51.6214 825.16C50.4747 825.16 49.5547 824.795 48.8614 824.064C48.168 823.333 47.8214 822.277 47.8214 820.896C47.8214 820.032 47.968 819.275 48.2614 818.624C48.5547 817.973 48.984 817.469 49.5494 817.112C50.1147 816.749 50.8054 816.568 51.6214 816.568C52.7627 816.568 53.6747 816.941 54.3574 817.688C55.04 818.435 55.3814 819.504 55.3814 820.896C55.3814 821.739 55.2374 822.48 54.9494 823.12C54.6667 823.76 54.2454 824.261 53.6854 824.624C53.1307 824.981 52.4427 825.16 51.6214 825.16ZM51.6214 823.992C52.3627 823.992 52.9307 823.715 53.3254 823.16C53.72 822.6 53.9174 821.835 53.9174 820.864C53.9174 820.272 53.8374 819.741 53.6774 819.272C53.5227 818.797 53.2774 818.421 52.9414 818.144C52.6054 817.867 52.1654 817.728 51.6214 817.728C50.8694 817.728 50.2934 818.005 49.8934 818.56C49.4934 819.109 49.2934 819.877 49.2934 820.864C49.2934 821.445 49.3734 821.973 49.5334 822.448C49.6934 822.923 49.944 823.299 50.2854 823.576C50.6267 823.853 51.072 823.992 51.6214 823.992ZM67.9009 816.728L65.3969 825H63.9409L62.0529 818.896L60.2609 825H58.8129L56.2609 816.728H57.6289L59.5249 823.088H59.6529L61.5169 816.728H62.6369L64.5729 823.072H64.7009L66.5169 816.728H67.9009ZM69.5834 825V816.728H71.0154V817.928C71.218 817.581 71.5354 817.275 71.9674 817.008C72.3994 816.741 72.946 816.608 73.6074 816.608C74.13 816.608 74.61 816.712 75.0474 816.92C75.49 817.128 75.842 817.453 76.1034 817.896C76.37 818.333 76.5034 818.899 76.5034 819.592V825H75.0234V819.736C75.0234 819.091 74.8527 818.613 74.5114 818.304C74.1754 817.989 73.738 817.832 73.1994 817.832C72.826 817.832 72.4767 817.893 72.1514 818.016C71.826 818.133 71.562 818.315 71.3594 818.56C71.1567 818.8 71.0554 819.104 71.0554 819.472V825H69.5834ZM84.5933 825.104C83.9959 825.104 83.5479 825 83.2493 824.792C82.9506 824.579 82.7506 824.304 82.6493 823.968C82.5533 823.627 82.5053 823.261 82.5053 822.872V813.112H83.9613V822.728C83.9613 823.149 84.0413 823.464 84.2013 823.672C84.3666 823.875 84.5959 823.987 84.8893 824.008L85.3373 824.016V824.976C85.0706 825.061 84.8226 825.104 84.5933 825.104ZM89.4808 825.16C88.6754 825.16 88.0194 824.949 87.5128 824.528C87.0061 824.107 86.7528 823.517 86.7528 822.76C86.7528 821.843 87.0728 821.16 87.7128 820.712C88.3528 820.264 89.3794 820.024 90.7928 819.992L92.2728 819.952V819.304C92.2728 818.797 92.1181 818.397 91.8088 818.104C91.5048 817.805 91.0354 817.656 90.4008 817.656C89.9261 817.661 89.5074 817.776 89.1448 818C88.7821 818.219 88.5501 818.573 88.4488 819.064H87.1447C87.1874 818.259 87.5021 817.643 88.0888 817.216C88.6754 816.784 89.4701 816.568 90.4728 816.568C91.5501 816.568 92.3554 816.795 92.8888 817.248C93.4274 817.701 93.6968 818.36 93.6968 819.224V825H92.4328L92.3288 823.448C92.0034 824.093 91.5954 824.541 91.1048 824.792C90.6141 825.037 90.0728 825.16 89.4808 825.16ZM89.9288 824.096C90.2968 824.096 90.6594 824.008 91.0168 823.832C91.3794 823.656 91.6781 823.432 91.9128 823.16C92.1474 822.883 92.2674 822.589 92.2728 822.28V820.864L91.0408 820.888C90.0914 820.904 89.3794 821.045 88.9048 821.312C88.4301 821.573 88.1928 822.008 88.1928 822.616C88.1928 823.085 88.3528 823.451 88.6728 823.712C88.9981 823.968 89.4168 824.096 89.9288 824.096ZM100.312 825.16C99.6667 825.16 99.152 825.051 98.768 824.832C98.384 824.613 98.096 824.357 97.904 824.064C97.712 823.771 97.5813 823.517 97.512 823.304L97.352 825H96.224V813.112H97.712V818.04C97.8027 817.859 97.96 817.653 98.184 817.424C98.408 817.195 98.704 816.995 99.072 816.824C99.4453 816.653 99.896 816.568 100.424 816.568C101.459 816.568 102.28 816.928 102.888 817.648C103.501 818.368 103.808 819.429 103.808 820.832C103.808 822.133 103.515 823.181 102.928 823.976C102.347 824.765 101.475 825.16 100.312 825.16ZM100.048 824.024C100.715 824.024 101.259 823.765 101.68 823.248C102.107 822.725 102.32 821.896 102.32 820.76C102.32 819.795 102.123 819.048 101.728 818.52C101.339 817.987 100.768 817.72 100.016 817.72C99.1947 817.72 98.608 817.987 98.256 818.52C97.904 819.048 97.7227 819.795 97.712 820.76C97.712 821.917 97.8907 822.752 98.248 823.264C98.6107 823.771 99.2107 824.024 100.048 824.024ZM106.796 821.208C106.796 821.731 106.881 822.205 107.052 822.632C107.228 823.053 107.492 823.389 107.844 823.64C108.201 823.891 108.646 824.016 109.18 824.016C109.708 824.016 110.161 823.893 110.54 823.648C110.924 823.403 111.169 823.048 111.276 822.584H112.676C112.574 823.144 112.35 823.616 112.004 824C111.657 824.384 111.238 824.675 110.748 824.872C110.257 825.064 109.745 825.16 109.212 825.16C108.438 825.16 107.758 824.992 107.172 824.656C106.585 824.32 106.126 823.837 105.796 823.208C105.465 822.579 105.3 821.824 105.3 820.944C105.3 820.075 105.449 819.312 105.748 818.656C106.046 818 106.478 817.488 107.044 817.12C107.614 816.752 108.3 816.568 109.1 816.568C110.268 816.568 111.164 816.939 111.788 817.68C112.412 818.416 112.724 819.411 112.724 820.664V821.208H106.796ZM106.804 820.208H111.3C111.3 819.499 111.118 818.901 110.756 818.416C110.393 817.931 109.838 817.688 109.092 817.688C108.574 817.688 108.145 817.813 107.804 818.064C107.462 818.309 107.209 818.627 107.044 819.016C106.878 819.4 106.798 819.797 106.804 820.208ZM116.843 825.104C116.246 825.104 115.798 825 115.499 824.792C115.201 824.579 115.001 824.304 114.899 823.968C114.803 823.627 114.755 823.261 114.755 822.872V813.112H116.211V822.728C116.211 823.149 116.291 823.464 116.451 823.672C116.617 823.875 116.846 823.987 117.139 824.008L117.587 824.016V824.976C117.321 825.061 117.073 825.104 116.843 825.104Z" fill="#1B1B1B"/>
<path d="M19.048 881.192V882.36L14.992 882.368V881.208L19.048 881.192ZM26.5654 886.072C25.84 886.072 25.1494 885.952 24.4934 885.712C23.8427 885.467 23.2934 885.104 22.8454 884.624C22.4027 884.144 22.1334 883.549 22.0374 882.84H23.5894C23.7334 883.496 24.0827 883.995 24.6374 884.336C25.192 884.672 25.832 884.84 26.5574 884.84C27.3734 884.84 28.0507 884.672 28.5894 884.336C29.1334 883.995 29.4054 883.531 29.4054 882.944C29.4054 882.421 29.2294 882.005 28.8774 881.696C28.5307 881.381 28.0374 881.149 27.3974 881L25.1254 880.472C24.272 880.285 23.6027 879.952 23.1174 879.472C22.6374 878.992 22.392 878.357 22.3814 877.568C22.3814 876.901 22.5574 876.315 22.9094 875.808C23.2614 875.301 23.7494 874.907 24.3734 874.624C24.9974 874.341 25.7094 874.2 26.5094 874.2C27.432 874.2 28.208 874.357 28.8374 874.672C29.4667 874.987 29.9414 875.4 30.2614 875.912C30.5814 876.424 30.744 876.971 30.7494 877.552H29.2214C29.1734 877.029 29.0187 876.616 28.7574 876.312C28.5014 876.003 28.176 875.784 27.7814 875.656C27.392 875.523 26.9707 875.456 26.5174 875.456C26.08 875.456 25.664 875.531 25.2694 875.68C24.88 875.829 24.56 876.051 24.3094 876.344C24.064 876.632 23.9414 876.992 23.9414 877.424C23.9414 877.845 24.0827 878.187 24.3654 878.448C24.648 878.704 25.168 878.925 25.9254 879.112L28.1254 879.64C28.8934 879.805 29.4774 880.069 29.8774 880.432C30.2774 880.789 30.5494 881.189 30.6934 881.632C30.8427 882.075 30.9174 882.507 30.9174 882.928C30.9174 883.509 30.744 884.037 30.3974 884.512C30.056 884.987 29.56 885.365 28.9094 885.648C28.2587 885.931 27.4774 886.072 26.5654 886.072ZM34.1706 882.12C34.1706 882.643 34.256 883.117 34.4266 883.544C34.6026 883.965 34.8666 884.301 35.2186 884.552C35.576 884.803 36.0213 884.928 36.5546 884.928C37.0826 884.928 37.536 884.805 37.9146 884.56C38.2986 884.315 38.544 883.96 38.6506 883.496H40.0506C39.9493 884.056 39.7253 884.528 39.3786 884.912C39.032 885.296 38.6133 885.587 38.1226 885.784C37.632 885.976 37.12 886.072 36.5866 886.072C35.8133 886.072 35.1333 885.904 34.5466 885.568C33.96 885.232 33.5013 884.749 33.1706 884.12C32.84 883.491 32.6746 882.736 32.6746 881.856C32.6746 880.987 32.824 880.224 33.1226 879.568C33.4213 878.912 33.8533 878.4 34.4186 878.032C34.9893 877.664 35.6746 877.48 36.4746 877.48C37.6426 877.48 38.5386 877.851 39.1626 878.592C39.7866 879.328 40.0986 880.323 40.0986 881.576V882.12H34.1706ZM34.1786 881.12H38.6746C38.6746 880.411 38.4933 879.813 38.1306 879.328C37.768 878.843 37.2133 878.6 36.4666 878.6C35.9493 878.6 35.52 878.725 35.1786 878.976C34.8373 879.221 34.584 879.539 34.4186 879.928C34.2533 880.312 34.1733 880.709 34.1786 881.12ZM44.2183 886.016C43.6209 886.016 43.1729 885.912 42.8743 885.704C42.5756 885.491 42.3756 885.216 42.2743 884.88C42.1783 884.539 42.1303 884.173 42.1303 883.784V874.024H43.5863V883.64C43.5863 884.061 43.6663 884.376 43.8263 884.584C43.9916 884.787 44.2209 884.899 44.5143 884.92L44.9623 884.928V885.888C44.6956 885.973 44.4476 886.016 44.2183 886.016ZM47.8113 882.12C47.8113 882.643 47.8966 883.117 48.0673 883.544C48.2433 883.965 48.5073 884.301 48.8593 884.552C49.2166 884.803 49.6619 884.928 50.1953 884.928C50.7233 884.928 51.1766 884.805 51.5553 884.56C51.9393 884.315 52.1846 883.96 52.2913 883.496H53.6913C53.5899 884.056 53.3659 884.528 53.0193 884.912C52.6726 885.296 52.2539 885.587 51.7633 885.784C51.2726 885.976 50.7606 886.072 50.2273 886.072C49.4539 886.072 48.7739 885.904 48.1873 885.568C47.6006 885.232 47.1419 884.749 46.8113 884.12C46.4806 883.491 46.3153 882.736 46.3153 881.856C46.3153 880.987 46.4646 880.224 46.7633 879.568C47.0619 878.912 47.4939 878.4 48.0593 878.032C48.6299 877.664 49.3153 877.48 50.1153 877.48C51.2833 877.48 52.1793 877.851 52.8033 878.592C53.4273 879.328 53.7393 880.323 53.7393 881.576V882.12H47.8113ZM47.8193 881.12H52.3153C52.3153 880.411 52.1339 879.813 51.7713 879.328C51.4086 878.843 50.8539 878.6 50.1073 878.6C49.5899 878.6 49.1606 878.725 48.8193 878.976C48.4779 879.221 48.2246 879.539 48.0593 879.928C47.8939 880.312 47.8139 880.709 47.8193 881.12ZM59.0669 877.48C59.9575 877.48 60.7069 877.733 61.3149 878.24C61.9229 878.741 62.2829 879.413 62.3949 880.256H61.0829C61.0082 879.824 60.7975 879.453 60.4509 879.144C60.1042 878.829 59.6455 878.672 59.0749 878.672C58.3709 878.672 57.7949 878.928 57.3469 879.44C56.9042 879.952 56.6829 880.736 56.6829 881.792C56.6829 882.747 56.8855 883.512 57.2909 884.088C57.7015 884.659 58.3042 884.944 59.0989 884.944C59.6642 884.944 60.1202 884.784 60.4669 884.464C60.8135 884.144 61.0215 883.776 61.0909 883.36H62.3789C62.2722 884.192 61.9122 884.853 61.2989 885.344C60.6909 885.829 59.9469 886.072 59.0669 886.072C58.3202 886.072 57.6615 885.909 57.0909 885.584C56.5202 885.259 56.0722 884.779 55.7469 884.144C55.4215 883.509 55.2589 882.731 55.2589 881.808C55.2589 880.949 55.4055 880.195 55.6989 879.544C55.9975 878.893 56.4295 878.387 56.9949 878.024C57.5655 877.661 58.2562 877.48 59.0669 877.48ZM68.3329 878.72H66.4689V883.864C66.4689 884.307 66.5382 884.579 66.6769 884.68C66.8209 884.776 67.0875 884.824 67.4769 884.824H68.3809V885.816C68.2742 885.853 68.1195 885.885 67.9169 885.912C67.7142 885.939 67.4609 885.952 67.1569 885.952C66.2982 885.952 65.7195 885.779 65.4209 885.432C65.1275 885.085 64.9809 884.579 64.9809 883.912V878.72H63.6369V877.64H65.0209L65.3809 875.232H66.4689V877.632H68.3329V878.72ZM76.1886 881.192V882.36L72.1326 882.368V881.208L76.1886 881.192Z" fill="black"/>
</svg>
