<svg width="17" height="25" viewBox="0 0 17 25" fill="none" xmlns="http://www.w3.org/2000/svg">
<path d="M4.98438 22.1719L4.15229 22.7266L4.15745 22.7342L4.98438 22.1719ZM5.78125 23.3438L6.61333 22.789L6.60818 22.7814L5.78125 23.3438ZM11.1719 23.3438L10.3449 22.7814L10.3398 22.789L11.1719 23.3438ZM11.9688 22.1719L12.7957 22.7342L12.8333 22.6789L12.8632 22.6191L11.9688 22.1719ZM12.2031 19.5H13.2031V18.5H12.2031V19.5ZM4.75 19.5V18.5H3.75V19.5H4.75ZM2.26562 13.6875L1.51147 14.3443L1.52038 14.3543L2.26562 13.6875ZM4.70312 18H5.70312V17.8518L5.66015 17.71L4.70312 18ZM4.70312 18.0469H3.70312V19.0469H4.70312V18.0469ZM12.25 18.0469V19.0469H13.25V18.0469H12.25ZM12.25 18L11.293 17.71L11.25 17.8518V18H12.25ZM14.6875 13.6875L15.4328 14.3544L15.4416 14.3443L14.6875 13.6875ZM8.45312 0V-1.00005L8.44332 -0.99995L8.45312 0ZM3.75 21.3281C3.75 21.733 3.82051 22.2289 4.15232 22.7266L5.81643 21.6172C5.78928 21.5765 5.77573 21.5423 5.76702 21.5075C5.75732 21.4687 5.75 21.414 5.75 21.3281H3.75ZM4.15745 22.7342L4.95432 23.9061L6.60818 22.7814L5.8113 21.6096L4.15745 22.7342ZM4.9492 23.8985C5.3946 24.5666 6.16022 25.0469 7.04688 25.0469V23.0469C6.90228 23.0469 6.7304 22.9647 6.6133 22.789L4.9492 23.8985ZM7.04688 25.0469H9.90625V23.0469H7.04688V25.0469ZM9.90625 25.0469C10.7929 25.0469 11.5585 24.5666 12.0039 23.8985L10.3398 22.789C10.2227 22.9647 10.0508 23.0469 9.90625 23.0469V25.0469ZM11.9988 23.9061L12.7957 22.7342L11.1418 21.6096L10.3449 22.7814L11.9988 23.9061ZM12.8632 22.6191C13.0379 22.2696 13.2031 21.8279 13.2031 21.3281H11.2031C11.2031 21.3908 11.1809 21.5116 11.0743 21.7247L12.8632 22.6191ZM13.2031 21.3281V19.5H11.2031V21.3281H13.2031ZM12.2031 18.5H4.75V20.5H12.2031V18.5ZM3.75 19.5V21.3281H5.75V19.5H3.75ZM-0.75 8.25C-0.75 10.6055 0.0904541 12.7127 1.51154 14.3443L3.01971 13.0307C1.90955 11.7561 1.25 10.1133 1.25 8.25H-0.75ZM1.52038 14.3543C2.23514 15.1531 3.32574 16.9028 3.7461 18.29L5.66015 17.71C5.14301 16.0034 3.88986 14.0031 3.01087 13.0207L1.52038 14.3543ZM4.70312 18H3.70312C3.70312 18 3.70312 18 3.70312 18C3.70312 18 3.70312 18 3.70312 18C3.70312 18 3.70312 18 3.70312 18V18C3.70312 18 3.70312 18 3.70312 18V18C3.70312 18.0001 3.70312 18.0001 3.70312 18.0001C3.70312 18.0001 3.70312 18.0001 3.70312 18.0001C3.70312 18.0001 3.70312 18.0001 3.70312 18.0001C3.70312 18.0001 3.70312 18.0001 3.70312 18.0001C3.70312 18.0001 3.70312 18.0001 3.70312 18.0001C3.70312 18.0001 3.70312 18.0001 3.70312 18.0001C3.70312 18.0001 3.70312 18.0001 3.70312 18.0001V18.0001C3.70312 18.0001 3.70312 18.0001 3.70312 18.0001C3.70312 18.0001 3.70312 18.0001 3.70312 18.0001C3.70312 18.0001 3.70312 18.0001 3.70312 18.0001V18.0001C3.70312 18.0001 3.70312 18.0001 3.70312 18.0001C3.70312 18.0002 3.70312 18.0002 3.70312 18.0002V18.0002C3.70312 18.0002 3.70312 18.0002 3.70312 18.0002C3.70312 18.0002 3.70312 18.0002 3.70312 18.0002C3.70312 18.0002 3.70312 18.0002 3.70312 18.0002C3.70312 18.0002 3.70312 18.0002 3.70312 18.0002C3.70312 18.0002 3.70312 18.0002 3.70312 18.0002V18.0002V18.0002V18.0002V18.0002V18.0002C3.70312 18.0002 3.70312 18.0002 3.70312 18.0002C3.70312 18.0003 3.70312 18.0003 3.70312 18.0003C3.70312 18.0003 3.70312 18.0003 3.70312 18.0003C3.70312 18.0003 3.70312 18.0003 3.70312 18.0003C3.70312 18.0003 3.70312 18.0003 3.70312 18.0003V18.0003V18.0003C3.70312 18.0003 3.70312 18.0003 3.70312 18.0003C3.70312 18.0003 3.70312 18.0003 3.70312 18.0003V18.0003C3.70312 18.0003 3.70312 18.0003 3.70312 18.0003C3.70312 18.0003 3.70312 18.0003 3.70312 18.0004V18.0004C3.70312 18.0004 3.70312 18.0004 3.70312 18.0004V18.0004C3.70312 18.0004 3.70312 18.0004 3.70312 18.0004C3.70312 18.0004 3.70312 18.0004 3.70312 18.0004C3.70312 18.0004 3.70312 18.0004 3.70312 18.0004V18.0004C3.70312 18.0004 3.70312 18.0004 3.70312 18.0004V18.0005C3.70312 18.0005 3.70312 18.0005 3.70312 18.0005C3.70312 18.0005 3.70312 18.0005 3.70312 18.0005V18.0005C3.70312 18.0005 3.70312 18.0005 3.70312 18.0005C3.70312 18.0005 3.70312 18.0005 3.70312 18.0005C3.70312 18.0005 3.70312 18.0005 3.70312 18.0005V18.0005C3.70312 18.0005 3.70312 18.0006 3.70312 18.0006C3.70312 18.0006 3.70312 18.0006 3.70312 18.0006C3.70312 18.0006 3.70312 18.0006 3.70312 18.0006C3.70312 18.0006 3.70312 18.0006 3.70312 18.0006C3.70312 18.0006 3.70312 18.0006 3.70312 18.0006C3.70312 18.0006 3.70312 18.0006 3.70312 18.0006C3.70312 18.0006 3.70312 18.0006 3.70312 18.0006C3.70312 18.0007 3.70312 18.0007 3.70312 18.0007C3.70312 18.0007 3.70312 18.0007 3.70312 18.0007C3.70312 18.0007 3.70312 18.0007 3.70312 18.0007C3.70312 18.0007 3.70312 18.0007 3.70312 18.0007C3.70312 18.0007 3.70312 18.0007 3.70312 18.0007C3.70312 18.0007 3.70312 18.0007 3.70312 18.0007C3.70312 18.0008 3.70312 18.0008 3.70312 18.0008C3.70312 18.0008 3.70312 18.0008 3.70312 18.0008C3.70312 18.0008 3.70312 18.0008 3.70312 18.0008C3.70312 18.0008 3.70312 18.0008 3.70312 18.0008C3.70312 18.0008 3.70312 18.0008 3.70312 18.0008C3.70312 18.0008 3.70312 18.0009 3.70312 18.0009C3.70312 18.0009 3.70312 18.0009 3.70312 18.0009C3.70312 18.0009 3.70312 18.0009 3.70312 18.0009C3.70312 18.0009 3.70312 18.0009 3.70312 18.0009C3.70312 18.0009 3.70312 18.0009 3.70312 18.0009C3.70312 18.0009 3.70312 18.001 3.70312 18.001C3.70312 18.001 3.70312 18.001 3.70312 18.001C3.70312 18.001 3.70312 18.001 3.70312 18.001C3.70312 18.001 3.70312 18.001 3.70312 18.001C3.70312 18.001 3.70312 18.001 3.70312 18.001C3.70312 18.0011 3.70312 18.0011 3.70312 18.0011C3.70312 18.0011 3.70312 18.0011 3.70312 18.0011C3.70312 18.0011 3.70312 18.0011 3.70312 18.0011C3.70312 18.0011 3.70312 18.0011 3.70312 18.0011C3.70312 18.0011 3.70312 18.0011 3.70312 18.0012C3.70312 18.0012 3.70312 18.0012 3.70312 18.0012C3.70312 18.0012 3.70312 18.0012 3.70312 18.0012C3.70312 18.0012 3.70312 18.0012 3.70312 18.0012C3.70312 18.0012 3.70312 18.0012 3.70312 18.0013C3.70312 18.0013 3.70312 18.0013 3.70312 18.0013C3.70312 18.0013 3.70312 18.0013 3.70312 18.0013C3.70312 18.0013 3.70312 18.0013 3.70312 18.0013C3.70312 18.0013 3.70312 18.0013 3.70312 18.0014C3.70312 18.0014 3.70312 18.0014 3.70312 18.0014C3.70312 18.0014 3.70312 18.0014 3.70312 18.0014C3.70312 18.0014 3.70312 18.0014 3.70312 18.0014C3.70312 18.0014 3.70312 18.0014 3.70312 18.0015C3.70312 18.0015 3.70312 18.0015 3.70312 18.0015C3.70312 18.0015 3.70312 18.0015 3.70312 18.0015C3.70312 18.0015 3.70312 18.0015 3.70312 18.0015C3.70312 18.0015 3.70312 18.0016 3.70312 18.0016C3.70312 18.0016 3.70312 18.0016 3.70312 18.0016C3.70312 18.0016 3.70312 18.0016 3.70312 18.0016C3.70312 18.0016 3.70312 18.0016 3.70312 18.0017C3.70312 18.0017 3.70312 18.0017 3.70312 18.0017C3.70312 18.0017 3.70312 18.0017 3.70312 18.0017C3.70312 18.0017 3.70312 18.0017 3.70312 18.0017C3.70312 18.0018 3.70312 18.0018 3.70312 18.0018C3.70312 18.0018 3.70312 18.0018 3.70312 18.0018C3.70312 18.0018 3.70312 18.0018 3.70312 18.0018C3.70312 18.0019 3.70312 18.0019 3.70312 18.0019C3.70312 18.0019 3.70312 18.0019 3.70312 18.0019C3.70312 18.0019 3.70312 18.0019 3.70312 18.0019C3.70312 18.0019 3.70312 18.002 3.70312 18.002C3.70312 18.002 3.70312 18.002 3.70312 18.002C3.70312 18.002 3.70312 18.002 3.70312 18.002C3.70312 18.002 3.70312 18.0021 3.70312 18.0021C3.70312 18.0021 3.70312 18.0021 3.70312 18.0021C3.70312 18.0021 3.70312 18.0021 3.70312 18.0021C3.70312 18.0022 3.70312 18.0022 3.70312 18.0022C3.70312 18.0022 3.70312 18.0022 3.70312 18.0022C3.70312 18.0022 3.70312 18.0022 3.70312 18.0023C3.70312 18.0023 3.70312 18.0023 3.70312 18.0023C3.70312 18.0023 3.70312 18.0023 3.70312 18.0023C3.70312 18.0023 3.70312 18.0023 3.70312 18.0024C3.70312 18.0024 3.70312 18.0024 3.70312 18.0024C3.70312 18.0024 3.70312 18.0024 3.70312 18.0024C3.70312 18.0024 3.70312 18.0025 3.70312 18.0025C3.70312 18.0025 3.70312 18.0025 3.70312 18.0025C3.70312 18.0025 3.70312 18.0025 3.70312 18.0025C3.70312 18.0026 3.70312 18.0026 3.70312 18.0026C3.70312 18.0026 3.70312 18.0026 3.70312 18.0026C3.70312 18.0026 3.70312 18.0027 3.70312 18.0027C3.70312 18.0027 3.70312 18.0027 3.70312 18.0027C3.70312 18.0027 3.70312 18.0027 3.70312 18.0028C3.70312 18.0028 3.70312 18.0028 3.70312 18.0028C3.70312 18.0028 3.70312 18.0028 3.70312 18.0028C3.70312 18.0029 3.70312 18.0029 3.70312 18.0029C3.70312 18.0029 3.70312 18.0029 3.70312 18.0029C3.70312 18.0029 3.70312 18.003 3.70312 18.003C3.70312 18.003 3.70312 18.003 3.70312 18.003C3.70312 18.003 3.70312 18.003 3.70312 18.0031C3.70312 18.0031 3.70312 18.0031 3.70312 18.0031C3.70312 18.0031 3.70312 18.0031 3.70312 18.0031C3.70312 18.0032 3.70312 18.0032 3.70312 18.0032C3.70312 18.0032 3.70312 18.0032 3.70312 18.0032C3.70312 18.0033 3.70312 18.0033 3.70312 18.0033C3.70312 18.0033 3.70312 18.0033 3.70312 18.0033C3.70312 18.0033 3.70312 18.0034 3.70312 18.0034C3.70312 18.0034 3.70312 18.0034 3.70312 18.0034C3.70312 18.0034 3.70312 18.0035 3.70312 18.0035C3.70312 18.0035 3.70312 18.0035 3.70312 18.0035C3.70312 18.0035 3.70312 18.0036 3.70312 18.0036C3.70312 18.0036 3.70312 18.0036 3.70312 18.0036C3.70312 18.0036 3.70312 18.0037 3.70312 18.0037C3.70312 18.0037 3.70312 18.0037 3.70312 18.0037C3.70312 18.0037 3.70312 18.0038 3.70312 18.0038C3.70312 18.0038 3.70312 18.0038 3.70312 18.0038C3.70312 18.0038 3.70312 18.0039 3.70312 18.0039C3.70312 18.0039 3.70312 18.0039 3.70312 18.0039C3.70312 18.0039 3.70312 18.004 3.70312 18.004C3.70312 18.004 3.70312 18.004 3.70312 18.004C3.70312 18.0041 3.70312 18.0041 3.70312 18.0041C3.70312 18.0041 3.70312 18.0041 3.70312 18.0041C3.70312 18.0042 3.70312 18.0042 3.70312 18.0042C3.70312 18.0042 3.70312 18.0042 3.70312 18.0042C3.70312 18.0043 3.70312 18.0043 3.70312 18.0043C3.70312 18.0043 3.70312 18.0043 3.70312 18.0044C3.70312 18.0044 3.70312 18.0044 3.70312 18.0044C3.70312 18.0044 3.70312 18.0045 3.70312 18.0045C3.70312 18.0045 3.70312 18.0045 3.70312 18.0045C3.70312 18.0046 3.70312 18.0046 3.70312 18.0046C3.70312 18.0046 3.70312 18.0046 3.70312 18.0046C3.70312 18.0047 3.70312 18.0047 3.70312 18.0047C3.70312 18.0047 3.70312 18.0047 3.70312 18.0048C3.70312 18.0048 3.70312 18.0048 3.70312 18.0048C3.70312 18.0048 3.70312 18.0049 3.70312 18.0049C3.70312 18.0049 3.70312 18.0049 3.70312 18.005C3.70312 18.005 3.70312 18.005 3.70312 18.005C3.70312 18.005 3.70312 18.0051 3.70312 18.0051C3.70312 18.0051 3.70312 18.0051 3.70312 18.0051C3.70312 18.0052 3.70312 18.0052 3.70312 18.0052C3.70312 18.0052 3.70312 18.0052 3.70312 18.0053C3.70312 18.0053 3.70312 18.0053 3.70312 18.0053C3.70312 18.0053 3.70312 18.0054 3.70312 18.0054C3.70312 18.0054 3.70312 18.0054 3.70312 18.0055C3.70312 18.0055 3.70312 18.0055 3.70312 18.0055C3.70312 18.0055 3.70312 18.0056 3.70312 18.0056C3.70312 18.0056 3.70312 18.0056 3.70312 18.0057C3.70312 18.0057 3.70312 18.0057 3.70312 18.0057C3.70312 18.0057 3.70312 18.0058 3.70312 18.0058C3.70312 18.0058 3.70312 18.0058 3.70312 18.0059C3.70312 18.0059 3.70312 18.0059 3.70312 18.0059C3.70312 18.006 3.70312 18.006 3.70312 18.006C3.70312 18.006 3.70312 18.006 3.70312 18.0061C3.70312 18.0061 3.70312 18.0061 3.70312 18.0061C3.70312 18.0062 3.70312 18.0062 3.70312 18.0062C3.70312 18.0062 3.70312 18.0063 3.70312 18.0063C3.70312 18.0063 3.70312 18.0063 3.70312 18.0064C3.70312 18.0064 3.70312 18.0064 3.70312 18.0064C3.70312 18.0064 3.70312 18.0065 3.70312 18.0065C3.70312 18.0065 3.70312 18.0065 3.70312 18.0066C3.70312 18.0066 3.70312 18.0066 3.70312 18.0066C3.70312 18.0067 3.70312 18.0067 3.70312 18.0067C3.70312 18.0067 3.70312 18.0068 3.70312 18.0068C3.70312 18.0068 3.70312 18.0069 3.70312 18.0069C3.70312 18.0069 3.70312 18.0069 3.70312 18.007C3.70312 18.007 3.70312 18.007 3.70312 18.007C3.70312 18.0071 3.70312 18.0071 3.70312 18.0071C3.70312 18.0071 3.70312 18.0072 3.70312 18.0072C3.70312 18.0072 3.70312 18.0072 3.70312 18.0073C3.70312 18.0073 3.70312 18.0073 3.70312 18.0073C3.70312 18.0074 3.70312 18.0074 3.70312 18.0074C3.70312 18.0074 3.70312 18.0075 3.70312 18.0075C3.70312 18.0075 3.70312 18.0076 3.70312 18.0076C3.70312 18.0076 3.70312 18.0076 3.70312 18.0077C3.70312 18.0077 3.70312 18.0077 3.70312 18.0078C3.70312 18.0078 3.70312 18.0078 3.70312 18.0078C3.70312 18.0079 3.70312 18.0079 3.70312 18.0079C3.70312 18.0079 3.70312 18.008 3.70312 18.008C3.70312 18.008 3.70312 18.0081 3.70312 18.0081C3.70312 18.0081 3.70312 18.0081 3.70312 18.0082C3.70312 18.0082 3.70312 18.0082 3.70312 18.0083C3.70312 18.0083 3.70312 18.0083 3.70312 18.0083C3.70312 18.0084 3.70312 18.0084 3.70312 18.0084C3.70312 18.0085 3.70312 18.0085 3.70312 18.0085C3.70312 18.0085 3.70312 18.0086 3.70312 18.0086C3.70312 18.0086 3.70312 18.0087 3.70312 18.0087C3.70312 18.0087 3.70312 18.0088 3.70312 18.0088C3.70312 18.0088 3.70312 18.0088 3.70312 18.0089C3.70312 18.0089 3.70312 18.0089 3.70312 18.009C3.70312 18.009 3.70312 18.009 3.70312 18.0091C3.70312 18.0091 3.70312 18.0091 3.70312 18.0091C3.70312 18.0092 3.70312 18.0092 3.70312 18.0092C3.70312 18.0093 3.70312 18.0093 3.70312 18.0093C3.70312 18.0094 3.70312 18.0094 3.70312 18.0094C3.70312 18.0095 3.70312 18.0095 3.70312 18.0095C3.70312 18.0096 3.70312 18.0096 3.70312 18.0096C3.70312 18.0097 3.70312 18.0097 3.70312 18.0097C3.70312 18.0098 3.70312 18.0098 3.70312 18.0098C3.70312 18.0098 3.70312 18.0099 3.70312 18.0099C3.70312 18.0099 3.70312 18.01 3.70312 18.01C3.70312 18.01 3.70312 18.0101 3.70312 18.0101C3.70312 18.0101 3.70312 18.0102 3.70312 18.0102C3.70312 18.0102 3.70312 18.0103 3.70312 18.0103C3.70312 18.0103 3.70312 18.0104 3.70312 18.0104C3.70312 18.0104 3.70312 18.0105 3.70312 18.0105C3.70312 18.0105 3.70312 18.0106 3.70312 18.0106C3.70312 18.0106 3.70312 18.0107 3.70312 18.0107C3.70312 18.0107 3.70312 18.0108 3.70312 18.0108C3.70312 18.0108 3.70312 18.0109 3.70312 18.0109C3.70312 18.0109 3.70312 18.011 3.70312 18.011C3.70312 18.0111 3.70312 18.0111 3.70312 18.0111C3.70312 18.0112 3.70312 18.0112 3.70312 18.0112C3.70312 18.0113 3.70312 18.0113 3.70312 18.0113C3.70312 18.0114 3.70312 18.0114 3.70312 18.0114C3.70312 18.0115 3.70312 18.0115 3.70312 18.0116C3.70312 18.0116 3.70312 18.0116 3.70312 18.0117C3.70312 18.0117 3.70312 18.0117 3.70312 18.0118C3.70312 18.0118 3.70312 18.0118 3.70312 18.0119C3.70312 18.0119 3.70312 18.012 3.70312 18.012C3.70312 18.012 3.70312 18.0121 3.70312 18.0121C3.70312 18.0121 3.70312 18.0122 3.70312 18.0122C3.70312 18.0123 3.70312 18.0123 3.70312 18.0123C3.70312 18.0124 3.70312 18.0124 3.70312 18.0124C3.70312 18.0125 3.70312 18.0125 3.70312 18.0126C3.70312 18.0126 3.70312 18.0126 3.70312 18.0127C3.70312 18.0127 3.70312 18.0127 3.70312 18.0128C3.70312 18.0128 3.70312 18.0129 3.70312 18.0129C3.70312 18.0129 3.70312 18.013 3.70312 18.013C3.70312 18.0131 3.70312 18.0131 3.70312 18.0131C3.70312 18.0132 3.70312 18.0132 3.70312 18.0132C3.70312 18.0133 3.70312 18.0133 3.70312 18.0134C3.70312 18.0134 3.70312 18.0134 3.70312 18.0135C3.70312 18.0135 3.70312 18.0136 3.70312 18.0136C3.70312 18.0136 3.70312 18.0137 3.70312 18.0137C3.70312 18.0138 3.70312 18.0138 3.70312 18.0138C3.70312 18.0139 3.70312 18.0139 3.70312 18.014C3.70312 18.014 3.70312 18.0141 3.70312 18.0141C3.70312 18.0141 3.70312 18.0142 3.70312 18.0142C3.70312 18.0143 3.70312 18.0143 3.70312 18.0143C3.70312 18.0144 3.70312 18.0144 3.70312 18.0145C3.70312 18.0145 3.70312 18.0145 3.70312 18.0146C3.70312 18.0146 3.70312 18.0147 3.70312 18.0147C3.70312 18.0148 3.70312 18.0148 3.70312 18.0148C3.70312 18.0149 3.70312 18.0149 3.70312 18.015C3.70312 18.015 3.70312 18.0151 3.70312 18.0151C3.70312 18.0151 3.70312 18.0152 3.70312 18.0152C3.70312 18.0153 3.70312 18.0153 3.70312 18.0154C3.70312 18.0154 3.70312 18.0154 3.70312 18.0155C3.70312 18.0155 3.70312 18.0156 3.70312 18.0156C3.70312 18.0157 3.70312 18.0157 3.70312 18.0158C3.70312 18.0158 3.70312 18.0158 3.70312 18.0159C3.70312 18.0159 3.70312 18.016 3.70312 18.016C3.70312 18.0161 3.70312 18.0161 3.70312 18.0162C3.70312 18.0162 3.70312 18.0163 3.70312 18.0163C3.70312 18.0163 3.70312 18.0164 3.70312 18.0164C3.70312 18.0165 3.70312 18.0165 3.70312 18.0166C3.70312 18.0166 3.70312 18.0167 3.70312 18.0167C3.70312 18.0168 3.70312 18.0168 3.70312 18.0168C3.70312 18.0169 3.70312 18.0169 3.70312 18.017C3.70312 18.017 3.70312 18.0171 3.70312 18.0171C3.70312 18.0172 3.70312 18.0172 3.70312 18.0173C3.70312 18.0173 3.70312 18.0174 3.70312 18.0174C3.70312 18.0175 3.70312 18.0175 3.70312 18.0175C3.70312 18.0176 3.70312 18.0176 3.70312 18.0177C3.70312 18.0177 3.70312 18.0178 3.70312 18.0178C3.70312 18.0179 3.70312 18.0179 3.70312 18.018C3.70312 18.018 3.70312 18.0181 3.70312 18.0181C3.70312 18.0182 3.70312 18.0182 3.70312 18.0183C3.70312 18.0183 3.70312 18.0184 3.70312 18.0184C3.70312 18.0185 3.70312 18.0185 3.70312 18.0186C3.70312 18.0186 3.70312 18.0187 3.70312 18.0187C3.70312 18.0188 3.70312 18.0188 3.70312 18.0189C3.70312 18.0189 3.70312 18.019 3.70312 18.019C3.70312 18.0191 3.70312 18.0191 3.70312 18.0192C3.70312 18.0192 3.70312 18.0193 3.70312 18.0193C3.70312 18.0194 3.70312 18.0194 3.70312 18.0195C3.70312 18.0195 3.70312 18.0196 3.70312 18.0196C3.70312 18.0197 3.70312 18.0197 3.70312 18.0198C3.70312 18.0198 3.70312 18.0199 3.70312 18.0199C3.70312 18.02 3.70312 18.02 3.70312 18.0201C3.70312 18.0201 3.70312 18.0202 3.70312 18.0202C3.70312 18.0203 3.70312 18.0203 3.70312 18.0204C3.70312 18.0205 3.70312 18.0205 3.70312 18.0206C3.70312 18.0206 3.70312 18.0207 3.70312 18.0207C3.70312 18.0208 3.70312 18.0208 3.70312 18.0209C3.70312 18.0209 3.70312 18.021 3.70312 18.021C3.70312 18.0211 3.70312 18.0211 3.70312 18.0212C3.70312 18.0213 3.70312 18.0213 3.70312 18.0214C3.70312 18.0214 3.70312 18.0215 3.70312 18.0215C3.70312 18.0216 3.70312 18.0216 3.70312 18.0217C3.70312 18.0217 3.70312 18.0218 3.70312 18.0219C3.70312 18.0219 3.70312 18.022 3.70312 18.022C3.70312 18.0221 3.70312 18.0221 3.70312 18.0222C3.70312 18.0222 3.70312 18.0223 3.70312 18.0224C3.70312 18.0224 3.70312 18.0225 3.70312 18.0225C3.70312 18.0226 3.70312 18.0226 3.70312 18.0227C3.70312 18.0227 3.70312 18.0228 3.70312 18.0229C3.70312 18.0229 3.70312 18.023 3.70312 18.023C3.70312 18.0231 3.70312 18.0231 3.70312 18.0232C3.70312 18.0233 3.70312 18.0233 3.70312 18.0234C3.70312 18.0234 3.70312 18.0235 3.70312 18.0235C3.70312 18.0236 3.70312 18.0237 3.70312 18.0237C3.70312 18.0238 3.70312 18.0238 3.70312 18.0239C3.70312 18.024 3.70312 18.024 3.70312 18.0241C3.70312 18.0241 3.70312 18.0242 3.70312 18.0242C3.70312 18.0243 3.70312 18.0244 3.70312 18.0244C3.70312 18.0245 3.70312 18.0245 3.70312 18.0246C3.70312 18.0247 3.70312 18.0247 3.70312 18.0248C3.70312 18.0248 3.70312 18.0249 3.70312 18.025C3.70312 18.025 3.70312 18.0251 3.70312 18.0251C3.70312 18.0252 3.70312 18.0253 3.70312 18.0253C3.70312 18.0254 3.70312 18.0254 3.70312 18.0255C3.70312 18.0256 3.70312 18.0256 3.70312 18.0257C3.70312 18.0257 3.70312 18.0258 3.70312 18.0259C3.70312 18.0259 3.70312 18.026 3.70312 18.0261C3.70312 18.0261 3.70312 18.0262 3.70312 18.0262C3.70312 18.0263 3.70312 18.0264 3.70312 18.0264C3.70312 18.0265 3.70312 18.0266 3.70312 18.0266C3.70312 18.0267 3.70312 18.0267 3.70312 18.0268C3.70312 18.0269 3.70312 18.0269 3.70312 18.027C3.70312 18.0271 3.70312 18.0271 3.70312 18.0272C3.70312 18.0273 3.70312 18.0273 3.70312 18.0274C3.70312 18.0274 3.70312 18.0275 3.70312 18.0276C3.70312 18.0276 3.70312 18.0277 3.70312 18.0278C3.70312 18.0278 3.70312 18.0279 3.70312 18.028C3.70312 18.028 3.70312 18.0281 3.70312 18.0282C3.70312 18.0282 3.70312 18.0283 3.70312 18.0284C3.70312 18.0284 3.70312 18.0285 3.70312 18.0285C3.70312 18.0286 3.70312 18.0287 3.70312 18.0287C3.70312 18.0288 3.70312 18.0289 3.70312 18.0289C3.70312 18.029 3.70312 18.0291 3.70312 18.0291C3.70312 18.0292 3.70312 18.0293 3.70312 18.0293C3.70312 18.0294 3.70312 18.0295 3.70312 18.0295C3.70312 18.0296 3.70312 18.0297 3.70312 18.0297C3.70312 18.0298 3.70312 18.0299 3.70312 18.03C3.70312 18.03 3.70312 18.0301 3.70312 18.0302C3.70312 18.0302 3.70312 18.0303 3.70312 18.0304C3.70312 18.0304 3.70312 18.0305 3.70312 18.0306C3.70312 18.0306 3.70312 18.0307 3.70312 18.0308C3.70312 18.0308 3.70312 18.0309 3.70312 18.031C3.70312 18.0311 3.70312 18.0311 3.70312 18.0312C3.70312 18.0313 3.70312 18.0313 3.70312 18.0314C3.70312 18.0315 3.70312 18.0315 3.70312 18.0316C3.70312 18.0317 3.70312 18.0318 3.70312 18.0318C3.70312 18.0319 3.70312 18.032 3.70312 18.032C3.70312 18.0321 3.70312 18.0322 3.70312 18.0322C3.70312 18.0323 3.70312 18.0324 3.70312 18.0325C3.70312 18.0325 3.70312 18.0326 3.70312 18.0327C3.70312 18.0328 3.70312 18.0328 3.70312 18.0329C3.70312 18.033 3.70312 18.033 3.70312 18.0331C3.70312 18.0332 3.70312 18.0333 3.70312 18.0333C3.70312 18.0334 3.70312 18.0335 3.70312 18.0336C3.70312 18.0336 3.70312 18.0337 3.70312 18.0338C3.70312 18.0338 3.70312 18.0339 3.70312 18.034C3.70312 18.0341 3.70312 18.0341 3.70312 18.0342C3.70312 18.0343 3.70312 18.0344 3.70312 18.0344C3.70312 18.0345 3.70312 18.0346 3.70312 18.0347C3.70312 18.0347 3.70312 18.0348 3.70312 18.0349C3.70312 18.035 3.70312 18.035 3.70312 18.0351C3.70312 18.0352 3.70312 18.0353 3.70312 18.0353C3.70312 18.0354 3.70312 18.0355 3.70312 18.0356C3.70312 18.0356 3.70312 18.0357 3.70312 18.0358C3.70312 18.0359 3.70312 18.0359 3.70312 18.036C3.70312 18.0361 3.70312 18.0362 3.70312 18.0363C3.70312 18.0363 3.70312 18.0364 3.70312 18.0365C3.70312 18.0366 3.70312 18.0366 3.70312 18.0367C3.70312 18.0368 3.70312 18.0369 3.70312 18.037C3.70312 18.037 3.70312 18.0371 3.70312 18.0372C3.70312 18.0373 3.70312 18.0374 3.70312 18.0374C3.70312 18.0375 3.70312 18.0376 3.70312 18.0377C3.70312 18.0377 3.70312 18.0378 3.70312 18.0379C3.70312 18.038 3.70312 18.0381 3.70312 18.0381C3.70312 18.0382 3.70312 18.0383 3.70312 18.0384C3.70312 18.0385 3.70312 18.0385 3.70312 18.0386C3.70312 18.0387 3.70312 18.0388 3.70312 18.0389C3.70312 18.0389 3.70312 18.039 3.70312 18.0391C3.70312 18.0392 3.70312 18.0393 3.70312 18.0394C3.70312 18.0394 3.70312 18.0395 3.70312 18.0396C3.70312 18.0397 3.70312 18.0398 3.70312 18.0398C3.70312 18.0399 3.70312 18.04 3.70312 18.0401C3.70312 18.0402 3.70312 18.0403 3.70312 18.0403C3.70312 18.0404 3.70312 18.0405 3.70312 18.0406C3.70312 18.0407 3.70312 18.0408 3.70312 18.0408C3.70312 18.0409 3.70312 18.041 3.70312 18.0411C3.70312 18.0412 3.70312 18.0413 3.70312 18.0413C3.70312 18.0414 3.70312 18.0415 3.70312 18.0416C3.70312 18.0417 3.70312 18.0418 3.70312 18.0418C3.70312 18.0419 3.70312 18.042 3.70312 18.0421C3.70312 18.0422 3.70312 18.0423 3.70312 18.0424C3.70312 18.0424 3.70312 18.0425 3.70312 18.0426C3.70312 18.0427 3.70312 18.0428 3.70312 18.0429C3.70312 18.043 3.70312 18.043 3.70312 18.0431C3.70312 18.0432 3.70312 18.0433 3.70312 18.0434C3.70312 18.0435 3.70312 18.0436 3.70312 18.0437C3.70312 18.0437 3.70312 18.0438 3.70312 18.0439C3.70312 18.044 3.70312 18.0441 3.70312 18.0442C3.70312 18.0443 3.70312 18.0444 3.70312 18.0444C3.70312 18.0445 3.70312 18.0446 3.70312 18.0447C3.70312 18.0448 3.70312 18.0449 3.70312 18.045C3.70312 18.0451 3.70312 18.0452 3.70312 18.0452C3.70312 18.0453 3.70312 18.0454 3.70312 18.0455C3.70312 18.0456 3.70312 18.0457 3.70312 18.0458C3.70312 18.0459 3.70312 18.046 3.70312 18.0461C3.70312 18.0461 3.70312 18.0462 3.70312 18.0463C3.70312 18.0464 3.70312 18.0465 3.70312 18.0466C3.70312 18.0467 3.70312 18.0468 3.70312 18.0469H5.70312C5.70312 18.0468 5.70312 18.0467 5.70312 18.0466C5.70312 18.0465 5.70312 18.0464 5.70312 18.0463C5.70312 18.0462 5.70312 18.0461 5.70312 18.0461C5.70312 18.046 5.70312 18.0459 5.70312 18.0458C5.70312 18.0457 5.70312 18.0456 5.70312 18.0455C5.70312 18.0454 5.70312 18.0453 5.70312 18.0452C5.70312 18.0452 5.70312 18.0451 5.70312 18.045C5.70312 18.0449 5.70312 18.0448 5.70312 18.0447C5.70312 18.0446 5.70312 18.0445 5.70312 18.0444C5.70312 18.0444 5.70312 18.0443 5.70312 18.0442C5.70312 18.0441 5.70312 18.044 5.70312 18.0439C5.70312 18.0438 5.70312 18.0437 5.70312 18.0437C5.70312 18.0436 5.70312 18.0435 5.70312 18.0434C5.70312 18.0433 5.70312 18.0432 5.70312 18.0431C5.70312 18.043 5.70312 18.043 5.70312 18.0429C5.70312 18.0428 5.70312 18.0427 5.70312 18.0426C5.70312 18.0425 5.70312 18.0424 5.70312 18.0424C5.70312 18.0423 5.70312 18.0422 5.70312 18.0421C5.70312 18.042 5.70312 18.0419 5.70312 18.0418C5.70312 18.0418 5.70312 18.0417 5.70312 18.0416C5.70312 18.0415 5.70312 18.0414 5.70312 18.0413C5.70312 18.0413 5.70312 18.0412 5.70312 18.0411C5.70312 18.041 5.70312 18.0409 5.70312 18.0408C5.70312 18.0408 5.70312 18.0407 5.70312 18.0406C5.70312 18.0405 5.70312 18.0404 5.70312 18.0403C5.70312 18.0403 5.70312 18.0402 5.70312 18.0401C5.70312 18.04 5.70312 18.0399 5.70312 18.0398C5.70312 18.0398 5.70312 18.0397 5.70312 18.0396C5.70312 18.0395 5.70312 18.0394 5.70312 18.0394C5.70312 18.0393 5.70312 18.0392 5.70312 18.0391C5.70312 18.039 5.70312 18.0389 5.70312 18.0389C5.70312 18.0388 5.70312 18.0387 5.70312 18.0386C5.70312 18.0385 5.70312 18.0385 5.70312 18.0384C5.70312 18.0383 5.70312 18.0382 5.70312 18.0381C5.70312 18.0381 5.70312 18.038 5.70312 18.0379C5.70312 18.0378 5.70312 18.0377 5.70312 18.0377C5.70312 18.0376 5.70312 18.0375 5.70312 18.0374C5.70312 18.0374 5.70312 18.0373 5.70312 18.0372C5.70312 18.0371 5.70312 18.037 5.70312 18.037C5.70312 18.0369 5.70312 18.0368 5.70312 18.0367C5.70312 18.0366 5.70312 18.0366 5.70312 18.0365C5.70312 18.0364 5.70312 18.0363 5.70312 18.0363C5.70312 18.0362 5.70312 18.0361 5.70312 18.036C5.70312 18.0359 5.70312 18.0359 5.70312 18.0358C5.70312 18.0357 5.70312 18.0356 5.70312 18.0356C5.70312 18.0355 5.70312 18.0354 5.70312 18.0353C5.70312 18.0353 5.70312 18.0352 5.70312 18.0351C5.70312 18.035 5.70312 18.035 5.70312 18.0349C5.70312 18.0348 5.70312 18.0347 5.70312 18.0347C5.70312 18.0346 5.70312 18.0345 5.70312 18.0344C5.70312 18.0344 5.70312 18.0343 5.70312 18.0342C5.70312 18.0341 5.70312 18.0341 5.70312 18.034C5.70312 18.0339 5.70312 18.0338 5.70312 18.0338C5.70312 18.0337 5.70312 18.0336 5.70312 18.0336C5.70312 18.0335 5.70312 18.0334 5.70312 18.0333C5.70312 18.0333 5.70312 18.0332 5.70312 18.0331C5.70312 18.033 5.70312 18.033 5.70312 18.0329C5.70312 18.0328 5.70312 18.0328 5.70312 18.0327C5.70312 18.0326 5.70312 18.0325 5.70312 18.0325C5.70312 18.0324 5.70312 18.0323 5.70312 18.0322C5.70312 18.0322 5.70312 18.0321 5.70312 18.032C5.70312 18.032 5.70312 18.0319 5.70312 18.0318C5.70312 18.0318 5.70312 18.0317 5.70312 18.0316C5.70312 18.0315 5.70312 18.0315 5.70312 18.0314C5.70312 18.0313 5.70312 18.0313 5.70312 18.0312C5.70312 18.0311 5.70312 18.0311 5.70312 18.031C5.70312 18.0309 5.70312 18.0308 5.70312 18.0308C5.70312 18.0307 5.70312 18.0306 5.70312 18.0306C5.70312 18.0305 5.70312 18.0304 5.70312 18.0304C5.70312 18.0303 5.70312 18.0302 5.70312 18.0302C5.70312 18.0301 5.70312 18.03 5.70312 18.03C5.70312 18.0299 5.70312 18.0298 5.70312 18.0297C5.70312 18.0297 5.70312 18.0296 5.70312 18.0295C5.70312 18.0295 5.70312 18.0294 5.70312 18.0293C5.70312 18.0293 5.70312 18.0292 5.70312 18.0291C5.70312 18.0291 5.70312 18.029 5.70312 18.0289C5.70312 18.0289 5.70312 18.0288 5.70312 18.0287C5.70312 18.0287 5.70312 18.0286 5.70312 18.0285C5.70312 18.0285 5.70312 18.0284 5.70312 18.0284C5.70312 18.0283 5.70312 18.0282 5.70312 18.0282C5.70312 18.0281 5.70312 18.028 5.70312 18.028C5.70312 18.0279 5.70312 18.0278 5.70312 18.0278C5.70312 18.0277 5.70312 18.0276 5.70312 18.0276C5.70312 18.0275 5.70312 18.0274 5.70312 18.0274C5.70312 18.0273 5.70312 18.0273 5.70312 18.0272C5.70312 18.0271 5.70312 18.0271 5.70312 18.027C5.70312 18.0269 5.70312 18.0269 5.70312 18.0268C5.70312 18.0267 5.70312 18.0267 5.70312 18.0266C5.70312 18.0266 5.70312 18.0265 5.70312 18.0264C5.70312 18.0264 5.70312 18.0263 5.70312 18.0262C5.70312 18.0262 5.70312 18.0261 5.70312 18.0261C5.70312 18.026 5.70312 18.0259 5.70312 18.0259C5.70312 18.0258 5.70312 18.0257 5.70312 18.0257C5.70312 18.0256 5.70312 18.0256 5.70312 18.0255C5.70312 18.0254 5.70312 18.0254 5.70312 18.0253C5.70312 18.0253 5.70312 18.0252 5.70312 18.0251C5.70312 18.0251 5.70312 18.025 5.70312 18.025C5.70312 18.0249 5.70312 18.0248 5.70312 18.0248C5.70312 18.0247 5.70312 18.0247 5.70312 18.0246C5.70312 18.0245 5.70312 18.0245 5.70312 18.0244C5.70312 18.0244 5.70312 18.0243 5.70312 18.0242C5.70312 18.0242 5.70312 18.0241 5.70312 18.0241C5.70312 18.024 5.70312 18.024 5.70312 18.0239C5.70312 18.0238 5.70312 18.0238 5.70312 18.0237C5.70312 18.0237 5.70312 18.0236 5.70312 18.0235C5.70312 18.0235 5.70312 18.0234 5.70312 18.0234C5.70312 18.0233 5.70312 18.0233 5.70312 18.0232C5.70312 18.0231 5.70312 18.0231 5.70312 18.023C5.70312 18.023 5.70312 18.0229 5.70312 18.0229C5.70312 18.0228 5.70312 18.0227 5.70312 18.0227C5.70312 18.0226 5.70312 18.0226 5.70312 18.0225C5.70312 18.0225 5.70312 18.0224 5.70312 18.0224C5.70312 18.0223 5.70312 18.0222 5.70312 18.0222C5.70312 18.0221 5.70312 18.0221 5.70312 18.022C5.70312 18.022 5.70312 18.0219 5.70312 18.0219C5.70312 18.0218 5.70312 18.0217 5.70312 18.0217C5.70312 18.0216 5.70312 18.0216 5.70312 18.0215C5.70312 18.0215 5.70312 18.0214 5.70312 18.0214C5.70312 18.0213 5.70312 18.0213 5.70312 18.0212C5.70312 18.0211 5.70312 18.0211 5.70312 18.021C5.70312 18.021 5.70312 18.0209 5.70312 18.0209C5.70312 18.0208 5.70312 18.0208 5.70312 18.0207C5.70312 18.0207 5.70312 18.0206 5.70312 18.0206C5.70312 18.0205 5.70312 18.0205 5.70312 18.0204C5.70312 18.0203 5.70312 18.0203 5.70312 18.0202C5.70312 18.0202 5.70312 18.0201 5.70312 18.0201C5.70312 18.02 5.70312 18.02 5.70312 18.0199C5.70312 18.0199 5.70312 18.0198 5.70312 18.0198C5.70312 18.0197 5.70312 18.0197 5.70312 18.0196C5.70312 18.0196 5.70312 18.0195 5.70312 18.0195C5.70312 18.0194 5.70312 18.0194 5.70312 18.0193C5.70312 18.0193 5.70312 18.0192 5.70312 18.0192C5.70312 18.0191 5.70312 18.0191 5.70312 18.019C5.70312 18.019 5.70312 18.0189 5.70312 18.0189C5.70312 18.0188 5.70312 18.0188 5.70312 18.0187C5.70312 18.0187 5.70312 18.0186 5.70312 18.0186C5.70312 18.0185 5.70312 18.0185 5.70312 18.0184C5.70312 18.0184 5.70312 18.0183 5.70312 18.0183C5.70312 18.0182 5.70312 18.0182 5.70312 18.0181C5.70312 18.0181 5.70312 18.018 5.70312 18.018C5.70312 18.0179 5.70312 18.0179 5.70312 18.0178C5.70312 18.0178 5.70312 18.0177 5.70312 18.0177C5.70312 18.0176 5.70312 18.0176 5.70312 18.0175C5.70312 18.0175 5.70312 18.0175 5.70312 18.0174C5.70312 18.0174 5.70312 18.0173 5.70312 18.0173C5.70312 18.0172 5.70312 18.0172 5.70312 18.0171C5.70312 18.0171 5.70312 18.017 5.70312 18.017C5.70312 18.0169 5.70312 18.0169 5.70312 18.0168C5.70312 18.0168 5.70312 18.0168 5.70312 18.0167C5.70312 18.0167 5.70312 18.0166 5.70312 18.0166C5.70312 18.0165 5.70312 18.0165 5.70312 18.0164C5.70312 18.0164 5.70312 18.0163 5.70312 18.0163C5.70312 18.0163 5.70312 18.0162 5.70312 18.0162C5.70312 18.0161 5.70312 18.0161 5.70312 18.016C5.70312 18.016 5.70312 18.0159 5.70312 18.0159C5.70312 18.0158 5.70312 18.0158 5.70312 18.0158C5.70312 18.0157 5.70312 18.0157 5.70312 18.0156C5.70312 18.0156 5.70312 18.0155 5.70312 18.0155C5.70312 18.0154 5.70312 18.0154 5.70312 18.0154C5.70312 18.0153 5.70312 18.0153 5.70312 18.0152C5.70312 18.0152 5.70312 18.0151 5.70312 18.0151C5.70312 18.0151 5.70312 18.015 5.70312 18.015C5.70312 18.0149 5.70312 18.0149 5.70312 18.0148C5.70312 18.0148 5.70312 18.0148 5.70312 18.0147C5.70312 18.0147 5.70312 18.0146 5.70312 18.0146C5.70312 18.0145 5.70312 18.0145 5.70312 18.0145C5.70312 18.0144 5.70312 18.0144 5.70312 18.0143C5.70312 18.0143 5.70312 18.0143 5.70312 18.0142C5.70312 18.0142 5.70312 18.0141 5.70312 18.0141C5.70312 18.0141 5.70312 18.014 5.70312 18.014C5.70312 18.0139 5.70312 18.0139 5.70312 18.0138C5.70312 18.0138 5.70312 18.0138 5.70312 18.0137C5.70312 18.0137 5.70312 18.0136 5.70312 18.0136C5.70312 18.0136 5.70312 18.0135 5.70312 18.0135C5.70312 18.0134 5.70312 18.0134 5.70312 18.0134C5.70312 18.0133 5.70312 18.0133 5.70312 18.0132C5.70312 18.0132 5.70312 18.0132 5.70312 18.0131C5.70312 18.0131 5.70312 18.0131 5.70312 18.013C5.70312 18.013 5.70312 18.0129 5.70312 18.0129C5.70312 18.0129 5.70312 18.0128 5.70312 18.0128C5.70312 18.0127 5.70312 18.0127 5.70312 18.0127C5.70312 18.0126 5.70312 18.0126 5.70312 18.0126C5.70312 18.0125 5.70312 18.0125 5.70312 18.0124C5.70312 18.0124 5.70312 18.0124 5.70312 18.0123C5.70312 18.0123 5.70312 18.0123 5.70312 18.0122C5.70312 18.0122 5.70312 18.0121 5.70312 18.0121C5.70312 18.0121 5.70312 18.012 5.70312 18.012C5.70312 18.012 5.70312 18.0119 5.70312 18.0119C5.70312 18.0118 5.70312 18.0118 5.70312 18.0118C5.70312 18.0117 5.70312 18.0117 5.70312 18.0117C5.70312 18.0116 5.70312 18.0116 5.70312 18.0116C5.70312 18.0115 5.70312 18.0115 5.70312 18.0114C5.70312 18.0114 5.70312 18.0114 5.70312 18.0113C5.70312 18.0113 5.70312 18.0113 5.70312 18.0112C5.70312 18.0112 5.70312 18.0112 5.70312 18.0111C5.70312 18.0111 5.70312 18.0111 5.70312 18.011C5.70312 18.011 5.70312 18.0109 5.70312 18.0109C5.70312 18.0109 5.70312 18.0108 5.70312 18.0108C5.70312 18.0108 5.70312 18.0107 5.70312 18.0107C5.70312 18.0107 5.70312 18.0106 5.70312 18.0106C5.70312 18.0106 5.70312 18.0105 5.70312 18.0105C5.70312 18.0105 5.70312 18.0104 5.70312 18.0104C5.70312 18.0104 5.70312 18.0103 5.70312 18.0103C5.70312 18.0103 5.70312 18.0102 5.70312 18.0102C5.70312 18.0102 5.70312 18.0101 5.70312 18.0101C5.70312 18.0101 5.70312 18.01 5.70312 18.01C5.70312 18.01 5.70312 18.0099 5.70312 18.0099C5.70312 18.0099 5.70312 18.0098 5.70312 18.0098C5.70312 18.0098 5.70312 18.0098 5.70312 18.0097C5.70312 18.0097 5.70312 18.0097 5.70312 18.0096C5.70312 18.0096 5.70312 18.0096 5.70312 18.0095C5.70312 18.0095 5.70312 18.0095 5.70312 18.0094C5.70312 18.0094 5.70312 18.0094 5.70312 18.0093C5.70312 18.0093 5.70312 18.0093 5.70312 18.0092C5.70312 18.0092 5.70312 18.0092 5.70312 18.0091C5.70312 18.0091 5.70312 18.0091 5.70312 18.0091C5.70312 18.009 5.70312 18.009 5.70312 18.009C5.70312 18.0089 5.70312 18.0089 5.70312 18.0089C5.70312 18.0088 5.70312 18.0088 5.70312 18.0088C5.70312 18.0088 5.70312 18.0087 5.70312 18.0087C5.70312 18.0087 5.70312 18.0086 5.70312 18.0086C5.70312 18.0086 5.70312 18.0085 5.70312 18.0085C5.70312 18.0085 5.70312 18.0085 5.70312 18.0084C5.70312 18.0084 5.70312 18.0084 5.70312 18.0083C5.70312 18.0083 5.70312 18.0083 5.70312 18.0083C5.70312 18.0082 5.70312 18.0082 5.70312 18.0082C5.70312 18.0081 5.70312 18.0081 5.70312 18.0081C5.70312 18.0081 5.70312 18.008 5.70312 18.008C5.70312 18.008 5.70312 18.0079 5.70312 18.0079C5.70312 18.0079 5.70312 18.0079 5.70312 18.0078C5.70312 18.0078 5.70312 18.0078 5.70312 18.0078C5.70312 18.0077 5.70312 18.0077 5.70312 18.0077C5.70312 18.0076 5.70312 18.0076 5.70312 18.0076C5.70312 18.0076 5.70312 18.0075 5.70312 18.0075C5.70312 18.0075 5.70312 18.0074 5.70312 18.0074C5.70312 18.0074 5.70312 18.0074 5.70312 18.0073C5.70312 18.0073 5.70312 18.0073 5.70312 18.0073C5.70312 18.0072 5.70312 18.0072 5.70312 18.0072C5.70312 18.0072 5.70312 18.0071 5.70312 18.0071C5.70312 18.0071 5.70312 18.0071 5.70312 18.007C5.70312 18.007 5.70312 18.007 5.70312 18.007C5.70312 18.0069 5.70312 18.0069 5.70312 18.0069C5.70312 18.0069 5.70312 18.0068 5.70312 18.0068C5.70312 18.0068 5.70312 18.0067 5.70312 18.0067C5.70312 18.0067 5.70312 18.0067 5.70312 18.0066C5.70312 18.0066 5.70312 18.0066 5.70312 18.0066C5.70312 18.0065 5.70312 18.0065 5.70312 18.0065C5.70312 18.0065 5.70312 18.0064 5.70312 18.0064C5.70312 18.0064 5.70312 18.0064 5.70312 18.0064C5.70312 18.0063 5.70312 18.0063 5.70312 18.0063C5.70312 18.0063 5.70312 18.0062 5.70312 18.0062C5.70312 18.0062 5.70312 18.0062 5.70312 18.0061C5.70312 18.0061 5.70312 18.0061 5.70312 18.0061C5.70312 18.006 5.70312 18.006 5.70312 18.006C5.70312 18.006 5.70312 18.006 5.70312 18.0059C5.70312 18.0059 5.70312 18.0059 5.70312 18.0059C5.70312 18.0058 5.70312 18.0058 5.70312 18.0058C5.70312 18.0058 5.70312 18.0057 5.70312 18.0057C5.70312 18.0057 5.70312 18.0057 5.70312 18.0057C5.70312 18.0056 5.70312 18.0056 5.70312 18.0056C5.70312 18.0056 5.70312 18.0055 5.70312 18.0055C5.70312 18.0055 5.70312 18.0055 5.70312 18.0055C5.70312 18.0054 5.70312 18.0054 5.70312 18.0054C5.70312 18.0054 5.70312 18.0053 5.70312 18.0053C5.70312 18.0053 5.70312 18.0053 5.70312 18.0053C5.70312 18.0052 5.70312 18.0052 5.70312 18.0052C5.70312 18.0052 5.70312 18.0052 5.70312 18.0051C5.70312 18.0051 5.70312 18.0051 5.70312 18.0051C5.70312 18.0051 5.70312 18.005 5.70312 18.005C5.70312 18.005 5.70312 18.005 5.70312 18.005C5.70312 18.0049 5.70312 18.0049 5.70312 18.0049C5.70312 18.0049 5.70312 18.0048 5.70312 18.0048C5.70312 18.0048 5.70312 18.0048 5.70312 18.0048C5.70312 18.0047 5.70312 18.0047 5.70312 18.0047C5.70312 18.0047 5.70312 18.0047 5.70312 18.0046C5.70312 18.0046 5.70312 18.0046 5.70312 18.0046C5.70312 18.0046 5.70312 18.0046 5.70312 18.0045C5.70312 18.0045 5.70312 18.0045 5.70312 18.0045C5.70312 18.0045 5.70312 18.0044 5.70312 18.0044C5.70312 18.0044 5.70312 18.0044 5.70312 18.0044C5.70312 18.0043 5.70312 18.0043 5.70312 18.0043C5.70312 18.0043 5.70312 18.0043 5.70312 18.0042C5.70312 18.0042 5.70312 18.0042 5.70312 18.0042C5.70312 18.0042 5.70312 18.0042 5.70312 18.0041C5.70312 18.0041 5.70312 18.0041 5.70312 18.0041C5.70312 18.0041 5.70312 18.0041 5.70312 18.004C5.70312 18.004 5.70312 18.004 5.70312 18.004C5.70312 18.004 5.70312 18.0039 5.70312 18.0039C5.70312 18.0039 5.70312 18.0039 5.70312 18.0039C5.70312 18.0039 5.70312 18.0038 5.70312 18.0038C5.70312 18.0038 5.70312 18.0038 5.70312 18.0038C5.70312 18.0038 5.70312 18.0037 5.70312 18.0037C5.70312 18.0037 5.70312 18.0037 5.70312 18.0037C5.70312 18.0037 5.70312 18.0036 5.70312 18.0036C5.70312 18.0036 5.70312 18.0036 5.70312 18.0036C5.70312 18.0036 5.70312 18.0035 5.70312 18.0035C5.70312 18.0035 5.70312 18.0035 5.70312 18.0035C5.70312 18.0035 5.70312 18.0034 5.70312 18.0034C5.70312 18.0034 5.70312 18.0034 5.70312 18.0034C5.70312 18.0034 5.70312 18.0033 5.70312 18.0033C5.70312 18.0033 5.70312 18.0033 5.70312 18.0033C5.70312 18.0033 5.70312 18.0033 5.70312 18.0032C5.70312 18.0032 5.70312 18.0032 5.70312 18.0032C5.70312 18.0032 5.70312 18.0032 5.70312 18.0031C5.70312 18.0031 5.70312 18.0031 5.70312 18.0031C5.70312 18.0031 5.70312 18.0031 5.70312 18.0031C5.70312 18.003 5.70312 18.003 5.70312 18.003C5.70312 18.003 5.70312 18.003 5.70312 18.003C5.70312 18.003 5.70312 18.0029 5.70312 18.0029C5.70312 18.0029 5.70312 18.0029 5.70312 18.0029C5.70312 18.0029 5.70312 18.0029 5.70312 18.0028C5.70312 18.0028 5.70312 18.0028 5.70312 18.0028C5.70312 18.0028 5.70312 18.0028 5.70312 18.0028C5.70312 18.0027 5.70312 18.0027 5.70312 18.0027C5.70312 18.0027 5.70312 18.0027 5.70312 18.0027C5.70312 18.0027 5.70312 18.0026 5.70312 18.0026C5.70312 18.0026 5.70312 18.0026 5.70312 18.0026C5.70312 18.0026 5.70312 18.0026 5.70312 18.0025C5.70312 18.0025 5.70312 18.0025 5.70312 18.0025C5.70312 18.0025 5.70312 18.0025 5.70312 18.0025C5.70312 18.0025 5.70312 18.0024 5.70312 18.0024C5.70312 18.0024 5.70312 18.0024 5.70312 18.0024C5.70312 18.0024 5.70312 18.0024 5.70312 18.0024C5.70312 18.0023 5.70312 18.0023 5.70312 18.0023C5.70312 18.0023 5.70312 18.0023 5.70312 18.0023C5.70312 18.0023 5.70312 18.0023 5.70312 18.0023C5.70312 18.0022 5.70312 18.0022 5.70312 18.0022C5.70312 18.0022 5.70312 18.0022 5.70312 18.0022C5.70312 18.0022 5.70312 18.0022 5.70312 18.0021C5.70312 18.0021 5.70312 18.0021 5.70312 18.0021C5.70312 18.0021 5.70312 18.0021 5.70312 18.0021C5.70312 18.0021 5.70312 18.002 5.70312 18.002C5.70312 18.002 5.70312 18.002 5.70312 18.002C5.70312 18.002 5.70312 18.002 5.70312 18.002C5.70312 18.002 5.70312 18.0019 5.70312 18.0019C5.70312 18.0019 5.70312 18.0019 5.70312 18.0019C5.70312 18.0019 5.70312 18.0019 5.70312 18.0019C5.70312 18.0019 5.70312 18.0019 5.70312 18.0018C5.70312 18.0018 5.70312 18.0018 5.70312 18.0018C5.70312 18.0018 5.70312 18.0018 5.70312 18.0018C5.70312 18.0018 5.70312 18.0018 5.70312 18.0017C5.70312 18.0017 5.70312 18.0017 5.70312 18.0017C5.70312 18.0017 5.70312 18.0017 5.70312 18.0017C5.70312 18.0017 5.70312 18.0017 5.70312 18.0017C5.70312 18.0016 5.70312 18.0016 5.70312 18.0016C5.70312 18.0016 5.70312 18.0016 5.70312 18.0016C5.70312 18.0016 5.70312 18.0016 5.70312 18.0016C5.70312 18.0016 5.70312 18.0015 5.70312 18.0015C5.70312 18.0015 5.70312 18.0015 5.70312 18.0015C5.70312 18.0015 5.70312 18.0015 5.70312 18.0015C5.70312 18.0015 5.70312 18.0015 5.70312 18.0015C5.70312 18.0014 5.70312 18.0014 5.70312 18.0014C5.70312 18.0014 5.70312 18.0014 5.70312 18.0014C5.70312 18.0014 5.70312 18.0014 5.70312 18.0014C5.70312 18.0014 5.70312 18.0014 5.70312 18.0014C5.70312 18.0013 5.70312 18.0013 5.70312 18.0013C5.70312 18.0013 5.70312 18.0013 5.70312 18.0013C5.70312 18.0013 5.70312 18.0013 5.70312 18.0013C5.70312 18.0013 5.70312 18.0013 5.70312 18.0013C5.70312 18.0012 5.70312 18.0012 5.70312 18.0012C5.70312 18.0012 5.70312 18.0012 5.70312 18.0012C5.70312 18.0012 5.70312 18.0012 5.70312 18.0012C5.70312 18.0012 5.70312 18.0012 5.70312 18.0012C5.70312 18.0011 5.70312 18.0011 5.70312 18.0011C5.70312 18.0011 5.70312 18.0011 5.70312 18.0011C5.70312 18.0011 5.70312 18.0011 5.70312 18.0011C5.70312 18.0011 5.70312 18.0011 5.70312 18.0011C5.70312 18.0011 5.70312 18.0011 5.70312 18.001C5.70312 18.001 5.70312 18.001 5.70312 18.001C5.70312 18.001 5.70312 18.001 5.70312 18.001C5.70312 18.001 5.70312 18.001 5.70312 18.001C5.70312 18.001 5.70312 18.001 5.70312 18.001C5.70312 18.001 5.70312 18.0009 5.70312 18.0009C5.70312 18.0009 5.70312 18.0009 5.70312 18.0009C5.70312 18.0009 5.70312 18.0009 5.70312 18.0009C5.70312 18.0009 5.70312 18.0009 5.70312 18.0009C5.70312 18.0009 5.70312 18.0009 5.70312 18.0009C5.70312 18.0009 5.70312 18.0008 5.70312 18.0008C5.70312 18.0008 5.70312 18.0008 5.70312 18.0008C5.70312 18.0008 5.70312 18.0008 5.70312 18.0008C5.70312 18.0008 5.70312 18.0008 5.70312 18.0008C5.70312 18.0008 5.70312 18.0008 5.70312 18.0008C5.70312 18.0008 5.70312 18.0008 5.70312 18.0007C5.70312 18.0007 5.70312 18.0007 5.70312 18.0007C5.70312 18.0007 5.70312 18.0007 5.70312 18.0007C5.70312 18.0007 5.70312 18.0007 5.70312 18.0007C5.70312 18.0007 5.70312 18.0007 5.70312 18.0007C5.70312 18.0007 5.70312 18.0007 5.70312 18.0007C5.70312 18.0007 5.70312 18.0007 5.70312 18.0006C5.70312 18.0006 5.70312 18.0006 5.70312 18.0006C5.70312 18.0006 5.70312 18.0006 5.70312 18.0006C5.70312 18.0006 5.70312 18.0006 5.70312 18.0006C5.70312 18.0006 5.70312 18.0006 5.70312 18.0006C5.70312 18.0006 5.70312 18.0006 5.70312 18.0006C5.70312 18.0006 5.70312 18.0006 5.70312 18.0006C5.70312 18.0006 5.70312 18.0005 5.70312 18.0005V18.0005C5.70312 18.0005 5.70312 18.0005 5.70312 18.0005C5.70312 18.0005 5.70312 18.0005 5.70312 18.0005C5.70312 18.0005 5.70312 18.0005 5.70312 18.0005V18.0005C5.70312 18.0005 5.70312 18.0005 5.70312 18.0005C5.70312 18.0005 5.70312 18.0005 5.70312 18.0005V18.0004C5.70312 18.0004 5.70312 18.0004 5.70312 18.0004V18.0004C5.70312 18.0004 5.70312 18.0004 5.70312 18.0004C5.70312 18.0004 5.70312 18.0004 5.70312 18.0004C5.70312 18.0004 5.70312 18.0004 5.70312 18.0004V18.0004C5.70312 18.0004 5.70312 18.0004 5.70312 18.0004V18.0004C5.70312 18.0003 5.70312 18.0003 5.70312 18.0003C5.70312 18.0003 5.70312 18.0003 5.70312 18.0003V18.0003C5.70312 18.0003 5.70312 18.0003 5.70312 18.0003C5.70312 18.0003 5.70312 18.0003 5.70312 18.0003V18.0003V18.0003C5.70312 18.0003 5.70312 18.0003 5.70312 18.0003C5.70312 18.0003 5.70312 18.0003 5.70312 18.0003C5.70312 18.0003 5.70312 18.0003 5.70312 18.0003C5.70312 18.0003 5.70312 18.0003 5.70312 18.0002C5.70312 18.0002 5.70312 18.0002 5.70312 18.0002V18.0002V18.0002V18.0002V18.0002V18.0002C5.70312 18.0002 5.70312 18.0002 5.70312 18.0002C5.70312 18.0002 5.70312 18.0002 5.70312 18.0002C5.70312 18.0002 5.70312 18.0002 5.70312 18.0002C5.70312 18.0002 5.70312 18.0002 5.70312 18.0002C5.70312 18.0002 5.70312 18.0002 5.70312 18.0002V18.0002C5.70312 18.0002 5.70312 18.0002 5.70312 18.0001C5.70312 18.0001 5.70312 18.0001 5.70312 18.0001V18.0001C5.70312 18.0001 5.70312 18.0001 5.70312 18.0001C5.70312 18.0001 5.70312 18.0001 5.70312 18.0001C5.70312 18.0001 5.70312 18.0001 5.70312 18.0001V18.0001C5.70312 18.0001 5.70312 18.0001 5.70312 18.0001C5.70312 18.0001 5.70312 18.0001 5.70312 18.0001C5.70312 18.0001 5.70312 18.0001 5.70312 18.0001C5.70312 18.0001 5.70312 18.0001 5.70312 18.0001C5.70312 18.0001 5.70312 18.0001 5.70312 18.0001C5.70312 18.0001 5.70312 18.0001 5.70312 18.0001C5.70312 18.0001 5.70312 18.0001 5.70312 18V18C5.70312 18 5.70312 18 5.70312 18V18C5.70312 18 5.70312 18 5.70312 18C5.70312 18 5.70312 18 5.70312 18C5.70312 18 5.70312 18 5.70312 18H4.70312ZM4.70312 19.0469H12.25V17.0469H4.70312V19.0469ZM13.25 18.0469C13.25 18.0468 13.25 18.0467 13.25 18.0466C13.25 18.0465 13.25 18.0464 13.25 18.0463C13.25 18.0462 13.25 18.0461 13.25 18.0461C13.25 18.046 13.25 18.0459 13.25 18.0458C13.25 18.0457 13.25 18.0456 13.25 18.0455C13.25 18.0454 13.25 18.0453 13.25 18.0452C13.25 18.0452 13.25 18.0451 13.25 18.045C13.25 18.0449 13.25 18.0448 13.25 18.0447C13.25 18.0446 13.25 18.0445 13.25 18.0444C13.25 18.0444 13.25 18.0443 13.25 18.0442C13.25 18.0441 13.25 18.044 13.25 18.0439C13.25 18.0438 13.25 18.0437 13.25 18.0437C13.25 18.0436 13.25 18.0435 13.25 18.0434C13.25 18.0433 13.25 18.0432 13.25 18.0431C13.25 18.043 13.25 18.043 13.25 18.0429C13.25 18.0428 13.25 18.0427 13.25 18.0426C13.25 18.0425 13.25 18.0424 13.25 18.0424C13.25 18.0423 13.25 18.0422 13.25 18.0421C13.25 18.042 13.25 18.0419 13.25 18.0418C13.25 18.0418 13.25 18.0417 13.25 18.0416C13.25 18.0415 13.25 18.0414 13.25 18.0413C13.25 18.0413 13.25 18.0412 13.25 18.0411C13.25 18.041 13.25 18.0409 13.25 18.0408C13.25 18.0408 13.25 18.0407 13.25 18.0406C13.25 18.0405 13.25 18.0404 13.25 18.0403C13.25 18.0403 13.25 18.0402 13.25 18.0401C13.25 18.04 13.25 18.0399 13.25 18.0398C13.25 18.0398 13.25 18.0397 13.25 18.0396C13.25 18.0395 13.25 18.0394 13.25 18.0394C13.25 18.0393 13.25 18.0392 13.25 18.0391C13.25 18.039 13.25 18.0389 13.25 18.0389C13.25 18.0388 13.25 18.0387 13.25 18.0386C13.25 18.0385 13.25 18.0385 13.25 18.0384C13.25 18.0383 13.25 18.0382 13.25 18.0381C13.25 18.0381 13.25 18.038 13.25 18.0379C13.25 18.0378 13.25 18.0377 13.25 18.0377C13.25 18.0376 13.25 18.0375 13.25 18.0374C13.25 18.0374 13.25 18.0373 13.25 18.0372C13.25 18.0371 13.25 18.037 13.25 18.037C13.25 18.0369 13.25 18.0368 13.25 18.0367C13.25 18.0366 13.25 18.0366 13.25 18.0365C13.25 18.0364 13.25 18.0363 13.25 18.0363C13.25 18.0362 13.25 18.0361 13.25 18.036C13.25 18.0359 13.25 18.0359 13.25 18.0358C13.25 18.0357 13.25 18.0356 13.25 18.0356C13.25 18.0355 13.25 18.0354 13.25 18.0353C13.25 18.0353 13.25 18.0352 13.25 18.0351C13.25 18.035 13.25 18.035 13.25 18.0349C13.25 18.0348 13.25 18.0347 13.25 18.0347C13.25 18.0346 13.25 18.0345 13.25 18.0344C13.25 18.0344 13.25 18.0343 13.25 18.0342C13.25 18.0341 13.25 18.0341 13.25 18.034C13.25 18.0339 13.25 18.0338 13.25 18.0338C13.25 18.0337 13.25 18.0336 13.25 18.0336C13.25 18.0335 13.25 18.0334 13.25 18.0333C13.25 18.0333 13.25 18.0332 13.25 18.0331C13.25 18.033 13.25 18.033 13.25 18.0329C13.25 18.0328 13.25 18.0328 13.25 18.0327C13.25 18.0326 13.25 18.0325 13.25 18.0325C13.25 18.0324 13.25 18.0323 13.25 18.0322C13.25 18.0322 13.25 18.0321 13.25 18.032C13.25 18.032 13.25 18.0319 13.25 18.0318C13.25 18.0318 13.25 18.0317 13.25 18.0316C13.25 18.0315 13.25 18.0315 13.25 18.0314C13.25 18.0313 13.25 18.0313 13.25 18.0312C13.25 18.0311 13.25 18.0311 13.25 18.031C13.25 18.0309 13.25 18.0308 13.25 18.0308C13.25 18.0307 13.25 18.0306 13.25 18.0306C13.25 18.0305 13.25 18.0304 13.25 18.0304C13.25 18.0303 13.25 18.0302 13.25 18.0302C13.25 18.0301 13.25 18.03 13.25 18.03C13.25 18.0299 13.25 18.0298 13.25 18.0297C13.25 18.0297 13.25 18.0296 13.25 18.0295C13.25 18.0295 13.25 18.0294 13.25 18.0293C13.25 18.0293 13.25 18.0292 13.25 18.0291C13.25 18.0291 13.25 18.029 13.25 18.0289C13.25 18.0289 13.25 18.0288 13.25 18.0287C13.25 18.0287 13.25 18.0286 13.25 18.0285C13.25 18.0285 13.25 18.0284 13.25 18.0284C13.25 18.0283 13.25 18.0282 13.25 18.0282C13.25 18.0281 13.25 18.028 13.25 18.028C13.25 18.0279 13.25 18.0278 13.25 18.0278C13.25 18.0277 13.25 18.0276 13.25 18.0276C13.25 18.0275 13.25 18.0274 13.25 18.0274C13.25 18.0273 13.25 18.0273 13.25 18.0272C13.25 18.0271 13.25 18.0271 13.25 18.027C13.25 18.0269 13.25 18.0269 13.25 18.0268C13.25 18.0267 13.25 18.0267 13.25 18.0266C13.25 18.0266 13.25 18.0265 13.25 18.0264C13.25 18.0264 13.25 18.0263 13.25 18.0262C13.25 18.0262 13.25 18.0261 13.25 18.0261C13.25 18.026 13.25 18.0259 13.25 18.0259C13.25 18.0258 13.25 18.0257 13.25 18.0257C13.25 18.0256 13.25 18.0256 13.25 18.0255C13.25 18.0254 13.25 18.0254 13.25 18.0253C13.25 18.0253 13.25 18.0252 13.25 18.0251C13.25 18.0251 13.25 18.025 13.25 18.025C13.25 18.0249 13.25 18.0248 13.25 18.0248C13.25 18.0247 13.25 18.0247 13.25 18.0246C13.25 18.0245 13.25 18.0245 13.25 18.0244C13.25 18.0244 13.25 18.0243 13.25 18.0242C13.25 18.0242 13.25 18.0241 13.25 18.0241C13.25 18.024 13.25 18.024 13.25 18.0239C13.25 18.0238 13.25 18.0238 13.25 18.0237C13.25 18.0237 13.25 18.0236 13.25 18.0235C13.25 18.0235 13.25 18.0234 13.25 18.0234C13.25 18.0233 13.25 18.0233 13.25 18.0232C13.25 18.0231 13.25 18.0231 13.25 18.023C13.25 18.023 13.25 18.0229 13.25 18.0229C13.25 18.0228 13.25 18.0227 13.25 18.0227C13.25 18.0226 13.25 18.0226 13.25 18.0225C13.25 18.0225 13.25 18.0224 13.25 18.0224C13.25 18.0223 13.25 18.0222 13.25 18.0222C13.25 18.0221 13.25 18.0221 13.25 18.022C13.25 18.022 13.25 18.0219 13.25 18.0219C13.25 18.0218 13.25 18.0217 13.25 18.0217C13.25 18.0216 13.25 18.0216 13.25 18.0215C13.25 18.0215 13.25 18.0214 13.25 18.0214C13.25 18.0213 13.25 18.0213 13.25 18.0212C13.25 18.0211 13.25 18.0211 13.25 18.021C13.25 18.021 13.25 18.0209 13.25 18.0209C13.25 18.0208 13.25 18.0208 13.25 18.0207C13.25 18.0207 13.25 18.0206 13.25 18.0206C13.25 18.0205 13.25 18.0205 13.25 18.0204C13.25 18.0203 13.25 18.0203 13.25 18.0202C13.25 18.0202 13.25 18.0201 13.25 18.0201C13.25 18.02 13.25 18.02 13.25 18.0199C13.25 18.0199 13.25 18.0198 13.25 18.0198C13.25 18.0197 13.25 18.0197 13.25 18.0196C13.25 18.0196 13.25 18.0195 13.25 18.0195C13.25 18.0194 13.25 18.0194 13.25 18.0193C13.25 18.0193 13.25 18.0192 13.25 18.0192C13.25 18.0191 13.25 18.0191 13.25 18.019C13.25 18.019 13.25 18.0189 13.25 18.0189C13.25 18.0188 13.25 18.0188 13.25 18.0187C13.25 18.0187 13.25 18.0186 13.25 18.0186C13.25 18.0185 13.25 18.0185 13.25 18.0184C13.25 18.0184 13.25 18.0183 13.25 18.0183C13.25 18.0182 13.25 18.0182 13.25 18.0181C13.25 18.0181 13.25 18.018 13.25 18.018C13.25 18.0179 13.25 18.0179 13.25 18.0178C13.25 18.0178 13.25 18.0177 13.25 18.0177C13.25 18.0176 13.25 18.0176 13.25 18.0175C13.25 18.0175 13.25 18.0175 13.25 18.0174C13.25 18.0174 13.25 18.0173 13.25 18.0173C13.25 18.0172 13.25 18.0172 13.25 18.0171C13.25 18.0171 13.25 18.017 13.25 18.017C13.25 18.0169 13.25 18.0169 13.25 18.0168C13.25 18.0168 13.25 18.0168 13.25 18.0167C13.25 18.0167 13.25 18.0166 13.25 18.0166C13.25 18.0165 13.25 18.0165 13.25 18.0164C13.25 18.0164 13.25 18.0163 13.25 18.0163C13.25 18.0163 13.25 18.0162 13.25 18.0162C13.25 18.0161 13.25 18.0161 13.25 18.016C13.25 18.016 13.25 18.0159 13.25 18.0159C13.25 18.0158 13.25 18.0158 13.25 18.0158C13.25 18.0157 13.25 18.0157 13.25 18.0156C13.25 18.0156 13.25 18.0155 13.25 18.0155C13.25 18.0154 13.25 18.0154 13.25 18.0154C13.25 18.0153 13.25 18.0153 13.25 18.0152C13.25 18.0152 13.25 18.0151 13.25 18.0151C13.25 18.0151 13.25 18.015 13.25 18.015C13.25 18.0149 13.25 18.0149 13.25 18.0148C13.25 18.0148 13.25 18.0148 13.25 18.0147C13.25 18.0147 13.25 18.0146 13.25 18.0146C13.25 18.0145 13.25 18.0145 13.25 18.0145C13.25 18.0144 13.25 18.0144 13.25 18.0143C13.25 18.0143 13.25 18.0143 13.25 18.0142C13.25 18.0142 13.25 18.0141 13.25 18.0141C13.25 18.0141 13.25 18.014 13.25 18.014C13.25 18.0139 13.25 18.0139 13.25 18.0138C13.25 18.0138 13.25 18.0138 13.25 18.0137C13.25 18.0137 13.25 18.0136 13.25 18.0136C13.25 18.0136 13.25 18.0135 13.25 18.0135C13.25 18.0134 13.25 18.0134 13.25 18.0134C13.25 18.0133 13.25 18.0133 13.25 18.0132C13.25 18.0132 13.25 18.0132 13.25 18.0131C13.25 18.0131 13.25 18.0131 13.25 18.013C13.25 18.013 13.25 18.0129 13.25 18.0129C13.25 18.0129 13.25 18.0128 13.25 18.0128C13.25 18.0127 13.25 18.0127 13.25 18.0127C13.25 18.0126 13.25 18.0126 13.25 18.0126C13.25 18.0125 13.25 18.0125 13.25 18.0124C13.25 18.0124 13.25 18.0124 13.25 18.0123C13.25 18.0123 13.25 18.0123 13.25 18.0122C13.25 18.0122 13.25 18.0121 13.25 18.0121C13.25 18.0121 13.25 18.012 13.25 18.012C13.25 18.012 13.25 18.0119 13.25 18.0119C13.25 18.0118 13.25 18.0118 13.25 18.0118C13.25 18.0117 13.25 18.0117 13.25 18.0117C13.25 18.0116 13.25 18.0116 13.25 18.0116C13.25 18.0115 13.25 18.0115 13.25 18.0114C13.25 18.0114 13.25 18.0114 13.25 18.0113C13.25 18.0113 13.25 18.0113 13.25 18.0112C13.25 18.0112 13.25 18.0112 13.25 18.0111C13.25 18.0111 13.25 18.0111 13.25 18.011C13.25 18.011 13.25 18.0109 13.25 18.0109C13.25 18.0109 13.25 18.0108 13.25 18.0108C13.25 18.0108 13.25 18.0107 13.25 18.0107C13.25 18.0107 13.25 18.0106 13.25 18.0106C13.25 18.0106 13.25 18.0105 13.25 18.0105C13.25 18.0105 13.25 18.0104 13.25 18.0104C13.25 18.0104 13.25 18.0103 13.25 18.0103C13.25 18.0103 13.25 18.0102 13.25 18.0102C13.25 18.0102 13.25 18.0101 13.25 18.0101C13.25 18.0101 13.25 18.01 13.25 18.01C13.25 18.01 13.25 18.0099 13.25 18.0099C13.25 18.0099 13.25 18.0098 13.25 18.0098C13.25 18.0098 13.25 18.0098 13.25 18.0097C13.25 18.0097 13.25 18.0097 13.25 18.0096C13.25 18.0096 13.25 18.0096 13.25 18.0095C13.25 18.0095 13.25 18.0095 13.25 18.0094C13.25 18.0094 13.25 18.0094 13.25 18.0093C13.25 18.0093 13.25 18.0093 13.25 18.0092C13.25 18.0092 13.25 18.0092 13.25 18.0091C13.25 18.0091 13.25 18.0091 13.25 18.0091C13.25 18.009 13.25 18.009 13.25 18.009C13.25 18.0089 13.25 18.0089 13.25 18.0089C13.25 18.0088 13.25 18.0088 13.25 18.0088C13.25 18.0088 13.25 18.0087 13.25 18.0087C13.25 18.0087 13.25 18.0086 13.25 18.0086C13.25 18.0086 13.25 18.0085 13.25 18.0085C13.25 18.0085 13.25 18.0085 13.25 18.0084C13.25 18.0084 13.25 18.0084 13.25 18.0083C13.25 18.0083 13.25 18.0083 13.25 18.0083C13.25 18.0082 13.25 18.0082 13.25 18.0082C13.25 18.0081 13.25 18.0081 13.25 18.0081C13.25 18.0081 13.25 18.008 13.25 18.008C13.25 18.008 13.25 18.0079 13.25 18.0079C13.25 18.0079 13.25 18.0079 13.25 18.0078C13.25 18.0078 13.25 18.0078 13.25 18.0078C13.25 18.0077 13.25 18.0077 13.25 18.0077C13.25 18.0076 13.25 18.0076 13.25 18.0076C13.25 18.0076 13.25 18.0075 13.25 18.0075C13.25 18.0075 13.25 18.0074 13.25 18.0074C13.25 18.0074 13.25 18.0074 13.25 18.0073C13.25 18.0073 13.25 18.0073 13.25 18.0073C13.25 18.0072 13.25 18.0072 13.25 18.0072C13.25 18.0072 13.25 18.0071 13.25 18.0071C13.25 18.0071 13.25 18.0071 13.25 18.007C13.25 18.007 13.25 18.007 13.25 18.007C13.25 18.0069 13.25 18.0069 13.25 18.0069C13.25 18.0069 13.25 18.0068 13.25 18.0068C13.25 18.0068 13.25 18.0067 13.25 18.0067C13.25 18.0067 13.25 18.0067 13.25 18.0066C13.25 18.0066 13.25 18.0066 13.25 18.0066C13.25 18.0065 13.25 18.0065 13.25 18.0065C13.25 18.0065 13.25 18.0064 13.25 18.0064C13.25 18.0064 13.25 18.0064 13.25 18.0064C13.25 18.0063 13.25 18.0063 13.25 18.0063C13.25 18.0063 13.25 18.0062 13.25 18.0062C13.25 18.0062 13.25 18.0062 13.25 18.0061C13.25 18.0061 13.25 18.0061 13.25 18.0061C13.25 18.006 13.25 18.006 13.25 18.006C13.25 18.006 13.25 18.006 13.25 18.0059C13.25 18.0059 13.25 18.0059 13.25 18.0059C13.25 18.0058 13.25 18.0058 13.25 18.0058C13.25 18.0058 13.25 18.0057 13.25 18.0057C13.25 18.0057 13.25 18.0057 13.25 18.0057C13.25 18.0056 13.25 18.0056 13.25 18.0056C13.25 18.0056 13.25 18.0055 13.25 18.0055C13.25 18.0055 13.25 18.0055 13.25 18.0055C13.25 18.0054 13.25 18.0054 13.25 18.0054C13.25 18.0054 13.25 18.0053 13.25 18.0053C13.25 18.0053 13.25 18.0053 13.25 18.0053C13.25 18.0052 13.25 18.0052 13.25 18.0052C13.25 18.0052 13.25 18.0052 13.25 18.0051C13.25 18.0051 13.25 18.0051 13.25 18.0051C13.25 18.0051 13.25 18.005 13.25 18.005C13.25 18.005 13.25 18.005 13.25 18.005C13.25 18.0049 13.25 18.0049 13.25 18.0049C13.25 18.0049 13.25 18.0048 13.25 18.0048C13.25 18.0048 13.25 18.0048 13.25 18.0048C13.25 18.0047 13.25 18.0047 13.25 18.0047C13.25 18.0047 13.25 18.0047 13.25 18.0046C13.25 18.0046 13.25 18.0046 13.25 18.0046C13.25 18.0046 13.25 18.0046 13.25 18.0045C13.25 18.0045 13.25 18.0045 13.25 18.0045C13.25 18.0045 13.25 18.0044 13.25 18.0044C13.25 18.0044 13.25 18.0044 13.25 18.0044C13.25 18.0043 13.25 18.0043 13.25 18.0043C13.25 18.0043 13.25 18.0043 13.25 18.0042C13.25 18.0042 13.25 18.0042 13.25 18.0042C13.25 18.0042 13.25 18.0042 13.25 18.0041C13.25 18.0041 13.25 18.0041 13.25 18.0041C13.25 18.0041 13.25 18.0041 13.25 18.004C13.25 18.004 13.25 18.004 13.25 18.004C13.25 18.004 13.25 18.0039 13.25 18.0039C13.25 18.0039 13.25 18.0039 13.25 18.0039C13.25 18.0039 13.25 18.0038 13.25 18.0038C13.25 18.0038 13.25 18.0038 13.25 18.0038C13.25 18.0038 13.25 18.0037 13.25 18.0037C13.25 18.0037 13.25 18.0037 13.25 18.0037C13.25 18.0037 13.25 18.0036 13.25 18.0036C13.25 18.0036 13.25 18.0036 13.25 18.0036C13.25 18.0036 13.25 18.0035 13.25 18.0035C13.25 18.0035 13.25 18.0035 13.25 18.0035C13.25 18.0035 13.25 18.0034 13.25 18.0034C13.25 18.0034 13.25 18.0034 13.25 18.0034C13.25 18.0034 13.25 18.0033 13.25 18.0033C13.25 18.0033 13.25 18.0033 13.25 18.0033C13.25 18.0033 13.25 18.0033 13.25 18.0032C13.25 18.0032 13.25 18.0032 13.25 18.0032C13.25 18.0032 13.25 18.0032 13.25 18.0031C13.25 18.0031 13.25 18.0031 13.25 18.0031C13.25 18.0031 13.25 18.0031 13.25 18.0031C13.25 18.003 13.25 18.003 13.25 18.003C13.25 18.003 13.25 18.003 13.25 18.003C13.25 18.003 13.25 18.0029 13.25 18.0029C13.25 18.0029 13.25 18.0029 13.25 18.0029C13.25 18.0029 13.25 18.0029 13.25 18.0028C13.25 18.0028 13.25 18.0028 13.25 18.0028C13.25 18.0028 13.25 18.0028 13.25 18.0028C13.25 18.0027 13.25 18.0027 13.25 18.0027C13.25 18.0027 13.25 18.0027 13.25 18.0027C13.25 18.0027 13.25 18.0026 13.25 18.0026C13.25 18.0026 13.25 18.0026 13.25 18.0026C13.25 18.0026 13.25 18.0026 13.25 18.0025C13.25 18.0025 13.25 18.0025 13.25 18.0025C13.25 18.0025 13.25 18.0025 13.25 18.0025C13.25 18.0025 13.25 18.0024 13.25 18.0024C13.25 18.0024 13.25 18.0024 13.25 18.0024C13.25 18.0024 13.25 18.0024 13.25 18.0024C13.25 18.0023 13.25 18.0023 13.25 18.0023C13.25 18.0023 13.25 18.0023 13.25 18.0023C13.25 18.0023 13.25 18.0023 13.25 18.0023C13.25 18.0022 13.25 18.0022 13.25 18.0022C13.25 18.0022 13.25 18.0022 13.25 18.0022C13.25 18.0022 13.25 18.0022 13.25 18.0021C13.25 18.0021 13.25 18.0021 13.25 18.0021C13.25 18.0021 13.25 18.0021 13.25 18.0021C13.25 18.0021 13.25 18.002 13.25 18.002C13.25 18.002 13.25 18.002 13.25 18.002C13.25 18.002 13.25 18.002 13.25 18.002C13.25 18.002 13.25 18.0019 13.25 18.0019C13.25 18.0019 13.25 18.0019 13.25 18.0019C13.25 18.0019 13.25 18.0019 13.25 18.0019C13.25 18.0019 13.25 18.0019 13.25 18.0018C13.25 18.0018 13.25 18.0018 13.25 18.0018C13.25 18.0018 13.25 18.0018 13.25 18.0018C13.25 18.0018 13.25 18.0018 13.25 18.0017C13.25 18.0017 13.25 18.0017 13.25 18.0017C13.25 18.0017 13.25 18.0017 13.25 18.0017C13.25 18.0017 13.25 18.0017 13.25 18.0017C13.25 18.0016 13.25 18.0016 13.25 18.0016C13.25 18.0016 13.25 18.0016 13.25 18.0016C13.25 18.0016 13.25 18.0016 13.25 18.0016C13.25 18.0016 13.25 18.0015 13.25 18.0015C13.25 18.0015 13.25 18.0015 13.25 18.0015C13.25 18.0015 13.25 18.0015 13.25 18.0015C13.25 18.0015 13.25 18.0015 13.25 18.0015C13.25 18.0014 13.25 18.0014 13.25 18.0014C13.25 18.0014 13.25 18.0014 13.25 18.0014C13.25 18.0014 13.25 18.0014 13.25 18.0014C13.25 18.0014 13.25 18.0014 13.25 18.0014C13.25 18.0013 13.25 18.0013 13.25 18.0013C13.25 18.0013 13.25 18.0013 13.25 18.0013C13.25 18.0013 13.25 18.0013 13.25 18.0013C13.25 18.0013 13.25 18.0013 13.25 18.0013C13.25 18.0012 13.25 18.0012 13.25 18.0012C13.25 18.0012 13.25 18.0012 13.25 18.0012C13.25 18.0012 13.25 18.0012 13.25 18.0012C13.25 18.0012 13.25 18.0012 13.25 18.0012C13.25 18.0011 13.25 18.0011 13.25 18.0011C13.25 18.0011 13.25 18.0011 13.25 18.0011C13.25 18.0011 13.25 18.0011 13.25 18.0011C13.25 18.0011 13.25 18.0011 13.25 18.0011C13.25 18.0011 13.25 18.0011 13.25 18.001C13.25 18.001 13.25 18.001 13.25 18.001C13.25 18.001 13.25 18.001 13.25 18.001C13.25 18.001 13.25 18.001 13.25 18.001C13.25 18.001 13.25 18.001 13.25 18.001C13.25 18.001 13.25 18.0009 13.25 18.0009C13.25 18.0009 13.25 18.0009 13.25 18.0009C13.25 18.0009 13.25 18.0009 13.25 18.0009C13.25 18.0009 13.25 18.0009 13.25 18.0009C13.25 18.0009 13.25 18.0009 13.25 18.0009C13.25 18.0009 13.25 18.0008 13.25 18.0008C13.25 18.0008 13.25 18.0008 13.25 18.0008C13.25 18.0008 13.25 18.0008 13.25 18.0008C13.25 18.0008 13.25 18.0008 13.25 18.0008C13.25 18.0008 13.25 18.0008 13.25 18.0008C13.25 18.0008 13.25 18.0008 13.25 18.0007C13.25 18.0007 13.25 18.0007 13.25 18.0007C13.25 18.0007 13.25 18.0007 13.25 18.0007C13.25 18.0007 13.25 18.0007 13.25 18.0007C13.25 18.0007 13.25 18.0007 13.25 18.0007C13.25 18.0007 13.25 18.0007 13.25 18.0007C13.25 18.0007 13.25 18.0007 13.25 18.0006C13.25 18.0006 13.25 18.0006 13.25 18.0006C13.25 18.0006 13.25 18.0006 13.25 18.0006C13.25 18.0006 13.25 18.0006 13.25 18.0006C13.25 18.0006 13.25 18.0006 13.25 18.0006C13.25 18.0006 13.25 18.0006 13.25 18.0006C13.25 18.0006 13.25 18.0006 13.25 18.0006C13.25 18.0006 13.25 18.0005 13.25 18.0005V18.0005C13.25 18.0005 13.25 18.0005 13.25 18.0005C13.25 18.0005 13.25 18.0005 13.25 18.0005C13.25 18.0005 13.25 18.0005 13.25 18.0005V18.0005C13.25 18.0005 13.25 18.0005 13.25 18.0005C13.25 18.0005 13.25 18.0005 13.25 18.0005V18.0004C13.25 18.0004 13.25 18.0004 13.25 18.0004V18.0004C13.25 18.0004 13.25 18.0004 13.25 18.0004C13.25 18.0004 13.25 18.0004 13.25 18.0004C13.25 18.0004 13.25 18.0004 13.25 18.0004V18.0004C13.25 18.0004 13.25 18.0004 13.25 18.0004V18.0004C13.25 18.0003 13.25 18.0003 13.25 18.0003C13.25 18.0003 13.25 18.0003 13.25 18.0003V18.0003C13.25 18.0003 13.25 18.0003 13.25 18.0003C13.25 18.0003 13.25 18.0003 13.25 18.0003V18.0003V18.0003C13.25 18.0003 13.25 18.0003 13.25 18.0003C13.25 18.0003 13.25 18.0003 13.25 18.0003C13.25 18.0003 13.25 18.0003 13.25 18.0003C13.25 18.0003 13.25 18.0003 13.25 18.0002C13.25 18.0002 13.25 18.0002 13.25 18.0002V18.0002V18.0002V18.0002V18.0002V18.0002C13.25 18.0002 13.25 18.0002 13.25 18.0002C13.25 18.0002 13.25 18.0002 13.25 18.0002C13.25 18.0002 13.25 18.0002 13.25 18.0002C13.25 18.0002 13.25 18.0002 13.25 18.0002C13.25 18.0002 13.25 18.0002 13.25 18.0002V18.0002C13.25 18.0002 13.25 18.0002 13.25 18.0001C13.25 18.0001 13.25 18.0001 13.25 18.0001V18.0001C13.25 18.0001 13.25 18.0001 13.25 18.0001C13.25 18.0001 13.25 18.0001 13.25 18.0001C13.25 18.0001 13.25 18.0001 13.25 18.0001V18.0001C13.25 18.0001 13.25 18.0001 13.25 18.0001C13.25 18.0001 13.25 18.0001 13.25 18.0001C13.25 18.0001 13.25 18.0001 13.25 18.0001C13.25 18.0001 13.25 18.0001 13.25 18.0001C13.25 18.0001 13.25 18.0001 13.25 18.0001C13.25 18.0001 13.25 18.0001 13.25 18.0001C13.25 18.0001 13.25 18.0001 13.25 18V18C13.25 18 13.25 18 13.25 18V18C13.25 18 13.25 18 13.25 18C13.25 18 13.25 18 13.25 18C13.25 18 13.25 18 13.25 18H12.25H11.25C11.25 18 11.25 18 11.25 18C11.25 18 11.25 18 11.25 18C11.25 18 11.25 18 11.25 18V18C11.25 18 11.25 18 11.25 18V18C11.25 18.0001 11.25 18.0001 11.25 18.0001C11.25 18.0001 11.25 18.0001 11.25 18.0001C11.25 18.0001 11.25 18.0001 11.25 18.0001C11.25 18.0001 11.25 18.0001 11.25 18.0001C11.25 18.0001 11.25 18.0001 11.25 18.0001C11.25 18.0001 11.25 18.0001 11.25 18.0001C11.25 18.0001 11.25 18.0001 11.25 18.0001V18.0001C11.25 18.0001 11.25 18.0001 11.25 18.0001C11.25 18.0001 11.25 18.0001 11.25 18.0001C11.25 18.0001 11.25 18.0001 11.25 18.0001V18.0001C11.25 18.0001 11.25 18.0001 11.25 18.0001C11.25 18.0002 11.25 18.0002 11.25 18.0002V18.0002C11.25 18.0002 11.25 18.0002 11.25 18.0002C11.25 18.0002 11.25 18.0002 11.25 18.0002C11.25 18.0002 11.25 18.0002 11.25 18.0002C11.25 18.0002 11.25 18.0002 11.25 18.0002C11.25 18.0002 11.25 18.0002 11.25 18.0002V18.0002V18.0002V18.0002V18.0002V18.0002C11.25 18.0002 11.25 18.0002 11.25 18.0002C11.25 18.0003 11.25 18.0003 11.25 18.0003C11.25 18.0003 11.25 18.0003 11.25 18.0003C11.25 18.0003 11.25 18.0003 11.25 18.0003C11.25 18.0003 11.25 18.0003 11.25 18.0003V18.0003V18.0003C11.25 18.0003 11.25 18.0003 11.25 18.0003C11.25 18.0003 11.25 18.0003 11.25 18.0003V18.0003C11.25 18.0003 11.25 18.0003 11.25 18.0003C11.25 18.0003 11.25 18.0003 11.25 18.0004V18.0004C11.25 18.0004 11.25 18.0004 11.25 18.0004V18.0004C11.25 18.0004 11.25 18.0004 11.25 18.0004C11.25 18.0004 11.25 18.0004 11.25 18.0004C11.25 18.0004 11.25 18.0004 11.25 18.0004V18.0004C11.25 18.0004 11.25 18.0004 11.25 18.0004V18.0005C11.25 18.0005 11.25 18.0005 11.25 18.0005C11.25 18.0005 11.25 18.0005 11.25 18.0005V18.0005C11.25 18.0005 11.25 18.0005 11.25 18.0005C11.25 18.0005 11.25 18.0005 11.25 18.0005C11.25 18.0005 11.25 18.0005 11.25 18.0005V18.0005C11.25 18.0005 11.25 18.0006 11.25 18.0006C11.25 18.0006 11.25 18.0006 11.25 18.0006C11.25 18.0006 11.25 18.0006 11.25 18.0006C11.25 18.0006 11.25 18.0006 11.25 18.0006C11.25 18.0006 11.25 18.0006 11.25 18.0006C11.25 18.0006 11.25 18.0006 11.25 18.0006C11.25 18.0006 11.25 18.0006 11.25 18.0006C11.25 18.0007 11.25 18.0007 11.25 18.0007C11.25 18.0007 11.25 18.0007 11.25 18.0007C11.25 18.0007 11.25 18.0007 11.25 18.0007C11.25 18.0007 11.25 18.0007 11.25 18.0007C11.25 18.0007 11.25 18.0007 11.25 18.0007C11.25 18.0007 11.25 18.0007 11.25 18.0007C11.25 18.0008 11.25 18.0008 11.25 18.0008C11.25 18.0008 11.25 18.0008 11.25 18.0008C11.25 18.0008 11.25 18.0008 11.25 18.0008C11.25 18.0008 11.25 18.0008 11.25 18.0008C11.25 18.0008 11.25 18.0008 11.25 18.0008C11.25 18.0008 11.25 18.0009 11.25 18.0009C11.25 18.0009 11.25 18.0009 11.25 18.0009C11.25 18.0009 11.25 18.0009 11.25 18.0009C11.25 18.0009 11.25 18.0009 11.25 18.0009C11.25 18.0009 11.25 18.0009 11.25 18.0009C11.25 18.0009 11.25 18.001 11.25 18.001C11.25 18.001 11.25 18.001 11.25 18.001C11.25 18.001 11.25 18.001 11.25 18.001C11.25 18.001 11.25 18.001 11.25 18.001C11.25 18.001 11.25 18.001 11.25 18.001C11.25 18.0011 11.25 18.0011 11.25 18.0011C11.25 18.0011 11.25 18.0011 11.25 18.0011C11.25 18.0011 11.25 18.0011 11.25 18.0011C11.25 18.0011 11.25 18.0011 11.25 18.0011C11.25 18.0011 11.25 18.0011 11.25 18.0012C11.25 18.0012 11.25 18.0012 11.25 18.0012C11.25 18.0012 11.25 18.0012 11.25 18.0012C11.25 18.0012 11.25 18.0012 11.25 18.0012C11.25 18.0012 11.25 18.0012 11.25 18.0013C11.25 18.0013 11.25 18.0013 11.25 18.0013C11.25 18.0013 11.25 18.0013 11.25 18.0013C11.25 18.0013 11.25 18.0013 11.25 18.0013C11.25 18.0013 11.25 18.0013 11.25 18.0014C11.25 18.0014 11.25 18.0014 11.25 18.0014C11.25 18.0014 11.25 18.0014 11.25 18.0014C11.25 18.0014 11.25 18.0014 11.25 18.0014C11.25 18.0014 11.25 18.0014 11.25 18.0015C11.25 18.0015 11.25 18.0015 11.25 18.0015C11.25 18.0015 11.25 18.0015 11.25 18.0015C11.25 18.0015 11.25 18.0015 11.25 18.0015C11.25 18.0015 11.25 18.0016 11.25 18.0016C11.25 18.0016 11.25 18.0016 11.25 18.0016C11.25 18.0016 11.25 18.0016 11.25 18.0016C11.25 18.0016 11.25 18.0016 11.25 18.0017C11.25 18.0017 11.25 18.0017 11.25 18.0017C11.25 18.0017 11.25 18.0017 11.25 18.0017C11.25 18.0017 11.25 18.0017 11.25 18.0017C11.25 18.0018 11.25 18.0018 11.25 18.0018C11.25 18.0018 11.25 18.0018 11.25 18.0018C11.25 18.0018 11.25 18.0018 11.25 18.0018C11.25 18.0019 11.25 18.0019 11.25 18.0019C11.25 18.0019 11.25 18.0019 11.25 18.0019C11.25 18.0019 11.25 18.0019 11.25 18.0019C11.25 18.0019 11.25 18.002 11.25 18.002C11.25 18.002 11.25 18.002 11.25 18.002C11.25 18.002 11.25 18.002 11.25 18.002C11.25 18.002 11.25 18.0021 11.25 18.0021C11.25 18.0021 11.25 18.0021 11.25 18.0021C11.25 18.0021 11.25 18.0021 11.25 18.0021C11.25 18.0022 11.25 18.0022 11.25 18.0022C11.25 18.0022 11.25 18.0022 11.25 18.0022C11.25 18.0022 11.25 18.0022 11.25 18.0023C11.25 18.0023 11.25 18.0023 11.25 18.0023C11.25 18.0023 11.25 18.0023 11.25 18.0023C11.25 18.0023 11.25 18.0023 11.25 18.0024C11.25 18.0024 11.25 18.0024 11.25 18.0024C11.25 18.0024 11.25 18.0024 11.25 18.0024C11.25 18.0024 11.25 18.0025 11.25 18.0025C11.25 18.0025 11.25 18.0025 11.25 18.0025C11.25 18.0025 11.25 18.0025 11.25 18.0025C11.25 18.0026 11.25 18.0026 11.25 18.0026C11.25 18.0026 11.25 18.0026 11.25 18.0026C11.25 18.0026 11.25 18.0027 11.25 18.0027C11.25 18.0027 11.25 18.0027 11.25 18.0027C11.25 18.0027 11.25 18.0027 11.25 18.0028C11.25 18.0028 11.25 18.0028 11.25 18.0028C11.25 18.0028 11.25 18.0028 11.25 18.0028C11.25 18.0029 11.25 18.0029 11.25 18.0029C11.25 18.0029 11.25 18.0029 11.25 18.0029C11.25 18.0029 11.25 18.003 11.25 18.003C11.25 18.003 11.25 18.003 11.25 18.003C11.25 18.003 11.25 18.003 11.25 18.0031C11.25 18.0031 11.25 18.0031 11.25 18.0031C11.25 18.0031 11.25 18.0031 11.25 18.0031C11.25 18.0032 11.25 18.0032 11.25 18.0032C11.25 18.0032 11.25 18.0032 11.25 18.0032C11.25 18.0033 11.25 18.0033 11.25 18.0033C11.25 18.0033 11.25 18.0033 11.25 18.0033C11.25 18.0033 11.25 18.0034 11.25 18.0034C11.25 18.0034 11.25 18.0034 11.25 18.0034C11.25 18.0034 11.25 18.0035 11.25 18.0035C11.25 18.0035 11.25 18.0035 11.25 18.0035C11.25 18.0035 11.25 18.0036 11.25 18.0036C11.25 18.0036 11.25 18.0036 11.25 18.0036C11.25 18.0036 11.25 18.0037 11.25 18.0037C11.25 18.0037 11.25 18.0037 11.25 18.0037C11.25 18.0037 11.25 18.0038 11.25 18.0038C11.25 18.0038 11.25 18.0038 11.25 18.0038C11.25 18.0038 11.25 18.0039 11.25 18.0039C11.25 18.0039 11.25 18.0039 11.25 18.0039C11.25 18.0039 11.25 18.004 11.25 18.004C11.25 18.004 11.25 18.004 11.25 18.004C11.25 18.0041 11.25 18.0041 11.25 18.0041C11.25 18.0041 11.25 18.0041 11.25 18.0041C11.25 18.0042 11.25 18.0042 11.25 18.0042C11.25 18.0042 11.25 18.0042 11.25 18.0042C11.25 18.0043 11.25 18.0043 11.25 18.0043C11.25 18.0043 11.25 18.0043 11.25 18.0044C11.25 18.0044 11.25 18.0044 11.25 18.0044C11.25 18.0044 11.25 18.0045 11.25 18.0045C11.25 18.0045 11.25 18.0045 11.25 18.0045C11.25 18.0046 11.25 18.0046 11.25 18.0046C11.25 18.0046 11.25 18.0046 11.25 18.0046C11.25 18.0047 11.25 18.0047 11.25 18.0047C11.25 18.0047 11.25 18.0047 11.25 18.0048C11.25 18.0048 11.25 18.0048 11.25 18.0048C11.25 18.0048 11.25 18.0049 11.25 18.0049C11.25 18.0049 11.25 18.0049 11.25 18.005C11.25 18.005 11.25 18.005 11.25 18.005C11.25 18.005 11.25 18.0051 11.25 18.0051C11.25 18.0051 11.25 18.0051 11.25 18.0051C11.25 18.0052 11.25 18.0052 11.25 18.0052C11.25 18.0052 11.25 18.0052 11.25 18.0053C11.25 18.0053 11.25 18.0053 11.25 18.0053C11.25 18.0053 11.25 18.0054 11.25 18.0054C11.25 18.0054 11.25 18.0054 11.25 18.0055C11.25 18.0055 11.25 18.0055 11.25 18.0055C11.25 18.0055 11.25 18.0056 11.25 18.0056C11.25 18.0056 11.25 18.0056 11.25 18.0057C11.25 18.0057 11.25 18.0057 11.25 18.0057C11.25 18.0057 11.25 18.0058 11.25 18.0058C11.25 18.0058 11.25 18.0058 11.25 18.0059C11.25 18.0059 11.25 18.0059 11.25 18.0059C11.25 18.006 11.25 18.006 11.25 18.006C11.25 18.006 11.25 18.006 11.25 18.0061C11.25 18.0061 11.25 18.0061 11.25 18.0061C11.25 18.0062 11.25 18.0062 11.25 18.0062C11.25 18.0062 11.25 18.0063 11.25 18.0063C11.25 18.0063 11.25 18.0063 11.25 18.0064C11.25 18.0064 11.25 18.0064 11.25 18.0064C11.25 18.0064 11.25 18.0065 11.25 18.0065C11.25 18.0065 11.25 18.0065 11.25 18.0066C11.25 18.0066 11.25 18.0066 11.25 18.0066C11.25 18.0067 11.25 18.0067 11.25 18.0067C11.25 18.0067 11.25 18.0068 11.25 18.0068C11.25 18.0068 11.25 18.0069 11.25 18.0069C11.25 18.0069 11.25 18.0069 11.25 18.007C11.25 18.007 11.25 18.007 11.25 18.007C11.25 18.0071 11.25 18.0071 11.25 18.0071C11.25 18.0071 11.25 18.0072 11.25 18.0072C11.25 18.0072 11.25 18.0072 11.25 18.0073C11.25 18.0073 11.25 18.0073 11.25 18.0073C11.25 18.0074 11.25 18.0074 11.25 18.0074C11.25 18.0074 11.25 18.0075 11.25 18.0075C11.25 18.0075 11.25 18.0076 11.25 18.0076C11.25 18.0076 11.25 18.0076 11.25 18.0077C11.25 18.0077 11.25 18.0077 11.25 18.0078C11.25 18.0078 11.25 18.0078 11.25 18.0078C11.25 18.0079 11.25 18.0079 11.25 18.0079C11.25 18.0079 11.25 18.008 11.25 18.008C11.25 18.008 11.25 18.0081 11.25 18.0081C11.25 18.0081 11.25 18.0081 11.25 18.0082C11.25 18.0082 11.25 18.0082 11.25 18.0083C11.25 18.0083 11.25 18.0083 11.25 18.0083C11.25 18.0084 11.25 18.0084 11.25 18.0084C11.25 18.0085 11.25 18.0085 11.25 18.0085C11.25 18.0085 11.25 18.0086 11.25 18.0086C11.25 18.0086 11.25 18.0087 11.25 18.0087C11.25 18.0087 11.25 18.0088 11.25 18.0088C11.25 18.0088 11.25 18.0088 11.25 18.0089C11.25 18.0089 11.25 18.0089 11.25 18.009C11.25 18.009 11.25 18.009 11.25 18.0091C11.25 18.0091 11.25 18.0091 11.25 18.0091C11.25 18.0092 11.25 18.0092 11.25 18.0092C11.25 18.0093 11.25 18.0093 11.25 18.0093C11.25 18.0094 11.25 18.0094 11.25 18.0094C11.25 18.0095 11.25 18.0095 11.25 18.0095C11.25 18.0096 11.25 18.0096 11.25 18.0096C11.25 18.0097 11.25 18.0097 11.25 18.0097C11.25 18.0098 11.25 18.0098 11.25 18.0098C11.25 18.0098 11.25 18.0099 11.25 18.0099C11.25 18.0099 11.25 18.01 11.25 18.01C11.25 18.01 11.25 18.0101 11.25 18.0101C11.25 18.0101 11.25 18.0102 11.25 18.0102C11.25 18.0102 11.25 18.0103 11.25 18.0103C11.25 18.0103 11.25 18.0104 11.25 18.0104C11.25 18.0104 11.25 18.0105 11.25 18.0105C11.25 18.0105 11.25 18.0106 11.25 18.0106C11.25 18.0106 11.25 18.0107 11.25 18.0107C11.25 18.0107 11.25 18.0108 11.25 18.0108C11.25 18.0108 11.25 18.0109 11.25 18.0109C11.25 18.0109 11.25 18.011 11.25 18.011C11.25 18.0111 11.25 18.0111 11.25 18.0111C11.25 18.0112 11.25 18.0112 11.25 18.0112C11.25 18.0113 11.25 18.0113 11.25 18.0113C11.25 18.0114 11.25 18.0114 11.25 18.0114C11.25 18.0115 11.25 18.0115 11.25 18.0116C11.25 18.0116 11.25 18.0116 11.25 18.0117C11.25 18.0117 11.25 18.0117 11.25 18.0118C11.25 18.0118 11.25 18.0118 11.25 18.0119C11.25 18.0119 11.25 18.012 11.25 18.012C11.25 18.012 11.25 18.0121 11.25 18.0121C11.25 18.0121 11.25 18.0122 11.25 18.0122C11.25 18.0123 11.25 18.0123 11.25 18.0123C11.25 18.0124 11.25 18.0124 11.25 18.0124C11.25 18.0125 11.25 18.0125 11.25 18.0126C11.25 18.0126 11.25 18.0126 11.25 18.0127C11.25 18.0127 11.25 18.0127 11.25 18.0128C11.25 18.0128 11.25 18.0129 11.25 18.0129C11.25 18.0129 11.25 18.013 11.25 18.013C11.25 18.0131 11.25 18.0131 11.25 18.0131C11.25 18.0132 11.25 18.0132 11.25 18.0132C11.25 18.0133 11.25 18.0133 11.25 18.0134C11.25 18.0134 11.25 18.0134 11.25 18.0135C11.25 18.0135 11.25 18.0136 11.25 18.0136C11.25 18.0136 11.25 18.0137 11.25 18.0137C11.25 18.0138 11.25 18.0138 11.25 18.0138C11.25 18.0139 11.25 18.0139 11.25 18.014C11.25 18.014 11.25 18.0141 11.25 18.0141C11.25 18.0141 11.25 18.0142 11.25 18.0142C11.25 18.0143 11.25 18.0143 11.25 18.0143C11.25 18.0144 11.25 18.0144 11.25 18.0145C11.25 18.0145 11.25 18.0145 11.25 18.0146C11.25 18.0146 11.25 18.0147 11.25 18.0147C11.25 18.0148 11.25 18.0148 11.25 18.0148C11.25 18.0149 11.25 18.0149 11.25 18.015C11.25 18.015 11.25 18.0151 11.25 18.0151C11.25 18.0151 11.25 18.0152 11.25 18.0152C11.25 18.0153 11.25 18.0153 11.25 18.0154C11.25 18.0154 11.25 18.0154 11.25 18.0155C11.25 18.0155 11.25 18.0156 11.25 18.0156C11.25 18.0157 11.25 18.0157 11.25 18.0158C11.25 18.0158 11.25 18.0158 11.25 18.0159C11.25 18.0159 11.25 18.016 11.25 18.016C11.25 18.0161 11.25 18.0161 11.25 18.0162C11.25 18.0162 11.25 18.0163 11.25 18.0163C11.25 18.0163 11.25 18.0164 11.25 18.0164C11.25 18.0165 11.25 18.0165 11.25 18.0166C11.25 18.0166 11.25 18.0167 11.25 18.0167C11.25 18.0168 11.25 18.0168 11.25 18.0168C11.25 18.0169 11.25 18.0169 11.25 18.017C11.25 18.017 11.25 18.0171 11.25 18.0171C11.25 18.0172 11.25 18.0172 11.25 18.0173C11.25 18.0173 11.25 18.0174 11.25 18.0174C11.25 18.0175 11.25 18.0175 11.25 18.0175C11.25 18.0176 11.25 18.0176 11.25 18.0177C11.25 18.0177 11.25 18.0178 11.25 18.0178C11.25 18.0179 11.25 18.0179 11.25 18.018C11.25 18.018 11.25 18.0181 11.25 18.0181C11.25 18.0182 11.25 18.0182 11.25 18.0183C11.25 18.0183 11.25 18.0184 11.25 18.0184C11.25 18.0185 11.25 18.0185 11.25 18.0186C11.25 18.0186 11.25 18.0187 11.25 18.0187C11.25 18.0188 11.25 18.0188 11.25 18.0189C11.25 18.0189 11.25 18.019 11.25 18.019C11.25 18.0191 11.25 18.0191 11.25 18.0192C11.25 18.0192 11.25 18.0193 11.25 18.0193C11.25 18.0194 11.25 18.0194 11.25 18.0195C11.25 18.0195 11.25 18.0196 11.25 18.0196C11.25 18.0197 11.25 18.0197 11.25 18.0198C11.25 18.0198 11.25 18.0199 11.25 18.0199C11.25 18.02 11.25 18.02 11.25 18.0201C11.25 18.0201 11.25 18.0202 11.25 18.0202C11.25 18.0203 11.25 18.0203 11.25 18.0204C11.25 18.0205 11.25 18.0205 11.25 18.0206C11.25 18.0206 11.25 18.0207 11.25 18.0207C11.25 18.0208 11.25 18.0208 11.25 18.0209C11.25 18.0209 11.25 18.021 11.25 18.021C11.25 18.0211 11.25 18.0211 11.25 18.0212C11.25 18.0213 11.25 18.0213 11.25 18.0214C11.25 18.0214 11.25 18.0215 11.25 18.0215C11.25 18.0216 11.25 18.0216 11.25 18.0217C11.25 18.0217 11.25 18.0218 11.25 18.0219C11.25 18.0219 11.25 18.022 11.25 18.022C11.25 18.0221 11.25 18.0221 11.25 18.0222C11.25 18.0222 11.25 18.0223 11.25 18.0224C11.25 18.0224 11.25 18.0225 11.25 18.0225C11.25 18.0226 11.25 18.0226 11.25 18.0227C11.25 18.0227 11.25 18.0228 11.25 18.0229C11.25 18.0229 11.25 18.023 11.25 18.023C11.25 18.0231 11.25 18.0231 11.25 18.0232C11.25 18.0233 11.25 18.0233 11.25 18.0234C11.25 18.0234 11.25 18.0235 11.25 18.0235C11.25 18.0236 11.25 18.0237 11.25 18.0237C11.25 18.0238 11.25 18.0238 11.25 18.0239C11.25 18.024 11.25 18.024 11.25 18.0241C11.25 18.0241 11.25 18.0242 11.25 18.0242C11.25 18.0243 11.25 18.0244 11.25 18.0244C11.25 18.0245 11.25 18.0245 11.25 18.0246C11.25 18.0247 11.25 18.0247 11.25 18.0248C11.25 18.0248 11.25 18.0249 11.25 18.025C11.25 18.025 11.25 18.0251 11.25 18.0251C11.25 18.0252 11.25 18.0253 11.25 18.0253C11.25 18.0254 11.25 18.0254 11.25 18.0255C11.25 18.0256 11.25 18.0256 11.25 18.0257C11.25 18.0257 11.25 18.0258 11.25 18.0259C11.25 18.0259 11.25 18.026 11.25 18.0261C11.25 18.0261 11.25 18.0262 11.25 18.0262C11.25 18.0263 11.25 18.0264 11.25 18.0264C11.25 18.0265 11.25 18.0266 11.25 18.0266C11.25 18.0267 11.25 18.0267 11.25 18.0268C11.25 18.0269 11.25 18.0269 11.25 18.027C11.25 18.0271 11.25 18.0271 11.25 18.0272C11.25 18.0273 11.25 18.0273 11.25 18.0274C11.25 18.0274 11.25 18.0275 11.25 18.0276C11.25 18.0276 11.25 18.0277 11.25 18.0278C11.25 18.0278 11.25 18.0279 11.25 18.028C11.25 18.028 11.25 18.0281 11.25 18.0282C11.25 18.0282 11.25 18.0283 11.25 18.0284C11.25 18.0284 11.25 18.0285 11.25 18.0285C11.25 18.0286 11.25 18.0287 11.25 18.0287C11.25 18.0288 11.25 18.0289 11.25 18.0289C11.25 18.029 11.25 18.0291 11.25 18.0291C11.25 18.0292 11.25 18.0293 11.25 18.0293C11.25 18.0294 11.25 18.0295 11.25 18.0295C11.25 18.0296 11.25 18.0297 11.25 18.0297C11.25 18.0298 11.25 18.0299 11.25 18.03C11.25 18.03 11.25 18.0301 11.25 18.0302C11.25 18.0302 11.25 18.0303 11.25 18.0304C11.25 18.0304 11.25 18.0305 11.25 18.0306C11.25 18.0306 11.25 18.0307 11.25 18.0308C11.25 18.0308 11.25 18.0309 11.25 18.031C11.25 18.0311 11.25 18.0311 11.25 18.0312C11.25 18.0313 11.25 18.0313 11.25 18.0314C11.25 18.0315 11.25 18.0315 11.25 18.0316C11.25 18.0317 11.25 18.0318 11.25 18.0318C11.25 18.0319 11.25 18.032 11.25 18.032C11.25 18.0321 11.25 18.0322 11.25 18.0322C11.25 18.0323 11.25 18.0324 11.25 18.0325C11.25 18.0325 11.25 18.0326 11.25 18.0327C11.25 18.0328 11.25 18.0328 11.25 18.0329C11.25 18.033 11.25 18.033 11.25 18.0331C11.25 18.0332 11.25 18.0333 11.25 18.0333C11.25 18.0334 11.25 18.0335 11.25 18.0336C11.25 18.0336 11.25 18.0337 11.25 18.0338C11.25 18.0338 11.25 18.0339 11.25 18.034C11.25 18.0341 11.25 18.0341 11.25 18.0342C11.25 18.0343 11.25 18.0344 11.25 18.0344C11.25 18.0345 11.25 18.0346 11.25 18.0347C11.25 18.0347 11.25 18.0348 11.25 18.0349C11.25 18.035 11.25 18.035 11.25 18.0351C11.25 18.0352 11.25 18.0353 11.25 18.0353C11.25 18.0354 11.25 18.0355 11.25 18.0356C11.25 18.0356 11.25 18.0357 11.25 18.0358C11.25 18.0359 11.25 18.0359 11.25 18.036C11.25 18.0361 11.25 18.0362 11.25 18.0363C11.25 18.0363 11.25 18.0364 11.25 18.0365C11.25 18.0366 11.25 18.0366 11.25 18.0367C11.25 18.0368 11.25 18.0369 11.25 18.037C11.25 18.037 11.25 18.0371 11.25 18.0372C11.25 18.0373 11.25 18.0374 11.25 18.0374C11.25 18.0375 11.25 18.0376 11.25 18.0377C11.25 18.0377 11.25 18.0378 11.25 18.0379C11.25 18.038 11.25 18.0381 11.25 18.0381C11.25 18.0382 11.25 18.0383 11.25 18.0384C11.25 18.0385 11.25 18.0385 11.25 18.0386C11.25 18.0387 11.25 18.0388 11.25 18.0389C11.25 18.0389 11.25 18.039 11.25 18.0391C11.25 18.0392 11.25 18.0393 11.25 18.0394C11.25 18.0394 11.25 18.0395 11.25 18.0396C11.25 18.0397 11.25 18.0398 11.25 18.0398C11.25 18.0399 11.25 18.04 11.25 18.0401C11.25 18.0402 11.25 18.0403 11.25 18.0403C11.25 18.0404 11.25 18.0405 11.25 18.0406C11.25 18.0407 11.25 18.0408 11.25 18.0408C11.25 18.0409 11.25 18.041 11.25 18.0411C11.25 18.0412 11.25 18.0413 11.25 18.0413C11.25 18.0414 11.25 18.0415 11.25 18.0416C11.25 18.0417 11.25 18.0418 11.25 18.0418C11.25 18.0419 11.25 18.042 11.25 18.0421C11.25 18.0422 11.25 18.0423 11.25 18.0424C11.25 18.0424 11.25 18.0425 11.25 18.0426C11.25 18.0427 11.25 18.0428 11.25 18.0429C11.25 18.043 11.25 18.043 11.25 18.0431C11.25 18.0432 11.25 18.0433 11.25 18.0434C11.25 18.0435 11.25 18.0436 11.25 18.0437C11.25 18.0437 11.25 18.0438 11.25 18.0439C11.25 18.044 11.25 18.0441 11.25 18.0442C11.25 18.0443 11.25 18.0444 11.25 18.0444C11.25 18.0445 11.25 18.0446 11.25 18.0447C11.25 18.0448 11.25 18.0449 11.25 18.045C11.25 18.0451 11.25 18.0452 11.25 18.0452C11.25 18.0453 11.25 18.0454 11.25 18.0455C11.25 18.0456 11.25 18.0457 11.25 18.0458C11.25 18.0459 11.25 18.046 11.25 18.0461C11.25 18.0461 11.25 18.0462 11.25 18.0463C11.25 18.0464 11.25 18.0465 11.25 18.0466C11.25 18.0467 11.25 18.0468 11.25 18.0469H13.25ZM13.207 18.29C13.6274 16.9028 14.718 15.1531 15.4327 14.3543L13.9423 13.0207C13.0633 14.0031 11.8101 16.0034 11.293 17.71L13.207 18.29ZM15.4416 14.3443C16.852 12.7249 17.75 10.621 17.75 8.25H15.75C15.75 10.0977 15.0543 11.7438 13.9334 13.0307L15.4416 14.3443ZM17.75 8.25C17.75 3.14349 13.5449 -1 8.45312 -1V1C12.4551 1 15.75 4.26276 15.75 8.25H17.75ZM8.44332 -0.99995C3.08597 -0.94743 -0.75 3.37025 -0.75 8.25H1.25C1.25 4.411 4.25778 1.04118 8.46293 0.99995L8.44332 -0.99995ZM8.5 3.5C5.8302 3.5 3.75 5.64339 3.75 8.25H5.75C5.75 6.73161 6.95105 5.5 8.5 5.5V3.5ZM3.75 8.25C3.75 8.15466 3.79325 8.09042 3.82372 8.06121C3.84821 8.03775 3.90189 8 4 8V10C4.88675 10 5.75 9.26384 5.75 8.25H3.75ZM4 8C4.0548 8 4.1215 8.02369 4.1739 8.0761C4.22631 8.1285 4.25 8.1952 4.25 8.25H2.25C2.25 9.22416 3.02584 10 4 10V8ZM4.25 8.25C4.25 5.9371 6.15183 4 8.5 4V2C5.03567 2 2.25 4.84415 2.25 8.25H4.25ZM8.5 4C8.42729 4 8.37727 3.98219 8.3525 3.97063C8.32779 3.9591 8.31499 3.94795 8.30852 3.94148C8.30205 3.93501 8.2909 3.92221 8.27937 3.8975C8.26781 3.87273 8.25 3.82271 8.25 3.75H10.25C10.25 3.23727 10.0037 2.80824 9.72273 2.52727C9.44176 2.2463 9.01273 2 8.5 2V4ZM8.25 3.75C8.25 3.65466 8.29325 3.59042 8.32372 3.56121C8.34821 3.53775 8.40189 3.5 8.5 3.5V5.5C9.38675 5.5 10.25 4.76384 10.25 3.75H8.25Z" fill="black"/>
</svg>
