<svg width="18" height="25" viewBox="0 0 18 25" fill="none" xmlns="http://www.w3.org/2000/svg">
<path d="M5.25 21.3281C5.25 21.6094 5.29688 21.8906 5.48438 22.1719L6.28125 23.3438C6.5625 23.7656 7.03125 24.0469 7.54688 24.0469H10.4062C10.9219 24.0469 11.3906 23.7656 11.6719 23.3438L12.4688 22.1719C12.6094 21.8906 12.7031 21.6094 12.7031 21.3281V19.5H5.25V21.3281ZM0.75 8.25C0.75 10.3594 1.5 12.2344 2.76562 13.6875C3.5625 14.5781 4.73438 16.4531 5.20312 18C5.20312 18 5.20312 18 5.20312 18.0469H12.75C12.75 18 12.75 18 12.75 18C13.2188 16.4531 14.3906 14.5781 15.1875 13.6875C16.4531 12.2344 17.25 10.3594 17.25 8.25C17.25 3.70312 13.5 0 8.95312 0C4.17188 0.046875 0.75 3.89062 0.75 8.25ZM9 4.5C6.89062 4.5 5.25 6.1875 5.25 8.25C5.25 8.67188 4.875 9 4.5 9C4.07812 9 3.75 8.67188 3.75 8.25C3.75 5.39062 6.09375 3 9 3C9.375 3 9.75 3.375 9.75 3.75C9.75 4.17188 9.375 4.5 9 4.5Z" fill="black"/>
</svg>
