<svg width="10" height="24" viewBox="0 0 10 24" fill="none" xmlns="http://www.w3.org/2000/svg">
<path d="M7.625 19.9219H6.625V20.9219H7.625V19.9219ZM2.375 13.125H3.375V12.125H2.375V13.125ZM2.375 19.9219V20.9219H3.375V19.9219H2.375ZM1.4375 18.9219C0.289928 18.9219 -0.5 19.8248 -0.5 20.8594H1.5C1.5 20.8458 1.50321 20.8649 1.47721 20.8919C1.46497 20.9045 1.45083 20.9137 1.43833 20.9189C1.42559 20.9242 1.42324 20.9219 1.4375 20.9219V18.9219ZM-0.5 20.8594V23.0625H1.5V20.8594H-0.5ZM-0.5 23.0625C-0.5 23.571 -0.326138 24.0724 0.050705 24.4493C0.427547 24.8261 0.929001 25 1.4375 25V23C1.40816 23 1.40217 22.9952 1.41269 22.9993C1.42411 23.0037 1.44436 23.0145 1.46492 23.0351C1.48548 23.0556 1.49633 23.0759 1.50073 23.0873C1.50478 23.0978 1.5 23.0918 1.5 23.0625H-0.5ZM1.4375 25H8.5625V23H1.4375V25ZM8.5625 25C9.59704 25 10.5 24.2101 10.5 23.0625H8.5C8.5 23.0768 8.49764 23.0744 8.50295 23.0617C8.50816 23.0492 8.51734 23.035 8.53001 23.0228C8.55694 22.9968 8.57602 23 8.5625 23V25ZM10.5 23.0625V20.8594H8.5V23.0625H10.5ZM10.5 20.8594C10.5 19.7915 9.63041 18.9219 8.5625 18.9219V20.9219C8.5422 20.9219 8.5258 20.9127 8.5175 20.9044C8.5092 20.8961 8.5 20.8797 8.5 20.8594H10.5ZM8.5625 18.9219H7.625V20.9219H8.5625V18.9219ZM8.625 19.9219V9.9375H6.625V19.9219H8.625ZM8.625 9.9375C8.625 8.86959 7.75541 8 6.6875 8V10C6.6672 10 6.6508 9.9908 6.6425 9.9825C6.6342 9.9742 6.625 9.9578 6.625 9.9375H8.625ZM6.6875 8H1.4375V10H6.6875V8ZM1.4375 8C0.289928 8 -0.5 8.90296 -0.5 9.9375H1.5C1.5 9.92398 1.50321 9.94306 1.47721 9.96999C1.46497 9.98266 1.45083 9.99184 1.43833 9.99705C1.42559 10.0024 1.42324 10 1.4375 10V8ZM-0.5 9.9375V12.1875H1.5V9.9375H-0.5ZM-0.5 12.1875C-0.5 13.222 0.289928 14.125 1.4375 14.125V12.125C1.42324 12.125 1.42559 12.1226 1.43833 12.1279C1.45083 12.1332 1.46497 12.1423 1.47721 12.155C1.50321 12.1819 1.5 12.201 1.5 12.1875H-0.5ZM1.4375 14.125H2.375V12.125H1.4375V14.125ZM1.375 13.125V19.9219H3.375V13.125H1.375ZM2.375 18.9219H1.4375V20.9219H2.375V18.9219ZM5 -1C2.56371 -1 0.625 1.00364 0.625 3.375H2.625C2.625 2.09011 3.68629 1 5 1V-1ZM0.625 3.375C0.625 5.80228 2.57272 7.75 5 7.75V5.75C3.67728 5.75 2.625 4.69772 2.625 3.375H0.625ZM5 7.75C7.37136 7.75 9.375 5.81129 9.375 3.375H7.375C7.375 4.68871 6.28489 5.75 5 5.75V7.75ZM9.375 3.375C9.375 0.994591 7.38041 -1 5 -1V1C6.27584 1 7.375 2.09916 7.375 3.375H9.375Z" fill="black"/>
</svg>
