<svg width="25" height="24" viewBox="0 0 25 24" fill="none" xmlns="http://www.w3.org/2000/svg">
<path d="M16.625 7.5V8.5H17.7946L17.6129 7.34461L16.625 7.5ZM8.32812 7.5L7.34203 7.33381L7.14548 8.5H8.32812V7.5ZM8.14062 15L7.14559 15.0995L7.23564 16H8.14062V15ZM16.8125 15V16H17.7175L17.8075 15.0995L16.8125 15ZM16.8125 9L17.808 8.90519L17.7218 8H16.8125V9ZM8.14062 9V8H7.23134L7.14513 8.90519L8.14062 9ZM23.1875 7.5V8.5H24.6892L24.1102 7.11441L23.1875 7.5ZM15.7812 0.890625L16.0612 -0.0693741L13.2261 -0.89629L14.9756 1.48302L15.7812 0.890625ZM18.125 7.5L17.1377 7.65868L17.2729 8.5H18.125V7.5ZM9.17188 0.890625L9.97753 1.48302L11.727 -0.89629L8.89188 -0.0693741L9.17188 0.890625ZM1.76562 7.5L0.842957 7.11441L0.263901 8.5H1.76562V7.5ZM6.82812 7.5V8.5H7.68024L7.81546 7.65868L6.82812 7.5ZM23.7031 9L24.6759 8.76838L24.493 8H23.7031V9ZM18.3125 9V8H17.2127L17.317 9.09481L18.3125 9ZM18.3125 15L17.317 14.9052L17.2127 16H18.3125V15ZM23.7031 15V16H24.4839L24.6733 15.2425L23.7031 15ZM6.64062 9L7.63612 9.09481L7.74039 8H6.64062V9ZM1.25 9V8H0.46014L0.277195 8.76838L1.25 9ZM1.25 15L0.279858 15.2425L0.469223 16H1.25V15ZM6.64062 15V16H7.74039L7.63612 14.9052L6.64062 15ZM8.32812 16.5V15.5H7.14766L7.34173 16.6644L8.32812 16.5ZM16.625 16.5L17.6131 16.6537L17.7926 15.5H16.625V16.5ZM15.7812 23.1562L14.9756 22.5639L13.2261 24.9432L16.0612 24.1162L15.7812 23.1562ZM23.1875 16.5L24.1122 16.8808L24.6807 15.5H23.1875V16.5ZM18.125 16.5V15.5H17.2556L17.1347 16.361L18.125 16.5ZM1.76562 16.5V15.5H0.272404L0.840946 16.8808L1.76562 16.5ZM9.17188 23.1562L8.89188 24.1162L11.727 24.9432L9.97753 22.5639L9.17188 23.1562ZM6.82812 16.5L7.81589 16.344L7.68262 15.5H6.82812V16.5ZM17.6129 7.34461C17.2726 5.18188 16.6695 3.27404 15.8699 1.87647C15.1066 0.542171 13.9806 -0.625 12.5 -0.625V1.375C12.8476 1.375 13.4559 1.68439 14.134 2.86962C14.7758 3.99158 15.3211 5.64625 15.6371 7.65539L17.6129 7.34461ZM12.5 -0.625C10.9998 -0.625 9.87321 0.536484 9.10661 1.87647C8.30764 3.27305 7.70526 5.17865 7.34203 7.33381L9.31422 7.66619C9.65411 5.64947 10.2002 3.99257 10.8426 2.86962C11.5174 1.69008 12.1252 1.375 12.5 1.375V-0.625ZM8.32812 8.5H16.625V6.5H8.32812V8.5ZM7 12C7 13.1075 7.04817 14.1253 7.14559 15.0995L9.13566 14.9005C9.04558 13.9997 9 13.0488 9 12H7ZM8.14062 16H16.8125V14H8.14062V16ZM17.8075 15.0995C17.905 14.1253 17.9531 13.1075 17.9531 12H15.9531C15.9531 13.0488 15.9075 13.9997 15.8175 14.9005L17.8075 15.0995ZM17.9531 12C17.9531 10.9377 17.9048 9.92168 17.808 8.90519L15.817 9.09481C15.9077 10.0471 15.9531 10.9998 15.9531 12H17.9531ZM16.8125 8H8.14062V10H16.8125V8ZM7.14513 8.90519C7.04832 9.92168 7 10.9377 7 12H9C9 10.9998 9.04543 10.0471 9.13612 9.09481L7.14513 8.90519ZM24.1102 7.11441C22.6826 3.69838 19.7297 1.00058 16.0612 -0.0693741L15.5013 1.85062C18.5828 2.74942 21.0674 5.02037 22.2648 7.88559L24.1102 7.11441ZM14.9756 1.48302C16.0073 2.88608 16.7248 5.08982 17.1377 7.65868L19.1123 7.34132C18.6814 4.66018 17.899 2.08267 16.5869 0.298233L14.9756 1.48302ZM18.125 8.5H23.1875V6.5H18.125V8.5ZM8.89188 -0.0693741C5.22347 1.00058 2.27055 3.69838 0.842957 7.11441L2.68829 7.88559C3.8857 5.02037 6.37028 2.74942 9.45187 1.85062L8.89188 -0.0693741ZM1.76562 8.5H6.82812V6.5H1.76562V8.5ZM7.81546 7.65868C8.22831 5.08982 8.94586 2.88608 9.97753 1.48302L8.36622 0.298233C7.05414 2.08267 6.27169 4.66018 5.84079 7.34132L7.81546 7.65868ZM23.7031 8H18.3125V10H23.7031V8ZM17.317 9.09481C17.4112 10.084 17.5 11.07 17.5 12H19.5C19.5 10.9613 19.4013 9.88473 19.308 8.90519L17.317 9.09481ZM17.5 12C17.5 12.9763 17.4114 13.9144 17.317 14.9052L19.308 15.0948C19.4011 14.1169 19.5 13.0862 19.5 12H17.5ZM18.3125 16H23.7031V14H18.3125V16ZM24.6733 15.2425C24.9254 14.234 25.0781 13.168 25.0781 12H23.0781C23.0781 12.9882 22.9496 13.891 22.733 14.7575L24.6733 15.2425ZM25.0781 12C25.0781 10.8757 24.9245 9.81242 24.6759 8.76838L22.7303 9.23162C22.9505 10.1563 23.0781 11.0618 23.0781 12H25.0781ZM7.5 12C7.5 11.0459 7.5455 10.0464 7.63612 9.09481L5.64513 8.90519C5.54825 9.92239 5.5 10.9853 5.5 12H7.5ZM6.64062 8H1.25V10H6.64062V8ZM0.277195 8.76838C0.028614 9.81242 -0.125 10.8757 -0.125 12H1.875C1.875 11.0618 2.00264 10.1563 2.22281 9.23162L0.277195 8.76838ZM-0.125 12C-0.125 13.168 0.0277252 14.234 0.279858 15.2425L2.22014 14.7575C2.00352 13.891 1.875 12.9882 1.875 12H-0.125ZM1.25 16H6.64062V14H1.25V16ZM7.63612 14.9052C7.54543 13.9529 7.5 13.0002 7.5 12H5.5C5.5 13.0623 5.54832 14.0783 5.64513 15.0948L7.63612 14.9052ZM7.34173 16.6644C7.70483 18.843 8.30724 20.7503 9.10762 22.1429C9.87813 23.4834 11.0055 24.625 12.5 24.625V22.625C12.1195 22.625 11.5125 22.3135 10.8416 21.1462C10.2006 20.0309 9.65454 18.3758 9.31452 16.3356L7.34173 16.6644ZM12.5 24.625C13.9749 24.625 15.1017 23.4778 15.8689 22.1429C16.6699 20.7493 17.2731 18.8398 17.6131 16.6537L15.6369 16.3463C15.3207 18.379 14.7754 20.0319 14.135 21.1462C13.4608 22.3191 12.8532 22.625 12.5 22.625V24.625ZM16.625 15.5H8.32812V17.5H16.625V15.5ZM16.0612 24.1162C19.7313 23.0458 22.6853 20.346 24.1122 16.8808L22.2628 16.1192C21.0647 19.029 18.5812 21.2979 15.5013 22.1963L16.0612 24.1162ZM23.1875 15.5H18.125V17.5H23.1875V15.5ZM17.1347 16.361C16.7716 18.9478 16.0109 21.1558 14.9756 22.5639L16.5869 23.7486C17.8953 21.9692 18.7284 19.3959 19.1153 16.639L17.1347 16.361ZM0.840946 16.8808C2.26783 20.346 5.22179 23.0458 8.89188 24.1162L9.45187 22.1963C6.37196 21.2979 3.88842 19.029 2.6903 16.1192L0.840946 16.8808ZM9.97753 22.5639C8.9466 21.1618 8.2288 18.9592 7.81589 16.344L5.84036 16.656C6.2712 19.3846 7.0534 21.9632 8.36622 23.7486L9.97753 22.5639ZM6.82812 15.5H1.76562V17.5H6.82812V15.5Z" fill="black"/>
</svg>
