<svg width="25" height="24" viewBox="0 0 25 24" fill="none" xmlns="http://www.w3.org/2000/svg">
<path d="M16.625 7.5C15.9688 3.32812 14.3281 0.375 12.5 0.375C10.625 0.375 9.03125 3.32812 8.32812 7.5H16.625ZM8 12C8 13.0781 8.04688 14.0625 8.14062 15H16.8125C16.9062 14.0625 16.9531 13.0781 16.9531 12C16.9531 10.9688 16.9062 9.98438 16.8125 9H8.14062C8.04688 9.98438 8 10.9688 8 12ZM23.1875 7.5C21.875 4.35938 19.1562 1.875 15.7812 0.890625C16.9531 2.48438 17.7031 4.875 18.125 7.5H23.1875ZM9.17188 0.890625C5.79688 1.875 3.07812 4.35938 1.76562 7.5H6.82812C7.25 4.875 8 2.48438 9.17188 0.890625ZM23.7031 9H18.3125C18.4062 9.98438 18.5 11.0156 18.5 12C18.5 13.0312 18.4062 14.0156 18.3125 15H23.7031C23.9375 14.0625 24.0781 13.0781 24.0781 12C24.0781 10.9688 23.9375 9.98438 23.7031 9ZM6.5 12C6.5 11.0156 6.54688 9.98438 6.64062 9H1.25C1.01562 9.98438 0.875 10.9688 0.875 12C0.875 13.0781 1.01562 14.0625 1.25 15H6.64062C6.54688 14.0156 6.5 13.0312 6.5 12ZM8.32812 16.5C9.03125 20.7188 10.625 23.625 12.5 23.625C14.3281 23.625 15.9688 20.7188 16.625 16.5H8.32812ZM15.7812 23.1562C19.1562 22.1719 21.875 19.6875 23.1875 16.5H18.125C17.75 19.1719 16.9531 21.5625 15.7812 23.1562ZM1.76562 16.5C3.07812 19.6875 5.79688 22.1719 9.17188 23.1562C8 21.5625 7.25 19.1719 6.82812 16.5H1.76562Z" fill="black"/>
</svg>
