<svg width="25" height="24" viewBox="0 0 25 24" fill="none" xmlns="http://www.w3.org/2000/svg">
<path d="M16.2031 0V-1.00005L16.1928 -0.999947L16.2031 0ZM8.375 10.875L9.08211 11.5821L9.49468 11.1695L9.33852 10.6074L8.375 10.875ZM8 21V20H7V21H8ZM11 18V17H10V18H11ZM13.5781 17.625L14.2852 18.3321L14.306 18.3113L14.3255 18.2894L13.5781 17.625ZM14.7031 16.3594L14.8992 15.3788L14.3368 15.2663L13.9557 15.695L14.7031 16.3594ZM25.5 8.29688C25.5 3.15084 21.3492 -1 16.2031 -1V1C20.2446 1 23.5 4.25541 23.5 8.29688H25.5ZM16.1928 -0.999947C11.1037 -0.947483 7 3.1489 7 8.25H9C9 4.25735 12.2088 1.04123 16.2134 0.999947L16.1928 -0.999947ZM7 8.25C7 9.29351 7.15745 10.2281 7.41148 11.1426L9.33852 10.6074C9.1238 9.83438 9 9.08149 9 8.25H7ZM7.66789 10.1679L0.121017 17.7148L1.53523 19.129L9.08211 11.5821L7.66789 10.1679ZM0.121017 17.7148C-0.320528 18.1563 -0.5 18.7014 -0.5 19.2188H1.5C1.5 19.1897 1.50466 19.1742 1.50742 19.1671C1.50948 19.1619 1.51482 19.1494 1.53523 19.129L0.121017 17.7148ZM-0.5 19.2188V22.875H1.5V19.2188H-0.5ZM-0.5 22.875C-0.5 24.0835 0.416466 25 1.625 25V23C1.58065 23 1.55441 22.9923 1.54203 22.9873C1.52983 22.9825 1.52512 22.9781 1.52351 22.9765C1.5219 22.9749 1.51751 22.9702 1.51266 22.958C1.50774 22.9456 1.5 22.9193 1.5 22.875H-0.5ZM1.625 25H6.875V23H1.625V25ZM6.875 25C8.00914 25 9 24.1107 9 22.875H7C7 22.9065 6.99413 22.9258 6.98949 22.9367C6.98457 22.9483 6.97785 22.9579 6.96923 22.9663C6.95201 22.983 6.9212 23 6.875 23V25ZM9 22.875V21H7V22.875H9ZM8 22H9.875V20H8V22ZM9.875 22C11.0091 22 12 21.1107 12 19.875H10C10 19.9065 9.99413 19.9258 9.98949 19.9367C9.98457 19.9483 9.97785 19.9579 9.96923 19.9663C9.95201 19.983 9.9212 20 9.875 20V22ZM12 19.875V18H10V19.875H12ZM11 19H12.7344V17H11V19ZM12.7344 19C13.3788 19 13.9028 18.7145 14.2852 18.3321L12.871 16.9179C12.8242 16.9647 12.791 16.9839 12.7747 16.9913C12.7614 16.9974 12.7509 17 12.7344 17V19ZM14.3255 18.2894L15.4505 17.0237L13.9557 15.695L12.8307 16.9606L14.3255 18.2894ZM14.507 17.34C15.0505 17.4486 15.6329 17.5 16.25 17.5V15.5C15.7421 15.5 15.2933 15.4576 14.8992 15.3788L14.507 17.34ZM16.25 17.5C21.3417 17.5 25.5 13.4034 25.5 8.29688H23.5C23.5 12.2841 20.252 15.5 16.25 15.5V17.5ZM17.25 6C17.25 5.31992 17.8002 4.75 18.5 4.75V2.75C16.6686 2.75 15.25 4.24258 15.25 6H17.25ZM18.5 4.75C19.1665 4.75 19.75 5.33353 19.75 6H21.75C21.75 4.22897 20.271 2.75 18.5 2.75V4.75ZM19.75 6C19.75 6.69983 19.1801 7.25 18.5 7.25V9.25C20.2574 9.25 21.75 7.83142 21.75 6H19.75ZM18.5 7.25C17.7867 7.25 17.25 6.71334 17.25 6H15.25C15.25 7.81791 16.6821 9.25 18.5 9.25V7.25Z" fill="black"/>
</svg>
