<svg width="25" height="24" viewBox="0 0 25 24" fill="none" xmlns="http://www.w3.org/2000/svg">
<path d="M24.5 8.29688C24.5 3.70312 20.7969 0 16.2031 0C11.6562 0.046875 8 3.70312 8 8.25C8 9.1875 8.14062 10.0312 8.375 10.875L0.828125 18.4219C0.59375 18.6562 0.5 18.9375 0.5 19.2188V22.875C0.5 23.5312 0.96875 24 1.625 24H6.875C7.48438 24 8 23.5312 8 22.875V21H9.875C10.4844 21 11 20.5312 11 19.875V18H12.7344C13.0625 18 13.3438 17.8594 13.5781 17.625L14.7031 16.3594C15.1719 16.4531 15.6875 16.5 16.25 16.5C20.7969 16.5 24.5 12.8438 24.5 8.29688ZM16.25 6C16.25 4.78125 17.2344 3.75 18.5 3.75C19.7188 3.75 20.75 4.78125 20.75 6C20.75 7.26562 19.7188 8.25 18.5 8.25C17.2344 8.25 16.25 7.26562 16.25 6Z" fill="black"/>
</svg>
