<svg width="27" height="26" viewBox="0 0 27 26" fill="none" xmlns="http://www.w3.org/2000/svg">
<path d="M14.8594 8.96875L14.2192 8.20053L14.1843 8.22957L14.1523 8.26164L14.8594 8.96875ZM13.875 9.95312L13.1679 9.24602L13.1471 9.2668L13.1276 9.28876L13.875 9.95312ZM13.6406 11.9688L13.0406 12.7687L13.0628 12.7854L13.0859 12.8008L13.6406 11.9688ZM14.1562 12.3438L14.8757 11.6492L14.8202 11.5917L14.7562 11.5438L14.1562 12.3438ZM14.1562 17.125L14.8581 17.8373L14.8634 17.8321L14.1562 17.125ZM10.9688 20.2656L10.2669 19.5533L10.258 19.5621L10.2493 19.571L10.9688 20.2656ZM6.1875 20.2656L6.9069 19.571L6.90081 19.5647L6.89461 19.5585L6.1875 20.2656ZM6.84375 14.875L6.21906 14.0941L6.17581 14.1287L6.13664 14.1679L6.84375 14.875ZM7.03125 14.0781L7.97993 13.7619L7.97716 13.7536L7.97424 13.7453L7.03125 14.0781ZM6.5625 11.6406H5.5625V11.67L5.56422 11.6993L6.5625 11.6406ZM16.7812 19.7969L17.4884 20.504L17.7812 20.2111V19.7969H16.7812ZM16.7812 19.75L16.0802 19.0369L15.7812 19.3308V19.75H16.7812ZM10.1719 6.25L9.46477 5.54289L9.17188 5.83578V6.25H10.1719ZM10.1719 6.29688L10.8729 7.01L11.1719 6.7161V6.29688H10.1719ZM12.0938 17.0781L12.7339 17.8463L12.7688 17.8173L12.8009 17.7852L12.0938 17.0781ZM13.0781 16.0938L13.7852 16.8009L13.806 16.7801L13.8255 16.7581L13.0781 16.0938ZM13.3125 14.0781L13.9125 13.2781L13.8903 13.2615L13.8672 13.2461L13.3125 14.0781ZM12.7969 13.7031L12.0775 14.3977L12.133 14.4552L12.1969 14.5031L12.7969 13.7031ZM12.7969 8.92188L12.095 8.20953L12.0898 8.21477L12.7969 8.92188ZM15.9844 5.78125L16.6862 6.49358L16.6951 6.48482L16.7038 6.47585L15.9844 5.78125ZM20.7656 5.78125L20.0462 6.47585L20.0523 6.48215L20.0585 6.48836L20.7656 5.78125ZM20.1094 11.1719L20.7341 11.9527L20.7773 11.9181L20.8165 11.879L20.1094 11.1719ZM19.9219 11.9688L18.9732 12.285L18.976 12.2933L18.9789 12.3016L19.9219 11.9688ZM20.3906 14.4062H21.3906V14.3769L21.3889 14.3475L20.3906 14.4062ZM17.4884 9.01164C17.1708 8.69408 16.8009 8.37663 16.425 8.10814L15.2625 9.73561C15.5429 9.93587 15.8292 10.1809 16.0741 10.4259L17.4884 9.01164ZM16.425 8.10814C15.6843 7.57909 14.8081 7.70976 14.2192 8.20053L15.4996 9.73697C15.498 9.73828 15.4666 9.76276 15.4028 9.76716C15.3715 9.76932 15.3402 9.76582 15.312 9.75764C15.2839 9.74949 15.2675 9.73914 15.2625 9.73561L16.425 8.10814ZM14.1523 8.26164L13.1679 9.24602L14.5821 10.6602L15.5665 9.67586L14.1523 8.26164ZM13.1276 9.28876C12.5983 9.88425 12.3125 10.6334 12.3125 11.3594H14.3125C14.3125 11.1479 14.4017 10.8657 14.6224 10.6175L13.1276 9.28876ZM12.3125 11.3594C12.3125 12.0499 12.688 12.5043 13.0406 12.7687L14.2406 11.1688C14.219 11.1526 14.2412 11.164 14.2682 11.2098C14.2821 11.2334 14.2943 11.2613 14.3024 11.2914C14.3106 11.3213 14.3125 11.3453 14.3125 11.3594H12.3125ZM13.0859 12.8008C13.1981 12.8756 13.3599 12.9965 13.5563 13.1438L14.7562 11.5438C14.5776 11.4098 14.3644 11.2494 14.1953 11.1367L13.0859 12.8008ZM13.4368 13.0383C14.3819 14.0172 14.3644 15.5026 13.4491 16.4179L14.8634 17.8321C16.5731 16.1224 16.5556 13.3891 14.8757 11.6492L13.4368 13.0383ZM13.4544 16.4127L10.2669 19.5533L11.6706 20.978L14.8581 17.8373L13.4544 16.4127ZM10.2493 19.571C9.33001 20.5232 7.82624 20.5232 6.9069 19.571L5.4681 20.9602C7.17376 22.7268 9.98249 22.7268 11.6882 20.9602L10.2493 19.571ZM6.89461 19.5585C5.99052 18.6544 6.00137 17.1316 6.94148 16.1915L5.52727 14.7773C3.84238 16.4622 3.75948 19.2518 5.48039 20.9727L6.89461 19.5585ZM6.94148 16.1915L7.55086 15.5821L6.13664 14.1679L5.52727 14.7773L6.94148 16.1915ZM7.46844 15.6559C8.12755 15.1286 8.16173 14.3073 7.97993 13.7619L6.08257 14.3944C6.07878 14.383 6.07159 14.3557 6.08157 14.3078C6.09295 14.2532 6.13039 14.1651 6.21906 14.0941L7.46844 15.6559ZM7.97424 13.7453C7.73069 13.0552 7.60343 12.3071 7.56078 11.5819L5.56422 11.6993C5.61532 12.5679 5.76931 13.5073 6.08826 14.4109L7.97424 13.7453ZM7.5625 11.6406C7.5625 10.0782 5.67768 9.32998 4.58977 10.4179L6.00398 11.8321C5.85357 11.9825 5.5625 11.8905 5.5625 11.6406H7.5625ZM4.58977 10.4179L2.85539 12.1523L4.26961 13.5665L6.00398 11.8321L4.58977 10.4179ZM2.85539 12.1523C-0.300756 15.3084 -0.300756 20.4885 2.85539 23.6446L4.26961 22.2304C1.8945 19.8553 1.8945 15.9416 4.26961 13.5665L2.85539 12.1523ZM2.85539 23.6446C6.01154 26.8008 11.1916 26.8008 14.3477 23.6446L12.9335 22.2304C10.5584 24.6055 6.64471 24.6055 4.26961 22.2304L2.85539 23.6446ZM14.3477 23.6446L17.4884 20.504L16.0741 19.0898L12.9335 22.2304L14.3477 23.6446ZM16.7812 19.7969H17.7812C17.7812 19.7969 17.7812 19.7969 17.7812 19.7969C17.7812 19.7969 17.7812 19.7969 17.7812 19.7969C17.7812 19.7969 17.7812 19.7969 17.7812 19.7969V19.7968C17.7812 19.7968 17.7812 19.7968 17.7812 19.7968V19.7968C17.7812 19.7968 17.7812 19.7968 17.7812 19.7968C17.7812 19.7968 17.7812 19.7968 17.7812 19.7968C17.7812 19.7968 17.7812 19.7968 17.7812 19.7968C17.7812 19.7968 17.7812 19.7968 17.7812 19.7968C17.7812 19.7968 17.7812 19.7968 17.7812 19.7968C17.7812 19.7968 17.7812 19.7968 17.7812 19.7968C17.7812 19.7968 17.7812 19.7968 17.7812 19.7968V19.7968C17.7812 19.7968 17.7812 19.7968 17.7812 19.7968C17.7812 19.7968 17.7812 19.7968 17.7812 19.7968C17.7812 19.7967 17.7812 19.7967 17.7812 19.7967V19.7967C17.7812 19.7967 17.7812 19.7967 17.7812 19.7967C17.7812 19.7967 17.7812 19.7967 17.7812 19.7967V19.7967C17.7812 19.7967 17.7812 19.7967 17.7812 19.7967C17.7812 19.7967 17.7812 19.7967 17.7812 19.7967C17.7812 19.7967 17.7812 19.7967 17.7812 19.7967C17.7812 19.7967 17.7812 19.7967 17.7812 19.7967C17.7812 19.7967 17.7812 19.7967 17.7812 19.7967V19.7967V19.7967V19.7967V19.7966V19.7966C17.7812 19.7966 17.7812 19.7966 17.7812 19.7966C17.7812 19.7966 17.7812 19.7966 17.7812 19.7966C17.7812 19.7966 17.7812 19.7966 17.7812 19.7966C17.7812 19.7966 17.7812 19.7966 17.7812 19.7966C17.7812 19.7966 17.7812 19.7966 17.7812 19.7966V19.7966V19.7966C17.7812 19.7966 17.7812 19.7966 17.7812 19.7966C17.7812 19.7966 17.7812 19.7966 17.7812 19.7966V19.7965C17.7812 19.7965 17.7812 19.7965 17.7812 19.7965C17.7812 19.7965 17.7812 19.7965 17.7812 19.7965V19.7965C17.7812 19.7965 17.7812 19.7965 17.7812 19.7965V19.7965C17.7812 19.7965 17.7812 19.7965 17.7812 19.7965C17.7812 19.7965 17.7812 19.7965 17.7812 19.7965C17.7812 19.7965 17.7812 19.7965 17.7812 19.7965V19.7964C17.7812 19.7964 17.7812 19.7964 17.7812 19.7964V19.7964C17.7812 19.7964 17.7812 19.7964 17.7812 19.7964C17.7812 19.7964 17.7812 19.7964 17.7812 19.7964V19.7964C17.7812 19.7964 17.7812 19.7964 17.7812 19.7964C17.7812 19.7964 17.7812 19.7964 17.7812 19.7964C17.7812 19.7964 17.7812 19.7963 17.7812 19.7963V19.7963C17.7812 19.7963 17.7812 19.7963 17.7812 19.7963C17.7812 19.7963 17.7812 19.7963 17.7812 19.7963C17.7812 19.7963 17.7812 19.7963 17.7812 19.7963C17.7812 19.7963 17.7812 19.7963 17.7812 19.7963C17.7812 19.7963 17.7812 19.7963 17.7812 19.7963C17.7812 19.7962 17.7812 19.7962 17.7812 19.7962C17.7812 19.7962 17.7812 19.7962 17.7812 19.7962C17.7812 19.7962 17.7812 19.7962 17.7812 19.7962C17.7812 19.7962 17.7812 19.7962 17.7812 19.7962C17.7812 19.7962 17.7812 19.7962 17.7812 19.7962C17.7812 19.7962 17.7812 19.7962 17.7812 19.7962C17.7812 19.7962 17.7812 19.7962 17.7812 19.7961C17.7812 19.7961 17.7812 19.7961 17.7812 19.7961C17.7812 19.7961 17.7812 19.7961 17.7812 19.7961C17.7812 19.7961 17.7812 19.7961 17.7812 19.7961C17.7812 19.7961 17.7812 19.7961 17.7812 19.7961C17.7812 19.7961 17.7812 19.7961 17.7812 19.7961C17.7812 19.796 17.7812 19.796 17.7812 19.796C17.7812 19.796 17.7812 19.796 17.7812 19.796C17.7812 19.796 17.7812 19.796 17.7812 19.796C17.7812 19.796 17.7812 19.796 17.7812 19.796C17.7812 19.796 17.7812 19.796 17.7812 19.796C17.7812 19.796 17.7812 19.7959 17.7812 19.7959C17.7812 19.7959 17.7812 19.7959 17.7812 19.7959C17.7812 19.7959 17.7812 19.7959 17.7812 19.7959C17.7812 19.7959 17.7812 19.7959 17.7812 19.7959C17.7812 19.7959 17.7812 19.7959 17.7812 19.7959C17.7812 19.7958 17.7812 19.7958 17.7812 19.7958C17.7812 19.7958 17.7812 19.7958 17.7812 19.7958C17.7812 19.7958 17.7812 19.7958 17.7812 19.7958C17.7812 19.7958 17.7812 19.7958 17.7812 19.7958C17.7812 19.7958 17.7812 19.7958 17.7812 19.7957C17.7812 19.7957 17.7812 19.7957 17.7812 19.7957C17.7812 19.7957 17.7812 19.7957 17.7812 19.7957C17.7812 19.7957 17.7812 19.7957 17.7812 19.7957C17.7812 19.7957 17.7812 19.7957 17.7812 19.7956C17.7812 19.7956 17.7812 19.7956 17.7812 19.7956C17.7812 19.7956 17.7812 19.7956 17.7812 19.7956C17.7812 19.7956 17.7812 19.7956 17.7812 19.7956C17.7812 19.7956 17.7812 19.7956 17.7812 19.7955C17.7812 19.7955 17.7812 19.7955 17.7812 19.7955C17.7812 19.7955 17.7812 19.7955 17.7812 19.7955C17.7812 19.7955 17.7812 19.7955 17.7812 19.7955C17.7812 19.7955 17.7812 19.7955 17.7812 19.7954C17.7812 19.7954 17.7812 19.7954 17.7812 19.7954C17.7812 19.7954 17.7812 19.7954 17.7812 19.7954C17.7812 19.7954 17.7812 19.7954 17.7812 19.7954C17.7812 19.7954 17.7812 19.7953 17.7812 19.7953C17.7812 19.7953 17.7812 19.7953 17.7812 19.7953C17.7812 19.7953 17.7812 19.7953 17.7812 19.7953C17.7812 19.7953 17.7812 19.7953 17.7812 19.7952C17.7812 19.7952 17.7812 19.7952 17.7812 19.7952C17.7812 19.7952 17.7812 19.7952 17.7812 19.7952C17.7812 19.7952 17.7812 19.7952 17.7812 19.7952C17.7812 19.7952 17.7812 19.7951 17.7812 19.7951C17.7812 19.7951 17.7812 19.7951 17.7812 19.7951C17.7812 19.7951 17.7812 19.7951 17.7812 19.7951C17.7812 19.7951 17.7812 19.795 17.7812 19.795C17.7812 19.795 17.7812 19.795 17.7812 19.795C17.7812 19.795 17.7812 19.795 17.7812 19.795C17.7812 19.795 17.7812 19.795 17.7812 19.7949C17.7812 19.7949 17.7812 19.7949 17.7812 19.7949C17.7812 19.7949 17.7812 19.7949 17.7812 19.7949C17.7812 19.7949 17.7812 19.7949 17.7812 19.7948C17.7812 19.7948 17.7812 19.7948 17.7812 19.7948C17.7812 19.7948 17.7812 19.7948 17.7812 19.7948C17.7812 19.7948 17.7812 19.7947 17.7812 19.7947C17.7812 19.7947 17.7812 19.7947 17.7812 19.7947C17.7812 19.7947 17.7812 19.7947 17.7812 19.7947C17.7812 19.7947 17.7812 19.7946 17.7812 19.7946C17.7812 19.7946 17.7812 19.7946 17.7812 19.7946C17.7812 19.7946 17.7812 19.7946 17.7812 19.7946C17.7812 19.7945 17.7812 19.7945 17.7812 19.7945C17.7812 19.7945 17.7812 19.7945 17.7812 19.7945C17.7812 19.7945 17.7812 19.7945 17.7812 19.7944C17.7812 19.7944 17.7812 19.7944 17.7812 19.7944C17.7812 19.7944 17.7812 19.7944 17.7812 19.7944C17.7812 19.7943 17.7812 19.7943 17.7812 19.7943C17.7812 19.7943 17.7812 19.7943 17.7812 19.7943C17.7812 19.7943 17.7812 19.7943 17.7812 19.7942C17.7812 19.7942 17.7812 19.7942 17.7812 19.7942C17.7812 19.7942 17.7812 19.7942 17.7812 19.7942C17.7812 19.7942 17.7812 19.7941 17.7812 19.7941C17.7812 19.7941 17.7812 19.7941 17.7812 19.7941C17.7812 19.7941 17.7812 19.7941 17.7812 19.794C17.7812 19.794 17.7812 19.794 17.7812 19.794C17.7812 19.794 17.7812 19.794 17.7812 19.794C17.7812 19.7939 17.7812 19.7939 17.7812 19.7939C17.7812 19.7939 17.7812 19.7939 17.7812 19.7939C17.7812 19.7939 17.7812 19.7938 17.7812 19.7938C17.7812 19.7938 17.7812 19.7938 17.7812 19.7938C17.7812 19.7938 17.7812 19.7937 17.7812 19.7937C17.7812 19.7937 17.7812 19.7937 17.7812 19.7937C17.7812 19.7937 17.7812 19.7937 17.7812 19.7936C17.7812 19.7936 17.7812 19.7936 17.7812 19.7936C17.7812 19.7936 17.7812 19.7936 17.7812 19.7935C17.7812 19.7935 17.7812 19.7935 17.7812 19.7935C17.7812 19.7935 17.7812 19.7935 17.7812 19.7934C17.7812 19.7934 17.7812 19.7934 17.7812 19.7934C17.7812 19.7934 17.7812 19.7934 17.7812 19.7934C17.7812 19.7933 17.7812 19.7933 17.7812 19.7933C17.7812 19.7933 17.7812 19.7933 17.7812 19.7933C17.7812 19.7932 17.7812 19.7932 17.7812 19.7932C17.7812 19.7932 17.7812 19.7932 17.7812 19.7932C17.7812 19.7931 17.7812 19.7931 17.7812 19.7931C17.7812 19.7931 17.7812 19.7931 17.7812 19.7931C17.7812 19.793 17.7812 19.793 17.7812 19.793C17.7812 19.793 17.7812 19.793 17.7812 19.793C17.7812 19.7929 17.7812 19.7929 17.7812 19.7929C17.7812 19.7929 17.7812 19.7929 17.7812 19.7928C17.7812 19.7928 17.7812 19.7928 17.7812 19.7928C17.7812 19.7928 17.7812 19.7928 17.7812 19.7927C17.7812 19.7927 17.7812 19.7927 17.7812 19.7927C17.7812 19.7927 17.7812 19.7926 17.7812 19.7926C17.7812 19.7926 17.7812 19.7926 17.7812 19.7926C17.7812 19.7925 17.7812 19.7925 17.7812 19.7925C17.7812 19.7925 17.7812 19.7925 17.7812 19.7925C17.7812 19.7924 17.7812 19.7924 17.7812 19.7924C17.7812 19.7924 17.7812 19.7924 17.7812 19.7923C17.7812 19.7923 17.7812 19.7923 17.7812 19.7923C17.7812 19.7923 17.7812 19.7922 17.7812 19.7922C17.7812 19.7922 17.7812 19.7922 17.7812 19.7922C17.7812 19.7921 17.7812 19.7921 17.7812 19.7921C17.7812 19.7921 17.7812 19.7921 17.7812 19.792C17.7812 19.792 17.7812 19.792 17.7812 19.792C17.7812 19.792 17.7812 19.7919 17.7812 19.7919C17.7812 19.7919 17.7812 19.7919 17.7812 19.7919C17.7812 19.7918 17.7812 19.7918 17.7812 19.7918C17.7812 19.7918 17.7812 19.7918 17.7812 19.7917C17.7812 19.7917 17.7812 19.7917 17.7812 19.7917C17.7812 19.7917 17.7812 19.7916 17.7812 19.7916C17.7812 19.7916 17.7812 19.7916 17.7812 19.7915C17.7812 19.7915 17.7812 19.7915 17.7812 19.7915C17.7812 19.7915 17.7812 19.7914 17.7812 19.7914C17.7812 19.7914 17.7812 19.7914 17.7812 19.7914C17.7812 19.7913 17.7812 19.7913 17.7812 19.7913C17.7812 19.7913 17.7812 19.7912 17.7812 19.7912C17.7812 19.7912 17.7812 19.7912 17.7812 19.7912C17.7812 19.7911 17.7812 19.7911 17.7812 19.7911C17.7812 19.7911 17.7812 19.791 17.7812 19.791C17.7812 19.791 17.7812 19.791 17.7812 19.7909C17.7812 19.7909 17.7812 19.7909 17.7812 19.7909C17.7812 19.7909 17.7812 19.7908 17.7812 19.7908C17.7812 19.7908 17.7812 19.7908 17.7812 19.7907C17.7812 19.7907 17.7812 19.7907 17.7812 19.7907C17.7812 19.7906 17.7812 19.7906 17.7812 19.7906C17.7812 19.7906 17.7812 19.7905 17.7812 19.7905C17.7812 19.7905 17.7812 19.7905 17.7812 19.7905C17.7812 19.7904 17.7812 19.7904 17.7812 19.7904C17.7812 19.7904 17.7812 19.7903 17.7812 19.7903C17.7812 19.7903 17.7812 19.7903 17.7812 19.7902C17.7812 19.7902 17.7812 19.7902 17.7812 19.7902C17.7812 19.7901 17.7812 19.7901 17.7812 19.7901C17.7812 19.7901 17.7812 19.79 17.7812 19.79C17.7812 19.79 17.7812 19.7899 17.7812 19.7899C17.7812 19.7899 17.7812 19.7899 17.7812 19.7898C17.7812 19.7898 17.7812 19.7898 17.7812 19.7898C17.7812 19.7897 17.7812 19.7897 17.7812 19.7897C17.7812 19.7897 17.7812 19.7896 17.7812 19.7896C17.7812 19.7896 17.7812 19.7896 17.7812 19.7895C17.7812 19.7895 17.7812 19.7895 17.7812 19.7895C17.7812 19.7894 17.7812 19.7894 17.7812 19.7894C17.7812 19.7893 17.7812 19.7893 17.7812 19.7893C17.7812 19.7893 17.7812 19.7892 17.7812 19.7892C17.7812 19.7892 17.7812 19.7892 17.7812 19.7891C17.7812 19.7891 17.7812 19.7891 17.7812 19.789C17.7812 19.789 17.7812 19.789 17.7812 19.789C17.7812 19.7889 17.7812 19.7889 17.7812 19.7889C17.7812 19.7888 17.7812 19.7888 17.7812 19.7888C17.7812 19.7888 17.7812 19.7887 17.7812 19.7887C17.7812 19.7887 17.7812 19.7887 17.7812 19.7886C17.7812 19.7886 17.7812 19.7886 17.7812 19.7885C17.7812 19.7885 17.7812 19.7885 17.7812 19.7884C17.7812 19.7884 17.7812 19.7884 17.7812 19.7884C17.7812 19.7883 17.7812 19.7883 17.7812 19.7883C17.7812 19.7882 17.7812 19.7882 17.7812 19.7882C17.7812 19.7881 17.7812 19.7881 17.7812 19.7881C17.7812 19.7881 17.7812 19.788 17.7812 19.788C17.7812 19.788 17.7812 19.7879 17.7812 19.7879C17.7812 19.7879 17.7812 19.7878 17.7812 19.7878C17.7812 19.7878 17.7812 19.7878 17.7812 19.7877C17.7812 19.7877 17.7812 19.7877 17.7812 19.7876C17.7812 19.7876 17.7812 19.7876 17.7812 19.7875C17.7812 19.7875 17.7812 19.7875 17.7812 19.7874C17.7812 19.7874 17.7812 19.7874 17.7812 19.7874C17.7812 19.7873 17.7812 19.7873 17.7812 19.7873C17.7812 19.7872 17.7812 19.7872 17.7812 19.7872C17.7812 19.7871 17.7812 19.7871 17.7812 19.7871C17.7812 19.787 17.7812 19.787 17.7812 19.787C17.7812 19.7869 17.7812 19.7869 17.7812 19.7869C17.7812 19.7868 17.7812 19.7868 17.7812 19.7868C17.7812 19.7867 17.7812 19.7867 17.7812 19.7867C17.7812 19.7866 17.7812 19.7866 17.7812 19.7866C17.7812 19.7865 17.7812 19.7865 17.7812 19.7865C17.7812 19.7864 17.7812 19.7864 17.7812 19.7864C17.7812 19.7863 17.7812 19.7863 17.7812 19.7863C17.7812 19.7862 17.7812 19.7862 17.7812 19.7862C17.7812 19.7861 17.7812 19.7861 17.7812 19.7861C17.7812 19.786 17.7812 19.786 17.7812 19.786C17.7812 19.7859 17.7812 19.7859 17.7812 19.7859C17.7812 19.7858 17.7812 19.7858 17.7812 19.7858C17.7812 19.7857 17.7812 19.7857 17.7812 19.7856C17.7812 19.7856 17.7812 19.7856 17.7812 19.7855C17.7812 19.7855 17.7812 19.7855 17.7812 19.7854C17.7812 19.7854 17.7812 19.7854 17.7812 19.7853C17.7812 19.7853 17.7812 19.7852 17.7812 19.7852C17.7812 19.7852 17.7812 19.7851 17.7812 19.7851C17.7812 19.7851 17.7812 19.785 17.7812 19.785C17.7812 19.785 17.7812 19.7849 17.7812 19.7849C17.7812 19.7849 17.7812 19.7848 17.7812 19.7848C17.7812 19.7847 17.7812 19.7847 17.7812 19.7847C17.7812 19.7846 17.7812 19.7846 17.7812 19.7846C17.7812 19.7845 17.7812 19.7845 17.7812 19.7844C17.7812 19.7844 17.7812 19.7844 17.7812 19.7843C17.7812 19.7843 17.7812 19.7842 17.7812 19.7842C17.7812 19.7842 17.7812 19.7841 17.7812 19.7841C17.7812 19.7841 17.7812 19.784 17.7812 19.784C17.7812 19.7839 17.7812 19.7839 17.7812 19.7839C17.7812 19.7838 17.7812 19.7838 17.7812 19.7837C17.7812 19.7837 17.7812 19.7837 17.7812 19.7836C17.7812 19.7836 17.7812 19.7835 17.7812 19.7835C17.7812 19.7835 17.7812 19.7834 17.7812 19.7834C17.7812 19.7833 17.7812 19.7833 17.7812 19.7833C17.7812 19.7832 17.7812 19.7832 17.7812 19.7831C17.7812 19.7831 17.7812 19.7831 17.7812 19.783C17.7812 19.783 17.7812 19.7829 17.7812 19.7829C17.7812 19.7829 17.7812 19.7828 17.7812 19.7828C17.7812 19.7827 17.7812 19.7827 17.7812 19.7827C17.7812 19.7826 17.7812 19.7826 17.7812 19.7825C17.7812 19.7825 17.7812 19.7824 17.7812 19.7824C17.7812 19.7824 17.7812 19.7823 17.7812 19.7823C17.7812 19.7822 17.7812 19.7822 17.7812 19.7822C17.7812 19.7821 17.7812 19.7821 17.7812 19.782C17.7812 19.782 17.7812 19.7819 17.7812 19.7819C17.7812 19.7819 17.7812 19.7818 17.7812 19.7818C17.7812 19.7817 17.7812 19.7817 17.7812 19.7816C17.7812 19.7816 17.7812 19.7816 17.7812 19.7815C17.7812 19.7815 17.7812 19.7814 17.7812 19.7814C17.7812 19.7813 17.7812 19.7813 17.7812 19.7812C17.7812 19.7812 17.7812 19.7812 17.7812 19.7811C17.7812 19.7811 17.7812 19.781 17.7812 19.781C17.7812 19.7809 17.7812 19.7809 17.7812 19.7809C17.7812 19.7808 17.7812 19.7808 17.7812 19.7807C17.7812 19.7807 17.7812 19.7806 17.7812 19.7806C17.7812 19.7805 17.7812 19.7805 17.7812 19.7804C17.7812 19.7804 17.7812 19.7803 17.7812 19.7803C17.7812 19.7803 17.7812 19.7802 17.7812 19.7802C17.7812 19.7801 17.7812 19.7801 17.7812 19.78C17.7812 19.78 17.7812 19.7799 17.7812 19.7799C17.7812 19.7798 17.7812 19.7798 17.7812 19.7798C17.7812 19.7797 17.7812 19.7797 17.7812 19.7796C17.7812 19.7796 17.7812 19.7795 17.7812 19.7795C17.7812 19.7794 17.7812 19.7794 17.7812 19.7793C17.7812 19.7793 17.7812 19.7792 17.7812 19.7792C17.7812 19.7791 17.7812 19.7791 17.7812 19.779C17.7812 19.779 17.7812 19.7789 17.7812 19.7789C17.7812 19.7788 17.7812 19.7788 17.7812 19.7787C17.7812 19.7787 17.7812 19.7787 17.7812 19.7786C17.7812 19.7786 17.7812 19.7785 17.7812 19.7785C17.7812 19.7784 17.7812 19.7784 17.7812 19.7783C17.7812 19.7783 17.7812 19.7782 17.7812 19.7782C17.7812 19.7781 17.7812 19.7781 17.7812 19.778C17.7812 19.778 17.7812 19.7779 17.7812 19.7779C17.7812 19.7778 17.7812 19.7778 17.7812 19.7777C17.7812 19.7777 17.7812 19.7776 17.7812 19.7776C17.7812 19.7775 17.7812 19.7775 17.7812 19.7774C17.7812 19.7774 17.7812 19.7773 17.7812 19.7773C17.7812 19.7772 17.7812 19.7772 17.7812 19.7771C17.7812 19.777 17.7812 19.777 17.7812 19.7769C17.7812 19.7769 17.7812 19.7768 17.7812 19.7768C17.7812 19.7767 17.7812 19.7767 17.7812 19.7766C17.7812 19.7766 17.7812 19.7765 17.7812 19.7765C17.7812 19.7764 17.7812 19.7764 17.7812 19.7763C17.7812 19.7763 17.7812 19.7762 17.7812 19.7762C17.7812 19.7761 17.7812 19.7761 17.7812 19.776C17.7812 19.7759 17.7812 19.7759 17.7812 19.7758C17.7812 19.7758 17.7812 19.7757 17.7812 19.7757C17.7812 19.7756 17.7812 19.7756 17.7812 19.7755C17.7812 19.7755 17.7812 19.7754 17.7812 19.7754C17.7812 19.7753 17.7812 19.7752 17.7812 19.7752C17.7812 19.7751 17.7812 19.7751 17.7812 19.775C17.7812 19.775 17.7812 19.7749 17.7812 19.7749C17.7812 19.7748 17.7812 19.7747 17.7812 19.7747C17.7812 19.7746 17.7812 19.7746 17.7812 19.7745C17.7812 19.7745 17.7812 19.7744 17.7812 19.7744C17.7812 19.7743 17.7812 19.7742 17.7812 19.7742C17.7812 19.7741 17.7812 19.7741 17.7812 19.774C17.7812 19.774 17.7812 19.7739 17.7812 19.7738C17.7812 19.7738 17.7812 19.7737 17.7812 19.7737C17.7812 19.7736 17.7812 19.7736 17.7812 19.7735C17.7812 19.7734 17.7812 19.7734 17.7812 19.7733C17.7812 19.7733 17.7812 19.7732 17.7812 19.7732C17.7812 19.7731 17.7812 19.773 17.7812 19.773C17.7812 19.7729 17.7812 19.7729 17.7812 19.7728C17.7812 19.7727 17.7812 19.7727 17.7812 19.7726C17.7812 19.7726 17.7812 19.7725 17.7812 19.7725C17.7812 19.7724 17.7812 19.7723 17.7812 19.7723C17.7812 19.7722 17.7812 19.7722 17.7812 19.7721C17.7812 19.772 17.7812 19.772 17.7812 19.7719C17.7812 19.7719 17.7812 19.7718 17.7812 19.7717C17.7812 19.7717 17.7812 19.7716 17.7812 19.7716C17.7812 19.7715 17.7812 19.7714 17.7812 19.7714C17.7812 19.7713 17.7812 19.7712 17.7812 19.7712C17.7812 19.7711 17.7812 19.7711 17.7812 19.771C17.7812 19.7709 17.7812 19.7709 17.7812 19.7708C17.7812 19.7708 17.7812 19.7707 17.7812 19.7706C17.7812 19.7706 17.7812 19.7705 17.7812 19.7704C17.7812 19.7704 17.7812 19.7703 17.7812 19.7703C17.7812 19.7702 17.7812 19.7701 17.7812 19.7701C17.7812 19.77 17.7812 19.7699 17.7812 19.7699C17.7812 19.7698 17.7812 19.7697 17.7812 19.7697C17.7812 19.7696 17.7812 19.7696 17.7812 19.7695C17.7812 19.7694 17.7812 19.7694 17.7812 19.7693C17.7812 19.7692 17.7812 19.7692 17.7812 19.7691C17.7812 19.769 17.7812 19.769 17.7812 19.7689C17.7812 19.7689 17.7812 19.7688 17.7812 19.7687C17.7812 19.7687 17.7812 19.7686 17.7812 19.7685C17.7812 19.7685 17.7812 19.7684 17.7812 19.7683C17.7812 19.7683 17.7812 19.7682 17.7812 19.7681C17.7812 19.7681 17.7812 19.768 17.7812 19.7679C17.7812 19.7679 17.7812 19.7678 17.7812 19.7677C17.7812 19.7677 17.7812 19.7676 17.7812 19.7675C17.7812 19.7675 17.7812 19.7674 17.7812 19.7673C17.7812 19.7673 17.7812 19.7672 17.7812 19.7671C17.7812 19.7671 17.7812 19.767 17.7812 19.7669C17.7812 19.7669 17.7812 19.7668 17.7812 19.7667C17.7812 19.7666 17.7812 19.7666 17.7812 19.7665C17.7812 19.7664 17.7812 19.7664 17.7812 19.7663C17.7812 19.7662 17.7812 19.7662 17.7812 19.7661C17.7812 19.766 17.7812 19.766 17.7812 19.7659C17.7812 19.7658 17.7812 19.7658 17.7812 19.7657C17.7812 19.7656 17.7812 19.7655 17.7812 19.7655C17.7812 19.7654 17.7812 19.7653 17.7812 19.7653C17.7812 19.7652 17.7812 19.7651 17.7812 19.7651C17.7812 19.765 17.7812 19.7649 17.7812 19.7648C17.7812 19.7648 17.7812 19.7647 17.7812 19.7646C17.7812 19.7645 17.7812 19.7645 17.7812 19.7644C17.7812 19.7643 17.7812 19.7643 17.7812 19.7642C17.7812 19.7641 17.7812 19.7641 17.7812 19.764C17.7812 19.7639 17.7812 19.7638 17.7812 19.7638C17.7812 19.7637 17.7812 19.7636 17.7812 19.7635C17.7812 19.7635 17.7812 19.7634 17.7812 19.7633C17.7812 19.7633 17.7812 19.7632 17.7812 19.7631C17.7812 19.763 17.7812 19.763 17.7812 19.7629C17.7812 19.7628 17.7812 19.7627 17.7812 19.7627C17.7812 19.7626 17.7812 19.7625 17.7812 19.7624C17.7812 19.7624 17.7812 19.7623 17.7812 19.7622C17.7812 19.7621 17.7812 19.7621 17.7812 19.762C17.7812 19.7619 17.7812 19.7618 17.7812 19.7618C17.7812 19.7617 17.7812 19.7616 17.7812 19.7615C17.7812 19.7615 17.7812 19.7614 17.7812 19.7613C17.7812 19.7612 17.7812 19.7612 17.7812 19.7611C17.7812 19.761 17.7812 19.7609 17.7812 19.7608C17.7812 19.7608 17.7812 19.7607 17.7812 19.7606C17.7812 19.7605 17.7812 19.7605 17.7812 19.7604C17.7812 19.7603 17.7812 19.7602 17.7812 19.7601C17.7812 19.7601 17.7812 19.76 17.7812 19.7599C17.7812 19.7598 17.7812 19.7598 17.7812 19.7597C17.7812 19.7596 17.7812 19.7595 17.7812 19.7594C17.7812 19.7594 17.7812 19.7593 17.7812 19.7592C17.7812 19.7591 17.7812 19.759 17.7812 19.759C17.7812 19.7589 17.7812 19.7588 17.7812 19.7587C17.7812 19.7587 17.7812 19.7586 17.7812 19.7585C17.7812 19.7584 17.7812 19.7583 17.7812 19.7583C17.7812 19.7582 17.7812 19.7581 17.7812 19.758C17.7812 19.7579 17.7812 19.7579 17.7812 19.7578C17.7812 19.7577 17.7812 19.7576 17.7812 19.7575C17.7812 19.7574 17.7812 19.7574 17.7812 19.7573C17.7812 19.7572 17.7812 19.7571 17.7812 19.757C17.7812 19.757 17.7812 19.7569 17.7812 19.7568C17.7812 19.7567 17.7812 19.7566 17.7812 19.7565C17.7812 19.7565 17.7812 19.7564 17.7812 19.7563C17.7812 19.7562 17.7812 19.7561 17.7812 19.756C17.7812 19.756 17.7812 19.7559 17.7812 19.7558C17.7812 19.7557 17.7812 19.7556 17.7812 19.7555C17.7812 19.7554 17.7812 19.7554 17.7812 19.7553C17.7812 19.7552 17.7812 19.7551 17.7812 19.755C17.7812 19.7549 17.7812 19.7549 17.7812 19.7548C17.7812 19.7547 17.7812 19.7546 17.7812 19.7545C17.7812 19.7544 17.7812 19.7543 17.7812 19.7543C17.7812 19.7542 17.7812 19.7541 17.7812 19.754C17.7812 19.7539 17.7812 19.7538 17.7812 19.7537C17.7812 19.7537 17.7812 19.7536 17.7812 19.7535C17.7812 19.7534 17.7812 19.7533 17.7812 19.7532C17.7812 19.7531 17.7812 19.753 17.7812 19.753C17.7812 19.7529 17.7812 19.7528 17.7812 19.7527C17.7812 19.7526 17.7812 19.7525 17.7812 19.7524C17.7812 19.7523 17.7812 19.7523 17.7812 19.7522C17.7812 19.7521 17.7812 19.752 17.7812 19.7519C17.7812 19.7518 17.7812 19.7517 17.7812 19.7516C17.7812 19.7515 17.7812 19.7514 17.7812 19.7514C17.7812 19.7513 17.7812 19.7512 17.7812 19.7511C17.7812 19.751 17.7812 19.7509 17.7812 19.7508C17.7812 19.7507 17.7812 19.7506 17.7812 19.7505C17.7812 19.7505 17.7812 19.7504 17.7812 19.7503C17.7812 19.7502 17.7812 19.7501 17.7812 19.75H15.7812C15.7812 19.7501 15.7812 19.7502 15.7812 19.7503C15.7812 19.7504 15.7812 19.7505 15.7812 19.7505C15.7812 19.7506 15.7812 19.7507 15.7812 19.7508C15.7812 19.7509 15.7812 19.751 15.7812 19.7511C15.7812 19.7512 15.7812 19.7513 15.7812 19.7514C15.7812 19.7514 15.7812 19.7515 15.7812 19.7516C15.7812 19.7517 15.7812 19.7518 15.7812 19.7519C15.7812 19.752 15.7812 19.7521 15.7812 19.7522C15.7812 19.7523 15.7812 19.7523 15.7812 19.7524C15.7812 19.7525 15.7812 19.7526 15.7812 19.7527C15.7812 19.7528 15.7812 19.7529 15.7812 19.753C15.7812 19.753 15.7812 19.7531 15.7812 19.7532C15.7812 19.7533 15.7812 19.7534 15.7812 19.7535C15.7812 19.7536 15.7812 19.7537 15.7812 19.7537C15.7812 19.7538 15.7812 19.7539 15.7812 19.754C15.7812 19.7541 15.7812 19.7542 15.7812 19.7543C15.7812 19.7543 15.7812 19.7544 15.7812 19.7545C15.7812 19.7546 15.7812 19.7547 15.7812 19.7548C15.7812 19.7549 15.7812 19.7549 15.7812 19.755C15.7812 19.7551 15.7812 19.7552 15.7812 19.7553C15.7812 19.7554 15.7812 19.7554 15.7812 19.7555C15.7812 19.7556 15.7812 19.7557 15.7812 19.7558C15.7812 19.7559 15.7812 19.756 15.7812 19.756C15.7812 19.7561 15.7812 19.7562 15.7812 19.7563C15.7812 19.7564 15.7812 19.7565 15.7812 19.7565C15.7812 19.7566 15.7812 19.7567 15.7812 19.7568C15.7812 19.7569 15.7812 19.757 15.7812 19.757C15.7812 19.7571 15.7812 19.7572 15.7812 19.7573C15.7812 19.7574 15.7812 19.7574 15.7812 19.7575C15.7812 19.7576 15.7812 19.7577 15.7812 19.7578C15.7812 19.7579 15.7812 19.7579 15.7812 19.758C15.7812 19.7581 15.7812 19.7582 15.7812 19.7583C15.7812 19.7583 15.7812 19.7584 15.7812 19.7585C15.7812 19.7586 15.7812 19.7587 15.7812 19.7587C15.7812 19.7588 15.7812 19.7589 15.7812 19.759C15.7812 19.759 15.7812 19.7591 15.7812 19.7592C15.7812 19.7593 15.7812 19.7594 15.7812 19.7594C15.7812 19.7595 15.7812 19.7596 15.7812 19.7597C15.7812 19.7598 15.7812 19.7598 15.7812 19.7599C15.7812 19.76 15.7812 19.7601 15.7812 19.7601C15.7812 19.7602 15.7812 19.7603 15.7812 19.7604C15.7812 19.7605 15.7812 19.7605 15.7812 19.7606C15.7812 19.7607 15.7812 19.7608 15.7812 19.7608C15.7812 19.7609 15.7812 19.761 15.7812 19.7611C15.7812 19.7612 15.7812 19.7612 15.7812 19.7613C15.7812 19.7614 15.7812 19.7615 15.7812 19.7615C15.7812 19.7616 15.7812 19.7617 15.7812 19.7618C15.7812 19.7618 15.7812 19.7619 15.7812 19.762C15.7812 19.7621 15.7812 19.7621 15.7812 19.7622C15.7812 19.7623 15.7812 19.7624 15.7812 19.7624C15.7812 19.7625 15.7812 19.7626 15.7812 19.7627C15.7812 19.7627 15.7812 19.7628 15.7812 19.7629C15.7812 19.763 15.7812 19.763 15.7812 19.7631C15.7812 19.7632 15.7812 19.7633 15.7812 19.7633C15.7812 19.7634 15.7812 19.7635 15.7812 19.7635C15.7812 19.7636 15.7812 19.7637 15.7812 19.7638C15.7812 19.7638 15.7812 19.7639 15.7812 19.764C15.7812 19.7641 15.7812 19.7641 15.7812 19.7642C15.7812 19.7643 15.7812 19.7643 15.7812 19.7644C15.7812 19.7645 15.7812 19.7645 15.7812 19.7646C15.7812 19.7647 15.7812 19.7648 15.7812 19.7648C15.7812 19.7649 15.7812 19.765 15.7812 19.7651C15.7812 19.7651 15.7812 19.7652 15.7812 19.7653C15.7812 19.7653 15.7812 19.7654 15.7812 19.7655C15.7812 19.7655 15.7812 19.7656 15.7812 19.7657C15.7812 19.7658 15.7812 19.7658 15.7812 19.7659C15.7812 19.766 15.7812 19.766 15.7812 19.7661C15.7812 19.7662 15.7812 19.7662 15.7812 19.7663C15.7812 19.7664 15.7812 19.7664 15.7812 19.7665C15.7812 19.7666 15.7812 19.7666 15.7812 19.7667C15.7812 19.7668 15.7812 19.7669 15.7812 19.7669C15.7812 19.767 15.7812 19.7671 15.7812 19.7671C15.7812 19.7672 15.7812 19.7673 15.7812 19.7673C15.7812 19.7674 15.7812 19.7675 15.7812 19.7675C15.7812 19.7676 15.7812 19.7677 15.7812 19.7677C15.7812 19.7678 15.7812 19.7679 15.7812 19.7679C15.7812 19.768 15.7812 19.7681 15.7812 19.7681C15.7812 19.7682 15.7812 19.7683 15.7812 19.7683C15.7812 19.7684 15.7812 19.7685 15.7812 19.7685C15.7812 19.7686 15.7812 19.7687 15.7812 19.7687C15.7812 19.7688 15.7812 19.7689 15.7812 19.7689C15.7812 19.769 15.7812 19.769 15.7812 19.7691C15.7812 19.7692 15.7812 19.7692 15.7812 19.7693C15.7812 19.7694 15.7812 19.7694 15.7812 19.7695C15.7812 19.7696 15.7812 19.7696 15.7812 19.7697C15.7812 19.7697 15.7812 19.7698 15.7812 19.7699C15.7812 19.7699 15.7812 19.77 15.7812 19.7701C15.7812 19.7701 15.7812 19.7702 15.7812 19.7703C15.7812 19.7703 15.7812 19.7704 15.7812 19.7704C15.7812 19.7705 15.7812 19.7706 15.7812 19.7706C15.7812 19.7707 15.7812 19.7708 15.7812 19.7708C15.7812 19.7709 15.7812 19.7709 15.7812 19.771C15.7812 19.7711 15.7812 19.7711 15.7812 19.7712C15.7812 19.7712 15.7812 19.7713 15.7812 19.7714C15.7812 19.7714 15.7812 19.7715 15.7812 19.7716C15.7812 19.7716 15.7812 19.7717 15.7812 19.7717C15.7812 19.7718 15.7812 19.7719 15.7812 19.7719C15.7812 19.772 15.7812 19.772 15.7812 19.7721C15.7812 19.7722 15.7812 19.7722 15.7812 19.7723C15.7812 19.7723 15.7812 19.7724 15.7812 19.7725C15.7812 19.7725 15.7812 19.7726 15.7812 19.7726C15.7812 19.7727 15.7812 19.7727 15.7812 19.7728C15.7812 19.7729 15.7812 19.7729 15.7812 19.773C15.7812 19.773 15.7812 19.7731 15.7812 19.7732C15.7812 19.7732 15.7812 19.7733 15.7812 19.7733C15.7812 19.7734 15.7812 19.7734 15.7812 19.7735C15.7812 19.7736 15.7812 19.7736 15.7812 19.7737C15.7812 19.7737 15.7812 19.7738 15.7812 19.7738C15.7812 19.7739 15.7812 19.774 15.7812 19.774C15.7812 19.7741 15.7812 19.7741 15.7812 19.7742C15.7812 19.7742 15.7812 19.7743 15.7812 19.7744C15.7812 19.7744 15.7812 19.7745 15.7812 19.7745C15.7812 19.7746 15.7812 19.7746 15.7812 19.7747C15.7812 19.7747 15.7812 19.7748 15.7812 19.7749C15.7812 19.7749 15.7812 19.775 15.7812 19.775C15.7812 19.7751 15.7812 19.7751 15.7812 19.7752C15.7812 19.7752 15.7812 19.7753 15.7812 19.7754C15.7812 19.7754 15.7812 19.7755 15.7812 19.7755C15.7812 19.7756 15.7812 19.7756 15.7812 19.7757C15.7812 19.7757 15.7812 19.7758 15.7812 19.7758C15.7812 19.7759 15.7812 19.7759 15.7812 19.776C15.7812 19.7761 15.7812 19.7761 15.7812 19.7762C15.7812 19.7762 15.7812 19.7763 15.7812 19.7763C15.7812 19.7764 15.7812 19.7764 15.7812 19.7765C15.7812 19.7765 15.7812 19.7766 15.7812 19.7766C15.7812 19.7767 15.7812 19.7767 15.7812 19.7768C15.7812 19.7768 15.7812 19.7769 15.7812 19.7769C15.7812 19.777 15.7812 19.777 15.7812 19.7771C15.7812 19.7772 15.7812 19.7772 15.7812 19.7773C15.7812 19.7773 15.7812 19.7774 15.7812 19.7774C15.7812 19.7775 15.7812 19.7775 15.7812 19.7776C15.7812 19.7776 15.7812 19.7777 15.7812 19.7777C15.7812 19.7778 15.7812 19.7778 15.7812 19.7779C15.7812 19.7779 15.7812 19.778 15.7812 19.778C15.7812 19.7781 15.7812 19.7781 15.7812 19.7782C15.7812 19.7782 15.7812 19.7783 15.7812 19.7783C15.7812 19.7784 15.7812 19.7784 15.7812 19.7785C15.7812 19.7785 15.7812 19.7786 15.7812 19.7786C15.7812 19.7787 15.7812 19.7787 15.7812 19.7787C15.7812 19.7788 15.7812 19.7788 15.7812 19.7789C15.7812 19.7789 15.7812 19.779 15.7812 19.779C15.7812 19.7791 15.7812 19.7791 15.7812 19.7792C15.7812 19.7792 15.7812 19.7793 15.7812 19.7793C15.7812 19.7794 15.7812 19.7794 15.7812 19.7795C15.7812 19.7795 15.7812 19.7796 15.7812 19.7796C15.7812 19.7797 15.7812 19.7797 15.7812 19.7798C15.7812 19.7798 15.7812 19.7798 15.7812 19.7799C15.7812 19.7799 15.7812 19.78 15.7812 19.78C15.7812 19.7801 15.7812 19.7801 15.7812 19.7802C15.7812 19.7802 15.7812 19.7803 15.7812 19.7803C15.7812 19.7803 15.7812 19.7804 15.7812 19.7804C15.7812 19.7805 15.7812 19.7805 15.7812 19.7806C15.7812 19.7806 15.7812 19.7807 15.7812 19.7807C15.7812 19.7808 15.7812 19.7808 15.7812 19.7809C15.7812 19.7809 15.7812 19.7809 15.7812 19.781C15.7812 19.781 15.7812 19.7811 15.7812 19.7811C15.7812 19.7812 15.7812 19.7812 15.7812 19.7812C15.7812 19.7813 15.7812 19.7813 15.7812 19.7814C15.7812 19.7814 15.7812 19.7815 15.7812 19.7815C15.7812 19.7816 15.7812 19.7816 15.7812 19.7816C15.7812 19.7817 15.7812 19.7817 15.7812 19.7818C15.7812 19.7818 15.7812 19.7819 15.7812 19.7819C15.7812 19.7819 15.7812 19.782 15.7812 19.782C15.7812 19.7821 15.7812 19.7821 15.7812 19.7822C15.7812 19.7822 15.7812 19.7822 15.7812 19.7823C15.7812 19.7823 15.7812 19.7824 15.7812 19.7824C15.7812 19.7824 15.7812 19.7825 15.7812 19.7825C15.7812 19.7826 15.7812 19.7826 15.7812 19.7827C15.7812 19.7827 15.7812 19.7827 15.7812 19.7828C15.7812 19.7828 15.7812 19.7829 15.7812 19.7829C15.7812 19.7829 15.7812 19.783 15.7812 19.783C15.7812 19.7831 15.7812 19.7831 15.7812 19.7831C15.7812 19.7832 15.7812 19.7832 15.7812 19.7833C15.7812 19.7833 15.7812 19.7833 15.7812 19.7834C15.7812 19.7834 15.7812 19.7835 15.7812 19.7835C15.7812 19.7835 15.7812 19.7836 15.7812 19.7836C15.7812 19.7837 15.7812 19.7837 15.7812 19.7837C15.7812 19.7838 15.7812 19.7838 15.7812 19.7839C15.7812 19.7839 15.7812 19.7839 15.7812 19.784C15.7812 19.784 15.7812 19.7841 15.7812 19.7841C15.7812 19.7841 15.7812 19.7842 15.7812 19.7842C15.7812 19.7842 15.7812 19.7843 15.7812 19.7843C15.7812 19.7844 15.7812 19.7844 15.7812 19.7844C15.7812 19.7845 15.7812 19.7845 15.7812 19.7846C15.7812 19.7846 15.7812 19.7846 15.7812 19.7847C15.7812 19.7847 15.7812 19.7847 15.7812 19.7848C15.7812 19.7848 15.7812 19.7849 15.7812 19.7849C15.7812 19.7849 15.7812 19.785 15.7812 19.785C15.7812 19.785 15.7812 19.7851 15.7812 19.7851C15.7812 19.7851 15.7812 19.7852 15.7812 19.7852C15.7812 19.7852 15.7812 19.7853 15.7812 19.7853C15.7812 19.7854 15.7812 19.7854 15.7812 19.7854C15.7812 19.7855 15.7812 19.7855 15.7812 19.7855C15.7812 19.7856 15.7812 19.7856 15.7812 19.7856C15.7812 19.7857 15.7812 19.7857 15.7812 19.7858C15.7812 19.7858 15.7812 19.7858 15.7812 19.7859C15.7812 19.7859 15.7812 19.7859 15.7812 19.786C15.7812 19.786 15.7812 19.786 15.7812 19.7861C15.7812 19.7861 15.7812 19.7861 15.7812 19.7862C15.7812 19.7862 15.7812 19.7862 15.7812 19.7863C15.7812 19.7863 15.7812 19.7863 15.7812 19.7864C15.7812 19.7864 15.7812 19.7864 15.7812 19.7865C15.7812 19.7865 15.7812 19.7865 15.7812 19.7866C15.7812 19.7866 15.7812 19.7866 15.7812 19.7867C15.7812 19.7867 15.7812 19.7867 15.7812 19.7868C15.7812 19.7868 15.7812 19.7868 15.7812 19.7869C15.7812 19.7869 15.7812 19.7869 15.7812 19.787C15.7812 19.787 15.7812 19.787 15.7812 19.7871C15.7812 19.7871 15.7812 19.7871 15.7812 19.7872C15.7812 19.7872 15.7812 19.7872 15.7812 19.7873C15.7812 19.7873 15.7812 19.7873 15.7812 19.7874C15.7812 19.7874 15.7812 19.7874 15.7812 19.7874C15.7812 19.7875 15.7812 19.7875 15.7812 19.7875C15.7812 19.7876 15.7812 19.7876 15.7812 19.7876C15.7812 19.7877 15.7812 19.7877 15.7812 19.7877C15.7812 19.7878 15.7812 19.7878 15.7812 19.7878C15.7812 19.7878 15.7812 19.7879 15.7812 19.7879C15.7812 19.7879 15.7812 19.788 15.7812 19.788C15.7812 19.788 15.7812 19.7881 15.7812 19.7881C15.7812 19.7881 15.7812 19.7881 15.7812 19.7882C15.7812 19.7882 15.7812 19.7882 15.7812 19.7883C15.7812 19.7883 15.7812 19.7883 15.7812 19.7884C15.7812 19.7884 15.7812 19.7884 15.7812 19.7884C15.7812 19.7885 15.7812 19.7885 15.7812 19.7885C15.7812 19.7886 15.7812 19.7886 15.7812 19.7886C15.7812 19.7887 15.7812 19.7887 15.7812 19.7887C15.7812 19.7887 15.7812 19.7888 15.7812 19.7888C15.7812 19.7888 15.7812 19.7888 15.7812 19.7889C15.7812 19.7889 15.7812 19.7889 15.7812 19.789C15.7812 19.789 15.7812 19.789 15.7812 19.789C15.7812 19.7891 15.7812 19.7891 15.7812 19.7891C15.7812 19.7892 15.7812 19.7892 15.7812 19.7892C15.7812 19.7892 15.7812 19.7893 15.7812 19.7893C15.7812 19.7893 15.7812 19.7893 15.7812 19.7894C15.7812 19.7894 15.7812 19.7894 15.7812 19.7895C15.7812 19.7895 15.7812 19.7895 15.7812 19.7895C15.7812 19.7896 15.7812 19.7896 15.7812 19.7896C15.7812 19.7896 15.7812 19.7897 15.7812 19.7897C15.7812 19.7897 15.7812 19.7897 15.7812 19.7898C15.7812 19.7898 15.7812 19.7898 15.7812 19.7898C15.7812 19.7899 15.7812 19.7899 15.7812 19.7899C15.7812 19.7899 15.7812 19.79 15.7812 19.79C15.7812 19.79 15.7812 19.7901 15.7812 19.7901C15.7812 19.7901 15.7812 19.7901 15.7812 19.7902C15.7812 19.7902 15.7812 19.7902 15.7812 19.7902C15.7812 19.7903 15.7812 19.7903 15.7812 19.7903C15.7812 19.7903 15.7812 19.7904 15.7812 19.7904C15.7812 19.7904 15.7812 19.7904 15.7812 19.7905C15.7812 19.7905 15.7812 19.7905 15.7812 19.7905C15.7812 19.7905 15.7812 19.7906 15.7812 19.7906C15.7812 19.7906 15.7812 19.7906 15.7812 19.7907C15.7812 19.7907 15.7812 19.7907 15.7812 19.7907C15.7812 19.7908 15.7812 19.7908 15.7812 19.7908C15.7812 19.7908 15.7812 19.7909 15.7812 19.7909C15.7812 19.7909 15.7812 19.7909 15.7812 19.7909C15.7812 19.791 15.7812 19.791 15.7812 19.791C15.7812 19.791 15.7812 19.7911 15.7812 19.7911C15.7812 19.7911 15.7812 19.7911 15.7812 19.7912C15.7812 19.7912 15.7812 19.7912 15.7812 19.7912C15.7812 19.7912 15.7812 19.7913 15.7812 19.7913C15.7812 19.7913 15.7812 19.7913 15.7812 19.7914C15.7812 19.7914 15.7812 19.7914 15.7812 19.7914C15.7812 19.7914 15.7812 19.7915 15.7812 19.7915C15.7812 19.7915 15.7812 19.7915 15.7812 19.7915C15.7812 19.7916 15.7812 19.7916 15.7812 19.7916C15.7812 19.7916 15.7812 19.7917 15.7812 19.7917C15.7812 19.7917 15.7812 19.7917 15.7812 19.7917C15.7812 19.7918 15.7812 19.7918 15.7812 19.7918C15.7812 19.7918 15.7812 19.7918 15.7812 19.7919C15.7812 19.7919 15.7812 19.7919 15.7812 19.7919C15.7812 19.7919 15.7812 19.792 15.7812 19.792C15.7812 19.792 15.7812 19.792 15.7812 19.792C15.7812 19.7921 15.7812 19.7921 15.7812 19.7921C15.7812 19.7921 15.7812 19.7921 15.7812 19.7922C15.7812 19.7922 15.7812 19.7922 15.7812 19.7922C15.7812 19.7922 15.7812 19.7923 15.7812 19.7923C15.7812 19.7923 15.7812 19.7923 15.7812 19.7923C15.7812 19.7924 15.7812 19.7924 15.7812 19.7924C15.7812 19.7924 15.7812 19.7924 15.7812 19.7925C15.7812 19.7925 15.7812 19.7925 15.7812 19.7925C15.7812 19.7925 15.7812 19.7925 15.7812 19.7926C15.7812 19.7926 15.7812 19.7926 15.7812 19.7926C15.7812 19.7926 15.7812 19.7927 15.7812 19.7927C15.7812 19.7927 15.7812 19.7927 15.7812 19.7927C15.7812 19.7928 15.7812 19.7928 15.7812 19.7928C15.7812 19.7928 15.7812 19.7928 15.7812 19.7928C15.7812 19.7929 15.7812 19.7929 15.7812 19.7929C15.7812 19.7929 15.7812 19.7929 15.7812 19.793C15.7812 19.793 15.7812 19.793 15.7812 19.793C15.7812 19.793 15.7812 19.793 15.7812 19.7931C15.7812 19.7931 15.7812 19.7931 15.7812 19.7931C15.7812 19.7931 15.7812 19.7931 15.7812 19.7932C15.7812 19.7932 15.7812 19.7932 15.7812 19.7932C15.7812 19.7932 15.7812 19.7932 15.7812 19.7933C15.7812 19.7933 15.7812 19.7933 15.7812 19.7933C15.7812 19.7933 15.7812 19.7933 15.7812 19.7934C15.7812 19.7934 15.7812 19.7934 15.7812 19.7934C15.7812 19.7934 15.7812 19.7934 15.7812 19.7934C15.7812 19.7935 15.7812 19.7935 15.7812 19.7935C15.7812 19.7935 15.7812 19.7935 15.7812 19.7935C15.7812 19.7936 15.7812 19.7936 15.7812 19.7936C15.7812 19.7936 15.7812 19.7936 15.7812 19.7936C15.7812 19.7937 15.7812 19.7937 15.7812 19.7937C15.7812 19.7937 15.7812 19.7937 15.7812 19.7937C15.7812 19.7937 15.7812 19.7938 15.7812 19.7938C15.7812 19.7938 15.7812 19.7938 15.7812 19.7938C15.7812 19.7938 15.7812 19.7939 15.7812 19.7939C15.7812 19.7939 15.7812 19.7939 15.7812 19.7939C15.7812 19.7939 15.7812 19.7939 15.7812 19.794C15.7812 19.794 15.7812 19.794 15.7812 19.794C15.7812 19.794 15.7812 19.794 15.7812 19.794C15.7812 19.7941 15.7812 19.7941 15.7812 19.7941C15.7812 19.7941 15.7812 19.7941 15.7812 19.7941C15.7812 19.7941 15.7812 19.7942 15.7812 19.7942C15.7812 19.7942 15.7812 19.7942 15.7812 19.7942C15.7812 19.7942 15.7812 19.7942 15.7812 19.7942C15.7812 19.7943 15.7812 19.7943 15.7812 19.7943C15.7812 19.7943 15.7812 19.7943 15.7812 19.7943C15.7812 19.7943 15.7812 19.7943 15.7812 19.7944C15.7812 19.7944 15.7812 19.7944 15.7812 19.7944C15.7812 19.7944 15.7812 19.7944 15.7812 19.7944C15.7812 19.7945 15.7812 19.7945 15.7812 19.7945C15.7812 19.7945 15.7812 19.7945 15.7812 19.7945C15.7812 19.7945 15.7812 19.7945 15.7812 19.7946C15.7812 19.7946 15.7812 19.7946 15.7812 19.7946C15.7812 19.7946 15.7812 19.7946 15.7812 19.7946C15.7812 19.7946 15.7812 19.7947 15.7812 19.7947C15.7812 19.7947 15.7812 19.7947 15.7812 19.7947C15.7812 19.7947 15.7812 19.7947 15.7812 19.7947C15.7812 19.7947 15.7812 19.7948 15.7812 19.7948C15.7812 19.7948 15.7812 19.7948 15.7812 19.7948C15.7812 19.7948 15.7812 19.7948 15.7812 19.7948C15.7812 19.7949 15.7812 19.7949 15.7812 19.7949C15.7812 19.7949 15.7812 19.7949 15.7812 19.7949C15.7812 19.7949 15.7812 19.7949 15.7812 19.7949C15.7812 19.795 15.7812 19.795 15.7812 19.795C15.7812 19.795 15.7812 19.795 15.7812 19.795C15.7812 19.795 15.7812 19.795 15.7812 19.795C15.7812 19.795 15.7812 19.7951 15.7812 19.7951C15.7812 19.7951 15.7812 19.7951 15.7812 19.7951C15.7812 19.7951 15.7812 19.7951 15.7812 19.7951C15.7812 19.7951 15.7812 19.7952 15.7812 19.7952C15.7812 19.7952 15.7812 19.7952 15.7812 19.7952C15.7812 19.7952 15.7812 19.7952 15.7812 19.7952C15.7812 19.7952 15.7812 19.7952 15.7812 19.7952C15.7812 19.7953 15.7812 19.7953 15.7812 19.7953C15.7812 19.7953 15.7812 19.7953 15.7812 19.7953C15.7812 19.7953 15.7812 19.7953 15.7812 19.7953C15.7812 19.7953 15.7812 19.7954 15.7812 19.7954C15.7812 19.7954 15.7812 19.7954 15.7812 19.7954C15.7812 19.7954 15.7812 19.7954 15.7812 19.7954C15.7812 19.7954 15.7812 19.7954 15.7812 19.7954C15.7812 19.7955 15.7812 19.7955 15.7812 19.7955C15.7812 19.7955 15.7812 19.7955 15.7812 19.7955C15.7812 19.7955 15.7812 19.7955 15.7812 19.7955C15.7812 19.7955 15.7812 19.7955 15.7812 19.7955C15.7812 19.7956 15.7812 19.7956 15.7812 19.7956C15.7812 19.7956 15.7812 19.7956 15.7812 19.7956C15.7812 19.7956 15.7812 19.7956 15.7812 19.7956C15.7812 19.7956 15.7812 19.7956 15.7812 19.7956C15.7812 19.7957 15.7812 19.7957 15.7812 19.7957C15.7812 19.7957 15.7812 19.7957 15.7812 19.7957C15.7812 19.7957 15.7812 19.7957 15.7812 19.7957C15.7812 19.7957 15.7812 19.7957 15.7812 19.7957C15.7812 19.7958 15.7812 19.7958 15.7812 19.7958C15.7812 19.7958 15.7812 19.7958 15.7812 19.7958C15.7812 19.7958 15.7812 19.7958 15.7812 19.7958C15.7812 19.7958 15.7812 19.7958 15.7812 19.7958C15.7812 19.7958 15.7812 19.7958 15.7812 19.7959C15.7812 19.7959 15.7812 19.7959 15.7812 19.7959C15.7812 19.7959 15.7812 19.7959 15.7812 19.7959C15.7812 19.7959 15.7812 19.7959 15.7812 19.7959C15.7812 19.7959 15.7812 19.7959 15.7812 19.7959C15.7812 19.7959 15.7812 19.796 15.7812 19.796C15.7812 19.796 15.7812 19.796 15.7812 19.796C15.7812 19.796 15.7812 19.796 15.7812 19.796C15.7812 19.796 15.7812 19.796 15.7812 19.796C15.7812 19.796 15.7812 19.796 15.7812 19.796C15.7812 19.796 15.7812 19.796 15.7812 19.7961C15.7812 19.7961 15.7812 19.7961 15.7812 19.7961C15.7812 19.7961 15.7812 19.7961 15.7812 19.7961C15.7812 19.7961 15.7812 19.7961 15.7812 19.7961C15.7812 19.7961 15.7812 19.7961 15.7812 19.7961C15.7812 19.7961 15.7812 19.7961 15.7812 19.7961C15.7812 19.7962 15.7812 19.7962 15.7812 19.7962C15.7812 19.7962 15.7812 19.7962 15.7812 19.7962C15.7812 19.7962 15.7812 19.7962 15.7812 19.7962C15.7812 19.7962 15.7812 19.7962 15.7812 19.7962C15.7812 19.7962 15.7812 19.7962 15.7812 19.7962C15.7812 19.7962 15.7812 19.7962 15.7812 19.7962C15.7812 19.7962 15.7812 19.7962 15.7812 19.7963C15.7812 19.7963 15.7812 19.7963 15.7812 19.7963C15.7812 19.7963 15.7812 19.7963 15.7812 19.7963C15.7812 19.7963 15.7812 19.7963 15.7812 19.7963C15.7812 19.7963 15.7812 19.7963 15.7812 19.7963C15.7812 19.7963 15.7812 19.7963 15.7812 19.7963V19.7963C15.7812 19.7963 15.7812 19.7964 15.7812 19.7964C15.7812 19.7964 15.7812 19.7964 15.7812 19.7964C15.7812 19.7964 15.7812 19.7964 15.7812 19.7964V19.7964C15.7812 19.7964 15.7812 19.7964 15.7812 19.7964C15.7812 19.7964 15.7812 19.7964 15.7812 19.7964V19.7964C15.7812 19.7964 15.7812 19.7964 15.7812 19.7964V19.7965C15.7812 19.7965 15.7812 19.7965 15.7812 19.7965C15.7812 19.7965 15.7812 19.7965 15.7812 19.7965C15.7812 19.7965 15.7812 19.7965 15.7812 19.7965V19.7965C15.7812 19.7965 15.7812 19.7965 15.7812 19.7965V19.7965C15.7812 19.7965 15.7812 19.7965 15.7812 19.7965C15.7812 19.7965 15.7812 19.7965 15.7812 19.7965V19.7966C15.7812 19.7966 15.7812 19.7966 15.7812 19.7966C15.7812 19.7966 15.7812 19.7966 15.7812 19.7966V19.7966V19.7966C15.7812 19.7966 15.7812 19.7966 15.7812 19.7966C15.7812 19.7966 15.7812 19.7966 15.7812 19.7966C15.7812 19.7966 15.7812 19.7966 15.7812 19.7966C15.7812 19.7966 15.7812 19.7966 15.7812 19.7966C15.7812 19.7966 15.7812 19.7966 15.7812 19.7966V19.7966V19.7967V19.7967V19.7967V19.7967C15.7812 19.7967 15.7812 19.7967 15.7812 19.7967C15.7812 19.7967 15.7812 19.7967 15.7812 19.7967C15.7812 19.7967 15.7812 19.7967 15.7812 19.7967C15.7812 19.7967 15.7812 19.7967 15.7812 19.7967C15.7812 19.7967 15.7812 19.7967 15.7812 19.7967V19.7967C15.7812 19.7967 15.7812 19.7967 15.7812 19.7967C15.7812 19.7967 15.7812 19.7967 15.7812 19.7967V19.7967C15.7812 19.7967 15.7812 19.7967 15.7812 19.7968C15.7812 19.7968 15.7812 19.7968 15.7812 19.7968C15.7812 19.7968 15.7812 19.7968 15.7812 19.7968V19.7968C15.7812 19.7968 15.7812 19.7968 15.7812 19.7968C15.7812 19.7968 15.7812 19.7968 15.7812 19.7968C15.7812 19.7968 15.7812 19.7968 15.7812 19.7968C15.7812 19.7968 15.7812 19.7968 15.7812 19.7968C15.7812 19.7968 15.7812 19.7968 15.7812 19.7968C15.7812 19.7968 15.7812 19.7968 15.7812 19.7968C15.7812 19.7968 15.7812 19.7968 15.7812 19.7968V19.7968C15.7812 19.7968 15.7812 19.7968 15.7812 19.7968V19.7969C15.7812 19.7969 15.7812 19.7969 15.7812 19.7969C15.7812 19.7969 15.7812 19.7969 15.7812 19.7969C15.7812 19.7969 15.7812 19.7969 15.7812 19.7969H16.7812ZM17.4823 20.4631C20.6456 17.3535 20.6923 12.2156 17.4884 9.01164L16.0741 10.4259C18.4952 12.8469 18.4482 16.709 16.0802 19.0369L17.4823 20.4631ZM24.0977 2.40227C20.9416 -0.75388 15.7615 -0.75388 12.6054 2.40227L14.0196 3.81648C16.3947 1.44138 20.3084 1.44138 22.6835 3.81648L24.0977 2.40227ZM12.6054 2.40227L9.46477 5.54289L10.879 6.95711L14.0196 3.81648L12.6054 2.40227ZM10.1719 6.25H9.17188V6.25V6.25001C9.17188 6.25001 9.17188 6.25001 9.17188 6.25001C9.17188 6.25001 9.17188 6.25001 9.17188 6.25002V6.25002C9.17188 6.25002 9.17188 6.25002 9.17188 6.25002V6.25003V6.25003C9.17188 6.25003 9.17188 6.25003 9.17188 6.25003C9.17188 6.25003 9.17188 6.25003 9.17188 6.25004V6.25004C9.17188 6.25005 9.17188 6.25005 9.17188 6.25005V6.25005C9.17188 6.25005 9.17188 6.25005 9.17188 6.25005C9.17188 6.25006 9.17188 6.25006 9.17188 6.25006C9.17188 6.25006 9.17188 6.25006 9.17188 6.25006V6.25006V6.25007C9.17188 6.25007 9.17188 6.25007 9.17188 6.25007C9.17188 6.25007 9.17188 6.25007 9.17188 6.25008C9.17188 6.25008 9.17188 6.25008 9.17188 6.25008C9.17188 6.25008 9.17188 6.25008 9.17188 6.25008V6.25009V6.25009V6.2501C9.17188 6.2501 9.17188 6.2501 9.17188 6.2501C9.17188 6.2501 9.17188 6.2501 9.17188 6.25011C9.17188 6.25011 9.17188 6.25011 9.17188 6.25011V6.25011C9.17188 6.25012 9.17188 6.25012 9.17188 6.25012C9.17188 6.25012 9.17188 6.25012 9.17188 6.25013V6.25013C9.17188 6.25013 9.17188 6.25013 9.17188 6.25014V6.25014C9.17188 6.25014 9.17188 6.25014 9.17188 6.25015V6.25015C9.17188 6.25016 9.17188 6.25016 9.17188 6.25016V6.25016C9.17188 6.25017 9.17188 6.25017 9.17188 6.25017C9.17188 6.25018 9.17188 6.25018 9.17188 6.25018C9.17188 6.25018 9.17188 6.25018 9.17188 6.25019V6.25019C9.17188 6.25019 9.17188 6.2502 9.17188 6.2502C9.17188 6.2502 9.17188 6.25021 9.17188 6.25021C9.17188 6.25021 9.17188 6.25021 9.17188 6.25021C9.17188 6.25022 9.17188 6.25022 9.17188 6.25022C9.17188 6.25023 9.17188 6.25023 9.17188 6.25023C9.17188 6.25023 9.17188 6.25024 9.17188 6.25024C9.17188 6.25024 9.17188 6.25024 9.17188 6.25025C9.17188 6.25025 9.17188 6.25025 9.17188 6.25026C9.17188 6.25026 9.17188 6.25026 9.17188 6.25026C9.17188 6.25027 9.17188 6.25027 9.17188 6.25027C9.17188 6.25027 9.17188 6.25028 9.17188 6.25028C9.17188 6.25028 9.17188 6.25029 9.17188 6.25029C9.17188 6.25029 9.17188 6.2503 9.17188 6.2503C9.17188 6.2503 9.17188 6.25031 9.17188 6.25031C9.17188 6.25031 9.17188 6.25032 9.17188 6.25032C9.17188 6.25032 9.17188 6.25032 9.17188 6.25033C9.17188 6.25033 9.17188 6.25034 9.17188 6.25034C9.17188 6.25034 9.17188 6.25035 9.17188 6.25035C9.17188 6.25035 9.17188 6.25035 9.17188 6.25036C9.17188 6.25036 9.17188 6.25037 9.17188 6.25037C9.17188 6.25037 9.17188 6.25038 9.17188 6.25038C9.17188 6.25039 9.17188 6.25039 9.17188 6.25039C9.17188 6.2504 9.17188 6.2504 9.17188 6.2504C9.17188 6.25041 9.17188 6.25041 9.17188 6.25042C9.17188 6.25042 9.17188 6.25042 9.17188 6.25043C9.17188 6.25043 9.17188 6.25043 9.17188 6.25044C9.17188 6.25044 9.17188 6.25045 9.17188 6.25045C9.17188 6.25046 9.17188 6.25046 9.17188 6.25047C9.17188 6.25047 9.17188 6.25047 9.17188 6.25048C9.17188 6.25048 9.17188 6.25048 9.17188 6.25049C9.17188 6.2505 9.17188 6.2505 9.17188 6.2505C9.17188 6.25051 9.17188 6.25051 9.17188 6.25052C9.17188 6.25052 9.17188 6.25053 9.17188 6.25053C9.17188 6.25053 9.17188 6.25054 9.17188 6.25055C9.17188 6.25055 9.17188 6.25055 9.17188 6.25056C9.17188 6.25056 9.17188 6.25057 9.17188 6.25057C9.17188 6.25058 9.17188 6.25058 9.17188 6.25059C9.17188 6.2506 9.17188 6.2506 9.17188 6.2506C9.17188 6.25061 9.17188 6.25061 9.17188 6.25062C9.17188 6.25063 9.17188 6.25063 9.17188 6.25063C9.17188 6.25064 9.17188 6.25064 9.17188 6.25065C9.17188 6.25066 9.17188 6.25066 9.17188 6.25067C9.17188 6.25067 9.17188 6.25068 9.17188 6.25068C9.17188 6.25069 9.17188 6.25069 9.17188 6.2507C9.17188 6.25071 9.17188 6.25071 9.17188 6.25072C9.17188 6.25072 9.17188 6.25072 9.17188 6.25073C9.17188 6.25074 9.17188 6.25074 9.17188 6.25075C9.17188 6.25076 9.17188 6.25076 9.17188 6.25077C9.17188 6.25077 9.17188 6.25078 9.17188 6.25079C9.17188 6.25079 9.17188 6.2508 9.17188 6.2508C9.17188 6.25081 9.17188 6.25082 9.17188 6.25082C9.17188 6.25083 9.17188 6.25084 9.17188 6.25084C9.17188 6.25085 9.17188 6.25085 9.17188 6.25086C9.17188 6.25087 9.17188 6.25087 9.17188 6.25088C9.17188 6.25089 9.17188 6.25089 9.17188 6.2509C9.17188 6.2509 9.17188 6.25091 9.17188 6.25092C9.17188 6.25092 9.17188 6.25093 9.17188 6.25094C9.17188 6.25095 9.17188 6.25095 9.17188 6.25096C9.17188 6.25097 9.17188 6.25097 9.17188 6.25098C9.17188 6.25098 9.17188 6.25099 9.17188 6.251C9.17188 6.25101 9.17188 6.25101 9.17188 6.25102C9.17188 6.25103 9.17188 6.25103 9.17188 6.25104C9.17188 6.25105 9.17188 6.25106 9.17188 6.25106C9.17188 6.25107 9.17188 6.25108 9.17188 6.25109C9.17188 6.25109 9.17188 6.2511 9.17188 6.25111C9.17188 6.25112 9.17188 6.25113 9.17188 6.25113C9.17188 6.25114 9.17188 6.25115 9.17188 6.25116C9.17188 6.25116 9.17188 6.25117 9.17188 6.25118C9.17188 6.25119 9.17188 6.25119 9.17188 6.2512C9.17188 6.25121 9.17188 6.25122 9.17188 6.25123C9.17188 6.25124 9.17188 6.25124 9.17188 6.25125C9.17188 6.25126 9.17188 6.25127 9.17188 6.25127C9.17188 6.25129 9.17188 6.25129 9.17188 6.2513C9.17188 6.25131 9.17188 6.25132 9.17188 6.25133C9.17188 6.25134 9.17188 6.25134 9.17188 6.25135C9.17188 6.25136 9.17188 6.25137 9.17188 6.25138C9.17188 6.25138 9.17188 6.2514 9.17188 6.2514C9.17188 6.25141 9.17188 6.25142 9.17188 6.25143C9.17188 6.25144 9.17188 6.25145 9.17188 6.25146C9.17188 6.25146 9.17188 6.25148 9.17188 6.25148C9.17188 6.2515 9.17188 6.2515 9.17188 6.25151C9.17188 6.25152 9.17188 6.25153 9.17188 6.25154C9.17188 6.25155 9.17188 6.25156 9.17188 6.25157C9.17188 6.25158 9.17188 6.25159 9.17188 6.2516C9.17188 6.25161 9.17188 6.25162 9.17188 6.25163C9.17188 6.25164 9.17188 6.25165 9.17188 6.25166C9.17188 6.25167 9.17188 6.25167 9.17188 6.25169C9.17188 6.2517 9.17188 6.25171 9.17188 6.25172C9.17188 6.25172 9.17188 6.25174 9.17188 6.25175C9.17188 6.25175 9.17188 6.25177 9.17188 6.25178C9.17188 6.25179 9.17188 6.2518 9.17188 6.25181C9.17188 6.25182 9.17188 6.25183 9.17188 6.25184C9.17188 6.25185 9.17188 6.25186 9.17188 6.25187C9.17188 6.25188 9.17188 6.25189 9.17188 6.2519C9.17188 6.25191 9.17188 6.25193 9.17188 6.25194C9.17188 6.25195 9.17188 6.25196 9.17188 6.25197C9.17188 6.25198 9.17188 6.25199 9.17188 6.252C9.17188 6.25201 9.17188 6.25203 9.17188 6.25204C9.17188 6.25205 9.17188 6.25206 9.17188 6.25207C9.17188 6.25208 9.17188 6.25209 9.17188 6.25211C9.17188 6.25212 9.17188 6.25213 9.17188 6.25214C9.17188 6.25215 9.17188 6.25216 9.17188 6.25217C9.17188 6.25219 9.17188 6.2522 9.17188 6.25221C9.17188 6.25222 9.17188 6.25224 9.17188 6.25225C9.17188 6.25226 9.17188 6.25227 9.17188 6.25229C9.17188 6.2523 9.17188 6.25231 9.17188 6.25232C9.17188 6.25233 9.17188 6.25235 9.17188 6.25236C9.17188 6.25237 9.17188 6.25238 9.17188 6.2524C9.17188 6.25241 9.17188 6.25242 9.17188 6.25243C9.17188 6.25245 9.17188 6.25246 9.17188 6.25247C9.17188 6.25248 9.17188 6.2525 9.17188 6.25251C9.17188 6.25253 9.17188 6.25254 9.17188 6.25255C9.17188 6.25256 9.17188 6.25257 9.17188 6.25259C9.17188 6.2526 9.17188 6.25262 9.17188 6.25263C9.17188 6.25264 9.17188 6.25266 9.17188 6.25267C9.17188 6.25269 9.17188 6.2527 9.17188 6.25271C9.17188 6.25272 9.17188 6.25274 9.17188 6.25275C9.17188 6.25277 9.17188 6.25278 9.17188 6.25279C9.17188 6.25281 9.17188 6.25282 9.17188 6.25283C9.17188 6.25285 9.17188 6.25286 9.17188 6.25288C9.17188 6.25289 9.17188 6.25291 9.17188 6.25292C9.17188 6.25294 9.17188 6.25295 9.17188 6.25296C9.17188 6.25298 9.17188 6.25299 9.17188 6.25301C9.17188 6.25303 9.17188 6.25304 9.17188 6.25305C9.17188 6.25307 9.17188 6.25308 9.17188 6.2531C9.17188 6.25311 9.17188 6.25313 9.17188 6.25314C9.17188 6.25316 9.17188 6.25317 9.17188 6.25319C9.17188 6.2532 9.17188 6.25322 9.17188 6.25323C9.17188 6.25325 9.17188 6.25327 9.17188 6.25328C9.17188 6.2533 9.17188 6.25331 9.17188 6.25333C9.17188 6.25334 9.17188 6.25336 9.17188 6.25338C9.17188 6.25339 9.17188 6.25341 9.17188 6.25342C9.17188 6.25344 9.17188 6.25346 9.17188 6.25347C9.17188 6.25349 9.17188 6.2535 9.17188 6.25352C9.17188 6.25354 9.17188 6.25355 9.17188 6.25357C9.17188 6.25359 9.17188 6.2536 9.17188 6.25362C9.17188 6.25364 9.17188 6.25365 9.17188 6.25367C9.17188 6.25368 9.17188 6.2537 9.17188 6.25372C9.17188 6.25373 9.17188 6.25375 9.17188 6.25377C9.17188 6.25379 9.17188 6.2538 9.17188 6.25382C9.17188 6.25384 9.17188 6.25386 9.17188 6.25387C9.17188 6.25389 9.17188 6.25391 9.17188 6.25393C9.17188 6.25394 9.17188 6.25396 9.17188 6.25398C9.17188 6.25399 9.17188 6.25401 9.17188 6.25403C9.17188 6.25405 9.17188 6.25407 9.17188 6.25409C9.17188 6.2541 9.17188 6.25412 9.17188 6.25414C9.17188 6.25416 9.17188 6.25418 9.17188 6.25419C9.17188 6.25421 9.17188 6.25423 9.17188 6.25425C9.17188 6.25427 9.17188 6.25429 9.17188 6.25431C9.17188 6.25432 9.17188 6.25434 9.17188 6.25436C9.17188 6.25438 9.17188 6.2544 9.17188 6.25442C9.17188 6.25444 9.17188 6.25446 9.17188 6.25447C9.17188 6.25449 9.17188 6.25451 9.17188 6.25453C9.17188 6.25455 9.17188 6.25457 9.17188 6.25459C9.17188 6.25461 9.17188 6.25463 9.17188 6.25465C9.17188 6.25467 9.17188 6.25469 9.17188 6.25471C9.17188 6.25473 9.17188 6.25475 9.17188 6.25477C9.17188 6.25479 9.17188 6.25481 9.17188 6.25483C9.17188 6.25485 9.17188 6.25487 9.17188 6.25489C9.17188 6.25491 9.17188 6.25493 9.17188 6.25495C9.17188 6.25497 9.17188 6.25499 9.17188 6.25501C9.17188 6.25503 9.17188 6.25505 9.17188 6.25507C9.17188 6.25509 9.17188 6.25512 9.17188 6.25513C9.17188 6.25516 9.17188 6.25518 9.17188 6.2552C9.17188 6.25522 9.17188 6.25524 9.17188 6.25526C9.17188 6.25528 9.17188 6.25531 9.17188 6.25533C9.17188 6.25535 9.17188 6.25537 9.17188 6.25539C9.17188 6.25541 9.17188 6.25544 9.17188 6.25546C9.17188 6.25548 9.17188 6.2555 9.17188 6.25552C9.17188 6.25555 9.17188 6.25557 9.17188 6.25559C9.17188 6.25561 9.17188 6.25563 9.17188 6.25566C9.17188 6.25568 9.17188 6.2557 9.17188 6.25572C9.17188 6.25574 9.17188 6.25577 9.17188 6.25579C9.17188 6.25581 9.17188 6.25584 9.17188 6.25586C9.17188 6.25588 9.17188 6.25591 9.17188 6.25593C9.17188 6.25595 9.17188 6.25597 9.17188 6.256C9.17188 6.25602 9.17188 6.25604 9.17188 6.25607C9.17188 6.25609 9.17188 6.25611 9.17188 6.25614C9.17188 6.25616 9.17188 6.25619 9.17188 6.25621C9.17188 6.25623 9.17188 6.25626 9.17188 6.25628C9.17188 6.25631 9.17188 6.25633 9.17188 6.25635C9.17188 6.25638 9.17188 6.2564 9.17188 6.25643C9.17188 6.25645 9.17188 6.25647 9.17188 6.2565C9.17188 6.25652 9.17188 6.25655 9.17188 6.25657C9.17188 6.2566 9.17188 6.25662 9.17188 6.25665C9.17188 6.25667 9.17188 6.2567 9.17188 6.25672C9.17188 6.25675 9.17188 6.25677 9.17188 6.2568C9.17188 6.25682 9.17188 6.25685 9.17188 6.25687C9.17188 6.2569 9.17188 6.25692 9.17188 6.25695C9.17188 6.25698 9.17188 6.257 9.17188 6.25703C9.17188 6.25705 9.17188 6.25708 9.17188 6.25711C9.17188 6.25713 9.17188 6.25716 9.17188 6.25718C9.17188 6.25721 9.17188 6.25724 9.17188 6.25726C9.17188 6.25729 9.17188 6.25732 9.17188 6.25734C9.17188 6.25737 9.17188 6.2574 9.17188 6.25742C9.17188 6.25745 9.17188 6.25748 9.17188 6.2575C9.17188 6.25753 9.17188 6.25756 9.17188 6.25758C9.17188 6.25761 9.17188 6.25764 9.17188 6.25767C9.17188 6.25769 9.17188 6.25772 9.17188 6.25775C9.17188 6.25778 9.17188 6.2578 9.17188 6.25783C9.17188 6.25786 9.17188 6.25789 9.17188 6.25792C9.17188 6.25794 9.17188 6.25797 9.17188 6.258C9.17188 6.25803 9.17188 6.25806 9.17188 6.25808C9.17188 6.25811 9.17188 6.25814 9.17188 6.25817C9.17188 6.2582 9.17188 6.25823 9.17188 6.25826C9.17188 6.25829 9.17188 6.25831 9.17188 6.25834C9.17188 6.25837 9.17188 6.2584 9.17188 6.25843C9.17188 6.25846 9.17188 6.25849 9.17188 6.25852C9.17188 6.25855 9.17188 6.25858 9.17188 6.25861C9.17188 6.25864 9.17188 6.25867 9.17188 6.25869C9.17188 6.25872 9.17188 6.25875 9.17188 6.25879C9.17188 6.25882 9.17188 6.25885 9.17188 6.25888C9.17188 6.2589 9.17188 6.25893 9.17188 6.25896C9.17188 6.259 9.17188 6.25903 9.17188 6.25906C9.17188 6.25909 9.17188 6.25912 9.17188 6.25915C9.17188 6.25918 9.17188 6.25921 9.17188 6.25924C9.17188 6.25927 9.17188 6.2593 9.17188 6.25933C9.17188 6.25937 9.17188 6.2594 9.17188 6.25943C9.17188 6.25946 9.17188 6.25949 9.17188 6.25953C9.17188 6.25956 9.17188 6.25959 9.17188 6.25962C9.17188 6.25965 9.17188 6.25968 9.17188 6.25972C9.17188 6.25975 9.17188 6.25978 9.17188 6.25981C9.17188 6.25985 9.17188 6.25988 9.17188 6.25991C9.17188 6.25994 9.17188 6.25998 9.17188 6.26001C9.17188 6.26004 9.17188 6.26007 9.17188 6.26011C9.17188 6.26014 9.17188 6.26017 9.17188 6.2602C9.17188 6.26024 9.17188 6.26027 9.17188 6.2603C9.17188 6.26034 9.17188 6.26037 9.17188 6.2604C9.17188 6.26044 9.17188 6.26047 9.17188 6.26051C9.17188 6.26054 9.17188 6.26057 9.17188 6.26061C9.17188 6.26064 9.17188 6.26067 9.17188 6.26071C9.17188 6.26074 9.17188 6.26078 9.17188 6.26081C9.17188 6.26085 9.17188 6.26088 9.17188 6.26092C9.17188 6.26095 9.17188 6.26099 9.17188 6.26102C9.17188 6.26105 9.17188 6.26109 9.17188 6.26112C9.17188 6.26116 9.17188 6.2612 9.17188 6.26123C9.17188 6.26126 9.17188 6.2613 9.17188 6.26134C9.17188 6.26137 9.17188 6.26141 9.17188 6.26144C9.17188 6.26148 9.17188 6.26152 9.17188 6.26155C9.17188 6.26159 9.17188 6.26162 9.17188 6.26166C9.17188 6.2617 9.17188 6.26173 9.17188 6.26177C9.17188 6.26181 9.17188 6.26184 9.17188 6.26188C9.17188 6.26192 9.17188 6.26195 9.17188 6.26199C9.17188 6.26203 9.17188 6.26206 9.17188 6.2621C9.17188 6.26214 9.17188 6.26217 9.17188 6.26221C9.17188 6.26225 9.17188 6.26229 9.17188 6.26233C9.17188 6.26236 9.17188 6.2624 9.17188 6.26244C9.17188 6.26247 9.17188 6.26251 9.17188 6.26255C9.17188 6.26259 9.17188 6.26263 9.17188 6.26266C9.17188 6.2627 9.17188 6.26274 9.17188 6.26278C9.17188 6.26282 9.17188 6.26286 9.17188 6.2629C9.17188 6.26294 9.17188 6.26297 9.17188 6.26301C9.17188 6.26305 9.17188 6.26309 9.17188 6.26313C9.17188 6.26317 9.17188 6.26321 9.17188 6.26325C9.17188 6.26329 9.17188 6.26333 9.17188 6.26337C9.17188 6.2634 9.17188 6.26345 9.17188 6.26348C9.17188 6.26353 9.17188 6.26357 9.17188 6.26361C9.17188 6.26365 9.17188 6.26369 9.17188 6.26373C9.17188 6.26377 9.17188 6.26381 9.17188 6.26385C9.17188 6.26389 9.17188 6.26393 9.17188 6.26397C9.17188 6.26401 9.17188 6.26405 9.17188 6.26409C9.17188 6.26413 9.17188 6.26418 9.17188 6.26422C9.17188 6.26426 9.17188 6.2643 9.17188 6.26434C9.17188 6.26438 9.17188 6.26442 9.17188 6.26447C9.17188 6.26451 9.17188 6.26455 9.17188 6.26459C9.17188 6.26463 9.17188 6.26468 9.17188 6.26472C9.17188 6.26476 9.17188 6.2648 9.17188 6.26485C9.17188 6.26489 9.17188 6.26493 9.17188 6.26497C9.17188 6.26502 9.17188 6.26506 9.17188 6.2651C9.17188 6.26514 9.17188 6.26519 9.17188 6.26523C9.17188 6.26527 9.17188 6.26532 9.17188 6.26536C9.17188 6.26541 9.17188 6.26545 9.17188 6.26549C9.17188 6.26554 9.17188 6.26558 9.17188 6.26562C9.17188 6.26567 9.17188 6.26571 9.17188 6.26576C9.17188 6.2658 9.17188 6.26585 9.17188 6.26589C9.17188 6.26593 9.17188 6.26598 9.17188 6.26603C9.17188 6.26607 9.17188 6.26611 9.17188 6.26616C9.17188 6.2662 9.17188 6.26625 9.17188 6.26629C9.17188 6.26634 9.17188 6.26638 9.17188 6.26643C9.17188 6.26648 9.17188 6.26652 9.17188 6.26657C9.17188 6.26661 9.17188 6.26666 9.17188 6.2667C9.17188 6.26675 9.17188 6.2668 9.17188 6.26684C9.17188 6.26689 9.17188 6.26694 9.17188 6.26698C9.17188 6.26703 9.17188 6.26707 9.17188 6.26712C9.17188 6.26717 9.17188 6.26722 9.17188 6.26727C9.17188 6.26731 9.17188 6.26736 9.17188 6.26741C9.17188 6.26745 9.17188 6.2675 9.17188 6.26755C9.17188 6.26759 9.17188 6.26764 9.17188 6.26769C9.17188 6.26774 9.17188 6.26779 9.17188 6.26783C9.17188 6.26788 9.17188 6.26793 9.17188 6.26798C9.17188 6.26803 9.17188 6.26807 9.17188 6.26812C9.17188 6.26817 9.17188 6.26822 9.17188 6.26827C9.17188 6.26832 9.17188 6.26837 9.17188 6.26842C9.17188 6.26847 9.17188 6.26852 9.17188 6.26857C9.17188 6.26862 9.17188 6.26867 9.17188 6.26871C9.17188 6.26876 9.17188 6.26881 9.17188 6.26886C9.17188 6.26891 9.17188 6.26896 9.17188 6.26901C9.17188 6.26906 9.17188 6.26911 9.17188 6.26917C9.17188 6.26921 9.17188 6.26926 9.17188 6.26931C9.17188 6.26937 9.17188 6.26942 9.17188 6.26947C9.17188 6.26952 9.17188 6.26957 9.17188 6.26962C9.17188 6.26967 9.17188 6.26972 9.17188 6.26978C9.17188 6.26983 9.17188 6.26988 9.17188 6.26993C9.17188 6.26998 9.17188 6.27003 9.17188 6.27008C9.17188 6.27014 9.17188 6.27019 9.17188 6.27024C9.17188 6.27029 9.17188 6.27035 9.17188 6.2704C9.17188 6.27045 9.17188 6.2705 9.17188 6.27056C9.17188 6.27061 9.17188 6.27066 9.17188 6.27072C9.17188 6.27077 9.17188 6.27082 9.17188 6.27088C9.17188 6.27093 9.17188 6.27098 9.17188 6.27104C9.17188 6.27109 9.17188 6.27114 9.17188 6.2712C9.17188 6.27125 9.17188 6.27131 9.17188 6.27136C9.17188 6.27142 9.17188 6.27147 9.17188 6.27152C9.17188 6.27158 9.17188 6.27163 9.17188 6.27169C9.17188 6.27174 9.17188 6.2718 9.17188 6.27185C9.17188 6.27191 9.17188 6.27196 9.17188 6.27202C9.17188 6.27207 9.17188 6.27213 9.17188 6.27219C9.17188 6.27224 9.17188 6.2723 9.17188 6.27235C9.17188 6.27241 9.17188 6.27246 9.17188 6.27252C9.17188 6.27258 9.17188 6.27263 9.17188 6.27269C9.17188 6.27275 9.17188 6.2728 9.17188 6.27286C9.17188 6.27291 9.17188 6.27297 9.17188 6.27303C9.17188 6.27309 9.17188 6.27314 9.17188 6.2732C9.17188 6.27326 9.17188 6.27332 9.17188 6.27337C9.17188 6.27343 9.17188 6.27349 9.17188 6.27354C9.17188 6.27361 9.17188 6.27366 9.17188 6.27372C9.17188 6.27378 9.17188 6.27384 9.17188 6.2739C9.17188 6.27395 9.17188 6.27401 9.17188 6.27407C9.17188 6.27413 9.17188 6.27419 9.17188 6.27425C9.17188 6.27431 9.17188 6.27436 9.17188 6.27443C9.17188 6.27448 9.17188 6.27454 9.17188 6.2746C9.17188 6.27466 9.17188 6.27472 9.17188 6.27478C9.17188 6.27484 9.17188 6.2749 9.17188 6.27496C9.17188 6.27502 9.17188 6.27508 9.17188 6.27514C9.17188 6.2752 9.17188 6.27526 9.17188 6.27533C9.17188 6.27539 9.17188 6.27545 9.17188 6.27551C9.17188 6.27557 9.17188 6.27563 9.17188 6.27569C9.17188 6.27575 9.17188 6.27581 9.17188 6.27588C9.17188 6.27594 9.17188 6.276 9.17188 6.27606C9.17188 6.27612 9.17188 6.27618 9.17188 6.27625C9.17188 6.27631 9.17188 6.27637 9.17188 6.27643C9.17188 6.2765 9.17188 6.27656 9.17188 6.27662C9.17188 6.27668 9.17188 6.27675 9.17188 6.27681C9.17188 6.27687 9.17188 6.27694 9.17188 6.277C9.17188 6.27706 9.17188 6.27713 9.17188 6.27719C9.17188 6.27725 9.17188 6.27732 9.17188 6.27738C9.17188 6.27745 9.17188 6.27751 9.17188 6.27757C9.17188 6.27764 9.17188 6.2777 9.17188 6.27777C9.17188 6.27783 9.17188 6.2779 9.17188 6.27796C9.17188 6.27803 9.17188 6.27809 9.17188 6.27816C9.17188 6.27822 9.17188 6.27829 9.17188 6.27835C9.17188 6.27842 9.17188 6.27848 9.17188 6.27855C9.17188 6.27861 9.17188 6.27868 9.17188 6.27875C9.17188 6.27881 9.17188 6.27888 9.17188 6.27895C9.17188 6.27901 9.17188 6.27908 9.17188 6.27914C9.17188 6.27921 9.17188 6.27928 9.17188 6.27935C9.17188 6.27942 9.17188 6.27948 9.17188 6.27955C9.17188 6.27961 9.17188 6.27968 9.17188 6.27975C9.17188 6.27982 9.17188 6.27988 9.17188 6.27995C9.17188 6.28002 9.17188 6.28009 9.17188 6.28016C9.17188 6.28023 9.17188 6.28029 9.17188 6.28036C9.17188 6.28043 9.17188 6.2805 9.17188 6.28057C9.17188 6.28064 9.17188 6.28071 9.17188 6.28078C9.17188 6.28085 9.17188 6.28091 9.17188 6.28098C9.17188 6.28105 9.17188 6.28112 9.17188 6.28119C9.17188 6.28126 9.17188 6.28133 9.17188 6.2814C9.17188 6.28147 9.17188 6.28154 9.17188 6.28161C9.17188 6.28168 9.17188 6.28175 9.17188 6.28183C9.17188 6.28189 9.17188 6.28197 9.17188 6.28204C9.17188 6.28211 9.17188 6.28218 9.17188 6.28225C9.17188 6.28232 9.17188 6.28239 9.17188 6.28247C9.17188 6.28254 9.17188 6.28261 9.17188 6.28268C9.17188 6.28275 9.17188 6.28283 9.17188 6.2829C9.17188 6.28297 9.17188 6.28304 9.17188 6.28312C9.17188 6.28319 9.17188 6.28326 9.17188 6.28333C9.17188 6.28341 9.17188 6.28348 9.17188 6.28355C9.17188 6.28363 9.17188 6.2837 9.17188 6.28377C9.17188 6.28385 9.17188 6.28392 9.17188 6.28399C9.17188 6.28407 9.17188 6.28414 9.17188 6.28422C9.17188 6.28429 9.17188 6.28437 9.17188 6.28444C9.17188 6.28452 9.17188 6.28459 9.17188 6.28466C9.17188 6.28474 9.17188 6.28481 9.17188 6.28489C9.17188 6.28497 9.17188 6.28504 9.17188 6.28511C9.17188 6.28519 9.17188 6.28527 9.17188 6.28534C9.17188 6.28542 9.17188 6.28549 9.17188 6.28557C9.17188 6.28564 9.17188 6.28572 9.17188 6.2858C9.17188 6.28588 9.17188 6.28595 9.17188 6.28603C9.17188 6.28611 9.17188 6.28618 9.17188 6.28626C9.17188 6.28634 9.17188 6.28642 9.17188 6.28649C9.17188 6.28657 9.17188 6.28665 9.17188 6.28672C9.17188 6.2868 9.17188 6.28688 9.17188 6.28696C9.17188 6.28704 9.17188 6.28711 9.17188 6.28719C9.17188 6.28727 9.17188 6.28735 9.17188 6.28743C9.17188 6.28751 9.17188 6.28759 9.17188 6.28767C9.17188 6.28775 9.17188 6.28783 9.17188 6.2879C9.17188 6.28798 9.17188 6.28806 9.17188 6.28814C9.17188 6.28822 9.17188 6.2883 9.17188 6.28838C9.17188 6.28846 9.17188 6.28854 9.17188 6.28862C9.17188 6.2887 9.17188 6.28878 9.17188 6.28886C9.17188 6.28895 9.17188 6.28903 9.17188 6.28911C9.17188 6.28919 9.17188 6.28927 9.17188 6.28935C9.17188 6.28943 9.17188 6.28952 9.17188 6.2896C9.17188 6.28968 9.17188 6.28976 9.17188 6.28984C9.17188 6.28992 9.17188 6.29001 9.17188 6.29009C9.17188 6.29017 9.17188 6.29026 9.17188 6.29034C9.17188 6.29042 9.17188 6.2905 9.17188 6.29059C9.17188 6.29067 9.17188 6.29075 9.17188 6.29084C9.17188 6.29092 9.17188 6.291 9.17188 6.29109C9.17188 6.29117 9.17188 6.29126 9.17188 6.29134C9.17188 6.29142 9.17188 6.29151 9.17188 6.2916C9.17188 6.29168 9.17188 6.29176 9.17188 6.29185C9.17188 6.29193 9.17188 6.29202 9.17188 6.2921C9.17188 6.29219 9.17188 6.29227 9.17188 6.29236C9.17188 6.29245 9.17188 6.29253 9.17188 6.29262C9.17188 6.2927 9.17188 6.29279 9.17188 6.29287C9.17188 6.29296 9.17188 6.29305 9.17188 6.29313C9.17188 6.29322 9.17188 6.29331 9.17188 6.2934C9.17188 6.29348 9.17188 6.29357 9.17188 6.29366C9.17188 6.29374 9.17188 6.29383 9.17188 6.29392C9.17188 6.29401 9.17188 6.29409 9.17188 6.29418C9.17188 6.29427 9.17188 6.29436 9.17188 6.29445C9.17188 6.29453 9.17188 6.29462 9.17188 6.29471C9.17188 6.2948 9.17188 6.29489 9.17188 6.29498C9.17188 6.29507 9.17188 6.29516 9.17188 6.29525C9.17188 6.29533 9.17188 6.29543 9.17188 6.29552C9.17188 6.2956 9.17188 6.2957 9.17188 6.29578C9.17188 6.29588 9.17188 6.29597 9.17188 6.29605C9.17188 6.29615 9.17188 6.29624 9.17188 6.29633C9.17188 6.29642 9.17188 6.29651 9.17188 6.2966C9.17188 6.29669 9.17188 6.29678 9.17188 6.29688H11.1719C11.1719 6.29678 11.1719 6.29669 11.1719 6.2966C11.1719 6.29651 11.1719 6.29642 11.1719 6.29633C11.1719 6.29624 11.1719 6.29615 11.1719 6.29605C11.1719 6.29597 11.1719 6.29588 11.1719 6.29578C11.1719 6.2957 11.1719 6.2956 11.1719 6.29552C11.1719 6.29543 11.1719 6.29533 11.1719 6.29525C11.1719 6.29516 11.1719 6.29507 11.1719 6.29498C11.1719 6.29489 11.1719 6.2948 11.1719 6.29471C11.1719 6.29462 11.1719 6.29453 11.1719 6.29445C11.1719 6.29436 11.1719 6.29427 11.1719 6.29418C11.1719 6.29409 11.1719 6.29401 11.1719 6.29392C11.1719 6.29383 11.1719 6.29374 11.1719 6.29366C11.1719 6.29357 11.1719 6.29348 11.1719 6.2934C11.1719 6.29331 11.1719 6.29322 11.1719 6.29313C11.1719 6.29305 11.1719 6.29296 11.1719 6.29287C11.1719 6.29279 11.1719 6.2927 11.1719 6.29262C11.1719 6.29253 11.1719 6.29245 11.1719 6.29236C11.1719 6.29227 11.1719 6.29219 11.1719 6.2921C11.1719 6.29202 11.1719 6.29193 11.1719 6.29185C11.1719 6.29176 11.1719 6.29168 11.1719 6.2916C11.1719 6.29151 11.1719 6.29142 11.1719 6.29134C11.1719 6.29126 11.1719 6.29117 11.1719 6.29109C11.1719 6.291 11.1719 6.29092 11.1719 6.29084C11.1719 6.29075 11.1719 6.29067 11.1719 6.29059C11.1719 6.2905 11.1719 6.29042 11.1719 6.29034C11.1719 6.29026 11.1719 6.29017 11.1719 6.29009C11.1719 6.29001 11.1719 6.28992 11.1719 6.28984C11.1719 6.28976 11.1719 6.28968 11.1719 6.2896C11.1719 6.28952 11.1719 6.28943 11.1719 6.28935C11.1719 6.28927 11.1719 6.28919 11.1719 6.28911C11.1719 6.28903 11.1719 6.28895 11.1719 6.28886C11.1719 6.28878 11.1719 6.2887 11.1719 6.28862C11.1719 6.28854 11.1719 6.28846 11.1719 6.28838C11.1719 6.2883 11.1719 6.28822 11.1719 6.28814C11.1719 6.28806 11.1719 6.28798 11.1719 6.2879C11.1719 6.28783 11.1719 6.28775 11.1719 6.28767C11.1719 6.28759 11.1719 6.28751 11.1719 6.28743C11.1719 6.28735 11.1719 6.28727 11.1719 6.28719C11.1719 6.28711 11.1719 6.28704 11.1719 6.28696C11.1719 6.28688 11.1719 6.2868 11.1719 6.28672C11.1719 6.28665 11.1719 6.28657 11.1719 6.28649C11.1719 6.28642 11.1719 6.28634 11.1719 6.28626C11.1719 6.28618 11.1719 6.28611 11.1719 6.28603C11.1719 6.28595 11.1719 6.28588 11.1719 6.2858C11.1719 6.28572 11.1719 6.28564 11.1719 6.28557C11.1719 6.28549 11.1719 6.28542 11.1719 6.28534C11.1719 6.28527 11.1719 6.28519 11.1719 6.28511C11.1719 6.28504 11.1719 6.28497 11.1719 6.28489C11.1719 6.28481 11.1719 6.28474 11.1719 6.28466C11.1719 6.28459 11.1719 6.28452 11.1719 6.28444C11.1719 6.28437 11.1719 6.28429 11.1719 6.28422C11.1719 6.28414 11.1719 6.28407 11.1719 6.28399C11.1719 6.28392 11.1719 6.28385 11.1719 6.28377C11.1719 6.2837 11.1719 6.28363 11.1719 6.28355C11.1719 6.28348 11.1719 6.28341 11.1719 6.28333C11.1719 6.28326 11.1719 6.28319 11.1719 6.28312C11.1719 6.28304 11.1719 6.28297 11.1719 6.2829C11.1719 6.28283 11.1719 6.28275 11.1719 6.28268C11.1719 6.28261 11.1719 6.28254 11.1719 6.28247C11.1719 6.28239 11.1719 6.28232 11.1719 6.28225C11.1719 6.28218 11.1719 6.28211 11.1719 6.28204C11.1719 6.28197 11.1719 6.28189 11.1719 6.28183C11.1719 6.28175 11.1719 6.28168 11.1719 6.28161C11.1719 6.28154 11.1719 6.28147 11.1719 6.2814C11.1719 6.28133 11.1719 6.28126 11.1719 6.28119C11.1719 6.28112 11.1719 6.28105 11.1719 6.28098C11.1719 6.28091 11.1719 6.28085 11.1719 6.28078C11.1719 6.28071 11.1719 6.28064 11.1719 6.28057C11.1719 6.2805 11.1719 6.28043 11.1719 6.28036C11.1719 6.28029 11.1719 6.28023 11.1719 6.28016C11.1719 6.28009 11.1719 6.28002 11.1719 6.27995C11.1719 6.27988 11.1719 6.27982 11.1719 6.27975C11.1719 6.27968 11.1719 6.27961 11.1719 6.27955C11.1719 6.27948 11.1719 6.27942 11.1719 6.27935C11.1719 6.27928 11.1719 6.27921 11.1719 6.27914C11.1719 6.27908 11.1719 6.27901 11.1719 6.27895C11.1719 6.27888 11.1719 6.27881 11.1719 6.27875C11.1719 6.27868 11.1719 6.27861 11.1719 6.27855C11.1719 6.27848 11.1719 6.27842 11.1719 6.27835C11.1719 6.27829 11.1719 6.27822 11.1719 6.27816C11.1719 6.27809 11.1719 6.27803 11.1719 6.27796C11.1719 6.2779 11.1719 6.27783 11.1719 6.27777C11.1719 6.2777 11.1719 6.27764 11.1719 6.27757C11.1719 6.27751 11.1719 6.27745 11.1719 6.27738C11.1719 6.27732 11.1719 6.27725 11.1719 6.27719C11.1719 6.27713 11.1719 6.27706 11.1719 6.277C11.1719 6.27694 11.1719 6.27687 11.1719 6.27681C11.1719 6.27675 11.1719 6.27668 11.1719 6.27662C11.1719 6.27656 11.1719 6.2765 11.1719 6.27643C11.1719 6.27637 11.1719 6.27631 11.1719 6.27625C11.1719 6.27618 11.1719 6.27612 11.1719 6.27606C11.1719 6.276 11.1719 6.27594 11.1719 6.27588C11.1719 6.27581 11.1719 6.27575 11.1719 6.27569C11.1719 6.27563 11.1719 6.27557 11.1719 6.27551C11.1719 6.27545 11.1719 6.27539 11.1719 6.27533C11.1719 6.27526 11.1719 6.2752 11.1719 6.27514C11.1719 6.27508 11.1719 6.27502 11.1719 6.27496C11.1719 6.2749 11.1719 6.27484 11.1719 6.27478C11.1719 6.27472 11.1719 6.27466 11.1719 6.2746C11.1719 6.27454 11.1719 6.27448 11.1719 6.27443C11.1719 6.27436 11.1719 6.27431 11.1719 6.27425C11.1719 6.27419 11.1719 6.27413 11.1719 6.27407C11.1719 6.27401 11.1719 6.27395 11.1719 6.2739C11.1719 6.27384 11.1719 6.27378 11.1719 6.27372C11.1719 6.27366 11.1719 6.27361 11.1719 6.27354C11.1719 6.27349 11.1719 6.27343 11.1719 6.27337C11.1719 6.27332 11.1719 6.27326 11.1719 6.2732C11.1719 6.27314 11.1719 6.27309 11.1719 6.27303C11.1719 6.27297 11.1719 6.27291 11.1719 6.27286C11.1719 6.2728 11.1719 6.27275 11.1719 6.27269C11.1719 6.27263 11.1719 6.27258 11.1719 6.27252C11.1719 6.27246 11.1719 6.27241 11.1719 6.27235C11.1719 6.2723 11.1719 6.27224 11.1719 6.27219C11.1719 6.27213 11.1719 6.27207 11.1719 6.27202C11.1719 6.27196 11.1719 6.27191 11.1719 6.27185C11.1719 6.2718 11.1719 6.27174 11.1719 6.27169C11.1719 6.27163 11.1719 6.27158 11.1719 6.27152C11.1719 6.27147 11.1719 6.27142 11.1719 6.27136C11.1719 6.27131 11.1719 6.27125 11.1719 6.2712C11.1719 6.27114 11.1719 6.27109 11.1719 6.27104C11.1719 6.27098 11.1719 6.27093 11.1719 6.27088C11.1719 6.27082 11.1719 6.27077 11.1719 6.27072C11.1719 6.27066 11.1719 6.27061 11.1719 6.27056C11.1719 6.2705 11.1719 6.27045 11.1719 6.2704C11.1719 6.27035 11.1719 6.27029 11.1719 6.27024C11.1719 6.27019 11.1719 6.27014 11.1719 6.27008C11.1719 6.27003 11.1719 6.26998 11.1719 6.26993C11.1719 6.26988 11.1719 6.26983 11.1719 6.26978C11.1719 6.26972 11.1719 6.26967 11.1719 6.26962C11.1719 6.26957 11.1719 6.26952 11.1719 6.26947C11.1719 6.26942 11.1719 6.26937 11.1719 6.26931C11.1719 6.26926 11.1719 6.26921 11.1719 6.26917C11.1719 6.26911 11.1719 6.26906 11.1719 6.26901C11.1719 6.26896 11.1719 6.26891 11.1719 6.26886C11.1719 6.26881 11.1719 6.26876 11.1719 6.26871C11.1719 6.26867 11.1719 6.26862 11.1719 6.26857C11.1719 6.26852 11.1719 6.26847 11.1719 6.26842C11.1719 6.26837 11.1719 6.26832 11.1719 6.26827C11.1719 6.26822 11.1719 6.26817 11.1719 6.26812C11.1719 6.26807 11.1719 6.26803 11.1719 6.26798C11.1719 6.26793 11.1719 6.26788 11.1719 6.26783C11.1719 6.26779 11.1719 6.26774 11.1719 6.26769C11.1719 6.26764 11.1719 6.26759 11.1719 6.26755C11.1719 6.2675 11.1719 6.26745 11.1719 6.26741C11.1719 6.26736 11.1719 6.26731 11.1719 6.26727C11.1719 6.26722 11.1719 6.26717 11.1719 6.26712C11.1719 6.26707 11.1719 6.26703 11.1719 6.26698C11.1719 6.26694 11.1719 6.26689 11.1719 6.26684C11.1719 6.2668 11.1719 6.26675 11.1719 6.2667C11.1719 6.26666 11.1719 6.26661 11.1719 6.26657C11.1719 6.26652 11.1719 6.26648 11.1719 6.26643C11.1719 6.26638 11.1719 6.26634 11.1719 6.26629C11.1719 6.26625 11.1719 6.2662 11.1719 6.26616C11.1719 6.26611 11.1719 6.26607 11.1719 6.26603C11.1719 6.26598 11.1719 6.26593 11.1719 6.26589C11.1719 6.26585 11.1719 6.2658 11.1719 6.26576C11.1719 6.26571 11.1719 6.26567 11.1719 6.26562C11.1719 6.26558 11.1719 6.26554 11.1719 6.26549C11.1719 6.26545 11.1719 6.26541 11.1719 6.26536C11.1719 6.26532 11.1719 6.26527 11.1719 6.26523C11.1719 6.26519 11.1719 6.26514 11.1719 6.2651C11.1719 6.26506 11.1719 6.26502 11.1719 6.26497C11.1719 6.26493 11.1719 6.26489 11.1719 6.26485C11.1719 6.2648 11.1719 6.26476 11.1719 6.26472C11.1719 6.26468 11.1719 6.26463 11.1719 6.26459C11.1719 6.26455 11.1719 6.26451 11.1719 6.26447C11.1719 6.26442 11.1719 6.26438 11.1719 6.26434C11.1719 6.2643 11.1719 6.26426 11.1719 6.26422C11.1719 6.26418 11.1719 6.26413 11.1719 6.26409C11.1719 6.26405 11.1719 6.26401 11.1719 6.26397C11.1719 6.26393 11.1719 6.26389 11.1719 6.26385C11.1719 6.26381 11.1719 6.26377 11.1719 6.26373C11.1719 6.26369 11.1719 6.26365 11.1719 6.26361C11.1719 6.26357 11.1719 6.26353 11.1719 6.26348C11.1719 6.26345 11.1719 6.2634 11.1719 6.26337C11.1719 6.26333 11.1719 6.26329 11.1719 6.26325C11.1719 6.26321 11.1719 6.26317 11.1719 6.26313C11.1719 6.26309 11.1719 6.26305 11.1719 6.26301C11.1719 6.26297 11.1719 6.26294 11.1719 6.2629C11.1719 6.26286 11.1719 6.26282 11.1719 6.26278C11.1719 6.26274 11.1719 6.2627 11.1719 6.26266C11.1719 6.26263 11.1719 6.26259 11.1719 6.26255C11.1719 6.26251 11.1719 6.26247 11.1719 6.26244C11.1719 6.2624 11.1719 6.26236 11.1719 6.26233C11.1719 6.26229 11.1719 6.26225 11.1719 6.26221C11.1719 6.26217 11.1719 6.26214 11.1719 6.2621C11.1719 6.26206 11.1719 6.26203 11.1719 6.26199C11.1719 6.26195 11.1719 6.26192 11.1719 6.26188C11.1719 6.26184 11.1719 6.26181 11.1719 6.26177C11.1719 6.26173 11.1719 6.2617 11.1719 6.26166C11.1719 6.26162 11.1719 6.26159 11.1719 6.26155C11.1719 6.26152 11.1719 6.26148 11.1719 6.26144C11.1719 6.26141 11.1719 6.26137 11.1719 6.26134C11.1719 6.2613 11.1719 6.26126 11.1719 6.26123C11.1719 6.2612 11.1719 6.26116 11.1719 6.26112C11.1719 6.26109 11.1719 6.26105 11.1719 6.26102C11.1719 6.26099 11.1719 6.26095 11.1719 6.26092C11.1719 6.26088 11.1719 6.26085 11.1719 6.26081C11.1719 6.26078 11.1719 6.26074 11.1719 6.26071C11.1719 6.26067 11.1719 6.26064 11.1719 6.26061C11.1719 6.26057 11.1719 6.26054 11.1719 6.26051C11.1719 6.26047 11.1719 6.26044 11.1719 6.2604C11.1719 6.26037 11.1719 6.26034 11.1719 6.2603C11.1719 6.26027 11.1719 6.26024 11.1719 6.2602C11.1719 6.26017 11.1719 6.26014 11.1719 6.26011C11.1719 6.26007 11.1719 6.26004 11.1719 6.26001C11.1719 6.25998 11.1719 6.25994 11.1719 6.25991C11.1719 6.25988 11.1719 6.25985 11.1719 6.25981C11.1719 6.25978 11.1719 6.25975 11.1719 6.25972C11.1719 6.25968 11.1719 6.25965 11.1719 6.25962C11.1719 6.25959 11.1719 6.25956 11.1719 6.25953C11.1719 6.25949 11.1719 6.25946 11.1719 6.25943C11.1719 6.2594 11.1719 6.25937 11.1719 6.25933C11.1719 6.2593 11.1719 6.25927 11.1719 6.25924C11.1719 6.25921 11.1719 6.25918 11.1719 6.25915C11.1719 6.25912 11.1719 6.25909 11.1719 6.25906C11.1719 6.25903 11.1719 6.259 11.1719 6.25896C11.1719 6.25893 11.1719 6.2589 11.1719 6.25888C11.1719 6.25885 11.1719 6.25882 11.1719 6.25879C11.1719 6.25875 11.1719 6.25872 11.1719 6.25869C11.1719 6.25867 11.1719 6.25864 11.1719 6.25861C11.1719 6.25858 11.1719 6.25855 11.1719 6.25852C11.1719 6.25849 11.1719 6.25846 11.1719 6.25843C11.1719 6.2584 11.1719 6.25837 11.1719 6.25834C11.1719 6.25831 11.1719 6.25829 11.1719 6.25826C11.1719 6.25823 11.1719 6.2582 11.1719 6.25817C11.1719 6.25814 11.1719 6.25811 11.1719 6.25808C11.1719 6.25806 11.1719 6.25803 11.1719 6.258C11.1719 6.25797 11.1719 6.25794 11.1719 6.25792C11.1719 6.25789 11.1719 6.25786 11.1719 6.25783C11.1719 6.2578 11.1719 6.25778 11.1719 6.25775C11.1719 6.25772 11.1719 6.25769 11.1719 6.25767C11.1719 6.25764 11.1719 6.25761 11.1719 6.25758C11.1719 6.25756 11.1719 6.25753 11.1719 6.2575C11.1719 6.25748 11.1719 6.25745 11.1719 6.25742C11.1719 6.2574 11.1719 6.25737 11.1719 6.25734C11.1719 6.25732 11.1719 6.25729 11.1719 6.25726C11.1719 6.25724 11.1719 6.25721 11.1719 6.25718C11.1719 6.25716 11.1719 6.25713 11.1719 6.25711C11.1719 6.25708 11.1719 6.25705 11.1719 6.25703C11.1719 6.257 11.1719 6.25698 11.1719 6.25695C11.1719 6.25692 11.1719 6.2569 11.1719 6.25687C11.1719 6.25685 11.1719 6.25682 11.1719 6.2568C11.1719 6.25677 11.1719 6.25675 11.1719 6.25672C11.1719 6.2567 11.1719 6.25667 11.1719 6.25665C11.1719 6.25662 11.1719 6.2566 11.1719 6.25657C11.1719 6.25655 11.1719 6.25652 11.1719 6.2565C11.1719 6.25647 11.1719 6.25645 11.1719 6.25643C11.1719 6.2564 11.1719 6.25638 11.1719 6.25635C11.1719 6.25633 11.1719 6.25631 11.1719 6.25628C11.1719 6.25626 11.1719 6.25623 11.1719 6.25621C11.1719 6.25619 11.1719 6.25616 11.1719 6.25614C11.1719 6.25611 11.1719 6.25609 11.1719 6.25607C11.1719 6.25604 11.1719 6.25602 11.1719 6.256C11.1719 6.25597 11.1719 6.25595 11.1719 6.25593C11.1719 6.25591 11.1719 6.25588 11.1719 6.25586C11.1719 6.25584 11.1719 6.25581 11.1719 6.25579C11.1719 6.25577 11.1719 6.25574 11.1719 6.25572C11.1719 6.2557 11.1719 6.25568 11.1719 6.25566C11.1719 6.25563 11.1719 6.25561 11.1719 6.25559C11.1719 6.25557 11.1719 6.25555 11.1719 6.25552C11.1719 6.2555 11.1719 6.25548 11.1719 6.25546C11.1719 6.25544 11.1719 6.25541 11.1719 6.25539C11.1719 6.25537 11.1719 6.25535 11.1719 6.25533C11.1719 6.25531 11.1719 6.25528 11.1719 6.25526C11.1719 6.25524 11.1719 6.25522 11.1719 6.2552C11.1719 6.25518 11.1719 6.25516 11.1719 6.25513C11.1719 6.25512 11.1719 6.25509 11.1719 6.25507C11.1719 6.25505 11.1719 6.25503 11.1719 6.25501C11.1719 6.25499 11.1719 6.25497 11.1719 6.25495C11.1719 6.25493 11.1719 6.25491 11.1719 6.25489C11.1719 6.25487 11.1719 6.25485 11.1719 6.25483C11.1719 6.25481 11.1719 6.25479 11.1719 6.25477C11.1719 6.25475 11.1719 6.25473 11.1719 6.25471C11.1719 6.25469 11.1719 6.25467 11.1719 6.25465C11.1719 6.25463 11.1719 6.25461 11.1719 6.25459C11.1719 6.25457 11.1719 6.25455 11.1719 6.25453C11.1719 6.25451 11.1719 6.25449 11.1719 6.25447C11.1719 6.25446 11.1719 6.25444 11.1719 6.25442C11.1719 6.2544 11.1719 6.25438 11.1719 6.25436C11.1719 6.25434 11.1719 6.25432 11.1719 6.25431C11.1719 6.25429 11.1719 6.25427 11.1719 6.25425C11.1719 6.25423 11.1719 6.25421 11.1719 6.25419C11.1719 6.25418 11.1719 6.25416 11.1719 6.25414C11.1719 6.25412 11.1719 6.2541 11.1719 6.25409C11.1719 6.25407 11.1719 6.25405 11.1719 6.25403C11.1719 6.25401 11.1719 6.25399 11.1719 6.25398C11.1719 6.25396 11.1719 6.25394 11.1719 6.25393C11.1719 6.25391 11.1719 6.25389 11.1719 6.25387C11.1719 6.25386 11.1719 6.25384 11.1719 6.25382C11.1719 6.2538 11.1719 6.25379 11.1719 6.25377C11.1719 6.25375 11.1719 6.25373 11.1719 6.25372C11.1719 6.2537 11.1719 6.25368 11.1719 6.25367C11.1719 6.25365 11.1719 6.25364 11.1719 6.25362C11.1719 6.2536 11.1719 6.25359 11.1719 6.25357C11.1719 6.25355 11.1719 6.25354 11.1719 6.25352C11.1719 6.2535 11.1719 6.25349 11.1719 6.25347C11.1719 6.25346 11.1719 6.25344 11.1719 6.25342C11.1719 6.25341 11.1719 6.25339 11.1719 6.25338C11.1719 6.25336 11.1719 6.25334 11.1719 6.25333C11.1719 6.25331 11.1719 6.2533 11.1719 6.25328C11.1719 6.25327 11.1719 6.25325 11.1719 6.25323C11.1719 6.25322 11.1719 6.2532 11.1719 6.25319C11.1719 6.25317 11.1719 6.25316 11.1719 6.25314C11.1719 6.25313 11.1719 6.25311 11.1719 6.2531C11.1719 6.25308 11.1719 6.25307 11.1719 6.25305C11.1719 6.25304 11.1719 6.25303 11.1719 6.25301C11.1719 6.25299 11.1719 6.25298 11.1719 6.25296C11.1719 6.25295 11.1719 6.25294 11.1719 6.25292C11.1719 6.25291 11.1719 6.25289 11.1719 6.25288C11.1719 6.25286 11.1719 6.25285 11.1719 6.25283C11.1719 6.25282 11.1719 6.25281 11.1719 6.25279C11.1719 6.25278 11.1719 6.25277 11.1719 6.25275C11.1719 6.25274 11.1719 6.25272 11.1719 6.25271C11.1719 6.2527 11.1719 6.25269 11.1719 6.25267C11.1719 6.25266 11.1719 6.25264 11.1719 6.25263C11.1719 6.25262 11.1719 6.2526 11.1719 6.25259C11.1719 6.25257 11.1719 6.25256 11.1719 6.25255C11.1719 6.25254 11.1719 6.25253 11.1719 6.25251C11.1719 6.2525 11.1719 6.25248 11.1719 6.25247C11.1719 6.25246 11.1719 6.25245 11.1719 6.25243C11.1719 6.25242 11.1719 6.25241 11.1719 6.2524C11.1719 6.25238 11.1719 6.25237 11.1719 6.25236C11.1719 6.25235 11.1719 6.25233 11.1719 6.25232C11.1719 6.25231 11.1719 6.2523 11.1719 6.25229C11.1719 6.25227 11.1719 6.25226 11.1719 6.25225C11.1719 6.25224 11.1719 6.25222 11.1719 6.25221C11.1719 6.2522 11.1719 6.25219 11.1719 6.25217C11.1719 6.25216 11.1719 6.25215 11.1719 6.25214C11.1719 6.25213 11.1719 6.25212 11.1719 6.25211C11.1719 6.25209 11.1719 6.25208 11.1719 6.25207C11.1719 6.25206 11.1719 6.25205 11.1719 6.25204C11.1719 6.25203 11.1719 6.25201 11.1719 6.252C11.1719 6.25199 11.1719 6.25198 11.1719 6.25197C11.1719 6.25196 11.1719 6.25195 11.1719 6.25194C11.1719 6.25193 11.1719 6.25191 11.1719 6.2519C11.1719 6.25189 11.1719 6.25188 11.1719 6.25187C11.1719 6.25186 11.1719 6.25185 11.1719 6.25184C11.1719 6.25183 11.1719 6.25182 11.1719 6.25181C11.1719 6.2518 11.1719 6.25179 11.1719 6.25178C11.1719 6.25177 11.1719 6.25175 11.1719 6.25175C11.1719 6.25174 11.1719 6.25172 11.1719 6.25172C11.1719 6.25171 11.1719 6.2517 11.1719 6.25169C11.1719 6.25167 11.1719 6.25167 11.1719 6.25166C11.1719 6.25165 11.1719 6.25164 11.1719 6.25163C11.1719 6.25162 11.1719 6.25161 11.1719 6.2516C11.1719 6.25159 11.1719 6.25158 11.1719 6.25157C11.1719 6.25156 11.1719 6.25155 11.1719 6.25154C11.1719 6.25153 11.1719 6.25152 11.1719 6.25151C11.1719 6.2515 11.1719 6.2515 11.1719 6.25148C11.1719 6.25148 11.1719 6.25146 11.1719 6.25146C11.1719 6.25145 11.1719 6.25144 11.1719 6.25143C11.1719 6.25142 11.1719 6.25141 11.1719 6.2514C11.1719 6.2514 11.1719 6.25138 11.1719 6.25138C11.1719 6.25137 11.1719 6.25136 11.1719 6.25135C11.1719 6.25134 11.1719 6.25134 11.1719 6.25133C11.1719 6.25132 11.1719 6.25131 11.1719 6.2513C11.1719 6.25129 11.1719 6.25129 11.1719 6.25127C11.1719 6.25127 11.1719 6.25126 11.1719 6.25125C11.1719 6.25124 11.1719 6.25124 11.1719 6.25123C11.1719 6.25122 11.1719 6.25121 11.1719 6.2512C11.1719 6.25119 11.1719 6.25119 11.1719 6.25118C11.1719 6.25117 11.1719 6.25116 11.1719 6.25116C11.1719 6.25115 11.1719 6.25114 11.1719 6.25113C11.1719 6.25113 11.1719 6.25112 11.1719 6.25111C11.1719 6.2511 11.1719 6.25109 11.1719 6.25109C11.1719 6.25108 11.1719 6.25107 11.1719 6.25106C11.1719 6.25106 11.1719 6.25105 11.1719 6.25104C11.1719 6.25103 11.1719 6.25103 11.1719 6.25102C11.1719 6.25101 11.1719 6.25101 11.1719 6.251C11.1719 6.25099 11.1719 6.25098 11.1719 6.25098C11.1719 6.25097 11.1719 6.25097 11.1719 6.25096C11.1719 6.25095 11.1719 6.25095 11.1719 6.25094C11.1719 6.25093 11.1719 6.25092 11.1719 6.25092C11.1719 6.25091 11.1719 6.2509 11.1719 6.2509C11.1719 6.25089 11.1719 6.25089 11.1719 6.25088C11.1719 6.25087 11.1719 6.25087 11.1719 6.25086C11.1719 6.25085 11.1719 6.25085 11.1719 6.25084C11.1719 6.25084 11.1719 6.25083 11.1719 6.25082C11.1719 6.25082 11.1719 6.25081 11.1719 6.2508C11.1719 6.2508 11.1719 6.25079 11.1719 6.25079C11.1719 6.25078 11.1719 6.25077 11.1719 6.25077C11.1719 6.25076 11.1719 6.25076 11.1719 6.25075C11.1719 6.25074 11.1719 6.25074 11.1719 6.25073C11.1719 6.25072 11.1719 6.25072 11.1719 6.25072C11.1719 6.25071 11.1719 6.25071 11.1719 6.2507C11.1719 6.25069 11.1719 6.25069 11.1719 6.25068C11.1719 6.25068 11.1719 6.25067 11.1719 6.25067C11.1719 6.25066 11.1719 6.25066 11.1719 6.25065C11.1719 6.25064 11.1719 6.25064 11.1719 6.25063C11.1719 6.25063 11.1719 6.25063 11.1719 6.25062C11.1719 6.25061 11.1719 6.25061 11.1719 6.2506C11.1719 6.2506 11.1719 6.2506 11.1719 6.25059C11.1719 6.25058 11.1719 6.25058 11.1719 6.25057C11.1719 6.25057 11.1719 6.25056 11.1719 6.25056C11.1719 6.25055 11.1719 6.25055 11.1719 6.25055C11.1719 6.25054 11.1719 6.25053 11.1719 6.25053C11.1719 6.25053 11.1719 6.25052 11.1719 6.25052C11.1719 6.25051 11.1719 6.25051 11.1719 6.2505C11.1719 6.2505 11.1719 6.2505 11.1719 6.25049C11.1719 6.25048 11.1719 6.25048 11.1719 6.25048C11.1719 6.25047 11.1719 6.25047 11.1719 6.25047C11.1719 6.25046 11.1719 6.25046 11.1719 6.25045C11.1719 6.25045 11.1719 6.25044 11.1719 6.25044C11.1719 6.25043 11.1719 6.25043 11.1719 6.25043C11.1719 6.25042 11.1719 6.25042 11.1719 6.25042C11.1719 6.25041 11.1719 6.25041 11.1719 6.2504C11.1719 6.2504 11.1719 6.2504 11.1719 6.25039C11.1719 6.25039 11.1719 6.25039 11.1719 6.25038C11.1719 6.25038 11.1719 6.25037 11.1719 6.25037C11.1719 6.25037 11.1719 6.25036 11.1719 6.25036C11.1719 6.25035 11.1719 6.25035 11.1719 6.25035C11.1719 6.25035 11.1719 6.25034 11.1719 6.25034C11.1719 6.25034 11.1719 6.25033 11.1719 6.25033C11.1719 6.25032 11.1719 6.25032 11.1719 6.25032C11.1719 6.25032 11.1719 6.25031 11.1719 6.25031C11.1719 6.25031 11.1719 6.2503 11.1719 6.2503C11.1719 6.2503 11.1719 6.25029 11.1719 6.25029C11.1719 6.25029 11.1719 6.25028 11.1719 6.25028C11.1719 6.25028 11.1719 6.25027 11.1719 6.25027C11.1719 6.25027 11.1719 6.25027 11.1719 6.25026C11.1719 6.25026 11.1719 6.25026 11.1719 6.25026C11.1719 6.25025 11.1719 6.25025 11.1719 6.25025C11.1719 6.25024 11.1719 6.25024 11.1719 6.25024C11.1719 6.25024 11.1719 6.25023 11.1719 6.25023C11.1719 6.25023 11.1719 6.25023 11.1719 6.25022C11.1719 6.25022 11.1719 6.25022 11.1719 6.25021C11.1719 6.25021 11.1719 6.25021 11.1719 6.25021C11.1719 6.25021 11.1719 6.2502 11.1719 6.2502C11.1719 6.2502 11.1719 6.25019 11.1719 6.25019V6.25019C11.1719 6.25018 11.1719 6.25018 11.1719 6.25018C11.1719 6.25018 11.1719 6.25018 11.1719 6.25017C11.1719 6.25017 11.1719 6.25017 11.1719 6.25016V6.25016C11.1719 6.25016 11.1719 6.25016 11.1719 6.25015V6.25015C11.1719 6.25014 11.1719 6.25014 11.1719 6.25014V6.25014C11.1719 6.25013 11.1719 6.25013 11.1719 6.25013V6.25013C11.1719 6.25012 11.1719 6.25012 11.1719 6.25012C11.1719 6.25012 11.1719 6.25012 11.1719 6.25011V6.25011C11.1719 6.25011 11.1719 6.25011 11.1719 6.25011C11.1719 6.2501 11.1719 6.2501 11.1719 6.2501C11.1719 6.2501 11.1719 6.2501 11.1719 6.2501V6.25009V6.25009V6.25008C11.1719 6.25008 11.1719 6.25008 11.1719 6.25008C11.1719 6.25008 11.1719 6.25008 11.1719 6.25008C11.1719 6.25007 11.1719 6.25007 11.1719 6.25007C11.1719 6.25007 11.1719 6.25007 11.1719 6.25007V6.25006V6.25006C11.1719 6.25006 11.1719 6.25006 11.1719 6.25006C11.1719 6.25006 11.1719 6.25006 11.1719 6.25005C11.1719 6.25005 11.1719 6.25005 11.1719 6.25005V6.25005C11.1719 6.25005 11.1719 6.25005 11.1719 6.25004V6.25004C11.1719 6.25003 11.1719 6.25003 11.1719 6.25003C11.1719 6.25003 11.1719 6.25003 11.1719 6.25003V6.25003V6.25002C11.1719 6.25002 11.1719 6.25002 11.1719 6.25002V6.25002C11.1719 6.25001 11.1719 6.25001 11.1719 6.25001C11.1719 6.25001 11.1719 6.25001 11.1719 6.25001V6.25V6.25H10.1719ZM9.47084 5.58375C6.30757 8.69341 6.26078 13.8312 9.46477 17.0352L10.879 15.621C8.45797 13.2 8.50493 9.33784 10.8729 7.01L9.47084 5.58375ZM9.46477 17.0352C9.78233 17.3528 10.1523 17.6702 10.5281 17.9387L11.6906 16.3113C11.4102 16.111 11.1239 15.866 10.879 15.621L9.46477 17.0352ZM10.5281 17.9387C11.2688 18.4678 12.145 18.3371 12.7339 17.8463L11.4536 16.3099C11.4551 16.3086 11.4865 16.2841 11.5503 16.2797C11.5816 16.2776 11.613 16.2811 11.6411 16.2892C11.6692 16.2974 11.6857 16.3077 11.6906 16.3113L10.5281 17.9387ZM12.8009 17.7852L13.7852 16.8009L12.371 15.3866L11.3866 16.371L12.8009 17.7852ZM13.8255 16.7581C14.3549 16.1626 14.6406 15.4135 14.6406 14.6875H12.6406C12.6406 14.899 12.5514 15.1811 12.3307 15.4294L13.8255 16.7581ZM14.6406 14.6875C14.6406 13.997 14.2652 13.5426 13.9125 13.2781L12.7125 14.8781C12.7341 14.8943 12.7119 14.8829 12.6849 14.8371C12.671 14.8135 12.6589 14.7856 12.6507 14.7555C12.6425 14.7255 12.6406 14.7016 12.6406 14.6875H14.6406ZM13.8672 13.2461C13.7551 13.1713 13.5933 13.0504 13.3969 12.9031L12.1969 14.5031C12.3755 14.6371 12.5887 14.7974 12.7578 14.9102L13.8672 13.2461ZM13.5163 13.0085C12.5712 12.0297 12.5887 10.5443 13.504 9.62898L12.0898 8.21477C10.38 9.9245 10.3975 12.6578 12.0775 14.3977L13.5163 13.0085ZM13.4987 9.6342L16.6862 6.49358L15.2825 5.06892L12.095 8.20955L13.4987 9.6342ZM16.7038 6.47585C17.6231 5.52368 19.1269 5.52368 20.0462 6.47585L21.485 5.08665C19.7794 3.32007 16.9706 3.32007 15.265 5.08665L16.7038 6.47585ZM20.0585 6.48836C20.9626 7.39244 20.9518 8.91528 20.0116 9.85539L21.4259 11.2696C23.1107 9.58472 23.1936 6.79506 21.4727 5.07414L20.0585 6.48836ZM20.0116 9.85539L19.4023 10.4648L20.8165 11.879L21.4259 11.2696L20.0116 9.85539ZM19.4847 10.391C18.8256 10.9183 18.7914 11.7396 18.9732 12.285L20.8706 11.6525C20.8743 11.6639 20.8815 11.6912 20.8716 11.7391C20.8602 11.7937 20.8227 11.8818 20.7341 11.9527L19.4847 10.391ZM18.9789 12.3016C19.2224 12.9916 19.3497 13.7398 19.3923 14.465L21.3889 14.3475C21.3378 13.479 21.1838 12.5396 20.8649 11.6359L18.9789 12.3016ZM19.3906 14.4062C19.3906 15.9687 21.2754 16.7169 22.3634 15.629L20.9491 14.2148C21.0996 14.0644 21.3906 14.1563 21.3906 14.4062H19.3906ZM22.3634 15.629L24.0977 13.8946L22.6835 12.4804L20.9491 14.2148L22.3634 15.629ZM24.0977 13.8946C27.2539 10.7385 27.2539 5.55842 24.0977 2.40227L22.6835 3.81648C25.0586 6.19158 25.0586 10.1053 22.6835 12.4804L24.0977 13.8946Z" fill="black"/>
</svg>
