<svg width="26" height="26" viewBox="0 0 26 26" fill="none" xmlns="http://www.w3.org/2000/svg">
<path d="M16.2812 9.71875C16 9.4375 15.6719 9.15625 15.3438 8.92188C15.0156 8.6875 14.6406 8.73438 14.3594 8.96875L13.375 9.95312C13 10.375 12.8125 10.8906 12.8125 11.3594C12.8125 11.6406 12.9531 11.8281 13.1406 11.9688C13.2812 12.0625 13.4688 12.2031 13.6562 12.3438C14.9688 13.7031 14.9688 15.8125 13.6562 17.125L10.4688 20.2656C9.15625 21.625 7 21.625 5.6875 20.2656C4.375 18.9531 4.42188 16.7969 5.73438 15.4844L6.34375 14.875C6.57812 14.6875 6.625 14.3594 6.53125 14.0781C6.25 13.2812 6.10938 12.4375 6.0625 11.6406C6.0625 10.9844 5.26562 10.6562 4.79688 11.125L3.0625 12.8594C0.296875 15.625 0.296875 20.1719 3.0625 22.9375C5.82812 25.7031 10.375 25.7031 13.1406 22.9375L16.2812 19.7969C16.2812 19.7969 16.2812 19.7969 16.2812 19.75C19.0469 17.0312 19.0938 12.5312 16.2812 9.71875ZM22.8906 3.10938C20.125 0.34375 15.5781 0.34375 12.8125 3.10938L9.67188 6.25C9.67188 6.25 9.67188 6.25 9.67188 6.29688C6.90625 9.01562 6.85938 13.5156 9.67188 16.3281C9.95312 16.6094 10.2812 16.8906 10.6094 17.125C10.9375 17.3594 11.3125 17.3125 11.5938 17.0781L12.5781 16.0938C12.9531 15.6719 13.1406 15.1562 13.1406 14.6875C13.1406 14.4062 13 14.2188 12.8125 14.0781C12.6719 13.9844 12.4844 13.8438 12.2969 13.7031C10.9844 12.3438 10.9844 10.2344 12.2969 8.92188L15.4844 5.78125C16.7969 4.42188 18.9531 4.42188 20.2656 5.78125C21.5781 7.09375 21.5312 9.25 20.2188 10.5625L19.6094 11.1719C19.375 11.3594 19.3281 11.6875 19.4219 11.9688C19.7031 12.7656 19.8438 13.6094 19.8906 14.4062C19.8906 15.0625 20.6875 15.3906 21.1562 14.9219L22.8906 13.1875C25.6562 10.4219 25.6562 5.875 22.8906 3.10938Z" fill="black"/>
</svg>
