<svg width="21" height="24" viewBox="0 0 21 24" fill="none" xmlns="http://www.w3.org/2000/svg">
<path d="M17.625 10.5H16.625V11.5H17.625V10.5ZM3.375 10.5V11.5H4.375V10.5H3.375ZM13.875 10.5V11.5H14.875V10.5H13.875ZM7.125 10.5H6.125V11.5H7.125V10.5ZM18.75 9.5H17.625V11.5H18.75V9.5ZM18.625 10.5V7.125H16.625V10.5H18.625ZM18.625 7.125C18.625 2.68209 14.9429 -1 10.5 -1V1C13.8383 1 16.625 3.78666 16.625 7.125H18.625ZM10.5 -1C6.00594 -1 2.375 2.68637 2.375 7.125H4.375C4.375 3.78238 7.11906 1 10.5 1V-1ZM2.375 7.125V10.5H4.375V7.125H2.375ZM3.375 9.5H2.25V11.5H3.375V9.5ZM2.25 9.5C0.418575 9.5 -1 10.9926 -1 12.75H1C1 12.0699 1.55017 11.5 2.25 11.5V9.5ZM-1 12.75V21.75H1V12.75H-1ZM-1 21.75C-1 23.5679 0.432091 25 2.25 25V23C1.53666 23 1 22.4633 1 21.75H-1ZM2.25 25H18.75V23H2.25V25ZM18.75 25C20.5074 25 22 23.5814 22 21.75H20C20 22.4498 19.4301 23 18.75 23V25ZM22 21.75V12.75H20V21.75H22ZM22 12.75C22 10.979 20.521 9.5 18.75 9.5V11.5C19.4165 11.5 20 12.0835 20 12.75H22ZM13.875 9.5H7.125V11.5H13.875V9.5ZM8.125 10.5V7.125H6.125V10.5H8.125ZM8.125 7.125C8.125 5.84011 9.18629 4.75 10.5 4.75V2.75C8.06371 2.75 6.125 4.75364 6.125 7.125H8.125ZM10.5 4.75C11.7758 4.75 12.875 5.84916 12.875 7.125H14.875C14.875 4.74459 12.8804 2.75 10.5 2.75V4.75ZM12.875 7.125V10.5H14.875V7.125H12.875Z" fill="black"/>
</svg>
