<svg width="24" height="18" viewBox="0 0 24 18" fill="none" xmlns="http://www.w3.org/2000/svg">
<path d="M23.5312 5.95312L22.9313 5.15313L22.923 5.15929L22.9149 5.16562L23.5312 5.95312ZM16.3125 11.2969L15.7253 10.4874L15.7188 10.4921L15.7125 10.4969L16.3125 11.2969ZM7.64062 11.2969L7.05338 12.1063L7.05939 12.1106L7.64062 11.2969ZM0.421875 5.95312L1.03819 5.16562L1.03009 5.15929L1.02187 5.15313L0.421875 5.95312ZM12 12L12.0434 11.0009L12.0009 10.9991L11.9584 11.0009L12 12ZM15.4219 10.0781L15.9986 10.8951L16.0071 10.889L15.4219 10.0781ZM23.5312 4.03125L22.9766 3.1992L22.9404 3.22327L22.9066 3.25038L23.5312 4.03125ZM0.421875 4.03125L1.04657 3.25038L1.01268 3.22327L0.976574 3.1992L0.421875 4.03125ZM8.53125 10.0781L7.94595 10.889L7.95457 10.8951L8.53125 10.0781ZM22.9149 5.16562C21.8521 5.99738 20.5053 7.0196 15.7253 10.4874L16.8997 12.1063C21.6822 8.63665 23.0541 7.59637 24.1476 6.74063L22.9149 5.16562ZM15.7125 10.4969C15.1825 10.8944 14.598 11.3929 13.8882 11.8387C13.1773 12.285 12.5319 12.5469 12 12.5469V14.5469C13.1087 14.5469 14.1509 14.0353 14.9517 13.5324C15.7535 13.029 16.505 12.4025 16.9125 12.0969L15.7125 10.4969ZM12 12.5469C11.4424 12.5469 10.7957 12.2828 10.0884 11.8387C9.35286 11.3768 8.81667 10.908 8.22186 10.4831L7.05939 12.1106C7.44895 12.3889 8.2487 13.0451 9.02487 13.5324C9.82931 14.0375 10.8701 14.5469 12 14.5469V12.5469ZM8.22785 10.4874C3.44783 7.0196 2.10099 5.99738 1.03819 5.16562L-0.194435 6.74063C0.89901 7.59637 2.27092 8.63665 7.0534 12.1063L8.22785 10.4874ZM1.02187 5.15313C0.606953 4.84193 0.0705299 4.81799 -0.355515 5.06144C-0.762753 5.29415 -1 5.72744 -1 6.1875H1C1 6.41319 0.87994 6.65897 0.636765 6.79793C0.374783 6.94764 0.0492973 6.92369 -0.178123 6.75312L1.02187 5.15313ZM-1 6.1875V15.75H1V6.1875H-1ZM-1 15.75C-1 17.5679 0.432091 19 2.25 19V17C1.53666 17 1 16.4633 1 15.75H-1ZM2.25 19H21.75V17H2.25V19ZM21.75 19C23.5074 19 25 17.5814 25 15.75H23C23 16.4498 22.4301 17 21.75 17V19ZM25 15.75V6.1875H23V15.75H25ZM25 6.1875C25 5.12908 23.778 4.51807 22.9313 5.15313L24.1312 6.75312C23.88 6.94155 23.5842 6.92183 23.3887 6.82412C23.1933 6.7264 23 6.50153 23 6.1875H25ZM11.9566 12.9991C12.4397 13.0201 12.8987 12.8794 13.2753 12.716C13.6617 12.5485 14.0369 12.3235 14.3729 12.0984C14.7114 11.8717 15.0341 11.6284 15.3114 11.4156C15.6021 11.1926 15.8209 11.0205 15.9986 10.8951L14.8452 9.26115C14.6244 9.41702 14.351 9.63163 14.0938 9.82898C13.8233 10.0366 13.5425 10.2474 13.2599 10.4367C12.9748 10.6277 12.7114 10.7806 12.4796 10.8811C12.2381 10.9859 12.0994 11.0034 12.0434 11.0009L11.9566 12.9991ZM16.0071 10.889C22.2504 6.38255 22.7331 5.9504 24.1559 4.81212L22.9066 3.25038C21.5169 4.3621 21.0621 4.7737 14.8366 9.26729L16.0071 10.889ZM24.0859 4.8633C24.6422 4.49247 25 3.85382 25 3.14062H23C23 3.17743 22.9828 3.19503 22.9766 3.1992L24.0859 4.8633ZM25 3.14062V2.25H23V3.14062H25ZM25 2.25C25 0.478966 23.521 -1 21.75 -1V1C22.4165 1 23 1.58353 23 2.25H25ZM21.75 -1H2.25V1H21.75V-1ZM2.25 -1C0.418575 -1 -1 0.49258 -1 2.25H1C1 1.56992 1.55017 1 2.25 1V-1ZM-1 2.25V3.14062H1V2.25H-1ZM-1 3.14062C-1 3.75591 -0.762367 4.44361 -0.132824 4.8633L0.976574 3.1992C0.987072 3.2062 0.996643 3.21493 1.00406 3.22379C1.01124 3.23236 1.01372 3.23782 1.01343 3.23719C1.01233 3.23482 1 3.20541 1 3.14062H-1ZM-0.20282 4.81212C1.22003 5.9504 1.70272 6.38255 7.94598 10.889L9.11652 9.26729C2.89103 4.7737 2.43622 4.3621 1.04657 3.25038L-0.20282 4.81212ZM7.95457 10.8951C8.13281 11.0209 8.35084 11.1925 8.64346 11.4164C8.92215 11.6297 9.24711 11.8735 9.58968 12.1008C9.9299 12.3266 10.3106 12.5517 10.7046 12.719C11.0908 12.883 11.5542 13.0194 12.0416 12.9991L11.9584 11.0009C11.8833 11.004 11.7314 10.9822 11.4863 10.8781C11.249 10.7774 10.9822 10.6246 10.6955 10.4343C10.4111 10.2456 10.1296 10.0353 9.85899 9.82819C9.60228 9.63174 9.32813 9.41659 9.10793 9.26115L7.95457 10.8951Z" fill="black"/>
</svg>
