<svg width="22" height="20" viewBox="0 0 22 20" fill="none" xmlns="http://www.w3.org/2000/svg">
<path d="M1.25 5.1875H20.75V3.1875H1.25V5.1875ZM20.75 5.1875C21.6367 5.1875 22.5 4.45134 22.5 3.4375H20.5C20.5 3.34216 20.5433 3.27792 20.5737 3.24871C20.5982 3.22525 20.6519 3.1875 20.75 3.1875V5.1875ZM22.5 3.4375V1.5625H20.5V3.4375H22.5ZM22.5 1.5625C22.5 1.04977 22.2537 0.620739 21.9727 0.339767C21.6918 0.0587959 21.2627 -0.1875 20.75 -0.1875V1.8125C20.6773 1.8125 20.6273 1.79469 20.6025 1.78313C20.5778 1.7716 20.565 1.76045 20.5585 1.75398C20.552 1.74751 20.5409 1.73471 20.5294 1.71C20.5178 1.68523 20.5 1.63521 20.5 1.5625H22.5ZM20.75 -0.1875H1.25V1.8125H20.75V-0.1875ZM1.25 -0.1875C0.236156 -0.1875 -0.5 0.675751 -0.5 1.5625H1.5C1.5 1.66061 1.46225 1.71429 1.43879 1.73878C1.40958 1.76925 1.34534 1.8125 1.25 1.8125V-0.1875ZM-0.5 1.5625V3.4375H1.5V1.5625H-0.5ZM-0.5 3.4375C-0.5 4.41166 0.275841 5.1875 1.25 5.1875V3.1875C1.3048 3.1875 1.3715 3.21119 1.4239 3.2636C1.47631 3.316 1.5 3.3827 1.5 3.4375H-0.5ZM1.25 12.6875H20.75V10.6875H1.25V12.6875ZM20.75 12.6875C21.6367 12.6875 22.5 11.9513 22.5 10.9375H20.5C20.5 10.8422 20.5433 10.7779 20.5737 10.7487C20.5982 10.7253 20.6519 10.6875 20.75 10.6875V12.6875ZM22.5 10.9375V9.0625H20.5V10.9375H22.5ZM22.5 9.0625C22.5 8.54977 22.2537 8.12074 21.9727 7.83977C21.6918 7.5588 21.2627 7.3125 20.75 7.3125V9.3125C20.6773 9.3125 20.6273 9.29469 20.6025 9.28313C20.5778 9.2716 20.565 9.26045 20.5585 9.25398C20.552 9.24751 20.5409 9.23471 20.5294 9.21C20.5178 9.18523 20.5 9.13521 20.5 9.0625H22.5ZM20.75 7.3125H1.25V9.3125H20.75V7.3125ZM1.25 7.3125C0.236156 7.3125 -0.5 8.17575 -0.5 9.0625H1.5C1.5 9.16061 1.46225 9.21429 1.43879 9.23878C1.40958 9.26925 1.34534 9.3125 1.25 9.3125V7.3125ZM-0.5 9.0625V10.9375H1.5V9.0625H-0.5ZM-0.5 10.9375C-0.5 11.9117 0.275841 12.6875 1.25 12.6875V10.6875C1.3048 10.6875 1.3715 10.7112 1.4239 10.7636C1.47631 10.816 1.5 10.8827 1.5 10.9375H-0.5ZM1.25 20.1875H20.75V18.1875H1.25V20.1875ZM20.75 20.1875C21.6367 20.1875 22.5 19.4513 22.5 18.4375H20.5C20.5 18.3422 20.5433 18.2779 20.5737 18.2487C20.5982 18.2253 20.6519 18.1875 20.75 18.1875V20.1875ZM22.5 18.4375V16.5625H20.5V18.4375H22.5ZM22.5 16.5625C22.5 16.0498 22.2537 15.6207 21.9727 15.3398C21.6918 15.0588 21.2627 14.8125 20.75 14.8125V16.8125C20.6773 16.8125 20.6273 16.7947 20.6025 16.7831C20.5778 16.7716 20.565 16.7605 20.5585 16.754C20.552 16.7475 20.5409 16.7347 20.5294 16.71C20.5178 16.6852 20.5 16.6352 20.5 16.5625H22.5ZM20.75 14.8125H1.25V16.8125H20.75V14.8125ZM1.25 14.8125C0.236156 14.8125 -0.5 15.6758 -0.5 16.5625H1.5C1.5 16.6606 1.46225 16.7143 1.43879 16.7388C1.40958 16.7692 1.34534 16.8125 1.25 16.8125V14.8125ZM-0.5 16.5625V18.4375H1.5V16.5625H-0.5ZM-0.5 18.4375C-0.5 19.4117 0.275841 20.1875 1.25 20.1875V18.1875C1.3048 18.1875 1.3715 18.2112 1.4239 18.2636C1.47631 18.316 1.5 18.3827 1.5 18.4375H-0.5Z" fill="black"/>
</svg>
