<svg width="15" height="24" viewBox="0 0 15 24" fill="none" xmlns="http://www.w3.org/2000/svg">
<path d="M10.5469 10.9688L10.2628 11.9276L10.2656 11.9284L10.5469 10.9688ZM5.48438 9.46875L5.76846 8.50995L5.73909 8.50125L5.70924 8.49436L5.48438 9.46875ZM10.5938 7.26562L10.0203 8.08486L10.0296 8.09137L10.0391 8.09768L10.5938 7.26562ZM11.4844 7.17188L10.7876 6.4546L10.7824 6.45964L10.7773 6.46477L11.4844 7.17188ZM13.125 5.57812L13.8218 6.2954L13.827 6.29036L13.8321 6.28523L13.125 5.57812ZM13.0312 4.40625L13.6898 3.65368L13.6712 3.63747L13.652 3.6222L13.0312 4.40625ZM9 3H8V3.96826L8.96776 3.99948L9 3ZM6 3V4H7V3H6ZM0.75 8.625L1.74625 8.53837L1.74577 8.53308L0.75 8.625ZM4.6875 13.1719L4.96967 12.2125L4.96504 12.2112L4.6875 13.1719ZM9.46875 14.5781L9.18658 15.5375L9.21502 15.5459L9.24389 15.5525L9.46875 14.5781ZM4.40625 16.7812L4.97971 15.962L4.94217 15.9357L4.90239 15.913L4.40625 16.7812ZM3.46875 16.875L4.16553 17.5923L4.17073 17.5872L4.17586 17.5821L3.46875 16.875ZM1.82812 18.4688L1.13134 17.7515L1.12614 17.7565L1.12102 17.7616L1.82812 18.4688ZM1.92188 19.5938L2.54657 18.8129L2.53437 18.8031L2.52187 18.7937L1.92188 19.5938ZM6 21H7V20H6V21ZM9 21L8.97827 20.0002L8 20.0215V21H9ZM13.9219 17.625L12.9794 17.2906L12.9754 17.3023L13.9219 17.625ZM10.831 10.01L5.76846 8.50995L5.20029 10.4275L10.2628 11.9275L10.831 10.01ZM5.70924 8.49436C5.65516 8.48188 5.61096 8.45329 5.57328 8.40131C5.53203 8.34441 5.5 8.25864 5.5 8.15625H3.5C3.5 9.15303 4.12432 10.1812 5.25951 10.4431L5.70924 8.49436ZM5.5 8.15625C5.5 8.05257 5.54325 7.94463 5.62179 7.86235C5.69854 7.78195 5.78447 7.75 5.85938 7.75V5.75C4.51376 5.75 3.5 6.89832 3.5 8.15625H5.5ZM5.85938 7.75H8.95312V5.75H5.85938V7.75ZM8.95312 7.75C9.35237 7.75 9.71551 7.87151 10.0203 8.08486L11.1672 6.44639C10.5345 6.00349 9.77263 5.75 8.95312 5.75V7.75ZM10.0391 8.09768C10.734 8.56094 11.6347 8.43573 12.1915 7.87898L10.7773 6.46477C10.8653 6.37677 11.016 6.34531 11.1484 6.43357L10.0391 8.09768ZM12.1812 7.88915L13.8218 6.2954L12.4282 4.86085L10.7876 6.4546L12.1812 7.88915ZM13.8321 6.28523C14.6364 5.4809 14.4252 4.29718 13.6898 3.65368L12.3727 5.15882C12.3799 5.1651 12.3508 5.14202 12.3453 5.07523C12.3425 5.04248 12.3463 5.00368 12.3607 4.96377C12.3754 4.92304 12.3974 4.89156 12.4179 4.87102L13.8321 6.28523ZM13.652 3.6222C12.336 2.58043 10.6684 2.0533 9.03224 2.00052L8.96776 3.99948C10.2379 4.04045 11.4765 4.45082 12.4105 5.1903L13.652 3.6222ZM10 3V0.75H8V3H10ZM10 0.75C10 0.23727 9.7537 -0.191761 9.47273 -0.472733C9.19176 -0.753704 8.76273 -1 8.25 -1V1C8.17729 1 8.12727 0.982193 8.1025 0.970634C8.07779 0.959103 8.06499 0.947952 8.05852 0.941483C8.05205 0.935013 8.0409 0.922207 8.02937 0.897495C8.01781 0.87273 8 0.822712 8 0.75H10ZM8.25 -1H6.75V1H8.25V-1ZM6.75 -1C5.73616 -1 5 -0.136749 5 0.75H7C7 0.848114 6.96225 0.901794 6.93879 0.926281C6.90958 0.956749 6.84534 1 6.75 1V-1ZM5 0.75V3H7V0.75H5ZM6 2H5.85938V4H6V2ZM5.85938 2C2.27332 2 -0.581348 5.08144 -0.245766 8.71692L1.74577 8.53308C1.51885 6.07481 3.44543 4 5.85938 4V2ZM-0.246239 8.71163C-0.0182304 11.3337 1.95802 13.4242 4.40996 14.1326L4.96504 12.2112C3.19823 11.7007 1.89323 10.2288 1.74624 8.53837L-0.246239 8.71163ZM4.40533 14.1312L9.18658 15.5375L9.75092 13.6188L4.96967 12.2125L4.40533 14.1312ZM9.24389 15.5525C9.37864 15.5836 9.5 15.7251 9.5 15.8906H11.5C11.5 14.8374 10.7776 13.8539 9.69361 13.6037L9.24389 15.5525ZM9.5 15.8906C9.5 15.9655 9.46805 16.0515 9.38765 16.1282C9.30537 16.2067 9.19743 16.25 9.09375 16.25V18.25C10.3517 18.25 11.5 17.2362 11.5 15.8906H9.5ZM9.09375 16.25H6V18.25H9.09375V16.25ZM6 16.25C5.59884 16.25 5.24773 16.1496 4.97971 15.962L3.83279 17.6005C4.50227 18.0691 5.27616 18.25 6 18.25V16.25ZM4.90239 15.913C4.22183 15.5241 3.34565 15.5839 2.76164 16.1679L4.17586 17.5821C4.12489 17.6331 4.06241 17.6585 4.00888 17.6642C3.95542 17.67 3.92123 17.6558 3.91011 17.6495L4.90239 15.913ZM2.77197 16.1577L1.13134 17.7515L2.52491 19.186L4.16553 17.5923L2.77197 16.1577ZM1.12102 17.7616C0.34177 18.5409 0.483883 19.7653 1.32188 20.3938L2.52187 18.7937C2.55827 18.8211 2.60051 18.8798 2.60767 18.9634C2.61507 19.0497 2.58159 19.1295 2.53523 19.1759L1.12102 17.7616ZM1.29718 20.3746C2.65504 21.4609 4.28429 22 6 22V20C4.71571 20 3.53246 19.6016 2.54657 18.8129L1.29718 20.3746ZM5 21V23.25H7V21H5ZM5 23.25C5 24.2242 5.77584 25 6.75 25V23C6.8048 23 6.8715 23.0237 6.9239 23.0761C6.97631 23.1285 7 23.1952 7 23.25H5ZM6.75 25H8.25V23H6.75V25ZM8.25 25C9.13675 25 10 24.2638 10 23.25H8C8 23.1547 8.04325 23.0904 8.07372 23.0612C8.09821 23.0378 8.15189 23 8.25 23V25ZM10 23.25V21H8V23.25H10ZM9.02173 21.9998C11.5214 21.9454 14.0066 20.4755 14.8684 17.9477L12.9754 17.3023C12.4309 18.8995 10.7911 19.9608 8.97827 20.0002L9.02173 21.9998ZM14.8643 17.9594C16.0957 14.4892 14.0745 10.9606 10.8281 10.0091L10.2656 11.9284C12.4568 12.5706 13.8106 14.9483 12.9794 17.2906L14.8643 17.9594Z" fill="black"/>
</svg>
