<svg width="16" height="24" viewBox="0 0 16 24" fill="none" xmlns="http://www.w3.org/2000/svg">
<path d="M11.0469 10.9688L5.98438 9.46875C5.375 9.32812 5 8.76562 5 8.15625C5 7.40625 5.60938 6.75 6.35938 6.75H9.45312C10.0625 6.75 10.625 6.9375 11.0938 7.26562C11.375 7.45312 11.75 7.40625 11.9844 7.17188L13.625 5.57812C13.9531 5.25 13.9062 4.73438 13.5312 4.40625C12.4062 3.51562 10.9531 3.04688 9.5 3V0.75C9.5 0.375 9.125 0 8.75 0H7.25C6.82812 0 6.5 0.375 6.5 0.75V3H6.35938C3.35938 3 0.96875 5.57812 1.25 8.625C1.4375 10.7812 3.07812 12.5625 5.1875 13.1719L9.96875 14.5781C10.5781 14.7188 11 15.2812 11 15.8906C11 16.6406 10.3438 17.25 9.59375 17.25H6.5C5.9375 17.25 5.375 17.1094 4.90625 16.7812C4.57812 16.5938 4.20312 16.6406 3.96875 16.875L2.32812 18.4688C2 18.7969 2.04688 19.3125 2.42188 19.5938C3.59375 20.5312 5 21 6.5 21V23.25C6.5 23.6719 6.82812 24 7.25 24H8.75C9.125 24 9.5 23.6719 9.5 23.25V21C11.6562 20.9531 13.7188 19.6875 14.4219 17.625C15.4531 14.7188 13.7656 11.7656 11.0469 10.9688Z" fill="black"/>
</svg>
