<svg width="23" height="24" viewBox="0 0 23 24" fill="none" xmlns="http://www.w3.org/2000/svg">
<path d="M22.3281 14.8125L22.8426 13.955L22.8292 13.9469L22.8155 13.9393L22.3281 14.8125ZM20.3125 13.6875L19.3335 13.4835L19.1837 14.2027L19.8251 14.5607L20.3125 13.6875ZM20.3125 10.3594L19.8251 9.48618L19.1837 9.84419L19.3335 10.5633L20.3125 10.3594ZM22.3281 9.23438L22.8155 10.1076L22.8292 10.0999L22.8426 10.0919L22.3281 9.23438ZM22.5625 8.57812L21.6061 8.87034L21.6184 8.91051L21.634 8.94952L22.5625 8.57812ZM20.0312 4.125L20.7787 3.46064L20.7591 3.43867L20.7384 3.41789L20.0312 4.125ZM19.3281 4.03125L19.8155 4.90445L19.8292 4.89681L19.8426 4.88874L19.3281 4.03125ZM17.3125 5.15625L16.6723 5.92447L17.2 6.36424L17.7999 6.02945L17.3125 5.15625ZM14.5 3.51562H13.5V4.21605L14.1583 4.45542L14.5 3.51562ZM14.0312 0.703125L13.7949 1.67479L13.8306 1.68348L13.8669 1.68952L14.0312 0.703125ZM8.92188 0.703125L9.08627 1.68952L9.11566 1.68462L9.1447 1.67798L8.92188 0.703125ZM8.5 3.51562L8.82852 4.46012L9.5 4.22656V3.51562H8.5ZM5.64062 5.20312L5.138 6.06763L5.76389 6.43151L6.30499 5.95053L5.64062 5.20312ZM3.625 4.03125L3.11045 4.88882L3.12238 4.89576L3.625 4.03125ZM2.92188 4.125L2.21477 3.41789L2.19399 3.43867L2.17447 3.46064L2.92188 4.125ZM0.390625 8.57812L1.3191 8.94952L1.3347 8.91051L1.34698 8.87034L0.390625 8.57812ZM0.625 9.23438L0.110504 10.0919L0.123947 10.0999L0.137634 10.1076L0.625 9.23438ZM2.64062 10.3594L3.62702 10.5238L3.74276 9.82931L3.12799 9.48618L2.64062 10.3594ZM2.64062 13.6875L3.12799 14.5607L3.74276 14.2176L3.62702 13.5231L2.64062 13.6875ZM0.625 14.8125L0.137634 13.9393L0.123947 13.9469L0.110504 13.955L0.625 14.8125ZM0.390625 15.4688L1.34698 15.1765L1.3347 15.1364L1.3191 15.0974L0.390625 15.4688ZM2.92188 19.9219L2.17447 20.5862L2.19399 20.6082L2.21477 20.629L2.92188 19.9219ZM3.625 20.0156L3.13763 19.1424L3.12395 19.1501L3.1105 19.1581L3.625 20.0156ZM5.64062 18.8906L6.28081 18.1224L5.75309 17.6826L5.15326 18.0174L5.64062 18.8906ZM8.5 20.5312H9.5V19.8203L8.82852 19.5868L8.5 20.5312ZM8.92188 23.3906L8.55048 24.3191L8.62846 24.3503L8.71054 24.368L8.92188 23.3906ZM14.0312 23.3906L14.2274 24.3712L14.2884 24.359L14.3475 24.3393L14.0312 23.3906ZM14.5 20.5312L14.1583 19.5915L13.5 19.8308V20.5312H14.5ZM17.3125 18.8906L17.7999 18.0174L17.2 17.6826L16.6723 18.1224L17.3125 18.8906ZM19.3281 20.0156L19.8426 19.1581L19.8292 19.1501L19.8155 19.1424L19.3281 20.0156ZM20.0312 19.9219L20.7384 20.629L20.7519 20.6154L20.765 20.6013L20.0312 19.9219ZM22.6094 15.4688L23.5581 15.785L23.5777 15.7259L23.59 15.6649L22.6094 15.4688ZM22.8155 13.9393L20.7999 12.8143L19.8251 14.5607L21.8408 15.6857L22.8155 13.9393ZM21.2915 13.8915C21.5539 12.6319 21.5539 11.4149 21.2915 10.1554L19.3335 10.5633C19.5399 11.5538 19.5399 12.4931 19.3335 13.4835L21.2915 13.8915ZM20.7999 11.2326L22.8155 10.1076L21.8408 8.36118L19.8251 9.48618L20.7999 11.2326ZM22.8426 10.0919C23.4801 9.70937 23.7746 8.91578 23.491 8.20673L21.634 8.94952C21.5379 8.70922 21.6449 8.47813 21.8136 8.37688L22.8426 10.0919ZM23.5189 8.28591C22.9572 6.4479 21.9899 4.8233 20.7787 3.46064L19.2838 4.78936C20.3226 5.95795 21.1365 7.33335 21.6061 8.87034L23.5189 8.28591ZM20.7384 3.41789C20.2499 2.92943 19.4693 2.78036 18.8136 3.17376L19.8426 4.88874C19.7606 4.93795 19.6575 4.95956 19.5558 4.94503C19.4575 4.93098 19.3782 4.88617 19.3241 4.83211L20.7384 3.41789ZM18.8408 3.15805L16.8251 4.28305L17.7999 6.02945L19.8155 4.90445L18.8408 3.15805ZM17.9527 4.38803C17.0302 3.61928 15.9933 2.99458 14.8417 2.57583L14.1583 4.45542C15.0692 4.78667 15.9073 5.28697 16.6723 5.92447L17.9527 4.38803ZM15.5 3.51562V1.21875H13.5V3.51562H15.5ZM15.5 1.21875C15.5 0.467831 14.9312 -0.160671 14.1956 -0.283268L13.8669 1.68952C13.6938 1.66067 13.5 1.50092 13.5 1.21875H15.5ZM14.2676 -0.268543C12.3647 -0.731422 10.4719 -0.676968 8.69905 -0.271732L9.1447 1.67798C10.6531 1.33322 12.2291 1.29392 13.7949 1.67479L14.2676 -0.268543ZM8.75748 -0.283268C7.89542 -0.139595 7.5 0.602768 7.5 1.21875H9.5C9.5 1.2951 9.47804 1.39386 9.40547 1.49062C9.32349 1.59993 9.20261 1.67013 9.08627 1.68952L8.75748 -0.283268ZM7.5 1.21875V3.51562H9.5V1.21875H7.5ZM8.17148 2.57113C6.96416 2.99107 5.91358 3.62254 4.97626 4.45572L6.30499 5.95053C7.05517 5.28371 7.87959 4.79018 8.82852 4.46012L8.17148 2.57113ZM6.14325 4.33862L4.12762 3.16674L3.12238 4.89576L5.138 6.06763L6.14325 4.33862ZM4.1395 3.17376C3.48384 2.78036 2.70324 2.92943 2.21477 3.41789L3.62898 4.83211C3.57492 4.88617 3.49558 4.93098 3.39728 4.94503C3.29559 4.95956 3.19252 4.93795 3.1105 4.88874L4.1395 3.17376ZM2.17447 3.46064C0.963211 4.8233 -0.00411224 6.4479 -0.565727 8.28591L1.34698 8.87034C1.81661 7.33335 2.63054 5.95795 3.66928 4.78936L2.17447 3.46064ZM-0.537853 8.20673C-0.821472 8.91578 -0.526993 9.70937 0.110504 10.0919L1.1395 8.37688C1.30824 8.47813 1.41522 8.70922 1.3191 8.94952L-0.537853 8.20673ZM0.137634 10.1076L2.15326 11.2326L3.12799 9.48618L1.11237 8.36118L0.137634 10.1076ZM1.65423 10.195C1.44859 11.4288 1.44859 12.618 1.65423 13.8519L3.62702 13.5231C3.45766 12.507 3.45766 11.5399 3.62702 10.5238L1.65423 10.195ZM2.15326 12.8143L0.137634 13.9393L1.11237 15.6857L3.12799 14.5607L2.15326 12.8143ZM0.110504 13.955C-0.526993 14.3375 -0.821472 15.1311 -0.537853 15.8401L1.3191 15.0974C1.41522 15.3377 1.30824 15.5687 1.1395 15.67L0.110504 13.955ZM-0.565727 15.761C-0.00411224 17.599 0.963211 19.2236 2.17447 20.5862L3.66928 19.2575C2.63054 18.0889 1.81661 16.7135 1.34698 15.1765L-0.565727 15.761ZM2.21477 20.629C2.70324 21.1174 3.48384 21.2665 4.1395 20.8731L3.1105 19.1581C3.19252 19.1089 3.29559 19.0873 3.39728 19.1018C3.49558 19.1159 3.57492 19.1607 3.62898 19.2148L2.21477 20.629ZM4.11237 20.8888L6.12799 19.7638L5.15326 18.0174L3.13763 19.1424L4.11237 20.8888ZM5.00044 19.6588C5.92479 20.4291 6.96601 21.0565 8.17148 21.4757L8.82852 19.5868C7.87774 19.256 7.04396 18.7584 6.28081 18.1224L5.00044 19.6588ZM7.5 20.5312V22.8281H9.5V20.5312H7.5ZM7.5 22.8281C7.5 23.5603 8.02634 24.1094 8.55048 24.3191L9.29327 22.4622C9.35075 22.4851 9.38899 22.5175 9.4174 22.5547C9.4443 22.5898 9.5 22.6806 9.5 22.8281H7.5ZM8.71054 24.368C10.5979 24.7761 12.4724 24.7222 14.2274 24.3712L13.8351 22.41C12.3089 22.7153 10.7146 22.7551 9.13321 22.4132L8.71054 24.368ZM14.3475 24.3393C14.9322 24.1444 15.5 23.594 15.5 22.8281H13.5C13.5 22.6765 13.559 22.5751 13.5992 22.5264C13.641 22.4756 13.684 22.4523 13.715 22.4419L14.3475 24.3393ZM15.5 22.8281V20.5312H13.5V22.8281H15.5ZM14.8417 21.471C15.9933 21.0523 17.0302 20.4276 17.9527 19.6588L16.6723 18.1224C15.9073 18.7599 15.0692 19.2602 14.1583 19.5915L14.8417 21.471ZM16.8251 19.7638L18.8408 20.8888L19.8155 19.1424L17.7999 18.0174L16.8251 19.7638ZM18.8136 20.8731C19.4693 21.2665 20.2499 21.1174 20.7384 20.629L19.3241 19.2148C19.3782 19.1607 19.4575 19.1159 19.5558 19.1018C19.6575 19.0873 19.7606 19.1089 19.8426 19.1581L18.8136 20.8731ZM20.765 20.6013C22.0449 19.219 22.9562 17.5906 23.5581 15.785L21.6607 15.1525C21.1376 16.7219 20.3613 18.0935 19.2975 19.2425L20.765 20.6013ZM23.59 15.6649C23.7079 15.0751 23.4884 14.3425 22.8426 13.955L21.8136 15.67C21.724 15.6162 21.6712 15.5405 21.6457 15.4769C21.6223 15.4184 21.6133 15.3503 21.6288 15.2726L23.59 15.6649ZM11.5 14.75C9.94291 14.75 8.75 13.5571 8.75 12H6.75C6.75 14.6617 8.83834 16.75 11.5 16.75V14.75ZM8.75 12C8.75 10.4816 9.95105 9.25 11.5 9.25V7.25C8.8302 7.25 6.75 9.39339 6.75 12H8.75ZM11.5 9.25C13.0102 9.25 14.25 10.4898 14.25 12H16.25C16.25 9.38522 14.1148 7.25 11.5 7.25V9.25ZM14.25 12C14.25 13.5489 13.0184 14.75 11.5 14.75V16.75C14.1066 16.75 16.25 14.6698 16.25 12H14.25Z" fill="black"/>
</svg>
