<svg width="25" height="25" viewBox="0 0 25 25" fill="none" xmlns="http://www.w3.org/2000/svg">
<path d="M23.6094 2.17188L23.8725 1.20711L23.8535 1.20192L23.8342 1.19748L23.6094 2.17188ZM18.7344 1.04688L18.4713 2.01164L18.4903 2.01683L18.5095 2.02127L18.7344 1.04688ZM17.4219 1.70312L16.5115 1.28932L16.507 1.29922L16.5027 1.3092L17.4219 1.70312ZM15.1719 6.95312L14.2527 6.5592L14.2479 6.57041L14.2434 6.58173L15.1719 6.95312ZM15.5 8.26562L14.8415 9.0182L14.8536 9.02881L14.8661 9.03902L15.5 8.26562ZM18.3594 10.6094L19.2631 11.0375L19.5976 10.3313L18.9933 9.83598L18.3594 10.6094ZM10.0625 18.9062L9.28911 19.5402L9.78472 20.1448L10.4911 19.8098L10.0625 18.9062ZM7.71875 16.0469L8.49214 15.4129L8.48193 15.4005L8.47132 15.3884L7.71875 16.0469ZM6.40625 15.7188L6.03486 14.7903L6.02354 14.7948L6.01233 14.7996L6.40625 15.7188ZM1.15625 17.9688L0.762329 17.0496L0.752342 17.0539L0.742447 17.0584L1.15625 17.9688ZM0.5 19.2812L-0.483871 19.4601L-0.479671 19.4832L-0.474392 19.5061L0.5 19.2812ZM1.625 24.1562L0.650608 24.3811L0.655045 24.4003L0.660236 24.4194L1.625 24.1562ZM23.8342 1.19748L18.9592 0.0724831L18.5095 2.02127L23.3845 3.14627L23.8342 1.19748ZM18.9975 0.0821114C17.9674 -0.198818 16.9308 0.366951 16.5115 1.28932L18.3322 2.11693C18.3528 2.07165 18.3864 2.04007 18.4199 2.02333C18.453 2.00678 18.4703 2.01139 18.4713 2.01164L18.9975 0.0821114ZM16.5027 1.3092L14.2527 6.5592L16.091 7.34705L18.341 2.09705L16.5027 1.3092ZM14.2434 6.58173C13.8891 7.46739 14.1661 8.42726 14.8415 9.0182L16.1585 7.51305C16.1202 7.47952 16.1012 7.44326 16.0937 7.41373C16.0866 7.38609 16.0872 7.3573 16.1004 7.32452L14.2434 6.58173ZM14.8661 9.03902L17.7254 11.3828L18.9933 9.83598L16.1339 7.49223L14.8661 9.03902ZM17.4556 10.1813C15.8658 13.5376 13.0794 16.3684 9.63391 18.0027L10.4911 19.8098C14.3581 17.9754 17.4779 14.8062 19.2631 11.0375L17.4556 10.1813ZM10.8359 18.2723L8.49214 15.4129L6.94536 16.6808L9.28911 19.5402L10.8359 18.2723ZM8.47132 15.3884C7.88038 14.713 6.92052 14.436 6.03486 14.7903L6.77764 16.6472C6.81042 16.6341 6.83921 16.6334 6.86686 16.6405C6.89639 16.6481 6.93265 16.6671 6.96618 16.7054L8.47132 15.3884ZM6.01233 14.7996L0.762329 17.0496L1.55017 18.8879L6.80017 16.6379L6.01233 14.7996ZM0.742447 17.0584C-0.248383 17.5088 -0.647591 18.5597 -0.483871 19.4601L1.48387 19.1024C1.474 19.0481 1.48254 18.9914 1.50289 18.9486C1.5206 18.9113 1.54275 18.8915 1.57005 18.8791L0.742447 17.0584ZM-0.474392 19.5061L0.650608 24.3811L2.59939 23.9314L1.47439 19.0564L-0.474392 19.5061ZM0.660236 24.4194C0.921249 25.3764 1.74318 26 2.75 26V24C2.6676 24 2.63804 23.9781 2.63316 23.9744C2.62819 23.9706 2.60625 23.9536 2.58976 23.8931L0.660236 24.4194ZM2.75 26C15.3009 26 25.5 15.8506 25.5 3.25H23.5C23.5 14.7432 14.1991 24 2.75 24V26ZM25.5 3.25C25.5 2.20454 24.7421 1.44427 23.8725 1.20711L23.3463 3.13664C23.4206 3.15691 23.4642 3.19201 23.4838 3.21518C23.5001 3.23456 23.5 3.24381 23.5 3.25H25.5Z" fill="black"/>
</svg>
