<svg width="22" height="26" viewBox="0 0 22 26" fill="none" xmlns="http://www.w3.org/2000/svg">
<path d="M19.875 11.0781L20.3976 10.2255L20.3907 10.2213L20.3837 10.2172L19.875 11.0781ZM3.375 1.32812L3.88373 0.467194L3.88072 0.465427L3.375 1.32812ZM3.375 24.7188L2.86627 23.8578L2.86446 23.8589L3.375 24.7188ZM19.875 14.9688L20.3837 15.8297L20.3907 15.8256L20.3976 15.8214L19.875 14.9688ZM20.3837 10.2172L3.88373 0.467197L2.86627 2.18905L19.3663 11.9391L20.3837 10.2172ZM3.88072 0.465427C2.89223 -0.114033 1.68755 -0.107578 0.727417 0.376663C-0.266701 0.878044 -1 1.8931 -1 3.25H1C1 2.68502 1.27451 2.34071 1.62805 2.1624C2.01558 1.96695 2.49839 1.97341 2.86928 2.19082L3.88072 0.465427ZM-1 3.25V22.75H1V3.25H-1ZM-1 22.75C-1 25.2839 1.69962 26.8765 3.88554 25.5786L2.86446 23.8589C2.05038 24.3423 1 23.7786 1 22.75H-1ZM3.88373 25.5797L20.3837 15.8297L19.3663 14.1078L2.86627 23.8578L3.88373 25.5797ZM20.3976 15.8214C22.4873 14.5406 22.4873 11.5063 20.3976 10.2255L19.3524 11.9307C20.169 12.4312 20.169 13.6157 19.3524 14.1161L20.3976 15.8214Z" fill="black"/>
</svg>
