<svg width="22" height="22" viewBox="0 0 22 22" fill="none" xmlns="http://www.w3.org/2000/svg">
<path d="M13.25 8.75H12.25V9.75H13.25V8.75ZM8.75 8.75V9.75H9.75V8.75H8.75ZM8.75 13.25H9.75V12.25H8.75V13.25ZM13.25 13.25V12.25H12.25V13.25H13.25ZM20 7.75H13.25V9.75H20V7.75ZM14.25 8.75V2H12.25V8.75H14.25ZM14.25 2C14.25 0.650841 13.0992 -0.5 11.75 -0.5V1.5C11.9946 1.5 12.25 1.75541 12.25 2H14.25ZM11.75 -0.5H10.25V1.5H11.75V-0.5ZM10.25 -0.5C8.8338 -0.5 7.75 0.671223 7.75 2H9.75C9.75 1.73503 9.9787 1.5 10.25 1.5V-0.5ZM7.75 2V8.75H9.75V2H7.75ZM8.75 7.75H2V9.75H8.75V7.75ZM2 7.75C0.583801 7.75 -0.5 8.92122 -0.5 10.25H1.5C1.5 9.98503 1.7287 9.75 2 9.75V7.75ZM-0.5 10.25V11.75H1.5V10.25H-0.5ZM-0.5 11.75C-0.5 13.146 0.603966 14.25 2 14.25V12.25C1.70853 12.25 1.5 12.0415 1.5 11.75H-0.5ZM2 14.25H8.75V12.25H2V14.25ZM7.75 13.25V20H9.75V13.25H7.75ZM7.75 20C7.75 21.396 8.85397 22.5 10.25 22.5V20.5C9.95853 20.5 9.75 20.2915 9.75 20H7.75ZM10.25 22.5H11.75V20.5H10.25V22.5ZM11.75 22.5C13.0788 22.5 14.25 21.4162 14.25 20H12.25C12.25 20.2713 12.015 20.5 11.75 20.5V22.5ZM14.25 20V13.25H12.25V20H14.25ZM13.25 14.25H20V12.25H13.25V14.25ZM20 14.25C21.3288 14.25 22.5 13.1662 22.5 11.75H20.5C20.5 12.0213 20.265 12.25 20 12.25V14.25ZM22.5 11.75V10.25H20.5V11.75H22.5ZM22.5 10.25C22.5 8.90084 21.3492 7.75 20 7.75V9.75C20.2446 9.75 20.5 10.0054 20.5 10.25H22.5Z" fill="black"/>
</svg>
