<svg width="18" height="24" viewBox="0 0 18 24" fill="none" xmlns="http://www.w3.org/2000/svg">
<path d="M8.96875 0C5.21875 0 2.78125 1.54688 0.859375 4.3125C0.53125 4.78125 0.625 5.48438 1.14062 5.8125L3.15625 7.35938C3.625 7.73438 4.32812 7.64062 4.70312 7.17188C5.875 5.71875 6.76562 4.875 8.59375 4.875C10.0469 4.875 11.8281 5.76562 11.8281 7.17188C11.8281 8.25 10.9375 8.76562 9.53125 9.5625C7.84375 10.5 5.64062 11.6719 5.64062 14.5781V15C5.64062 15.6562 6.15625 16.125 6.76562 16.125H10.1875C10.7969 16.125 11.3125 15.6562 11.3125 15V14.7656C11.3125 12.75 17.1719 12.6562 17.1719 7.21875C17.1719 3.14062 12.9062 0 8.96875 0ZM8.5 17.5312C6.67188 17.5312 5.21875 18.9844 5.21875 20.7656C5.21875 22.5469 6.67188 24 8.5 24C10.2812 24 11.7344 22.5469 11.7344 20.7656C11.7344 18.9844 10.2812 17.5312 8.5 17.5312Z" fill="black"/>
</svg>
