<svg width="17" height="24" viewBox="0 0 17 24" fill="none" xmlns="http://www.w3.org/2000/svg">
<path d="M0.359375 4.3125L1.17861 4.88597L1.18056 4.88316L0.359375 4.3125ZM0.640625 5.8125L1.24944 5.01919L1.21458 4.99244L1.1775 4.96884L0.640625 5.8125ZM2.65625 7.35938L3.28094 6.57851L3.27307 6.5722L3.26507 6.56607L2.65625 7.35938ZM4.20312 7.17188L3.42471 6.54412L3.42226 6.54718L4.20312 7.17188ZM9.03125 9.5625L9.51691 10.4367L9.52426 10.4325L9.03125 9.5625ZM8.46875 -1C6.45014 -1 4.73123 -0.581879 3.24287 0.244984C1.7588 1.06947 0.562576 2.26772 -0.461815 3.74184L1.18056 4.88316C2.07805 3.59166 3.06151 2.63366 4.21416 1.9933C5.36252 1.35532 6.73736 1 8.46875 1V-1ZM-0.459858 3.73904C-1.08313 4.62943 -0.937435 5.99359 0.103748 6.65616L1.1775 4.96884C1.17547 4.96755 1.17611 4.96786 1.17603 4.96774C1.17513 4.96632 1.17154 4.95991 1.16941 4.94743C1.16724 4.93463 1.16752 4.92048 1.17026 4.90766C1.17291 4.89527 1.17687 4.88844 1.17861 4.88596L-0.459858 3.73904ZM0.0318069 6.60581L2.04743 8.15268L3.26507 6.56607L1.24944 5.01919L0.0318069 6.60581ZM2.03156 8.14024C2.9516 8.87628 4.28023 8.67628 4.98399 7.79657L3.42226 6.54718C3.40639 6.56701 3.37812 6.58509 3.34081 6.58975C3.30514 6.59421 3.28759 6.58382 3.28094 6.57851L2.03156 8.14024ZM4.98154 7.79963C5.5634 7.07812 5.99555 6.61374 6.45136 6.31433C6.86984 6.03944 7.35459 5.875 8.09375 5.875V3.875C7.00479 3.875 6.13016 4.13243 5.35333 4.6427C4.61383 5.12845 4.01473 5.8125 3.42471 6.54412L4.98154 7.79963ZM8.09375 5.875C8.63921 5.875 9.26021 6.0482 9.71949 6.34008C10.1841 6.63537 10.3281 6.93772 10.3281 7.17188H12.3281C12.3281 5.99978 11.5815 5.15369 10.7922 4.65211C9.9976 4.14711 9.00141 3.875 8.09375 3.875V5.875ZM10.3281 7.17188C10.3281 7.36731 10.275 7.51334 10.0333 7.7337C9.7358 8.00493 9.27432 8.27536 8.53824 8.69248L9.52426 10.4325C10.1944 10.0528 10.8814 9.66695 11.3808 9.21161C11.936 8.70541 12.3281 8.05456 12.3281 7.17188H10.3281ZM8.54561 8.68834C6.93901 9.5809 4.14062 11.0112 4.14062 14.5781H6.14062C6.14062 12.3326 7.74849 11.4191 9.51689 10.4367L8.54561 8.68834ZM4.14062 14.5781V15H6.14062V14.5781H4.14062ZM4.14062 15C4.14062 16.2357 5.13149 17.125 6.26562 17.125V15.125C6.21943 15.125 6.18862 15.108 6.17139 15.0913C6.16277 15.0829 6.15605 15.0733 6.15113 15.0617C6.14649 15.0508 6.14062 15.0315 6.14062 15H4.14062ZM6.26562 17.125H9.6875V15.125H6.26562V17.125ZM9.6875 17.125C10.8216 17.125 11.8125 16.2357 11.8125 15H9.8125C9.8125 15.0315 9.80663 15.0508 9.80199 15.0617C9.79707 15.0733 9.79035 15.0829 9.78173 15.0913C9.76451 15.108 9.7337 15.125 9.6875 15.125V17.125ZM11.8125 15V14.7656H9.8125V15H11.8125ZM11.8125 14.7656C11.8125 14.7646 11.812 14.7665 11.8129 14.7642C11.8147 14.7595 11.8236 14.7382 11.8538 14.6994C11.9215 14.6123 12.053 14.4906 12.2941 14.3251C12.532 14.1617 12.8185 13.9939 13.1688 13.7903C13.508 13.5932 13.8969 13.3683 14.2884 13.1131C15.0725 12.6018 15.9274 11.9318 16.5823 10.9721C17.2483 9.99625 17.6719 8.77331 17.6719 7.21875H15.6719C15.6719 8.38294 15.363 9.21078 14.9304 9.84476C14.4866 10.495 13.8767 10.9939 13.196 11.4377C12.8551 11.66 12.5115 11.8591 12.164 12.0611C11.8277 12.2565 11.4734 12.4626 11.162 12.6764C10.5954 13.0654 9.8125 13.7123 9.8125 14.7656H11.8125ZM17.6719 7.21875C17.6719 4.81287 16.4137 2.7464 14.6859 1.31091C12.9618 -0.121525 10.6885 -1 8.46875 -1V1C10.1865 1 12.0147 1.69184 13.4078 2.84925C14.7972 4.0036 15.6719 5.54651 15.6719 7.21875H17.6719ZM8 16.5312C5.62899 16.5312 3.71875 18.4227 3.71875 20.7656H5.71875C5.71875 19.546 6.71476 18.5312 8 18.5312V16.5312ZM3.71875 20.7656C3.71875 23.1085 5.62899 25 8 25V23C6.71476 23 5.71875 21.9852 5.71875 20.7656H3.71875ZM8 25C10.3335 25 12.2344 23.0992 12.2344 20.7656H10.2344C10.2344 21.9946 9.22897 23 8 23V25ZM12.2344 20.7656C12.2344 18.4321 10.3335 16.5312 8 16.5312V18.5312C9.22897 18.5312 10.2344 19.5367 10.2344 20.7656H12.2344Z" fill="black"/>
</svg>
