<svg width="24" height="24" viewBox="0 0 24 24" fill="none" xmlns="http://www.w3.org/2000/svg">
<path d="M5.34375 7.17188L4.53502 6.5837L3.37998 8.17188H5.34375V7.17188ZM6.51562 18.1875L7.18591 17.4454L7.1637 17.4253L7.14032 17.4066L6.51562 18.1875ZM5.76562 18.2344L6.47273 18.9415L6.51189 18.9023L6.54649 18.8591L5.76562 18.2344ZM4.17188 20.625L4.84455 19.8851L4.82121 19.8638L4.79657 19.8441L4.17188 20.625ZM12.0938 0.421875L12.0802 1.4218L12.0865 1.42185L12.0938 0.421875ZM3.375 4.26562H2.375V6.9104L4.12484 4.92725L3.375 4.26562ZM9.9375 11.5469C10.4034 11.5469 10.7855 11.324 11.0313 11.0782C11.2771 10.8324 11.5 10.4502 11.5 9.98438H9.5C9.5 9.79977 9.58223 9.69886 9.61711 9.66399C9.65199 9.62911 9.7529 9.54688 9.9375 9.54688V11.5469ZM11.5 9.98438V7.73438H9.5V9.98438H11.5ZM11.5 7.73438C11.5 6.80088 10.7164 6.17188 9.9375 6.17188V8.17188C9.80635 8.17188 9.70545 8.12117 9.6376 8.05709C9.56157 7.98529 9.5 7.86993 9.5 7.73438H11.5ZM9.9375 6.17188H5.34375V8.17188H9.9375V6.17188ZM6.15248 7.76005C7.47787 5.93764 9.57669 4.75 12 4.75V2.75C8.89206 2.75 6.20963 4.28111 4.53502 6.5837L6.15248 7.76005ZM12 4.75C15.9946 4.75 19.25 8.00541 19.25 12H21.25C21.25 6.90084 17.0992 2.75 12 2.75V4.75ZM19.25 12C19.25 16.0378 15.9983 19.25 12 19.25V21.25C17.0955 21.25 21.25 17.1497 21.25 12H19.25ZM12 19.25C10.132 19.25 8.45064 18.5877 7.18591 17.4454L5.84534 18.9296C7.48686 20.4123 9.64925 21.25 12 21.25V19.25ZM7.14032 17.4066C6.57689 16.9559 5.59371 16.8485 4.98476 17.6097L6.54649 18.8591C6.45008 18.9796 6.30384 19.0458 6.16648 19.0518C6.04173 19.0572 5.94837 19.0143 5.89093 18.9684L7.14032 17.4066ZM5.05852 17.5273L3.46477 19.121L4.87898 20.5352L6.47273 18.9415L5.05852 17.5273ZM3.46477 19.121C2.88906 19.6967 2.76321 20.7787 3.54718 21.4059L4.79657 19.8441C4.94542 19.9632 4.99609 20.1258 4.99609 20.2441C4.99609 20.3606 4.95094 20.4633 4.87898 20.5352L3.46477 19.121ZM3.4992 21.3649C5.74322 23.405 8.7478 24.625 12 24.625V22.625C9.2522 22.625 6.72553 21.595 4.84455 19.8851L3.4992 21.3649ZM12 24.625C18.9689 24.625 24.625 19.0263 24.625 12.0469H22.625C22.625 17.9112 17.8749 22.625 12 22.625V24.625ZM24.625 12.0469C24.625 5.07661 19.0734 -0.527206 12.101 -0.578098L12.0865 1.42185C17.9579 1.46471 22.625 6.17339 22.625 12.0469H24.625ZM12.1073 -0.578033C8.33788 -0.628971 4.92143 1.00156 2.62516 3.604L4.12484 4.92725C6.04732 2.74844 8.91212 1.37897 12.0802 1.42178L12.1073 -0.578033ZM4.375 4.26562V0.5625H2.375V4.26562H4.375ZM4.375 0.5625C4.375 0.0966454 4.15214 -0.285511 3.90633 -0.531326C3.66051 -0.777142 3.27835 -1 2.8125 -1V1C2.6279 1 2.52699 0.917767 2.49211 0.882889C2.45723 0.848011 2.375 0.747105 2.375 0.5625H4.375ZM2.8125 -1H0.5625V1H2.8125V-1ZM0.5625 -1C-0.370995 -1 -1 -0.216412 -1 0.5625H1C1 0.693653 0.949299 0.794552 0.885216 0.862404C0.813419 0.938427 0.698059 1 0.5625 1V-1ZM-1 0.5625V9.98438H1V0.5625H-1ZM-1 9.98438C-1 10.7633 -0.370995 11.5469 0.5625 11.5469V9.54688C0.698059 9.54688 0.813419 9.60845 0.885216 9.68447C0.949299 9.75232 1 9.85322 1 9.98438H-1ZM0.5625 11.5469H9.9375V9.54688H0.5625V11.5469Z" fill="black"/>
</svg>
