<svg width="24" height="24" viewBox="0 0 24 24" fill="none" xmlns="http://www.w3.org/2000/svg">
<path d="M23.4375 0H21.1875C20.9062 0 20.625 0.28125 20.625 0.5625C20.625 0.609375 20.625 0.609375 20.625 0.609375L20.8125 4.5C18.7031 1.96875 15.5156 0.375 12 0.375C5.57812 0.375 0.328125 5.625 0.375 12.0469C0.375 18.4688 5.57812 23.625 12 23.625C15 23.625 17.7188 22.5 19.7812 20.6719C19.875 20.5312 19.9688 20.3906 19.9688 20.25C19.9688 20.0625 19.875 19.9219 19.7812 19.8281L18.1875 18.2344C18.0938 18.1406 17.9531 18.0938 17.8125 18.0938C17.6719 18.0938 17.5312 18.1406 17.4375 18.2344C15.9844 19.5 14.0625 20.25 12 20.25C7.40625 20.25 3.75 16.5938 3.75 12C3.75 7.45312 7.40625 3.75 12 3.75C14.8125 3.75 17.3438 5.20312 18.8438 7.40625L14.0625 7.17188C14.0625 7.17188 14.0625 7.17188 14.0156 7.17188C13.7344 7.17188 13.4531 7.45312 13.4531 7.73438H13.5V9.98438C13.5 10.2656 13.7344 10.5469 14.0625 10.5469H23.4375C23.7188 10.5469 24 10.2656 24 9.98438V0.5625C24 0.28125 23.7188 0 23.4375 0Z" fill="black"/>
</svg>
