<svg width="24" height="24" viewBox="0 0 24 24" fill="none" xmlns="http://www.w3.org/2000/svg">
<path d="M20.625 0.609375H19.625V0.633457L19.6262 0.657513L20.625 0.609375ZM20.8125 4.5L20.0443 5.14018L21.955 7.43307L21.8113 4.45186L20.8125 4.5ZM0.375 12.0469H1.37503L1.37497 12.0396L0.375 12.0469ZM19.7812 20.6719L20.4446 21.4202L20.5415 21.3343L20.6133 21.2266L19.7812 20.6719ZM17.4375 18.2344L18.0943 18.9885L18.1203 18.9658L18.1446 18.9415L17.4375 18.2344ZM18.8438 7.40625L18.7948 8.40505L20.8005 8.50337L19.6703 6.84346L18.8438 7.40625ZM14.0625 7.17188L14.1115 6.17307L14.087 6.17188H14.0625V7.17188ZM13.4531 7.73438H12.4531V8.73438H13.4531V7.73438ZM13.5 7.73438H14.5V6.73438H13.5V7.73438ZM23.4375 -1H21.1875V1H23.4375V-1ZM21.1875 -1C20.7216 -1 20.3395 -0.777142 20.0937 -0.531326C19.8479 -0.285511 19.625 0.0966454 19.625 0.5625H21.625C21.625 0.747105 21.5428 0.848011 21.5079 0.882889C21.473 0.917767 21.3721 1 21.1875 1V-1ZM19.625 0.5625C19.625 0.562592 19.625 0.562683 19.625 0.562775C19.625 0.562866 19.625 0.562958 19.625 0.563046C19.625 0.563137 19.625 0.563229 19.625 0.56332C19.625 0.563408 19.625 0.563499 19.625 0.563591C19.625 0.563679 19.625 0.56377 19.625 0.563858C19.625 0.56395 19.625 0.564041 19.625 0.564129C19.625 0.564217 19.625 0.564308 19.625 0.564396C19.625 0.564484 19.625 0.564575 19.625 0.564663C19.625 0.564751 19.625 0.564842 19.625 0.56493C19.625 0.565018 19.625 0.565105 19.625 0.565193C19.625 0.565281 19.625 0.565369 19.625 0.565456C19.625 0.565544 19.625 0.565632 19.625 0.56572C19.625 0.565807 19.625 0.565895 19.625 0.565979C19.625 0.566067 19.625 0.566154 19.625 0.566242C19.625 0.566326 19.625 0.566414 19.625 0.566502C19.625 0.566586 19.625 0.566673 19.625 0.566757C19.625 0.566845 19.625 0.566929 19.625 0.567017C19.625 0.567101 19.625 0.567188 19.625 0.567272C19.625 0.567356 19.625 0.567444 19.625 0.567528C19.625 0.567612 19.625 0.567696 19.625 0.56778C19.625 0.567867 19.625 0.567951 19.625 0.568035C19.625 0.568119 19.625 0.568203 19.625 0.568287C19.625 0.568371 19.625 0.568455 19.625 0.568539C19.625 0.568623 19.625 0.568703 19.625 0.568787C19.625 0.568871 19.625 0.568954 19.625 0.569038C19.625 0.569118 19.625 0.569202 19.625 0.569286C19.625 0.569366 19.625 0.56945 19.625 0.56953C19.625 0.569614 19.625 0.569695 19.625 0.569778C19.625 0.569859 19.625 0.569942 19.625 0.570023C19.625 0.570103 19.625 0.570187 19.625 0.570267C19.625 0.570347 19.625 0.570427 19.625 0.570511C19.625 0.570591 19.625 0.570671 19.625 0.570751C19.625 0.570831 19.625 0.570911 19.625 0.570992C19.625 0.571072 19.625 0.571152 19.625 0.571232C19.625 0.571312 19.625 0.571392 19.625 0.571472C19.625 0.571548 19.625 0.571629 19.625 0.571709C19.625 0.571789 19.625 0.571865 19.625 0.571945C19.625 0.572025 19.625 0.572102 19.625 0.572182C19.625 0.572262 19.625 0.572338 19.625 0.572418C19.625 0.572495 19.625 0.572571 19.625 0.572651C19.625 0.572727 19.625 0.572807 19.625 0.572884C19.625 0.57296 19.625 0.573036 19.625 0.573116C19.625 0.573193 19.625 0.573269 19.625 0.573345C19.625 0.573421 19.625 0.573498 19.625 0.573578C19.625 0.573654 19.625 0.57373 19.625 0.573807C19.625 0.573883 19.625 0.573956 19.625 0.574032C19.625 0.574108 19.625 0.574184 19.625 0.574261C19.625 0.574337 19.625 0.574409 19.625 0.574486C19.625 0.574562 19.625 0.574638 19.625 0.574711C19.625 0.574787 19.625 0.57486 19.625 0.574936C19.625 0.575008 19.625 0.575085 19.625 0.575157C19.625 0.575233 19.625 0.575306 19.625 0.575382C19.625 0.575455 19.625 0.575527 19.625 0.575603C19.625 0.575676 19.625 0.575748 19.625 0.575821C19.625 0.575897 19.625 0.57597 19.625 0.576042C19.625 0.576115 19.625 0.576187 19.625 0.57626C19.625 0.576332 19.625 0.576405 19.625 0.576477C19.625 0.57655 19.625 0.576622 19.625 0.576694C19.625 0.576767 19.625 0.576836 19.625 0.576908C19.625 0.576981 19.625 0.577053 19.625 0.577126C19.625 0.577194 19.625 0.577267 19.625 0.577339C19.625 0.577408 19.625 0.57748 19.625 0.577549C19.625 0.577621 19.625 0.57769 19.625 0.577763C19.625 0.577831 19.625 0.577904 19.625 0.577972C19.625 0.578041 19.625 0.578114 19.625 0.578182C19.625 0.578251 19.625 0.578323 19.625 0.578392C19.625 0.578461 19.625 0.578529 19.625 0.578598C19.625 0.578667 19.625 0.578735 19.625 0.578808C19.625 0.578876 19.625 0.578945 19.625 0.579014C19.625 0.579082 19.625 0.579147 19.625 0.579216C19.625 0.579285 19.625 0.579353 19.625 0.579422C19.625 0.579491 19.625 0.579556 19.625 0.579624C19.625 0.579693 19.625 0.579762 19.625 0.579826C19.625 0.579895 19.625 0.57996 19.625 0.580029C19.625 0.580097 19.625 0.580162 19.625 0.580231C19.625 0.580296 19.625 0.580364 19.625 0.580429C19.625 0.580494 19.625 0.580563 19.625 0.580627C19.625 0.580692 19.625 0.580761 19.625 0.580826C19.625 0.580891 19.625 0.580956 19.625 0.58102C19.625 0.581089 19.625 0.581154 19.625 0.581219C19.625 0.581284 19.625 0.581348 19.625 0.581413C19.625 0.581478 19.625 0.581543 19.625 0.581608C19.625 0.581673 19.625 0.581738 19.625 0.581802C19.625 0.581863 19.625 0.581928 19.625 0.581993C19.625 0.582058 19.625 0.582123 19.625 0.582184C19.625 0.582249 19.625 0.582314 19.625 0.582375C19.625 0.582439 19.625 0.5825 19.625 0.582565C19.625 0.582626 19.625 0.582691 19.625 0.582752C19.625 0.582817 19.625 0.582878 19.625 0.582943C19.625 0.583004 19.625 0.583065 19.625 0.58313C19.625 0.583191 19.625 0.583252 19.625 0.583313C19.625 0.583378 19.625 0.583439 19.625 0.5835C19.625 0.583561 19.625 0.583622 19.625 0.583683C19.625 0.583744 19.625 0.583805 19.625 0.583866C19.625 0.583927 19.625 0.583988 19.625 0.584049C19.625 0.58411 19.625 0.584171 19.625 0.584232C19.625 0.584293 19.625 0.584354 19.625 0.584412C19.625 0.584473 19.625 0.584534 19.625 0.584595C19.625 0.584652 19.625 0.584713 19.625 0.584774C19.625 0.584831 19.625 0.584892 19.625 0.584949C19.625 0.585011 19.625 0.585068 19.625 0.585129C19.625 0.585186 19.625 0.585247 19.625 0.585304C19.625 0.585361 19.625 0.585423 19.625 0.58548C19.625 0.585537 19.625 0.585598 19.625 0.585655C19.625 0.585712 19.625 0.58577 19.625 0.585831C19.625 0.585888 19.625 0.585945 19.625 0.586002C19.625 0.58606 19.625 0.586117 19.625 0.586174C19.625 0.586231 19.625 0.586288 19.625 0.586346C19.625 0.586403 19.625 0.58646 19.625 0.586517C19.625 0.586575 19.625 0.586628 19.625 0.586685C19.625 0.586742 19.625 0.5868 19.625 0.586857C19.625 0.58691 19.625 0.586967 19.625 0.587025C19.625 0.587078 19.625 0.587135 19.625 0.587189C19.625 0.587246 19.625 0.587303 19.625 0.587357C19.625 0.587414 19.625 0.587467 19.625 0.587521C19.625 0.587578 19.625 0.587631 19.625 0.587688C19.625 0.587742 19.625 0.587795 19.625 0.587852C19.625 0.587906 19.625 0.587959 19.625 0.588013C19.625 0.58807 19.625 0.588123 19.625 0.588177C19.625 0.58823 19.625 0.588284 19.625 0.588337C19.625 0.58839 19.625 0.588444 19.625 0.588497C19.625 0.588551 19.625 0.588604 19.625 0.588657C19.625 0.588711 19.625 0.588764 19.625 0.588818C19.625 0.588871 19.625 0.588924 19.625 0.588974C19.625 0.589027 19.625 0.589081 19.625 0.589134C19.625 0.589184 19.625 0.589237 19.625 0.589291C19.625 0.58934 19.625 0.589394 19.625 0.589443C19.625 0.589497 19.625 0.589546 19.625 0.5896C19.625 0.589653 19.625 0.589703 19.625 0.589752C19.625 0.589806 19.625 0.589855 19.625 0.589909C19.625 0.589958 19.625 0.590008 19.625 0.590061C19.625 0.590111 19.625 0.59016 19.625 0.59021C19.625 0.590263 19.625 0.590313 19.625 0.590363C19.625 0.590412 19.625 0.590462 19.625 0.590511C19.625 0.590561 19.625 0.590611 19.625 0.59066C19.625 0.59071 19.625 0.590759 19.625 0.590809C19.625 0.590858 19.625 0.590908 19.625 0.590958C19.625 0.591007 19.625 0.591057 19.625 0.591106C19.625 0.591152 19.625 0.591202 19.625 0.591251C19.625 0.591301 19.625 0.591347 19.625 0.591396C19.625 0.591446 19.625 0.591492 19.625 0.591541C19.625 0.591587 19.625 0.591637 19.625 0.591686C19.625 0.591732 19.625 0.591782 19.625 0.591827C19.625 0.591877 19.625 0.591923 19.625 0.591969C19.625 0.592018 19.625 0.592064 19.625 0.59211C19.625 0.592159 19.625 0.592205 19.625 0.592251C19.625 0.5923 19.625 0.592346 19.625 0.592392C19.625 0.592438 19.625 0.592484 19.625 0.592533C19.625 0.592579 19.625 0.592625 19.625 0.59267C19.625 0.592716 19.625 0.592762 19.625 0.592808C19.625 0.592854 19.625 0.592899 19.625 0.592945C19.625 0.592991 19.625 0.593037 19.625 0.593082C19.625 0.593124 19.625 0.59317 19.625 0.593216C19.625 0.593262 19.625 0.593307 19.625 0.593349C19.625 0.593395 19.625 0.593441 19.625 0.593483C19.625 0.593529 19.625 0.593575 19.625 0.593616C19.625 0.593662 19.625 0.593704 19.625 0.59375C19.625 0.593796 19.625 0.593838 19.625 0.593884C19.625 0.593925 19.625 0.593967 19.625 0.594013C19.625 0.594055 19.625 0.594101 19.625 0.594143C19.625 0.594185 19.625 0.594231 19.625 0.594273C19.625 0.594315 19.625 0.594357 19.625 0.594402C19.625 0.594444 19.625 0.594486 19.625 0.594528C19.625 0.59457 19.625 0.594612 19.625 0.594658C19.625 0.5947 19.625 0.594742 19.625 0.594784C19.625 0.594826 19.625 0.594868 19.625 0.59491C19.625 0.594952 19.625 0.594994 19.625 0.595036C19.625 0.595074 19.625 0.595116 19.625 0.595158C19.625 0.5952 19.625 0.595242 19.625 0.595284C19.625 0.595322 19.625 0.595364 19.625 0.595406C19.625 0.595444 19.625 0.595486 19.625 0.595528C19.625 0.595566 19.625 0.595608 19.625 0.59565C19.625 0.595688 19.625 0.59573 19.625 0.595768C19.625 0.59581 19.625 0.595848 19.625 0.59589C19.625 0.595928 19.625 0.59597 19.625 0.596008C19.625 0.596046 19.625 0.596088 19.625 0.596127C19.625 0.596165 19.625 0.596207 19.625 0.596245C19.625 0.596283 19.625 0.596325 19.625 0.596363C19.625 0.596401 19.625 0.596439 19.625 0.596478C19.625 0.596516 19.625 0.596558 19.625 0.596596C19.625 0.596634 19.625 0.596672 19.625 0.59671C19.625 0.596748 19.625 0.596786 19.625 0.596825C19.625 0.596863 19.625 0.596901 19.625 0.596939C19.625 0.596977 19.625 0.597012 19.625 0.59705C19.625 0.597088 19.625 0.597126 19.625 0.597164C19.625 0.597202 19.625 0.597237 19.625 0.597275C19.625 0.597313 19.625 0.597347 19.625 0.597385C19.625 0.597424 19.625 0.597458 19.625 0.597496C19.625 0.597534 19.625 0.597569 19.625 0.597607C19.625 0.597641 19.625 0.597679 19.625 0.597713C19.625 0.597752 19.625 0.597786 19.625 0.597824C19.625 0.597858 19.625 0.597897 19.625 0.597931C19.625 0.597965 19.625 0.598003 19.625 0.598038C19.625 0.598072 19.625 0.59811 19.625 0.598145C19.625 0.598179 19.625 0.598213 19.625 0.598251C19.625 0.598286 19.625 0.59832 19.625 0.598354C19.625 0.598389 19.625 0.598423 19.625 0.598457C19.625 0.598495 19.625 0.59853 19.625 0.598564C19.625 0.598598 19.625 0.598633 19.625 0.598667C19.625 0.598701 19.625 0.598736 19.625 0.598766C19.625 0.598801 19.625 0.598835 19.625 0.598869C19.625 0.598904 19.625 0.598938 19.625 0.598972C19.625 0.599003 19.625 0.599037 19.625 0.599072C19.625 0.599106 19.625 0.599136 19.625 0.599171C19.625 0.599205 19.625 0.599236 19.625 0.59927C19.625 0.599304 19.625 0.599335 19.625 0.599369C19.625 0.5994 19.625 0.599434 19.625 0.599464C19.625 0.599499 19.625 0.599529 19.625 0.599564C19.625 0.599594 19.625 0.599628 19.625 0.599659C19.625 0.599693 19.625 0.599724 19.625 0.599754C19.625 0.599789 19.625 0.599819 19.625 0.59985C19.625 0.599884 19.625 0.599915 19.625 0.599945C19.625 0.599976 19.625 0.60001 19.625 0.60004C19.625 0.600071 19.625 0.600101 19.625 0.600132C19.625 0.600163 19.625 0.600193 19.625 0.600224C19.625 0.600258 19.625 0.600288 19.625 0.600319C19.625 0.600349 19.625 0.60038 19.625 0.60041C19.625 0.600441 19.625 0.600471 19.625 0.600498C19.625 0.600529 19.625 0.600559 19.625 0.60059C19.625 0.60062 19.625 0.600651 19.625 0.600681C19.625 0.600708 19.625 0.600739 19.625 0.600769C19.625 0.6008 19.625 0.600826 19.625 0.600857C19.625 0.600887 19.625 0.600914 19.625 0.600945C19.625 0.600975 19.625 0.601002 19.625 0.601032C19.625 0.601063 19.625 0.601089 19.625 0.60112C19.625 0.601147 19.625 0.601177 19.625 0.601204C19.625 0.601234 19.625 0.601261 19.625 0.601292C19.625 0.601318 19.625 0.601345 19.625 0.601376C19.625 0.601402 19.625 0.601433 19.625 0.60146C19.625 0.601486 19.625 0.601517 19.625 0.601543C19.625 0.60157 19.625 0.601597 19.625 0.601627C19.625 0.601654 19.625 0.601681 19.625 0.601707C19.625 0.601734 19.625 0.601765 19.625 0.601791C19.625 0.601818 19.625 0.601845 19.625 0.601871C19.625 0.601898 19.625 0.601925 19.625 0.601952C19.625 0.601978 19.625 0.602005 19.625 0.602032C19.625 0.602058 19.625 0.602085 19.625 0.602112C19.625 0.602139 19.625 0.602165 19.625 0.602192C19.625 0.602219 19.625 0.602242 19.625 0.602268C19.625 0.602295 19.625 0.602322 19.625 0.602348C19.625 0.602371 19.625 0.602398 19.625 0.602425C19.625 0.602451 19.625 0.602474 19.625 0.602501C19.625 0.602528 19.625 0.602551 19.625 0.602577C19.625 0.602604 19.625 0.602627 19.625 0.602654C19.625 0.602676 19.625 0.602703 19.625 0.602726C19.625 0.602753 19.625 0.602776 19.625 0.602802C19.625 0.602825 19.625 0.602852 19.625 0.602875C19.625 0.602901 19.625 0.602924 19.625 0.602947C19.625 0.602974 19.625 0.602997 19.625 0.603024C19.625 0.603046 19.625 0.603069 19.625 0.603092C19.625 0.603119 19.625 0.603142 19.625 0.603165C19.625 0.603188 19.625 0.603214 19.625 0.603237C19.625 0.60326 19.625 0.603283 19.625 0.603306C19.625 0.603333 19.625 0.603355 19.625 0.603378C19.625 0.603401 19.625 0.603424 19.625 0.603447C19.625 0.60347 19.625 0.603493 19.625 0.603516C19.625 0.603539 19.625 0.603561 19.625 0.603584C19.625 0.603607 19.625 0.60363 19.625 0.603653C19.625 0.603676 19.625 0.603699 19.625 0.603718C19.625 0.603741 19.625 0.603764 19.625 0.603786C19.625 0.603809 19.625 0.603828 19.625 0.603851C19.625 0.603874 19.625 0.603897 19.625 0.603916C19.625 0.603939 19.625 0.603962 19.625 0.603985C19.625 0.604004 19.625 0.604027 19.625 0.60405C19.625 0.604069 19.625 0.604092 19.625 0.604111C19.625 0.604134 19.625 0.604156 19.625 0.604176C19.625 0.604198 19.625 0.604218 19.625 0.60424C19.625 0.604259 19.625 0.604282 19.625 0.604301C19.625 0.604321 19.625 0.604343 19.625 0.604362C19.625 0.604385 19.625 0.604404 19.625 0.604424C19.625 0.604446 19.625 0.604465 19.625 0.604485C19.625 0.604507 19.625 0.604527 19.625 0.604546C19.625 0.604568 19.625 0.604588 19.625 0.604607C19.625 0.604626 19.625 0.604649 19.625 0.604668C19.625 0.604687 19.625 0.604706 19.625 0.604725C19.625 0.604744 19.625 0.604767 19.625 0.604786C19.625 0.604805 19.625 0.604824 19.625 0.604843C19.625 0.604862 19.625 0.604881 19.625 0.6049C19.625 0.604919 19.625 0.604939 19.625 0.604958C19.625 0.604977 19.625 0.604996 19.625 0.605015C19.625 0.605034 19.625 0.605053 19.625 0.605068C19.625 0.605087 19.625 0.605106 19.625 0.605125C19.625 0.605145 19.625 0.605164 19.625 0.605183C19.625 0.605198 19.625 0.605217 19.625 0.605236C19.625 0.605255 19.625 0.60527 19.625 0.605289C19.625 0.605309 19.625 0.605328 19.625 0.605343C19.625 0.605362 19.625 0.605381 19.625 0.605396C19.625 0.605415 19.625 0.605431 19.625 0.60545C19.625 0.605469 19.625 0.605484 19.625 0.605503C19.625 0.605518 19.625 0.605537 19.625 0.605553C19.625 0.605572 19.625 0.605587 19.625 0.605606C19.625 0.605621 19.625 0.60564 19.625 0.605656C19.625 0.605675 19.625 0.60569 19.625 0.605705C19.625 0.605724 19.625 0.60574 19.625 0.605755C19.625 0.605774 19.625 0.605789 19.625 0.605804C19.625 0.605824 19.625 0.605839 19.625 0.605854C19.625 0.605873 19.625 0.605888 19.625 0.605904C19.625 0.605919 19.625 0.605938 19.625 0.605953C19.625 0.605968 19.625 0.605984 19.625 0.605999C19.625 0.606014 19.625 0.606033 19.625 0.606049C19.625 0.606064 19.625 0.606079 19.625 0.606094C19.625 0.60611 19.625 0.606125 19.625 0.60614C19.625 0.606155 19.625 0.606171 19.625 0.606186C19.625 0.606201 19.625 0.606216 19.625 0.606232C19.625 0.606247 19.625 0.606262 19.625 0.606277C19.625 0.606293 19.625 0.606308 19.625 0.606323C19.625 0.606339 19.625 0.60635 19.625 0.606365C19.625 0.60638 19.625 0.606396 19.625 0.606411C19.625 0.606426 19.625 0.606438 19.625 0.606453C19.625 0.606468 19.625 0.606483 19.625 0.606495C19.625 0.60651 19.625 0.606525 19.625 0.606541C19.625 0.606552 19.625 0.606567 19.625 0.606583C19.625 0.606594 19.625 0.606609 19.625 0.606625C19.625 0.606636 19.625 0.606651 19.625 0.606663C19.625 0.606678 19.625 0.606689 19.625 0.606705C19.625 0.60672 19.625 0.606731 19.625 0.606747C19.625 0.606758 19.625 0.606773 19.625 0.606785C19.625 0.6068 19.625 0.606812 19.625 0.606827C19.625 0.606838 19.625 0.60685 19.625 0.606865C19.625 0.606876 19.625 0.606892 19.625 0.606903C19.625 0.606915 19.625 0.60693 19.625 0.606941C19.625 0.606953 19.625 0.606968 19.625 0.606979C19.625 0.606991 19.625 0.607006 19.625 0.607018C19.625 0.607029 19.625 0.60704 19.625 0.607056C19.625 0.607067 19.625 0.607079 19.625 0.60709C19.625 0.607105 19.625 0.607117 19.625 0.607128C19.625 0.60714 19.625 0.607151 19.625 0.607162C19.625 0.607174 19.625 0.607189 19.625 0.607201C19.625 0.607212 19.625 0.607224 19.625 0.607235C19.625 0.607246 19.625 0.607258 19.625 0.607269C19.625 0.607281 19.625 0.607292 19.625 0.607304C19.625 0.607315 19.625 0.607327 19.625 0.607338C19.625 0.607349 19.625 0.607361 19.625 0.607372C19.625 0.607384 19.625 0.607395 19.625 0.607407C19.625 0.607418 19.625 0.607426 19.625 0.607437C19.625 0.607449 19.625 0.60746 19.625 0.607471C19.625 0.607483 19.625 0.607494 19.625 0.607502C19.625 0.607513 19.625 0.607525 19.625 0.607536C19.625 0.607544 19.625 0.607555 19.625 0.607567C19.625 0.607578 19.625 0.607586 19.625 0.607597C19.625 0.607609 19.625 0.60762 19.625 0.607628C19.625 0.607639 19.625 0.607651 19.625 0.607658C19.625 0.60767 19.625 0.607677 19.625 0.607689C19.625 0.6077 19.625 0.607708 19.625 0.607719C19.625 0.607727 19.625 0.607738 19.625 0.60775C19.625 0.607758 19.625 0.607769 19.625 0.607777C19.625 0.607788 19.625 0.607796 19.625 0.607807C19.625 0.607815 19.625 0.607826 19.625 0.607834C19.625 0.607845 19.625 0.607853 19.625 0.607864C19.625 0.607872 19.625 0.60788 19.625 0.607891C19.625 0.607899 19.625 0.60791 19.625 0.607918C19.625 0.607925 19.625 0.607937 19.625 0.607944C19.625 0.607952 19.625 0.607964 19.625 0.607971C19.625 0.607979 19.625 0.60799 19.625 0.607998C19.625 0.608006 19.625 0.608013 19.625 0.608025C19.625 0.608032 19.625 0.60804 19.625 0.608047C19.625 0.608059 19.625 0.608067 19.625 0.608074C19.625 0.608082 19.625 0.608089 19.625 0.608101C19.625 0.608109 19.625 0.608116 19.625 0.608124C19.625 0.608131 19.625 0.608139 19.625 0.608147C19.625 0.608158 19.625 0.608166 19.625 0.608173C19.625 0.608181 19.625 0.608189 19.625 0.608196C19.625 0.608204 19.625 0.608212 19.625 0.608219C19.625 0.608227 19.625 0.608234 19.625 0.608242C19.625 0.60825 19.625 0.608257 19.625 0.608265C19.625 0.608273 19.625 0.60828 19.625 0.608288C19.625 0.608295 19.625 0.608303 19.625 0.608311C19.625 0.608318 19.625 0.608326 19.625 0.608334C19.625 0.608341 19.625 0.608345 19.625 0.608353C19.625 0.60836 19.625 0.608368 19.625 0.608376C19.625 0.608383 19.625 0.608391 19.625 0.608395C19.625 0.608402 19.625 0.60841 19.625 0.608418C19.625 0.608425 19.625 0.608429 19.625 0.608437C19.625 0.608444 19.625 0.608452 19.625 0.608456C19.625 0.608463 19.625 0.608471 19.625 0.608479C19.625 0.608482 19.625 0.60849 19.625 0.608498C19.625 0.608501 19.625 0.608509 19.625 0.608517C19.625 0.608521 19.625 0.608528 19.625 0.608536C19.625 0.60854 19.625 0.608547 19.625 0.608555C19.625 0.608559 19.625 0.608566 19.625 0.60857C19.625 0.608578 19.625 0.608585 19.625 0.608589C19.625 0.608597 19.625 0.608601 19.625 0.608608C19.625 0.608612 19.625 0.60862 19.625 0.608624C19.625 0.608631 19.625 0.608635 19.625 0.608643C19.625 0.60865 19.625 0.608654 19.625 0.608658C19.625 0.608665 19.625 0.608669 19.625 0.608677C19.625 0.608681 19.625 0.608688 19.625 0.608692C19.625 0.6087 19.625 0.608704 19.625 0.608707C19.625 0.608715 19.625 0.608719 19.625 0.608727C19.625 0.60873 19.625 0.608734 19.625 0.608742C19.625 0.608746 19.625 0.608749 19.625 0.608757C19.625 0.608761 19.625 0.608765 19.625 0.608772C19.625 0.608776 19.625 0.60878 19.625 0.608788C19.625 0.608791 19.625 0.608795 19.625 0.608803C19.625 0.608807 19.625 0.60881 19.625 0.608814C19.625 0.608822 19.625 0.608826 19.625 0.608829C19.625 0.608833 19.625 0.608841 19.625 0.608845C19.625 0.608849 19.625 0.608852 19.625 0.608856C19.625 0.608864 19.625 0.608868 19.625 0.608871C19.625 0.608875 19.625 0.608879 19.625 0.608883C19.625 0.608891 19.625 0.608894 19.625 0.608898C19.625 0.608902 19.625 0.608906 19.625 0.60891C19.625 0.608913 19.625 0.608917 19.625 0.608921C19.625 0.608929 19.625 0.608932 19.625 0.608936C19.625 0.60894 19.625 0.608944 19.625 0.608948C19.625 0.608952 19.625 0.608955 19.625 0.608959C19.625 0.608963 19.625 0.608967 19.625 0.608971C19.625 0.608974 19.625 0.608978 19.625 0.608982C19.625 0.608986 19.625 0.60899 19.625 0.608994C19.625 0.608997 19.625 0.609001 19.625 0.609005C19.625 0.609009 19.625 0.609013 19.625 0.609016C19.625 0.60902 19.625 0.609024 19.625 0.609024C19.625 0.609028 19.625 0.609032 19.625 0.609035C19.625 0.609039 19.625 0.609043 19.625 0.609047C19.625 0.609051 19.625 0.609055 19.625 0.609055C19.625 0.609058 19.625 0.609062 19.625 0.609066C19.625 0.60907 19.625 0.609074 19.625 0.609077C19.625 0.609077 19.625 0.609081 19.625 0.609085C19.625 0.609089 19.625 0.609093 19.625 0.609093C19.625 0.609097 19.625 0.6091 19.625 0.609104C19.625 0.609104 19.625 0.609108 19.625 0.609112C19.625 0.609116 19.625 0.609119 19.625 0.609119C19.625 0.609123 19.625 0.609127 19.625 0.609127C19.625 0.609131 19.625 0.609135 19.625 0.609138C19.625 0.609138 19.625 0.609142 19.625 0.609146C19.625 0.609146 19.625 0.60915 19.625 0.609154C19.625 0.609154 19.625 0.609158 19.625 0.609161C19.625 0.609161 19.625 0.609165 19.625 0.609169C19.625 0.609169 19.625 0.609173 19.625 0.609177C19.625 0.609177 19.625 0.60918 19.625 0.609184V0.609188C19.625 0.609192 19.625 0.609196 19.625 0.609196C19.625 0.6092 19.625 0.6092 19.625 0.609203C19.625 0.609203 19.625 0.609207 19.625 0.609211V0.609215C19.625 0.609219 19.625 0.609219 19.625 0.609222V0.609226C19.625 0.60923 19.625 0.60923 19.625 0.609234V0.609238C19.625 0.609241 19.625 0.609241 19.625 0.609245V0.609249C19.625 0.609253 19.625 0.609253 19.625 0.609257C19.625 0.609257 19.625 0.609257 19.625 0.609261V0.609264C19.625 0.609268 19.625 0.609268 19.625 0.609268C19.625 0.609272 19.625 0.609272 19.625 0.609276C19.625 0.609276 19.625 0.609276 19.625 0.60928V0.609283V0.609287V0.609291C19.625 0.609295 19.625 0.609295 19.625 0.609295C19.625 0.609299 19.625 0.609299 19.625 0.609299C19.625 0.609303 19.625 0.609303 19.625 0.609303C19.625 0.609306 19.625 0.609306 19.625 0.609306V0.60931V0.609314C19.625 0.609314 19.625 0.609314 19.625 0.609318C19.625 0.609318 19.625 0.609318 19.625 0.609322C19.625 0.609325 19.625 0.609325 19.625 0.609325V0.609329C19.625 0.609329 19.625 0.609329 19.625 0.609333V0.609337C19.625 0.609341 19.625 0.609341 19.625 0.609341C19.625 0.609341 19.625 0.609341 19.625 0.609344V0.609348V0.609352C19.625 0.609352 19.625 0.609352 19.625 0.609356V0.60936C19.625 0.609364 19.625 0.609364 19.625 0.609364C19.625 0.609364 19.625 0.609364 19.625 0.609367V0.609371V0.609375H20.625H21.625V0.609371V0.609367C21.625 0.609364 21.625 0.609364 21.625 0.609364C21.625 0.609364 21.625 0.609364 21.625 0.60936V0.609356C21.625 0.609352 21.625 0.609352 21.625 0.609352V0.609348V0.609344C21.625 0.609341 21.625 0.609341 21.625 0.609341C21.625 0.609341 21.625 0.609341 21.625 0.609337V0.609333C21.625 0.609329 21.625 0.609329 21.625 0.609329V0.609325C21.625 0.609325 21.625 0.609325 21.625 0.609322C21.625 0.609318 21.625 0.609318 21.625 0.609318C21.625 0.609314 21.625 0.609314 21.625 0.609314V0.60931V0.609306C21.625 0.609306 21.625 0.609306 21.625 0.609303C21.625 0.609303 21.625 0.609303 21.625 0.609299C21.625 0.609299 21.625 0.609299 21.625 0.609295C21.625 0.609295 21.625 0.609295 21.625 0.609291V0.609287V0.609283V0.60928C21.625 0.609276 21.625 0.609276 21.625 0.609276C21.625 0.609272 21.625 0.609272 21.625 0.609268C21.625 0.609268 21.625 0.609268 21.625 0.609264V0.609261C21.625 0.609257 21.625 0.609257 21.625 0.609257C21.625 0.609253 21.625 0.609253 21.625 0.609249V0.609245C21.625 0.609241 21.625 0.609241 21.625 0.609238V0.609234C21.625 0.60923 21.625 0.60923 21.625 0.609226V0.609222C21.625 0.609219 21.625 0.609219 21.625 0.609215V0.609211C21.625 0.609207 21.625 0.609203 21.625 0.609203C21.625 0.6092 21.625 0.6092 21.625 0.609196C21.625 0.609196 21.625 0.609192 21.625 0.609188V0.609184C21.625 0.60918 21.625 0.609177 21.625 0.609177C21.625 0.609173 21.625 0.609169 21.625 0.609169C21.625 0.609165 21.625 0.609161 21.625 0.609161C21.625 0.609158 21.625 0.609154 21.625 0.609154C21.625 0.60915 21.625 0.609146 21.625 0.609146C21.625 0.609142 21.625 0.609138 21.625 0.609138C21.625 0.609135 21.625 0.609131 21.625 0.609127C21.625 0.609127 21.625 0.609123 21.625 0.609119C21.625 0.609119 21.625 0.609116 21.625 0.609112C21.625 0.609108 21.625 0.609104 21.625 0.609104C21.625 0.6091 21.625 0.609097 21.625 0.609093C21.625 0.609093 21.625 0.609089 21.625 0.609085C21.625 0.609081 21.625 0.609077 21.625 0.609077C21.625 0.609074 21.625 0.60907 21.625 0.609066C21.625 0.609062 21.625 0.609058 21.625 0.609055C21.625 0.609055 21.625 0.609051 21.625 0.609047C21.625 0.609043 21.625 0.609039 21.625 0.609035C21.625 0.609032 21.625 0.609028 21.625 0.609024C21.625 0.609024 21.625 0.60902 21.625 0.609016C21.625 0.609013 21.625 0.609009 21.625 0.609005C21.625 0.609001 21.625 0.608997 21.625 0.608994C21.625 0.60899 21.625 0.608986 21.625 0.608982C21.625 0.608978 21.625 0.608974 21.625 0.608971C21.625 0.608967 21.625 0.608963 21.625 0.608959C21.625 0.608955 21.625 0.608952 21.625 0.608948C21.625 0.608944 21.625 0.60894 21.625 0.608936C21.625 0.608932 21.625 0.608929 21.625 0.608921C21.625 0.608917 21.625 0.608913 21.625 0.60891C21.625 0.608906 21.625 0.608902 21.625 0.608898C21.625 0.608894 21.625 0.608891 21.625 0.608883C21.625 0.608879 21.625 0.608875 21.625 0.608871C21.625 0.608868 21.625 0.608864 21.625 0.608856C21.625 0.608852 21.625 0.608849 21.625 0.608845C21.625 0.608841 21.625 0.608833 21.625 0.608829C21.625 0.608826 21.625 0.608822 21.625 0.608814C21.625 0.60881 21.625 0.608807 21.625 0.608803C21.625 0.608795 21.625 0.608791 21.625 0.608788C21.625 0.60878 21.625 0.608776 21.625 0.608772C21.625 0.608765 21.625 0.608761 21.625 0.608757C21.625 0.608749 21.625 0.608746 21.625 0.608742C21.625 0.608734 21.625 0.60873 21.625 0.608727C21.625 0.608719 21.625 0.608715 21.625 0.608707C21.625 0.608704 21.625 0.6087 21.625 0.608692C21.625 0.608688 21.625 0.608681 21.625 0.608677C21.625 0.608669 21.625 0.608665 21.625 0.608658C21.625 0.608654 21.625 0.60865 21.625 0.608643C21.625 0.608635 21.625 0.608631 21.625 0.608624C21.625 0.60862 21.625 0.608612 21.625 0.608608C21.625 0.608601 21.625 0.608597 21.625 0.608589C21.625 0.608585 21.625 0.608578 21.625 0.60857C21.625 0.608566 21.625 0.608559 21.625 0.608555C21.625 0.608547 21.625 0.60854 21.625 0.608536C21.625 0.608528 21.625 0.608521 21.625 0.608517C21.625 0.608509 21.625 0.608501 21.625 0.608498C21.625 0.60849 21.625 0.608482 21.625 0.608479C21.625 0.608471 21.625 0.608463 21.625 0.608456C21.625 0.608452 21.625 0.608444 21.625 0.608437C21.625 0.608429 21.625 0.608425 21.625 0.608418C21.625 0.60841 21.625 0.608402 21.625 0.608395C21.625 0.608391 21.625 0.608383 21.625 0.608376C21.625 0.608368 21.625 0.60836 21.625 0.608353C21.625 0.608345 21.625 0.608341 21.625 0.608334C21.625 0.608326 21.625 0.608318 21.625 0.608311C21.625 0.608303 21.625 0.608295 21.625 0.608288C21.625 0.60828 21.625 0.608273 21.625 0.608265C21.625 0.608257 21.625 0.60825 21.625 0.608242C21.625 0.608234 21.625 0.608227 21.625 0.608219C21.625 0.608212 21.625 0.608204 21.625 0.608196C21.625 0.608189 21.625 0.608181 21.625 0.608173C21.625 0.608166 21.625 0.608158 21.625 0.608147C21.625 0.608139 21.625 0.608131 21.625 0.608124C21.625 0.608116 21.625 0.608109 21.625 0.608101C21.625 0.608089 21.625 0.608082 21.625 0.608074C21.625 0.608067 21.625 0.608059 21.625 0.608047C21.625 0.60804 21.625 0.608032 21.625 0.608025C21.625 0.608013 21.625 0.608006 21.625 0.607998C21.625 0.60799 21.625 0.607979 21.625 0.607971C21.625 0.607964 21.625 0.607952 21.625 0.607944C21.625 0.607937 21.625 0.607925 21.625 0.607918C21.625 0.60791 21.625 0.607899 21.625 0.607891C21.625 0.60788 21.625 0.607872 21.625 0.607864C21.625 0.607853 21.625 0.607845 21.625 0.607834C21.625 0.607826 21.625 0.607815 21.625 0.607807C21.625 0.607796 21.625 0.607788 21.625 0.607777C21.625 0.607769 21.625 0.607758 21.625 0.60775C21.625 0.607738 21.625 0.607727 21.625 0.607719C21.625 0.607708 21.625 0.6077 21.625 0.607689C21.625 0.607677 21.625 0.60767 21.625 0.607658C21.625 0.607651 21.625 0.607639 21.625 0.607628C21.625 0.60762 21.625 0.607609 21.625 0.607597C21.625 0.607586 21.625 0.607578 21.625 0.607567C21.625 0.607555 21.625 0.607544 21.625 0.607536C21.625 0.607525 21.625 0.607513 21.625 0.607502C21.625 0.607494 21.625 0.607483 21.625 0.607471C21.625 0.60746 21.625 0.607449 21.625 0.607437C21.625 0.607426 21.625 0.607418 21.625 0.607407C21.625 0.607395 21.625 0.607384 21.625 0.607372C21.625 0.607361 21.625 0.607349 21.625 0.607338C21.625 0.607327 21.625 0.607315 21.625 0.607304C21.625 0.607292 21.625 0.607281 21.625 0.607269C21.625 0.607258 21.625 0.607246 21.625 0.607235C21.625 0.607224 21.625 0.607212 21.625 0.607201C21.625 0.607189 21.625 0.607174 21.625 0.607162C21.625 0.607151 21.625 0.60714 21.625 0.607128C21.625 0.607117 21.625 0.607105 21.625 0.60709C21.625 0.607079 21.625 0.607067 21.625 0.607056C21.625 0.60704 21.625 0.607029 21.625 0.607018C21.625 0.607006 21.625 0.606991 21.625 0.606979C21.625 0.606968 21.625 0.606953 21.625 0.606941C21.625 0.60693 21.625 0.606915 21.625 0.606903C21.625 0.606892 21.625 0.606876 21.625 0.606865C21.625 0.60685 21.625 0.606838 21.625 0.606827C21.625 0.606812 21.625 0.6068 21.625 0.606785C21.625 0.606773 21.625 0.606758 21.625 0.606747C21.625 0.606731 21.625 0.60672 21.625 0.606705C21.625 0.606689 21.625 0.606678 21.625 0.606663C21.625 0.606651 21.625 0.606636 21.625 0.606625C21.625 0.606609 21.625 0.606594 21.625 0.606583C21.625 0.606567 21.625 0.606552 21.625 0.606541C21.625 0.606525 21.625 0.60651 21.625 0.606495C21.625 0.606483 21.625 0.606468 21.625 0.606453C21.625 0.606438 21.625 0.606426 21.625 0.606411C21.625 0.606396 21.625 0.60638 21.625 0.606365C21.625 0.60635 21.625 0.606339 21.625 0.606323C21.625 0.606308 21.625 0.606293 21.625 0.606277C21.625 0.606262 21.625 0.606247 21.625 0.606232C21.625 0.606216 21.625 0.606201 21.625 0.606186C21.625 0.606171 21.625 0.606155 21.625 0.60614C21.625 0.606125 21.625 0.60611 21.625 0.606094C21.625 0.606079 21.625 0.606064 21.625 0.606049C21.625 0.606033 21.625 0.606014 21.625 0.605999C21.625 0.605984 21.625 0.605968 21.625 0.605953C21.625 0.605938 21.625 0.605919 21.625 0.605904C21.625 0.605888 21.625 0.605873 21.625 0.605854C21.625 0.605839 21.625 0.605824 21.625 0.605804C21.625 0.605789 21.625 0.605774 21.625 0.605755C21.625 0.60574 21.625 0.605724 21.625 0.605705C21.625 0.60569 21.625 0.605675 21.625 0.605656C21.625 0.60564 21.625 0.605621 21.625 0.605606C21.625 0.605587 21.625 0.605572 21.625 0.605553C21.625 0.605537 21.625 0.605518 21.625 0.605503C21.625 0.605484 21.625 0.605469 21.625 0.60545C21.625 0.605431 21.625 0.605415 21.625 0.605396C21.625 0.605381 21.625 0.605362 21.625 0.605343C21.625 0.605328 21.625 0.605309 21.625 0.605289C21.625 0.60527 21.625 0.605255 21.625 0.605236C21.625 0.605217 21.625 0.605198 21.625 0.605183C21.625 0.605164 21.625 0.605145 21.625 0.605125C21.625 0.605106 21.625 0.605087 21.625 0.605068C21.625 0.605053 21.625 0.605034 21.625 0.605015C21.625 0.604996 21.625 0.604977 21.625 0.604958C21.625 0.604939 21.625 0.604919 21.625 0.6049C21.625 0.604881 21.625 0.604862 21.625 0.604843C21.625 0.604824 21.625 0.604805 21.625 0.604786C21.625 0.604767 21.625 0.604744 21.625 0.604725C21.625 0.604706 21.625 0.604687 21.625 0.604668C21.625 0.604649 21.625 0.604626 21.625 0.604607C21.625 0.604588 21.625 0.604568 21.625 0.604546C21.625 0.604527 21.625 0.604507 21.625 0.604485C21.625 0.604465 21.625 0.604446 21.625 0.604424C21.625 0.604404 21.625 0.604385 21.625 0.604362C21.625 0.604343 21.625 0.604321 21.625 0.604301C21.625 0.604282 21.625 0.604259 21.625 0.60424C21.625 0.604218 21.625 0.604198 21.625 0.604176C21.625 0.604156 21.625 0.604134 21.625 0.604111C21.625 0.604092 21.625 0.604069 21.625 0.60405C21.625 0.604027 21.625 0.604004 21.625 0.603985C21.625 0.603962 21.625 0.603939 21.625 0.603916C21.625 0.603897 21.625 0.603874 21.625 0.603851C21.625 0.603828 21.625 0.603809 21.625 0.603786C21.625 0.603764 21.625 0.603741 21.625 0.603718C21.625 0.603699 21.625 0.603676 21.625 0.603653C21.625 0.60363 21.625 0.603607 21.625 0.603584C21.625 0.603561 21.625 0.603539 21.625 0.603516C21.625 0.603493 21.625 0.60347 21.625 0.603447C21.625 0.603424 21.625 0.603401 21.625 0.603378C21.625 0.603355 21.625 0.603333 21.625 0.603306C21.625 0.603283 21.625 0.60326 21.625 0.603237C21.625 0.603214 21.625 0.603188 21.625 0.603165C21.625 0.603142 21.625 0.603119 21.625 0.603092C21.625 0.603069 21.625 0.603046 21.625 0.603024C21.625 0.602997 21.625 0.602974 21.625 0.602947C21.625 0.602924 21.625 0.602901 21.625 0.602875C21.625 0.602852 21.625 0.602825 21.625 0.602802C21.625 0.602776 21.625 0.602753 21.625 0.602726C21.625 0.602703 21.625 0.602676 21.625 0.602654C21.625 0.602627 21.625 0.602604 21.625 0.602577C21.625 0.602551 21.625 0.602528 21.625 0.602501C21.625 0.602474 21.625 0.602451 21.625 0.602425C21.625 0.602398 21.625 0.602371 21.625 0.602348C21.625 0.602322 21.625 0.602295 21.625 0.602268C21.625 0.602242 21.625 0.602219 21.625 0.602192C21.625 0.602165 21.625 0.602139 21.625 0.602112C21.625 0.602085 21.625 0.602058 21.625 0.602032C21.625 0.602005 21.625 0.601978 21.625 0.601952C21.625 0.601925 21.625 0.601898 21.625 0.601871C21.625 0.601845 21.625 0.601818 21.625 0.601791C21.625 0.601765 21.625 0.601734 21.625 0.601707C21.625 0.601681 21.625 0.601654 21.625 0.601627C21.625 0.601597 21.625 0.60157 21.625 0.601543C21.625 0.601517 21.625 0.601486 21.625 0.60146C21.625 0.601433 21.625 0.601402 21.625 0.601376C21.625 0.601345 21.625 0.601318 21.625 0.601292C21.625 0.601261 21.625 0.601234 21.625 0.601204C21.625 0.601177 21.625 0.601147 21.625 0.60112C21.625 0.601089 21.625 0.601063 21.625 0.601032C21.625 0.601002 21.625 0.600975 21.625 0.600945C21.625 0.600914 21.625 0.600887 21.625 0.600857C21.625 0.600826 21.625 0.6008 21.625 0.600769C21.625 0.600739 21.625 0.600708 21.625 0.600681C21.625 0.600651 21.625 0.60062 21.625 0.60059C21.625 0.600559 21.625 0.600529 21.625 0.600498C21.625 0.600471 21.625 0.600441 21.625 0.60041C21.625 0.60038 21.625 0.600349 21.625 0.600319C21.625 0.600288 21.625 0.600258 21.625 0.600224C21.625 0.600193 21.625 0.600163 21.625 0.600132C21.625 0.600101 21.625 0.600071 21.625 0.60004C21.625 0.60001 21.625 0.599976 21.625 0.599945C21.625 0.599915 21.625 0.599884 21.625 0.59985C21.625 0.599819 21.625 0.599789 21.625 0.599754C21.625 0.599724 21.625 0.599693 21.625 0.599659C21.625 0.599628 21.625 0.599594 21.625 0.599564C21.625 0.599529 21.625 0.599499 21.625 0.599464C21.625 0.599434 21.625 0.5994 21.625 0.599369C21.625 0.599335 21.625 0.599304 21.625 0.59927C21.625 0.599236 21.625 0.599205 21.625 0.599171C21.625 0.599136 21.625 0.599106 21.625 0.599072C21.625 0.599037 21.625 0.599003 21.625 0.598972C21.625 0.598938 21.625 0.598904 21.625 0.598869C21.625 0.598835 21.625 0.598801 21.625 0.598766C21.625 0.598736 21.625 0.598701 21.625 0.598667C21.625 0.598633 21.625 0.598598 21.625 0.598564C21.625 0.59853 21.625 0.598495 21.625 0.598457C21.625 0.598423 21.625 0.598389 21.625 0.598354C21.625 0.59832 21.625 0.598286 21.625 0.598251C21.625 0.598213 21.625 0.598179 21.625 0.598145C21.625 0.59811 21.625 0.598072 21.625 0.598038C21.625 0.598003 21.625 0.597965 21.625 0.597931C21.625 0.597897 21.625 0.597858 21.625 0.597824C21.625 0.597786 21.625 0.597752 21.625 0.597713C21.625 0.597679 21.625 0.597641 21.625 0.597607C21.625 0.597569 21.625 0.597534 21.625 0.597496C21.625 0.597458 21.625 0.597424 21.625 0.597385C21.625 0.597347 21.625 0.597313 21.625 0.597275C21.625 0.597237 21.625 0.597202 21.625 0.597164C21.625 0.597126 21.625 0.597088 21.625 0.59705C21.625 0.597012 21.625 0.596977 21.625 0.596939C21.625 0.596901 21.625 0.596863 21.625 0.596825C21.625 0.596786 21.625 0.596748 21.625 0.59671C21.625 0.596672 21.625 0.596634 21.625 0.596596C21.625 0.596558 21.625 0.596516 21.625 0.596478C21.625 0.596439 21.625 0.596401 21.625 0.596363C21.625 0.596325 21.625 0.596283 21.625 0.596245C21.625 0.596207 21.625 0.596165 21.625 0.596127C21.625 0.596088 21.625 0.596046 21.625 0.596008C21.625 0.59597 21.625 0.595928 21.625 0.59589C21.625 0.595848 21.625 0.59581 21.625 0.595768C21.625 0.59573 21.625 0.595688 21.625 0.59565C21.625 0.595608 21.625 0.595566 21.625 0.595528C21.625 0.595486 21.625 0.595444 21.625 0.595406C21.625 0.595364 21.625 0.595322 21.625 0.595284C21.625 0.595242 21.625 0.5952 21.625 0.595158C21.625 0.595116 21.625 0.595074 21.625 0.595036C21.625 0.594994 21.625 0.594952 21.625 0.59491C21.625 0.594868 21.625 0.594826 21.625 0.594784C21.625 0.594742 21.625 0.5947 21.625 0.594658C21.625 0.594612 21.625 0.59457 21.625 0.594528C21.625 0.594486 21.625 0.594444 21.625 0.594402C21.625 0.594357 21.625 0.594315 21.625 0.594273C21.625 0.594231 21.625 0.594185 21.625 0.594143C21.625 0.594101 21.625 0.594055 21.625 0.594013C21.625 0.593967 21.625 0.593925 21.625 0.593884C21.625 0.593838 21.625 0.593796 21.625 0.59375C21.625 0.593704 21.625 0.593662 21.625 0.593616C21.625 0.593575 21.625 0.593529 21.625 0.593483C21.625 0.593441 21.625 0.593395 21.625 0.593349C21.625 0.593307 21.625 0.593262 21.625 0.593216C21.625 0.59317 21.625 0.593124 21.625 0.593082C21.625 0.593037 21.625 0.592991 21.625 0.592945C21.625 0.592899 21.625 0.592854 21.625 0.592808C21.625 0.592762 21.625 0.592716 21.625 0.59267C21.625 0.592625 21.625 0.592579 21.625 0.592533C21.625 0.592484 21.625 0.592438 21.625 0.592392C21.625 0.592346 21.625 0.5923 21.625 0.592251C21.625 0.592205 21.625 0.592159 21.625 0.59211C21.625 0.592064 21.625 0.592018 21.625 0.591969C21.625 0.591923 21.625 0.591877 21.625 0.591827C21.625 0.591782 21.625 0.591732 21.625 0.591686C21.625 0.591637 21.625 0.591587 21.625 0.591541C21.625 0.591492 21.625 0.591446 21.625 0.591396C21.625 0.591347 21.625 0.591301 21.625 0.591251C21.625 0.591202 21.625 0.591152 21.625 0.591106C21.625 0.591057 21.625 0.591007 21.625 0.590958C21.625 0.590908 21.625 0.590858 21.625 0.590809C21.625 0.590759 21.625 0.59071 21.625 0.59066C21.625 0.590611 21.625 0.590561 21.625 0.590511C21.625 0.590462 21.625 0.590412 21.625 0.590363C21.625 0.590313 21.625 0.590263 21.625 0.59021C21.625 0.59016 21.625 0.590111 21.625 0.590061C21.625 0.590008 21.625 0.589958 21.625 0.589909C21.625 0.589855 21.625 0.589806 21.625 0.589752C21.625 0.589703 21.625 0.589653 21.625 0.5896C21.625 0.589546 21.625 0.589497 21.625 0.589443C21.625 0.589394 21.625 0.58934 21.625 0.589291C21.625 0.589237 21.625 0.589184 21.625 0.589134C21.625 0.589081 21.625 0.589027 21.625 0.588974C21.625 0.588924 21.625 0.588871 21.625 0.588818C21.625 0.588764 21.625 0.588711 21.625 0.588657C21.625 0.588604 21.625 0.588551 21.625 0.588497C21.625 0.588444 21.625 0.58839 21.625 0.588337C21.625 0.588284 21.625 0.58823 21.625 0.588177C21.625 0.588123 21.625 0.58807 21.625 0.588013C21.625 0.587959 21.625 0.587906 21.625 0.587852C21.625 0.587795 21.625 0.587742 21.625 0.587688C21.625 0.587631 21.625 0.587578 21.625 0.587521C21.625 0.587467 21.625 0.587414 21.625 0.587357C21.625 0.587303 21.625 0.587246 21.625 0.587189C21.625 0.587135 21.625 0.587078 21.625 0.587025C21.625 0.586967 21.625 0.58691 21.625 0.586857C21.625 0.5868 21.625 0.586742 21.625 0.586685C21.625 0.586628 21.625 0.586575 21.625 0.586517C21.625 0.58646 21.625 0.586403 21.625 0.586346C21.625 0.586288 21.625 0.586231 21.625 0.586174C21.625 0.586117 21.625 0.58606 21.625 0.586002C21.625 0.585945 21.625 0.585888 21.625 0.585831C21.625 0.58577 21.625 0.585712 21.625 0.585655C21.625 0.585598 21.625 0.585537 21.625 0.58548C21.625 0.585423 21.625 0.585361 21.625 0.585304C21.625 0.585247 21.625 0.585186 21.625 0.585129C21.625 0.585068 21.625 0.585011 21.625 0.584949C21.625 0.584892 21.625 0.584831 21.625 0.584774C21.625 0.584713 21.625 0.584652 21.625 0.584595C21.625 0.584534 21.625 0.584473 21.625 0.584412C21.625 0.584354 21.625 0.584293 21.625 0.584232C21.625 0.584171 21.625 0.58411 21.625 0.584049C21.625 0.583988 21.625 0.583927 21.625 0.583866C21.625 0.583805 21.625 0.583744 21.625 0.583683C21.625 0.583622 21.625 0.583561 21.625 0.5835C21.625 0.583439 21.625 0.583378 21.625 0.583313C21.625 0.583252 21.625 0.583191 21.625 0.58313C21.625 0.583065 21.625 0.583004 21.625 0.582943C21.625 0.582878 21.625 0.582817 21.625 0.582752C21.625 0.582691 21.625 0.582626 21.625 0.582565C21.625 0.5825 21.625 0.582439 21.625 0.582375C21.625 0.582314 21.625 0.582249 21.625 0.582184C21.625 0.582123 21.625 0.582058 21.625 0.581993C21.625 0.581928 21.625 0.581863 21.625 0.581802C21.625 0.581738 21.625 0.581673 21.625 0.581608C21.625 0.581543 21.625 0.581478 21.625 0.581413C21.625 0.581348 21.625 0.581284 21.625 0.581219C21.625 0.581154 21.625 0.581089 21.625 0.58102C21.625 0.580956 21.625 0.580891 21.625 0.580826C21.625 0.580761 21.625 0.580692 21.625 0.580627C21.625 0.580563 21.625 0.580494 21.625 0.580429C21.625 0.580364 21.625 0.580296 21.625 0.580231C21.625 0.580162 21.625 0.580097 21.625 0.580029C21.625 0.57996 21.625 0.579895 21.625 0.579826C21.625 0.579762 21.625 0.579693 21.625 0.579624C21.625 0.579556 21.625 0.579491 21.625 0.579422C21.625 0.579353 21.625 0.579285 21.625 0.579216C21.625 0.579147 21.625 0.579082 21.625 0.579014C21.625 0.578945 21.625 0.578876 21.625 0.578808C21.625 0.578735 21.625 0.578667 21.625 0.578598C21.625 0.578529 21.625 0.578461 21.625 0.578392C21.625 0.578323 21.625 0.578251 21.625 0.578182C21.625 0.578114 21.625 0.578041 21.625 0.577972C21.625 0.577904 21.625 0.577831 21.625 0.577763C21.625 0.57769 21.625 0.577621 21.625 0.577549C21.625 0.57748 21.625 0.577408 21.625 0.577339C21.625 0.577267 21.625 0.577194 21.625 0.577126C21.625 0.577053 21.625 0.576981 21.625 0.576908C21.625 0.576836 21.625 0.576767 21.625 0.576694C21.625 0.576622 21.625 0.57655 21.625 0.576477C21.625 0.576405 21.625 0.576332 21.625 0.57626C21.625 0.576187 21.625 0.576115 21.625 0.576042C21.625 0.57597 21.625 0.575897 21.625 0.575821C21.625 0.575748 21.625 0.575676 21.625 0.575603C21.625 0.575527 21.625 0.575455 21.625 0.575382C21.625 0.575306 21.625 0.575233 21.625 0.575157C21.625 0.575085 21.625 0.575008 21.625 0.574936C21.625 0.57486 21.625 0.574787 21.625 0.574711C21.625 0.574638 21.625 0.574562 21.625 0.574486C21.625 0.574409 21.625 0.574337 21.625 0.574261C21.625 0.574184 21.625 0.574108 21.625 0.574032C21.625 0.573956 21.625 0.573883 21.625 0.573807C21.625 0.57373 21.625 0.573654 21.625 0.573578C21.625 0.573498 21.625 0.573421 21.625 0.573345C21.625 0.573269 21.625 0.573193 21.625 0.573116C21.625 0.573036 21.625 0.57296 21.625 0.572884C21.625 0.572807 21.625 0.572727 21.625 0.572651C21.625 0.572571 21.625 0.572495 21.625 0.572418C21.625 0.572338 21.625 0.572262 21.625 0.572182C21.625 0.572102 21.625 0.572025 21.625 0.571945C21.625 0.571865 21.625 0.571789 21.625 0.571709C21.625 0.571629 21.625 0.571548 21.625 0.571472C21.625 0.571392 21.625 0.571312 21.625 0.571232C21.625 0.571152 21.625 0.571072 21.625 0.570992C21.625 0.570911 21.625 0.570831 21.625 0.570751C21.625 0.570671 21.625 0.570591 21.625 0.570511C21.625 0.570427 21.625 0.570347 21.625 0.570267C21.625 0.570187 21.625 0.570103 21.625 0.570023C21.625 0.569942 21.625 0.569859 21.625 0.569778C21.625 0.569695 21.625 0.569614 21.625 0.56953C21.625 0.56945 21.625 0.569366 21.625 0.569286C21.625 0.569202 21.625 0.569118 21.625 0.569038C21.625 0.568954 21.625 0.568871 21.625 0.568787C21.625 0.568703 21.625 0.568623 21.625 0.568539C21.625 0.568455 21.625 0.568371 21.625 0.568287C21.625 0.568203 21.625 0.568119 21.625 0.568035C21.625 0.567951 21.625 0.567867 21.625 0.56778C21.625 0.567696 21.625 0.567612 21.625 0.567528C21.625 0.567444 21.625 0.567356 21.625 0.567272C21.625 0.567188 21.625 0.567101 21.625 0.567017C21.625 0.566929 21.625 0.566845 21.625 0.566757C21.625 0.566673 21.625 0.566586 21.625 0.566502C21.625 0.566414 21.625 0.566326 21.625 0.566242C21.625 0.566154 21.625 0.566067 21.625 0.565979C21.625 0.565895 21.625 0.565807 21.625 0.56572C21.625 0.565632 21.625 0.565544 21.625 0.565456C21.625 0.565369 21.625 0.565281 21.625 0.565193C21.625 0.565105 21.625 0.565018 21.625 0.56493C21.625 0.564842 21.625 0.564751 21.625 0.564663C21.625 0.564575 21.625 0.564484 21.625 0.564396C21.625 0.564308 21.625 0.564217 21.625 0.564129C21.625 0.564041 21.625 0.56395 21.625 0.563858C21.625 0.56377 21.625 0.563679 21.625 0.563591C21.625 0.563499 21.625 0.563408 21.625 0.56332C21.625 0.563229 21.625 0.563137 21.625 0.563046C21.625 0.562958 21.625 0.562866 21.625 0.562775C21.625 0.562683 21.625 0.562592 21.625 0.5625H19.625ZM19.6262 0.657513L19.8137 4.54814L21.8113 4.45186L21.6238 0.561237L19.6262 0.657513ZM21.5807 3.85982C19.2877 1.1082 15.8222 -0.625 12 -0.625V1.375C15.2091 1.375 18.1185 2.8293 20.0443 5.14018L21.5807 3.85982ZM12 -0.625C5.02728 -0.625 -0.67593 5.0729 -0.624973 12.0542L1.37497 12.0396C1.33218 6.1771 6.12897 1.375 12 1.375V-0.625ZM-0.625 12.0469C-0.625 19.0263 5.03112 24.625 12 24.625V22.625C6.12513 22.625 1.375 17.9112 1.375 12.0469H-0.625ZM12 24.625C15.2555 24.625 18.2076 23.403 20.4446 21.4202L19.1179 19.9235C17.2299 21.597 14.7445 22.625 12 22.625V24.625ZM20.6133 21.2266C20.6525 21.1678 20.7365 21.0444 20.8046 20.9081C20.8738 20.7696 20.9688 20.5389 20.9688 20.25H18.9688C18.9688 20.1736 18.9815 20.1136 18.9926 20.0755C19.0034 20.0385 19.0143 20.0167 19.0157 20.0137C19.0172 20.0107 19.0144 20.0167 19.0021 20.0364C18.9893 20.057 18.9741 20.0798 18.9492 20.1172L20.6133 21.2266ZM20.9688 20.25C20.9688 19.7037 20.6911 19.3238 20.4884 19.121L19.0741 20.5352C19.0589 20.52 18.9688 20.4213 18.9688 20.25H20.9688ZM20.4884 19.121L18.8946 17.5273L17.4804 18.9415L19.0741 20.5352L20.4884 19.121ZM18.8946 17.5273C18.5709 17.2035 18.1516 17.0938 17.8125 17.0938V19.0938C17.7742 19.0938 17.7282 19.0877 17.6758 19.0687C17.6235 19.0497 17.5512 19.0123 17.4804 18.9415L18.8946 17.5273ZM17.8125 17.0938C17.4734 17.0938 17.0541 17.2035 16.7304 17.5273L18.1446 18.9415C18.0738 19.0123 18.0015 19.0497 17.9492 19.0687C17.8968 19.0877 17.8508 19.0938 17.8125 19.0938V17.0938ZM16.7807 17.4803C15.5084 18.5885 13.8194 19.25 12 19.25V21.25C14.3056 21.25 16.4604 20.4115 18.0943 18.9885L16.7807 17.4803ZM12 19.25C7.95853 19.25 4.75 16.0415 4.75 12H2.75C2.75 17.146 6.85397 21.25 12 21.25V19.25ZM4.75 12C4.75 8.0017 7.96223 4.75 12 4.75V2.75C6.85027 2.75 2.75 6.90455 2.75 12H4.75ZM12 4.75C14.463 4.75 16.6927 6.0237 18.0172 7.96904L19.6703 6.84346C17.9948 4.38255 15.162 2.75 12 2.75V4.75ZM18.8927 6.40745L14.1115 6.17307L14.0135 8.17068L18.7948 8.40505L18.8927 6.40745ZM14.0625 7.17188V6.17188H14.0625H14.0625C14.0625 6.17188 14.0625 6.17188 14.0625 6.17188C14.0625 6.17188 14.0625 6.17188 14.0625 6.17188H14.0625C14.0625 6.17188 14.0625 6.17188 14.0625 6.17188H14.0625H14.0625C14.0625 6.17188 14.0625 6.17188 14.0625 6.17188C14.0625 6.17188 14.0625 6.17188 14.0625 6.17188H14.0625C14.0625 6.17188 14.0625 6.17188 14.0625 6.17188H14.0625C14.0625 6.17188 14.0625 6.17188 14.0624 6.17188C14.0624 6.17188 14.0624 6.17188 14.0624 6.17188C14.0624 6.17188 14.0624 6.17188 14.0624 6.17188H14.0624H14.0624C14.0624 6.17188 14.0624 6.17188 14.0624 6.17188C14.0624 6.17188 14.0624 6.17188 14.0624 6.17188C14.0624 6.17188 14.0624 6.17188 14.0624 6.17188C14.0624 6.17188 14.0624 6.17188 14.0624 6.17188H14.0624H14.0624H14.0624C14.0624 6.17188 14.0624 6.17188 14.0624 6.17188C14.0624 6.17188 14.0624 6.17188 14.0624 6.17188C14.0624 6.17188 14.0624 6.17188 14.0624 6.17188H14.0624C14.0624 6.17188 14.0624 6.17188 14.0624 6.17188C14.0624 6.17188 14.0624 6.17188 14.0624 6.17188H14.0624C14.0624 6.17188 14.0624 6.17188 14.0624 6.17188H14.0624C14.0624 6.17188 14.0624 6.17188 14.0624 6.17188H14.0623C14.0623 6.17188 14.0623 6.17188 14.0623 6.17188H14.0623C14.0623 6.17188 14.0623 6.17188 14.0623 6.17188C14.0623 6.17188 14.0623 6.17188 14.0623 6.17188C14.0623 6.17188 14.0623 6.17188 14.0623 6.17188H14.0623C14.0623 6.17188 14.0623 6.17188 14.0623 6.17188C14.0623 6.17188 14.0623 6.17188 14.0623 6.17188C14.0623 6.17188 14.0623 6.17188 14.0623 6.17188C14.0623 6.17188 14.0623 6.17188 14.0623 6.17188C14.0623 6.17188 14.0623 6.17188 14.0623 6.17188C14.0623 6.17188 14.0623 6.17188 14.0623 6.17188C14.0623 6.17188 14.0623 6.17188 14.0623 6.17188C14.0623 6.17188 14.0622 6.17188 14.0622 6.17188C14.0622 6.17188 14.0622 6.17188 14.0622 6.17188C14.0622 6.17188 14.0622 6.17188 14.0622 6.17188C14.0622 6.17188 14.0622 6.17188 14.0622 6.17188C14.0622 6.17188 14.0622 6.17188 14.0622 6.17188C14.0622 6.17188 14.0622 6.17188 14.0622 6.17188C14.0622 6.17188 14.0622 6.17188 14.0622 6.17188C14.0622 6.17188 14.0622 6.17188 14.0622 6.17188C14.0622 6.17188 14.0622 6.17188 14.0622 6.17188C14.0622 6.17188 14.0622 6.17188 14.0622 6.17188C14.0622 6.17188 14.0622 6.17188 14.0621 6.17188C14.0621 6.17188 14.0621 6.17188 14.0621 6.17188C14.0621 6.17188 14.0621 6.17188 14.0621 6.17188C14.0621 6.17188 14.0621 6.17188 14.0621 6.17188C14.0621 6.17188 14.0621 6.17188 14.0621 6.17188C14.0621 6.17188 14.0621 6.17188 14.0621 6.17188C14.0621 6.17188 14.0621 6.17188 14.0621 6.17188C14.0621 6.17188 14.0621 6.17188 14.0621 6.17188C14.0621 6.17188 14.0621 6.17188 14.0621 6.17188C14.0621 6.17188 14.0621 6.17188 14.062 6.17188C14.062 6.17188 14.062 6.17188 14.062 6.17188C14.062 6.17188 14.062 6.17188 14.062 6.17188C14.062 6.17188 14.062 6.17188 14.062 6.17188C14.062 6.17188 14.062 6.17188 14.062 6.17188C14.062 6.17188 14.062 6.17188 14.062 6.17188C14.062 6.17188 14.062 6.17188 14.062 6.17188C14.062 6.17188 14.062 6.17188 14.062 6.17188C14.062 6.17188 14.0619 6.17188 14.0619 6.17188C14.0619 6.17188 14.0619 6.17188 14.0619 6.17188C14.0619 6.17188 14.0619 6.17188 14.0619 6.17188C14.0619 6.17188 14.0619 6.17188 14.0619 6.17188C14.0619 6.17188 14.0619 6.17188 14.0619 6.17188C14.0619 6.17188 14.0619 6.17188 14.0619 6.17188C14.0619 6.17188 14.0619 6.17188 14.0619 6.17188C14.0618 6.17188 14.0618 6.17188 14.0618 6.17188C14.0618 6.17188 14.0618 6.17188 14.0618 6.17188C14.0618 6.17188 14.0618 6.17188 14.0618 6.17188C14.0618 6.17188 14.0618 6.17188 14.0618 6.17188C14.0618 6.17188 14.0618 6.17188 14.0618 6.17188C14.0618 6.17188 14.0618 6.17188 14.0617 6.17188C14.0617 6.17188 14.0617 6.17188 14.0617 6.17188C14.0617 6.17188 14.0617 6.17188 14.0617 6.17188C14.0617 6.17188 14.0617 6.17188 14.0617 6.17188C14.0617 6.17188 14.0617 6.17188 14.0617 6.17188C14.0617 6.17188 14.0617 6.17188 14.0617 6.17188C14.0617 6.17188 14.0616 6.17188 14.0616 6.17188C14.0616 6.17188 14.0616 6.17188 14.0616 6.17188C14.0616 6.17188 14.0616 6.17188 14.0616 6.17188C14.0616 6.17188 14.0616 6.17188 14.0616 6.17188C14.0616 6.17188 14.0616 6.17188 14.0616 6.17188C14.0616 6.17188 14.0616 6.17188 14.0615 6.17188C14.0615 6.17188 14.0615 6.17188 14.0615 6.17188C14.0615 6.17188 14.0615 6.17188 14.0615 6.17188C14.0615 6.17188 14.0615 6.17188 14.0615 6.17188C14.0615 6.17188 14.0615 6.17188 14.0615 6.17188C14.0615 6.17188 14.0614 6.17188 14.0614 6.17188C14.0614 6.17188 14.0614 6.17188 14.0614 6.17188C14.0614 6.17188 14.0614 6.17188 14.0614 6.17188C14.0614 6.17188 14.0614 6.17188 14.0614 6.17188C14.0614 6.17188 14.0614 6.17188 14.0613 6.17188C14.0613 6.17188 14.0613 6.17188 14.0613 6.17188C14.0613 6.17188 14.0613 6.17188 14.0613 6.17188C14.0613 6.17188 14.0613 6.17188 14.0613 6.17188C14.0613 6.17188 14.0613 6.17188 14.0612 6.17188C14.0612 6.17188 14.0612 6.17188 14.0612 6.17188C14.0612 6.17188 14.0612 6.17188 14.0612 6.17188C14.0612 6.17188 14.0612 6.17188 14.0612 6.17188C14.0612 6.17188 14.0612 6.17188 14.0611 6.17188C14.0611 6.17188 14.0611 6.17188 14.0611 6.17188C14.0611 6.17188 14.0611 6.17188 14.0611 6.17188C14.0611 6.17188 14.0611 6.17188 14.0611 6.17188C14.0611 6.17188 14.0611 6.17188 14.061 6.17188C14.061 6.17188 14.061 6.17188 14.061 6.17188C14.061 6.17188 14.061 6.17188 14.061 6.17188C14.061 6.17188 14.061 6.17188 14.061 6.17188C14.061 6.17188 14.0609 6.17188 14.0609 6.17188C14.0609 6.17188 14.0609 6.17188 14.0609 6.17188C14.0609 6.17188 14.0609 6.17188 14.0609 6.17188C14.0609 6.17188 14.0609 6.17188 14.0608 6.17188C14.0608 6.17188 14.0608 6.17188 14.0608 6.17188C14.0608 6.17188 14.0608 6.17188 14.0608 6.17188C14.0608 6.17188 14.0608 6.17188 14.0608 6.17188C14.0607 6.17188 14.0607 6.17188 14.0607 6.17188C14.0607 6.17188 14.0607 6.17188 14.0607 6.17188C14.0607 6.17188 14.0607 6.17188 14.0607 6.17188C14.0606 6.17188 14.0606 6.17188 14.0606 6.17188C14.0606 6.17188 14.0606 6.17188 14.0606 6.17188C14.0606 6.17188 14.0606 6.17188 14.0606 6.17188C14.0606 6.17188 14.0605 6.17188 14.0605 6.17188C14.0605 6.17188 14.0605 6.17188 14.0605 6.17188C14.0605 6.17188 14.0605 6.17188 14.0605 6.17188C14.0605 6.17188 14.0604 6.17188 14.0604 6.17188C14.0604 6.17188 14.0604 6.17188 14.0604 6.17188C14.0604 6.17188 14.0604 6.17188 14.0604 6.17188C14.0603 6.17188 14.0603 6.17188 14.0603 6.17188C14.0603 6.17188 14.0603 6.17188 14.0603 6.17188C14.0603 6.17188 14.0603 6.17188 14.0603 6.17188C14.0602 6.17188 14.0602 6.17188 14.0602 6.17188C14.0602 6.17188 14.0602 6.17188 14.0602 6.17188C14.0602 6.17188 14.0602 6.17188 14.0601 6.17188C14.0601 6.17188 14.0601 6.17188 14.0601 6.17188C14.0601 6.17188 14.0601 6.17188 14.0601 6.17188C14.0601 6.17188 14.06 6.17188 14.06 6.17188C14.06 6.17188 14.06 6.17188 14.06 6.17188C14.06 6.17188 14.06 6.17188 14.06 6.17188C14.0599 6.17188 14.0599 6.17188 14.0599 6.17188C14.0599 6.17188 14.0599 6.17188 14.0599 6.17188C14.0599 6.17188 14.0598 6.17188 14.0598 6.17188C14.0598 6.17188 14.0598 6.17188 14.0598 6.17188C14.0598 6.17188 14.0598 6.17188 14.0597 6.17188C14.0597 6.17188 14.0597 6.17188 14.0597 6.17188C14.0597 6.17188 14.0597 6.17188 14.0597 6.17188C14.0597 6.17188 14.0596 6.17188 14.0596 6.17188C14.0596 6.17188 14.0596 6.17188 14.0596 6.17188C14.0596 6.17188 14.0596 6.17188 14.0595 6.17188C14.0595 6.17188 14.0595 6.17188 14.0595 6.17188C14.0595 6.17188 14.0595 6.17188 14.0594 6.17188C14.0594 6.17188 14.0594 6.17188 14.0594 6.17188C14.0594 6.17188 14.0594 6.17188 14.0594 6.17188C14.0593 6.17188 14.0593 6.17188 14.0593 6.17188C14.0593 6.17188 14.0593 6.17188 14.0593 6.17188C14.0592 6.17188 14.0592 6.17188 14.0592 6.17188C14.0592 6.17188 14.0592 6.17188 14.0592 6.17188C14.0592 6.17188 14.0591 6.17188 14.0591 6.17188C14.0591 6.17188 14.0591 6.17188 14.0591 6.17188C14.0591 6.17188 14.059 6.17188 14.059 6.17188C14.059 6.17188 14.059 6.17188 14.059 6.17188C14.059 6.17188 14.0589 6.17188 14.0589 6.17188C14.0589 6.17188 14.0589 6.17188 14.0589 6.17188C14.0589 6.17188 14.0588 6.17188 14.0588 6.17188C14.0588 6.17188 14.0588 6.17188 14.0588 6.17188C14.0588 6.17188 14.0587 6.17188 14.0587 6.17188C14.0587 6.17188 14.0587 6.17188 14.0587 6.17188C14.0587 6.17188 14.0586 6.17188 14.0586 6.17188C14.0586 6.17188 14.0586 6.17188 14.0586 6.17188C14.0586 6.17188 14.0585 6.17188 14.0585 6.17188C14.0585 6.17188 14.0585 6.17188 14.0585 6.17188C14.0585 6.17188 14.0584 6.17188 14.0584 6.17188C14.0584 6.17188 14.0584 6.17188 14.0584 6.17188C14.0583 6.17188 14.0583 6.17188 14.0583 6.17188C14.0583 6.17188 14.0583 6.17188 14.0583 6.17188C14.0582 6.17188 14.0582 6.17188 14.0582 6.17188C14.0582 6.17188 14.0582 6.17188 14.0581 6.17188C14.0581 6.17188 14.0581 6.17188 14.0581 6.17188C14.0581 6.17188 14.058 6.17188 14.058 6.17188C14.058 6.17188 14.058 6.17188 14.058 6.17188C14.0579 6.17188 14.0579 6.17188 14.0579 6.17188C14.0579 6.17188 14.0579 6.17188 14.0578 6.17188C14.0578 6.17188 14.0578 6.17188 14.0578 6.17188C14.0578 6.17188 14.0578 6.17188 14.0577 6.17188C14.0577 6.17188 14.0577 6.17188 14.0577 6.17188C14.0577 6.17188 14.0576 6.17188 14.0576 6.17188C14.0576 6.17188 14.0576 6.17188 14.0575 6.17188C14.0575 6.17188 14.0575 6.17188 14.0575 6.17188C14.0575 6.17188 14.0574 6.17188 14.0574 6.17188C14.0574 6.17188 14.0574 6.17188 14.0574 6.17188C14.0573 6.17188 14.0573 6.17188 14.0573 6.17188C14.0573 6.17188 14.0573 6.17188 14.0572 6.17188C14.0572 6.17188 14.0572 6.17188 14.0572 6.17188C14.0572 6.17188 14.0571 6.17188 14.0571 6.17188C14.0571 6.17188 14.0571 6.17188 14.057 6.17188C14.057 6.17188 14.057 6.17188 14.057 6.17188C14.057 6.17188 14.0569 6.17188 14.0569 6.17188C14.0569 6.17188 14.0569 6.17188 14.0568 6.17188C14.0568 6.17188 14.0568 6.17188 14.0568 6.17188C14.0568 6.17188 14.0567 6.17188 14.0567 6.17188C14.0567 6.17188 14.0567 6.17188 14.0566 6.17188C14.0566 6.17188 14.0566 6.17188 14.0566 6.17188C14.0565 6.17188 14.0565 6.17188 14.0565 6.17188C14.0565 6.17188 14.0565 6.17188 14.0564 6.17188C14.0564 6.17188 14.0564 6.17188 14.0564 6.17188C14.0563 6.17188 14.0563 6.17188 14.0563 6.17188C14.0563 6.17188 14.0562 6.17188 14.0562 6.17188C14.0562 6.17188 14.0562 6.17188 14.0561 6.17188C14.0561 6.17188 14.0561 6.17188 14.0561 6.17188C14.056 6.17188 14.056 6.17188 14.056 6.17188C14.056 6.17188 14.056 6.17188 14.0559 6.17188C14.0559 6.17188 14.0559 6.17188 14.0559 6.17188C14.0558 6.17188 14.0558 6.17188 14.0558 6.17188C14.0558 6.17188 14.0557 6.17188 14.0557 6.17188C14.0557 6.17188 14.0557 6.17188 14.0556 6.17188C14.0556 6.17188 14.0556 6.17188 14.0555 6.17188C14.0555 6.17188 14.0555 6.17188 14.0555 6.17188C14.0554 6.17188 14.0554 6.17188 14.0554 6.17188C14.0554 6.17188 14.0553 6.17188 14.0553 6.17188C14.0553 6.17188 14.0553 6.17188 14.0552 6.17188C14.0552 6.17188 14.0552 6.17188 14.0552 6.17188C14.0551 6.17188 14.0551 6.17188 14.0551 6.17188C14.055 6.17188 14.055 6.17188 14.055 6.17188C14.055 6.17188 14.0549 6.17188 14.0549 6.17188C14.0549 6.17188 14.0549 6.17188 14.0548 6.17188C14.0548 6.17188 14.0548 6.17188 14.0548 6.17188C14.0547 6.17188 14.0547 6.17188 14.0547 6.17188C14.0546 6.17188 14.0546 6.17188 14.0546 6.17188C14.0546 6.17188 14.0545 6.17188 14.0545 6.17188C14.0545 6.17188 14.0544 6.17188 14.0544 6.17188C14.0544 6.17188 14.0544 6.17188 14.0543 6.17188C14.0543 6.17188 14.0543 6.17188 14.0542 6.17188C14.0542 6.17188 14.0542 6.17188 14.0542 6.17188C14.0541 6.17188 14.0541 6.17188 14.0541 6.17188C14.054 6.17188 14.054 6.17188 14.054 6.17188C14.054 6.17188 14.0539 6.17188 14.0539 6.17188C14.0539 6.17188 14.0538 6.17188 14.0538 6.17188C14.0538 6.17188 14.0537 6.17188 14.0537 6.17188C14.0537 6.17188 14.0537 6.17188 14.0536 6.17188C14.0536 6.17188 14.0536 6.17188 14.0535 6.17188C14.0535 6.17188 14.0535 6.17188 14.0534 6.17188C14.0534 6.17188 14.0534 6.17188 14.0533 6.17188C14.0533 6.17188 14.0533 6.17188 14.0533 6.17188C14.0532 6.17188 14.0532 6.17188 14.0532 6.17188C14.0531 6.17188 14.0531 6.17188 14.0531 6.17188C14.053 6.17188 14.053 6.17188 14.053 6.17188C14.0529 6.17188 14.0529 6.17188 14.0529 6.17188C14.0528 6.17188 14.0528 6.17188 14.0528 6.17188C14.0528 6.17188 14.0527 6.17188 14.0527 6.17188C14.0527 6.17188 14.0526 6.17188 14.0526 6.17188C14.0526 6.17188 14.0525 6.17188 14.0525 6.17188C14.0525 6.17188 14.0524 6.17188 14.0524 6.17188C14.0524 6.17188 14.0523 6.17188 14.0523 6.17188C14.0523 6.17188 14.0522 6.17188 14.0522 6.17188C14.0522 6.17188 14.0521 6.17188 14.0521 6.17188C14.0521 6.17188 14.052 6.17188 14.052 6.17188C14.052 6.17188 14.0519 6.17188 14.0519 6.17188C14.0519 6.17188 14.0518 6.17188 14.0518 6.17188C14.0518 6.17188 14.0517 6.17188 14.0517 6.17188C14.0517 6.17188 14.0516 6.17188 14.0516 6.17188C14.0515 6.17188 14.0515 6.17188 14.0515 6.17188C14.0514 6.17188 14.0514 6.17188 14.0514 6.17188C14.0513 6.17188 14.0513 6.17188 14.0513 6.17188C14.0512 6.17188 14.0512 6.17188 14.0512 6.17188C14.0511 6.17188 14.0511 6.17188 14.0511 6.17188C14.051 6.17188 14.051 6.17188 14.0509 6.17188C14.0509 6.17188 14.0509 6.17188 14.0508 6.17188C14.0508 6.17188 14.0508 6.17188 14.0507 6.17188C14.0507 6.17188 14.0507 6.17188 14.0506 6.17188C14.0506 6.17188 14.0505 6.17188 14.0505 6.17188C14.0505 6.17188 14.0504 6.17188 14.0504 6.17188C14.0504 6.17188 14.0503 6.17188 14.0503 6.17188C14.0503 6.17188 14.0502 6.17188 14.0502 6.17188C14.0501 6.17188 14.0501 6.17188 14.0501 6.17188C14.05 6.17188 14.05 6.17188 14.0499 6.17188C14.0499 6.17188 14.0499 6.17188 14.0498 6.17188C14.0498 6.17188 14.0498 6.17188 14.0497 6.17188C14.0497 6.17188 14.0496 6.17188 14.0496 6.17188C14.0496 6.17188 14.0495 6.17188 14.0495 6.17188C14.0494 6.17188 14.0494 6.17188 14.0494 6.17188C14.0493 6.17188 14.0493 6.17188 14.0493 6.17188C14.0492 6.17188 14.0492 6.17188 14.0491 6.17188C14.0491 6.17188 14.0491 6.17188 14.049 6.17188C14.049 6.17188 14.0489 6.17188 14.0489 6.17188C14.0489 6.17188 14.0488 6.17188 14.0488 6.17188C14.0487 6.17188 14.0487 6.17188 14.0487 6.17188C14.0486 6.17188 14.0486 6.17188 14.0485 6.17188C14.0485 6.17188 14.0484 6.17188 14.0484 6.17188C14.0484 6.17188 14.0483 6.17188 14.0483 6.17188C14.0482 6.17188 14.0482 6.17188 14.0482 6.17188C14.0481 6.17188 14.0481 6.17188 14.048 6.17188C14.048 6.17188 14.048 6.17188 14.0479 6.17188C14.0479 6.17188 14.0478 6.17188 14.0478 6.17188C14.0477 6.17188 14.0477 6.17188 14.0477 6.17188C14.0476 6.17188 14.0476 6.17188 14.0475 6.17188C14.0475 6.17188 14.0474 6.17188 14.0474 6.17188C14.0474 6.17188 14.0473 6.17188 14.0473 6.17188C14.0472 6.17188 14.0472 6.17188 14.0471 6.17188C14.0471 6.17188 14.0471 6.17188 14.047 6.17188C14.047 6.17188 14.0469 6.17188 14.0469 6.17188C14.0468 6.17188 14.0468 6.17188 14.0467 6.17188C14.0467 6.17188 14.0467 6.17188 14.0466 6.17188C14.0466 6.17188 14.0465 6.17188 14.0465 6.17188C14.0464 6.17188 14.0464 6.17188 14.0463 6.17188C14.0463 6.17188 14.0462 6.17188 14.0462 6.17188C14.0462 6.17188 14.0461 6.17188 14.0461 6.17188C14.046 6.17188 14.046 6.17188 14.0459 6.17188C14.0459 6.17188 14.0458 6.17188 14.0458 6.17188C14.0457 6.17188 14.0457 6.17188 14.0457 6.17188C14.0456 6.17188 14.0456 6.17188 14.0455 6.17188C14.0455 6.17188 14.0454 6.17188 14.0454 6.17188C14.0453 6.17188 14.0453 6.17188 14.0452 6.17188C14.0452 6.17188 14.0451 6.17188 14.0451 6.17188C14.045 6.17188 14.045 6.17188 14.045 6.17188C14.0449 6.17188 14.0449 6.17188 14.0448 6.17188C14.0448 6.17188 14.0447 6.17188 14.0447 6.17188C14.0446 6.17188 14.0446 6.17188 14.0445 6.17188C14.0445 6.17188 14.0444 6.17188 14.0444 6.17188C14.0443 6.17188 14.0443 6.17188 14.0442 6.17188C14.0442 6.17188 14.0441 6.17188 14.0441 6.17188C14.044 6.17188 14.044 6.17188 14.0439 6.17188C14.0439 6.17188 14.0438 6.17188 14.0438 6.17188C14.0437 6.17188 14.0437 6.17188 14.0436 6.17188C14.0436 6.17188 14.0435 6.17188 14.0435 6.17188C14.0434 6.17188 14.0434 6.17188 14.0433 6.17188C14.0433 6.17188 14.0432 6.17188 14.0432 6.17188C14.0431 6.17188 14.0431 6.17188 14.043 6.17188C14.043 6.17188 14.0429 6.17188 14.0429 6.17188C14.0428 6.17188 14.0428 6.17188 14.0427 6.17188C14.0427 6.17188 14.0426 6.17188 14.0426 6.17188C14.0425 6.17188 14.0425 6.17188 14.0424 6.17188C14.0424 6.17188 14.0423 6.17188 14.0423 6.17188C14.0422 6.17188 14.0422 6.17188 14.0421 6.17188C14.042 6.17188 14.042 6.17188 14.0419 6.17188C14.0419 6.17188 14.0418 6.17188 14.0418 6.17188C14.0417 6.17188 14.0417 6.17188 14.0416 6.17188C14.0416 6.17188 14.0415 6.17188 14.0415 6.17188C14.0414 6.17188 14.0414 6.17188 14.0413 6.17188C14.0412 6.17188 14.0412 6.17188 14.0411 6.17188C14.0411 6.17188 14.041 6.17188 14.041 6.17188C14.0409 6.17188 14.0409 6.17188 14.0408 6.17188C14.0408 6.17188 14.0407 6.17188 14.0406 6.17188C14.0406 6.17188 14.0405 6.17188 14.0405 6.17188C14.0404 6.17188 14.0404 6.17188 14.0403 6.17188C14.0403 6.17188 14.0402 6.17188 14.0401 6.17188C14.0401 6.17188 14.04 6.17188 14.04 6.17188C14.0399 6.17188 14.0399 6.17188 14.0398 6.17188C14.0398 6.17188 14.0397 6.17188 14.0396 6.17188C14.0396 6.17188 14.0395 6.17188 14.0395 6.17188C14.0394 6.17188 14.0394 6.17188 14.0393 6.17188C14.0392 6.17188 14.0392 6.17188 14.0391 6.17188C14.0391 6.17188 14.039 6.17188 14.039 6.17188C14.0389 6.17188 14.0388 6.17188 14.0388 6.17188C14.0387 6.17188 14.0387 6.17188 14.0386 6.17188C14.0385 6.17188 14.0385 6.17188 14.0384 6.17188C14.0384 6.17188 14.0383 6.17188 14.0383 6.17188C14.0382 6.17188 14.0381 6.17188 14.0381 6.17188C14.038 6.17188 14.038 6.17188 14.0379 6.17188C14.0378 6.17188 14.0378 6.17188 14.0377 6.17188C14.0377 6.17188 14.0376 6.17188 14.0375 6.17188C14.0375 6.17188 14.0374 6.17188 14.0374 6.17188C14.0373 6.17188 14.0372 6.17188 14.0372 6.17188C14.0371 6.17188 14.0371 6.17188 14.037 6.17188C14.0369 6.17188 14.0369 6.17188 14.0368 6.17188C14.0367 6.17188 14.0367 6.17188 14.0366 6.17188C14.0366 6.17188 14.0365 6.17188 14.0364 6.17188C14.0364 6.17188 14.0363 6.17188 14.0363 6.17188C14.0362 6.17188 14.0361 6.17188 14.0361 6.17188C14.036 6.17188 14.0359 6.17188 14.0359 6.17188C14.0358 6.17188 14.0358 6.17188 14.0357 6.17188C14.0356 6.17188 14.0356 6.17188 14.0355 6.17188C14.0354 6.17188 14.0354 6.17188 14.0353 6.17188C14.0352 6.17188 14.0352 6.17188 14.0351 6.17188C14.0351 6.17188 14.035 6.17188 14.0349 6.17188C14.0349 6.17188 14.0348 6.17188 14.0347 6.17188C14.0347 6.17188 14.0346 6.17188 14.0345 6.17188C14.0345 6.17188 14.0344 6.17188 14.0343 6.17188C14.0343 6.17188 14.0342 6.17188 14.0341 6.17188C14.0341 6.17188 14.034 6.17188 14.034 6.17188C14.0339 6.17188 14.0338 6.17188 14.0338 6.17188C14.0337 6.17188 14.0336 6.17188 14.0336 6.17188C14.0335 6.17188 14.0334 6.17188 14.0334 6.17188C14.0333 6.17188 14.0332 6.17188 14.0332 6.17188C14.0331 6.17188 14.033 6.17188 14.033 6.17188C14.0329 6.17188 14.0328 6.17188 14.0327 6.17188C14.0327 6.17188 14.0326 6.17188 14.0325 6.17188C14.0325 6.17188 14.0324 6.17188 14.0323 6.17188C14.0323 6.17188 14.0322 6.17188 14.0321 6.17188C14.0321 6.17188 14.032 6.17188 14.0319 6.17188C14.0319 6.17188 14.0318 6.17188 14.0317 6.17188C14.0317 6.17188 14.0316 6.17188 14.0315 6.17188C14.0314 6.17188 14.0314 6.17188 14.0313 6.17188C14.0312 6.17188 14.0312 6.17188 14.0311 6.17188C14.031 6.17188 14.031 6.17188 14.0309 6.17188C14.0308 6.17188 14.0307 6.17188 14.0307 6.17188C14.0306 6.17188 14.0305 6.17188 14.0305 6.17188C14.0304 6.17188 14.0303 6.17188 14.0303 6.17188C14.0302 6.17188 14.0301 6.17188 14.03 6.17188C14.03 6.17188 14.0299 6.17188 14.0298 6.17188C14.0297 6.17188 14.0297 6.17188 14.0296 6.17188C14.0295 6.17188 14.0295 6.17188 14.0294 6.17188C14.0293 6.17188 14.0292 6.17188 14.0292 6.17188C14.0291 6.17188 14.029 6.17188 14.0289 6.17188C14.0289 6.17188 14.0288 6.17188 14.0287 6.17188C14.0287 6.17188 14.0286 6.17188 14.0285 6.17188C14.0284 6.17188 14.0284 6.17188 14.0283 6.17188C14.0282 6.17188 14.0281 6.17188 14.0281 6.17188C14.028 6.17188 14.0279 6.17188 14.0278 6.17188C14.0278 6.17188 14.0277 6.17188 14.0276 6.17188C14.0275 6.17188 14.0275 6.17188 14.0274 6.17188C14.0273 6.17188 14.0272 6.17188 14.0272 6.17188C14.0271 6.17188 14.027 6.17188 14.0269 6.17188C14.0269 6.17188 14.0268 6.17188 14.0267 6.17188C14.0266 6.17188 14.0265 6.17188 14.0265 6.17188C14.0264 6.17188 14.0263 6.17188 14.0262 6.17188C14.0262 6.17188 14.0261 6.17188 14.026 6.17188C14.0259 6.17188 14.0259 6.17188 14.0258 6.17188C14.0257 6.17188 14.0256 6.17188 14.0255 6.17188C14.0255 6.17188 14.0254 6.17188 14.0253 6.17188C14.0252 6.17188 14.0252 6.17188 14.0251 6.17188C14.025 6.17188 14.0249 6.17188 14.0248 6.17188C14.0248 6.17188 14.0247 6.17188 14.0246 6.17188C14.0245 6.17188 14.0244 6.17188 14.0244 6.17188C14.0243 6.17188 14.0242 6.17188 14.0241 6.17188C14.024 6.17188 14.024 6.17188 14.0239 6.17188C14.0238 6.17188 14.0237 6.17188 14.0236 6.17188C14.0236 6.17188 14.0235 6.17188 14.0234 6.17188C14.0233 6.17188 14.0232 6.17188 14.0231 6.17188C14.0231 6.17188 14.023 6.17188 14.0229 6.17188C14.0228 6.17188 14.0227 6.17188 14.0227 6.17188C14.0226 6.17188 14.0225 6.17188 14.0224 6.17188C14.0223 6.17188 14.0222 6.17188 14.0222 6.17188C14.0221 6.17188 14.022 6.17188 14.0219 6.17188C14.0218 6.17188 14.0217 6.17188 14.0217 6.17188C14.0216 6.17188 14.0215 6.17188 14.0214 6.17188C14.0213 6.17188 14.0212 6.17188 14.0212 6.17188C14.0211 6.17188 14.021 6.17188 14.0209 6.17188C14.0208 6.17188 14.0207 6.17188 14.0207 6.17188C14.0206 6.17188 14.0205 6.17188 14.0204 6.17188C14.0203 6.17188 14.0202 6.17188 14.0201 6.17188C14.0201 6.17188 14.02 6.17188 14.0199 6.17188C14.0198 6.17188 14.0197 6.17188 14.0196 6.17188C14.0195 6.17188 14.0195 6.17188 14.0194 6.17188C14.0193 6.17188 14.0192 6.17188 14.0191 6.17188C14.019 6.17188 14.0189 6.17188 14.0188 6.17188C14.0188 6.17188 14.0187 6.17188 14.0186 6.17188C14.0185 6.17188 14.0184 6.17188 14.0183 6.17188C14.0182 6.17188 14.0181 6.17188 14.0181 6.17188C14.018 6.17188 14.0179 6.17188 14.0178 6.17188C14.0177 6.17188 14.0176 6.17188 14.0175 6.17188C14.0174 6.17188 14.0173 6.17188 14.0173 6.17188C14.0172 6.17188 14.0171 6.17188 14.017 6.17188C14.0169 6.17188 14.0168 6.17188 14.0167 6.17188C14.0166 6.17188 14.0165 6.17188 14.0164 6.17188C14.0164 6.17188 14.0163 6.17188 14.0162 6.17188C14.0161 6.17188 14.016 6.17188 14.0159 6.17188C14.0158 6.17188 14.0157 6.17188 14.0156 6.17188V8.17188C14.0157 8.17188 14.0158 8.17188 14.0159 8.17188C14.016 8.17188 14.0161 8.17188 14.0162 8.17188C14.0163 8.17188 14.0164 8.17188 14.0164 8.17188C14.0165 8.17188 14.0166 8.17188 14.0167 8.17188C14.0168 8.17188 14.0169 8.17188 14.017 8.17188C14.0171 8.17188 14.0172 8.17188 14.0173 8.17188C14.0173 8.17188 14.0174 8.17188 14.0175 8.17188C14.0176 8.17188 14.0177 8.17188 14.0178 8.17188C14.0179 8.17188 14.018 8.17188 14.0181 8.17188C14.0181 8.17188 14.0182 8.17188 14.0183 8.17188C14.0184 8.17188 14.0185 8.17188 14.0186 8.17188C14.0187 8.17188 14.0188 8.17188 14.0188 8.17188C14.0189 8.17188 14.019 8.17188 14.0191 8.17188C14.0192 8.17188 14.0193 8.17188 14.0194 8.17188C14.0195 8.17188 14.0195 8.17188 14.0196 8.17188C14.0197 8.17188 14.0198 8.17188 14.0199 8.17188C14.02 8.17188 14.0201 8.17188 14.0201 8.17188C14.0202 8.17188 14.0203 8.17188 14.0204 8.17188C14.0205 8.17188 14.0206 8.17188 14.0207 8.17188C14.0207 8.17188 14.0208 8.17188 14.0209 8.17188C14.021 8.17188 14.0211 8.17188 14.0212 8.17188C14.0212 8.17188 14.0213 8.17188 14.0214 8.17188C14.0215 8.17188 14.0216 8.17188 14.0217 8.17188C14.0217 8.17188 14.0218 8.17188 14.0219 8.17188C14.022 8.17188 14.0221 8.17188 14.0222 8.17188C14.0222 8.17188 14.0223 8.17188 14.0224 8.17188C14.0225 8.17188 14.0226 8.17188 14.0227 8.17188C14.0227 8.17188 14.0228 8.17188 14.0229 8.17188C14.023 8.17188 14.0231 8.17188 14.0231 8.17188C14.0232 8.17188 14.0233 8.17188 14.0234 8.17188C14.0235 8.17188 14.0236 8.17188 14.0236 8.17188C14.0237 8.17188 14.0238 8.17188 14.0239 8.17188C14.024 8.17188 14.024 8.17188 14.0241 8.17188C14.0242 8.17188 14.0243 8.17188 14.0244 8.17188C14.0244 8.17188 14.0245 8.17188 14.0246 8.17188C14.0247 8.17188 14.0248 8.17188 14.0248 8.17188C14.0249 8.17188 14.025 8.17188 14.0251 8.17188C14.0252 8.17188 14.0252 8.17188 14.0253 8.17188C14.0254 8.17188 14.0255 8.17188 14.0255 8.17188C14.0256 8.17188 14.0257 8.17188 14.0258 8.17188C14.0259 8.17188 14.0259 8.17188 14.026 8.17188C14.0261 8.17188 14.0262 8.17188 14.0262 8.17188C14.0263 8.17188 14.0264 8.17188 14.0265 8.17188C14.0265 8.17188 14.0266 8.17188 14.0267 8.17188C14.0268 8.17188 14.0269 8.17188 14.0269 8.17188C14.027 8.17188 14.0271 8.17188 14.0272 8.17188C14.0272 8.17188 14.0273 8.17188 14.0274 8.17188C14.0275 8.17188 14.0275 8.17188 14.0276 8.17188C14.0277 8.17188 14.0278 8.17188 14.0278 8.17188C14.0279 8.17188 14.028 8.17188 14.0281 8.17188C14.0281 8.17188 14.0282 8.17188 14.0283 8.17188C14.0284 8.17188 14.0284 8.17188 14.0285 8.17188C14.0286 8.17188 14.0287 8.17188 14.0287 8.17188C14.0288 8.17188 14.0289 8.17188 14.0289 8.17188C14.029 8.17188 14.0291 8.17188 14.0292 8.17188C14.0292 8.17188 14.0293 8.17188 14.0294 8.17188C14.0295 8.17188 14.0295 8.17188 14.0296 8.17188C14.0297 8.17188 14.0297 8.17188 14.0298 8.17188C14.0299 8.17188 14.03 8.17188 14.03 8.17188C14.0301 8.17188 14.0302 8.17188 14.0303 8.17188C14.0303 8.17188 14.0304 8.17188 14.0305 8.17188C14.0305 8.17188 14.0306 8.17188 14.0307 8.17188C14.0307 8.17188 14.0308 8.17188 14.0309 8.17188C14.031 8.17188 14.031 8.17188 14.0311 8.17188C14.0312 8.17188 14.0312 8.17188 14.0313 8.17188C14.0314 8.17188 14.0314 8.17188 14.0315 8.17188C14.0316 8.17188 14.0317 8.17188 14.0317 8.17188C14.0318 8.17188 14.0319 8.17188 14.0319 8.17188C14.032 8.17188 14.0321 8.17188 14.0321 8.17188C14.0322 8.17188 14.0323 8.17188 14.0323 8.17188C14.0324 8.17188 14.0325 8.17188 14.0325 8.17188C14.0326 8.17188 14.0327 8.17188 14.0327 8.17188C14.0328 8.17188 14.0329 8.17188 14.033 8.17188C14.033 8.17188 14.0331 8.17188 14.0332 8.17188C14.0332 8.17188 14.0333 8.17188 14.0334 8.17188C14.0334 8.17188 14.0335 8.17188 14.0336 8.17188C14.0336 8.17188 14.0337 8.17188 14.0338 8.17188C14.0338 8.17188 14.0339 8.17188 14.034 8.17188C14.034 8.17188 14.0341 8.17188 14.0341 8.17188C14.0342 8.17188 14.0343 8.17188 14.0343 8.17188C14.0344 8.17188 14.0345 8.17188 14.0345 8.17188C14.0346 8.17188 14.0347 8.17188 14.0347 8.17188C14.0348 8.17188 14.0349 8.17188 14.0349 8.17188C14.035 8.17188 14.0351 8.17188 14.0351 8.17188C14.0352 8.17188 14.0352 8.17188 14.0353 8.17188C14.0354 8.17188 14.0354 8.17188 14.0355 8.17188C14.0356 8.17188 14.0356 8.17188 14.0357 8.17188C14.0358 8.17188 14.0358 8.17188 14.0359 8.17188C14.0359 8.17188 14.036 8.17188 14.0361 8.17188C14.0361 8.17188 14.0362 8.17188 14.0363 8.17188C14.0363 8.17188 14.0364 8.17188 14.0364 8.17188C14.0365 8.17188 14.0366 8.17188 14.0366 8.17188C14.0367 8.17188 14.0367 8.17188 14.0368 8.17188C14.0369 8.17188 14.0369 8.17188 14.037 8.17188C14.0371 8.17188 14.0371 8.17188 14.0372 8.17188C14.0372 8.17188 14.0373 8.17188 14.0374 8.17188C14.0374 8.17188 14.0375 8.17188 14.0375 8.17188C14.0376 8.17188 14.0377 8.17188 14.0377 8.17188C14.0378 8.17188 14.0378 8.17188 14.0379 8.17188C14.038 8.17188 14.038 8.17188 14.0381 8.17188C14.0381 8.17188 14.0382 8.17188 14.0383 8.17188C14.0383 8.17188 14.0384 8.17188 14.0384 8.17188C14.0385 8.17188 14.0385 8.17188 14.0386 8.17188C14.0387 8.17188 14.0387 8.17188 14.0388 8.17188C14.0388 8.17188 14.0389 8.17188 14.039 8.17188C14.039 8.17188 14.0391 8.17188 14.0391 8.17188C14.0392 8.17188 14.0392 8.17188 14.0393 8.17188C14.0394 8.17188 14.0394 8.17188 14.0395 8.17188C14.0395 8.17188 14.0396 8.17188 14.0396 8.17188C14.0397 8.17188 14.0398 8.17188 14.0398 8.17188C14.0399 8.17188 14.0399 8.17188 14.04 8.17188C14.04 8.17188 14.0401 8.17188 14.0401 8.17188C14.0402 8.17188 14.0403 8.17188 14.0403 8.17188C14.0404 8.17188 14.0404 8.17188 14.0405 8.17188C14.0405 8.17188 14.0406 8.17188 14.0406 8.17188C14.0407 8.17188 14.0408 8.17188 14.0408 8.17188C14.0409 8.17188 14.0409 8.17188 14.041 8.17188C14.041 8.17188 14.0411 8.17188 14.0411 8.17188C14.0412 8.17188 14.0412 8.17188 14.0413 8.17188C14.0414 8.17188 14.0414 8.17188 14.0415 8.17188C14.0415 8.17188 14.0416 8.17188 14.0416 8.17188C14.0417 8.17188 14.0417 8.17188 14.0418 8.17188C14.0418 8.17188 14.0419 8.17188 14.0419 8.17188C14.042 8.17188 14.042 8.17188 14.0421 8.17188C14.0422 8.17188 14.0422 8.17188 14.0423 8.17188C14.0423 8.17188 14.0424 8.17188 14.0424 8.17188C14.0425 8.17188 14.0425 8.17188 14.0426 8.17188C14.0426 8.17188 14.0427 8.17188 14.0427 8.17188C14.0428 8.17188 14.0428 8.17188 14.0429 8.17188C14.0429 8.17188 14.043 8.17188 14.043 8.17188C14.0431 8.17188 14.0431 8.17188 14.0432 8.17188C14.0432 8.17188 14.0433 8.17188 14.0433 8.17188C14.0434 8.17188 14.0434 8.17188 14.0435 8.17188C14.0435 8.17188 14.0436 8.17188 14.0436 8.17188C14.0437 8.17188 14.0437 8.17188 14.0438 8.17188C14.0438 8.17188 14.0439 8.17188 14.0439 8.17188C14.044 8.17188 14.044 8.17188 14.0441 8.17188C14.0441 8.17188 14.0442 8.17188 14.0442 8.17188C14.0443 8.17188 14.0443 8.17188 14.0444 8.17188C14.0444 8.17188 14.0445 8.17188 14.0445 8.17188C14.0446 8.17188 14.0446 8.17188 14.0447 8.17188C14.0447 8.17188 14.0448 8.17188 14.0448 8.17188C14.0449 8.17188 14.0449 8.17188 14.045 8.17188C14.045 8.17188 14.045 8.17188 14.0451 8.17188C14.0451 8.17188 14.0452 8.17188 14.0452 8.17188C14.0453 8.17188 14.0453 8.17188 14.0454 8.17188C14.0454 8.17188 14.0455 8.17188 14.0455 8.17188C14.0456 8.17188 14.0456 8.17188 14.0457 8.17188C14.0457 8.17188 14.0457 8.17188 14.0458 8.17188C14.0458 8.17188 14.0459 8.17188 14.0459 8.17188C14.046 8.17188 14.046 8.17188 14.0461 8.17188C14.0461 8.17188 14.0462 8.17188 14.0462 8.17188C14.0462 8.17188 14.0463 8.17188 14.0463 8.17188C14.0464 8.17188 14.0464 8.17188 14.0465 8.17188C14.0465 8.17188 14.0466 8.17188 14.0466 8.17188C14.0467 8.17188 14.0467 8.17188 14.0467 8.17188C14.0468 8.17188 14.0468 8.17188 14.0469 8.17188C14.0469 8.17188 14.047 8.17188 14.047 8.17188C14.0471 8.17188 14.0471 8.17188 14.0471 8.17188C14.0472 8.17188 14.0472 8.17188 14.0473 8.17188C14.0473 8.17188 14.0474 8.17188 14.0474 8.17188C14.0474 8.17188 14.0475 8.17188 14.0475 8.17188C14.0476 8.17188 14.0476 8.17188 14.0477 8.17188C14.0477 8.17188 14.0477 8.17188 14.0478 8.17188C14.0478 8.17188 14.0479 8.17188 14.0479 8.17188C14.048 8.17188 14.048 8.17188 14.048 8.17188C14.0481 8.17188 14.0481 8.17188 14.0482 8.17188C14.0482 8.17188 14.0482 8.17188 14.0483 8.17188C14.0483 8.17188 14.0484 8.17188 14.0484 8.17188C14.0484 8.17188 14.0485 8.17188 14.0485 8.17188C14.0486 8.17188 14.0486 8.17188 14.0487 8.17188C14.0487 8.17188 14.0487 8.17188 14.0488 8.17188C14.0488 8.17188 14.0489 8.17188 14.0489 8.17188C14.0489 8.17188 14.049 8.17188 14.049 8.17188C14.0491 8.17188 14.0491 8.17188 14.0491 8.17188C14.0492 8.17188 14.0492 8.17188 14.0493 8.17188C14.0493 8.17188 14.0493 8.17188 14.0494 8.17188C14.0494 8.17188 14.0494 8.17188 14.0495 8.17188C14.0495 8.17188 14.0496 8.17188 14.0496 8.17188C14.0496 8.17188 14.0497 8.17188 14.0497 8.17188C14.0498 8.17188 14.0498 8.17188 14.0498 8.17188C14.0499 8.17188 14.0499 8.17188 14.0499 8.17188C14.05 8.17188 14.05 8.17188 14.0501 8.17188C14.0501 8.17188 14.0501 8.17188 14.0502 8.17188C14.0502 8.17188 14.0503 8.17188 14.0503 8.17188C14.0503 8.17188 14.0504 8.17188 14.0504 8.17188C14.0504 8.17188 14.0505 8.17188 14.0505 8.17188C14.0505 8.17188 14.0506 8.17188 14.0506 8.17188C14.0507 8.17188 14.0507 8.17188 14.0507 8.17188C14.0508 8.17188 14.0508 8.17188 14.0508 8.17188C14.0509 8.17188 14.0509 8.17188 14.0509 8.17188C14.051 8.17188 14.051 8.17188 14.0511 8.17188C14.0511 8.17188 14.0511 8.17188 14.0512 8.17188C14.0512 8.17188 14.0512 8.17188 14.0513 8.17188C14.0513 8.17188 14.0513 8.17188 14.0514 8.17188C14.0514 8.17188 14.0514 8.17188 14.0515 8.17188C14.0515 8.17188 14.0515 8.17188 14.0516 8.17188C14.0516 8.17188 14.0517 8.17188 14.0517 8.17188C14.0517 8.17188 14.0518 8.17188 14.0518 8.17188C14.0518 8.17188 14.0519 8.17188 14.0519 8.17188C14.0519 8.17188 14.052 8.17188 14.052 8.17188C14.052 8.17188 14.0521 8.17188 14.0521 8.17188C14.0521 8.17188 14.0522 8.17188 14.0522 8.17188C14.0522 8.17188 14.0523 8.17188 14.0523 8.17188C14.0523 8.17188 14.0524 8.17188 14.0524 8.17188C14.0524 8.17188 14.0525 8.17188 14.0525 8.17188C14.0525 8.17188 14.0526 8.17188 14.0526 8.17188C14.0526 8.17188 14.0527 8.17188 14.0527 8.17188C14.0527 8.17188 14.0528 8.17188 14.0528 8.17188C14.0528 8.17188 14.0528 8.17188 14.0529 8.17188C14.0529 8.17188 14.0529 8.17188 14.053 8.17188C14.053 8.17188 14.053 8.17188 14.0531 8.17188C14.0531 8.17188 14.0531 8.17188 14.0532 8.17188C14.0532 8.17188 14.0532 8.17188 14.0533 8.17188C14.0533 8.17188 14.0533 8.17188 14.0533 8.17188C14.0534 8.17188 14.0534 8.17188 14.0534 8.17188C14.0535 8.17188 14.0535 8.17188 14.0535 8.17188C14.0536 8.17188 14.0536 8.17188 14.0536 8.17188C14.0537 8.17188 14.0537 8.17188 14.0537 8.17188C14.0537 8.17188 14.0538 8.17188 14.0538 8.17188C14.0538 8.17188 14.0539 8.17188 14.0539 8.17188C14.0539 8.17188 14.054 8.17188 14.054 8.17188C14.054 8.17188 14.054 8.17188 14.0541 8.17188C14.0541 8.17188 14.0541 8.17188 14.0542 8.17188C14.0542 8.17188 14.0542 8.17188 14.0542 8.17188C14.0543 8.17188 14.0543 8.17188 14.0543 8.17188C14.0544 8.17188 14.0544 8.17188 14.0544 8.17188C14.0544 8.17188 14.0545 8.17188 14.0545 8.17188C14.0545 8.17188 14.0546 8.17188 14.0546 8.17188C14.0546 8.17188 14.0546 8.17188 14.0547 8.17188C14.0547 8.17188 14.0547 8.17188 14.0548 8.17188C14.0548 8.17188 14.0548 8.17188 14.0548 8.17188C14.0549 8.17188 14.0549 8.17188 14.0549 8.17188C14.0549 8.17188 14.055 8.17188 14.055 8.17188C14.055 8.17188 14.055 8.17188 14.0551 8.17188C14.0551 8.17188 14.0551 8.17188 14.0552 8.17188C14.0552 8.17188 14.0552 8.17188 14.0552 8.17188C14.0553 8.17188 14.0553 8.17188 14.0553 8.17188C14.0553 8.17188 14.0554 8.17188 14.0554 8.17188C14.0554 8.17188 14.0554 8.17188 14.0555 8.17188C14.0555 8.17188 14.0555 8.17188 14.0555 8.17188C14.0556 8.17188 14.0556 8.17188 14.0556 8.17188C14.0557 8.17188 14.0557 8.17188 14.0557 8.17188C14.0557 8.17188 14.0558 8.17188 14.0558 8.17188C14.0558 8.17188 14.0558 8.17188 14.0559 8.17188C14.0559 8.17188 14.0559 8.17188 14.0559 8.17188C14.056 8.17188 14.056 8.17188 14.056 8.17188C14.056 8.17188 14.056 8.17188 14.0561 8.17188C14.0561 8.17188 14.0561 8.17188 14.0561 8.17188C14.0562 8.17188 14.0562 8.17188 14.0562 8.17188C14.0562 8.17188 14.0563 8.17188 14.0563 8.17188C14.0563 8.17188 14.0563 8.17188 14.0564 8.17188C14.0564 8.17188 14.0564 8.17188 14.0564 8.17188C14.0565 8.17188 14.0565 8.17188 14.0565 8.17188C14.0565 8.17188 14.0565 8.17188 14.0566 8.17188C14.0566 8.17188 14.0566 8.17188 14.0566 8.17188C14.0567 8.17188 14.0567 8.17188 14.0567 8.17188C14.0567 8.17188 14.0568 8.17188 14.0568 8.17188C14.0568 8.17188 14.0568 8.17188 14.0568 8.17188C14.0569 8.17188 14.0569 8.17188 14.0569 8.17188C14.0569 8.17188 14.057 8.17188 14.057 8.17188C14.057 8.17188 14.057 8.17188 14.057 8.17188C14.0571 8.17188 14.0571 8.17188 14.0571 8.17188C14.0571 8.17188 14.0572 8.17188 14.0572 8.17188C14.0572 8.17188 14.0572 8.17188 14.0572 8.17188C14.0573 8.17188 14.0573 8.17188 14.0573 8.17188C14.0573 8.17188 14.0573 8.17188 14.0574 8.17188C14.0574 8.17188 14.0574 8.17188 14.0574 8.17188C14.0574 8.17188 14.0575 8.17188 14.0575 8.17188C14.0575 8.17188 14.0575 8.17188 14.0575 8.17188C14.0576 8.17188 14.0576 8.17188 14.0576 8.17188C14.0576 8.17188 14.0577 8.17188 14.0577 8.17188C14.0577 8.17188 14.0577 8.17188 14.0577 8.17188C14.0578 8.17188 14.0578 8.17188 14.0578 8.17188C14.0578 8.17188 14.0578 8.17188 14.0578 8.17188C14.0579 8.17188 14.0579 8.17188 14.0579 8.17188C14.0579 8.17188 14.0579 8.17188 14.058 8.17188C14.058 8.17188 14.058 8.17188 14.058 8.17188C14.058 8.17188 14.0581 8.17188 14.0581 8.17188C14.0581 8.17188 14.0581 8.17188 14.0581 8.17188C14.0582 8.17188 14.0582 8.17188 14.0582 8.17188C14.0582 8.17188 14.0582 8.17188 14.0583 8.17188C14.0583 8.17188 14.0583 8.17188 14.0583 8.17188C14.0583 8.17188 14.0583 8.17188 14.0584 8.17188C14.0584 8.17188 14.0584 8.17188 14.0584 8.17188C14.0584 8.17188 14.0585 8.17188 14.0585 8.17188C14.0585 8.17188 14.0585 8.17188 14.0585 8.17188C14.0585 8.17188 14.0586 8.17188 14.0586 8.17188C14.0586 8.17188 14.0586 8.17188 14.0586 8.17188C14.0586 8.17188 14.0587 8.17188 14.0587 8.17188C14.0587 8.17188 14.0587 8.17188 14.0587 8.17188C14.0587 8.17188 14.0588 8.17188 14.0588 8.17188C14.0588 8.17188 14.0588 8.17188 14.0588 8.17188C14.0588 8.17188 14.0589 8.17188 14.0589 8.17188C14.0589 8.17188 14.0589 8.17188 14.0589 8.17188C14.0589 8.17188 14.059 8.17188 14.059 8.17188C14.059 8.17188 14.059 8.17188 14.059 8.17188C14.059 8.17188 14.0591 8.17188 14.0591 8.17188C14.0591 8.17188 14.0591 8.17188 14.0591 8.17188C14.0591 8.17188 14.0592 8.17188 14.0592 8.17188C14.0592 8.17188 14.0592 8.17188 14.0592 8.17188C14.0592 8.17188 14.0592 8.17188 14.0593 8.17188C14.0593 8.17188 14.0593 8.17188 14.0593 8.17188C14.0593 8.17188 14.0593 8.17188 14.0594 8.17188C14.0594 8.17188 14.0594 8.17188 14.0594 8.17188C14.0594 8.17188 14.0594 8.17188 14.0594 8.17188C14.0595 8.17188 14.0595 8.17188 14.0595 8.17188C14.0595 8.17188 14.0595 8.17188 14.0595 8.17188C14.0596 8.17188 14.0596 8.17188 14.0596 8.17188C14.0596 8.17188 14.0596 8.17188 14.0596 8.17188C14.0596 8.17188 14.0597 8.17188 14.0597 8.17188C14.0597 8.17188 14.0597 8.17188 14.0597 8.17188C14.0597 8.17188 14.0597 8.17188 14.0597 8.17188C14.0598 8.17188 14.0598 8.17188 14.0598 8.17188C14.0598 8.17188 14.0598 8.17188 14.0598 8.17188C14.0598 8.17188 14.0599 8.17188 14.0599 8.17188C14.0599 8.17188 14.0599 8.17188 14.0599 8.17188C14.0599 8.17188 14.0599 8.17188 14.06 8.17188C14.06 8.17188 14.06 8.17188 14.06 8.17188C14.06 8.17188 14.06 8.17188 14.06 8.17188C14.06 8.17188 14.0601 8.17188 14.0601 8.17188C14.0601 8.17188 14.0601 8.17188 14.0601 8.17188C14.0601 8.17188 14.0601 8.17188 14.0601 8.17188C14.0602 8.17188 14.0602 8.17188 14.0602 8.17188C14.0602 8.17188 14.0602 8.17188 14.0602 8.17188C14.0602 8.17188 14.0602 8.17188 14.0603 8.17188C14.0603 8.17188 14.0603 8.17188 14.0603 8.17188C14.0603 8.17188 14.0603 8.17188 14.0603 8.17188C14.0603 8.17188 14.0603 8.17188 14.0604 8.17188C14.0604 8.17188 14.0604 8.17188 14.0604 8.17188C14.0604 8.17188 14.0604 8.17188 14.0604 8.17188C14.0604 8.17188 14.0605 8.17188 14.0605 8.17188C14.0605 8.17188 14.0605 8.17188 14.0605 8.17188C14.0605 8.17188 14.0605 8.17188 14.0605 8.17188C14.0605 8.17188 14.0606 8.17188 14.0606 8.17188C14.0606 8.17188 14.0606 8.17188 14.0606 8.17188C14.0606 8.17188 14.0606 8.17188 14.0606 8.17188C14.0606 8.17188 14.0606 8.17188 14.0607 8.17188C14.0607 8.17188 14.0607 8.17188 14.0607 8.17188C14.0607 8.17188 14.0607 8.17188 14.0607 8.17188C14.0607 8.17188 14.0607 8.17188 14.0608 8.17188C14.0608 8.17188 14.0608 8.17188 14.0608 8.17188C14.0608 8.17188 14.0608 8.17188 14.0608 8.17188C14.0608 8.17188 14.0608 8.17188 14.0608 8.17188C14.0609 8.17188 14.0609 8.17188 14.0609 8.17188C14.0609 8.17188 14.0609 8.17188 14.0609 8.17188C14.0609 8.17188 14.0609 8.17188 14.0609 8.17188C14.0609 8.17188 14.061 8.17188 14.061 8.17188C14.061 8.17188 14.061 8.17188 14.061 8.17188C14.061 8.17188 14.061 8.17188 14.061 8.17188C14.061 8.17188 14.061 8.17188 14.061 8.17188C14.0611 8.17188 14.0611 8.17188 14.0611 8.17188C14.0611 8.17188 14.0611 8.17188 14.0611 8.17188C14.0611 8.17188 14.0611 8.17188 14.0611 8.17188C14.0611 8.17188 14.0611 8.17188 14.0611 8.17188C14.0612 8.17188 14.0612 8.17188 14.0612 8.17188C14.0612 8.17188 14.0612 8.17188 14.0612 8.17188C14.0612 8.17188 14.0612 8.17188 14.0612 8.17188C14.0612 8.17188 14.0612 8.17188 14.0612 8.17188C14.0613 8.17188 14.0613 8.17188 14.0613 8.17188C14.0613 8.17188 14.0613 8.17188 14.0613 8.17188C14.0613 8.17188 14.0613 8.17188 14.0613 8.17188C14.0613 8.17188 14.0613 8.17188 14.0613 8.17188C14.0614 8.17188 14.0614 8.17188 14.0614 8.17188C14.0614 8.17188 14.0614 8.17188 14.0614 8.17188C14.0614 8.17188 14.0614 8.17188 14.0614 8.17188C14.0614 8.17188 14.0614 8.17188 14.0614 8.17188C14.0614 8.17188 14.0615 8.17188 14.0615 8.17188C14.0615 8.17188 14.0615 8.17188 14.0615 8.17188C14.0615 8.17188 14.0615 8.17188 14.0615 8.17188C14.0615 8.17188 14.0615 8.17188 14.0615 8.17188C14.0615 8.17188 14.0615 8.17188 14.0615 8.17188C14.0616 8.17188 14.0616 8.17188 14.0616 8.17188C14.0616 8.17188 14.0616 8.17188 14.0616 8.17188C14.0616 8.17188 14.0616 8.17188 14.0616 8.17188C14.0616 8.17188 14.0616 8.17188 14.0616 8.17188C14.0616 8.17188 14.0616 8.17188 14.0616 8.17188C14.0616 8.17188 14.0617 8.17188 14.0617 8.17188C14.0617 8.17188 14.0617 8.17188 14.0617 8.17188C14.0617 8.17188 14.0617 8.17188 14.0617 8.17188C14.0617 8.17188 14.0617 8.17188 14.0617 8.17188C14.0617 8.17188 14.0617 8.17188 14.0617 8.17188C14.0617 8.17188 14.0617 8.17188 14.0617 8.17188C14.0618 8.17188 14.0618 8.17188 14.0618 8.17188C14.0618 8.17188 14.0618 8.17188 14.0618 8.17188C14.0618 8.17188 14.0618 8.17188 14.0618 8.17188C14.0618 8.17188 14.0618 8.17188 14.0618 8.17188C14.0618 8.17188 14.0618 8.17188 14.0618 8.17188C14.0618 8.17188 14.0618 8.17188 14.0619 8.17188C14.0619 8.17188 14.0619 8.17188 14.0619 8.17188C14.0619 8.17188 14.0619 8.17188 14.0619 8.17188C14.0619 8.17188 14.0619 8.17188 14.0619 8.17188C14.0619 8.17188 14.0619 8.17188 14.0619 8.17188C14.0619 8.17188 14.0619 8.17188 14.0619 8.17188C14.0619 8.17188 14.0619 8.17188 14.0619 8.17188C14.0619 8.17188 14.062 8.17188 14.062 8.17188C14.062 8.17188 14.062 8.17188 14.062 8.17188C14.062 8.17188 14.062 8.17188 14.062 8.17188C14.062 8.17188 14.062 8.17188 14.062 8.17188C14.062 8.17188 14.062 8.17188 14.062 8.17188C14.062 8.17188 14.062 8.17188 14.062 8.17188C14.062 8.17188 14.062 8.17188 14.062 8.17188C14.062 8.17188 14.062 8.17188 14.062 8.17188C14.0621 8.17188 14.0621 8.17188 14.0621 8.17188C14.0621 8.17188 14.0621 8.17188 14.0621 8.17188C14.0621 8.17188 14.0621 8.17188 14.0621 8.17188C14.0621 8.17188 14.0621 8.17188 14.0621 8.17188C14.0621 8.17188 14.0621 8.17188 14.0621 8.17188C14.0621 8.17188 14.0621 8.17188 14.0621 8.17188C14.0621 8.17188 14.0621 8.17188 14.0621 8.17188C14.0621 8.17188 14.0621 8.17188 14.0621 8.17188C14.0621 8.17188 14.0621 8.17188 14.0621 8.17188C14.0622 8.17188 14.0622 8.17188 14.0622 8.17188C14.0622 8.17188 14.0622 8.17188 14.0622 8.17188C14.0622 8.17188 14.0622 8.17188 14.0622 8.17188C14.0622 8.17188 14.0622 8.17188 14.0622 8.17188C14.0622 8.17188 14.0622 8.17188 14.0622 8.17188C14.0622 8.17188 14.0622 8.17188 14.0622 8.17188C14.0622 8.17188 14.0622 8.17188 14.0622 8.17188C14.0622 8.17188 14.0622 8.17188 14.0622 8.17188C14.0622 8.17188 14.0622 8.17188 14.0622 8.17188C14.0622 8.17188 14.0622 8.17188 14.0622 8.17188C14.0622 8.17188 14.0623 8.17188 14.0623 8.17188C14.0623 8.17188 14.0623 8.17188 14.0623 8.17188C14.0623 8.17188 14.0623 8.17188 14.0623 8.17188C14.0623 8.17188 14.0623 8.17188 14.0623 8.17188C14.0623 8.17188 14.0623 8.17188 14.0623 8.17188C14.0623 8.17188 14.0623 8.17188 14.0623 8.17188C14.0623 8.17188 14.0623 8.17188 14.0623 8.17188C14.0623 8.17188 14.0623 8.17188 14.0623 8.17188H14.0623C14.0623 8.17188 14.0623 8.17188 14.0623 8.17188C14.0623 8.17188 14.0623 8.17188 14.0623 8.17188C14.0623 8.17188 14.0623 8.17188 14.0623 8.17188H14.0623C14.0623 8.17188 14.0623 8.17188 14.0623 8.17188H14.0624C14.0624 8.17188 14.0624 8.17188 14.0624 8.17188H14.0624C14.0624 8.17188 14.0624 8.17188 14.0624 8.17188H14.0624C14.0624 8.17188 14.0624 8.17188 14.0624 8.17188C14.0624 8.17188 14.0624 8.17188 14.0624 8.17188H14.0624C14.0624 8.17188 14.0624 8.17188 14.0624 8.17188C14.0624 8.17188 14.0624 8.17188 14.0624 8.17188C14.0624 8.17188 14.0624 8.17188 14.0624 8.17188H14.0624H14.0624H14.0624C14.0624 8.17188 14.0624 8.17188 14.0624 8.17188C14.0624 8.17188 14.0624 8.17188 14.0624 8.17188C14.0624 8.17188 14.0624 8.17188 14.0624 8.17188C14.0624 8.17188 14.0624 8.17188 14.0624 8.17188H14.0624H14.0624C14.0624 8.17188 14.0624 8.17188 14.0624 8.17188C14.0624 8.17188 14.0624 8.17188 14.0624 8.17188C14.0625 8.17188 14.0625 8.17188 14.0625 8.17188H14.0625C14.0625 8.17188 14.0625 8.17188 14.0625 8.17188H14.0625C14.0625 8.17188 14.0625 8.17188 14.0625 8.17188C14.0625 8.17188 14.0625 8.17188 14.0625 8.17188H14.0625H14.0625C14.0625 8.17188 14.0625 8.17188 14.0625 8.17188H14.0625C14.0625 8.17188 14.0625 8.17188 14.0625 8.17188C14.0625 8.17188 14.0625 8.17188 14.0625 8.17188H14.0625H14.0625V7.17188ZM14.0156 6.17188C13.5498 6.17188 13.1676 6.39473 12.9218 6.64055C12.676 6.88636 12.4531 7.26852 12.4531 7.73438H14.4531C14.4531 7.91898 14.3709 8.01989 14.336 8.05476C14.3011 8.08964 14.2002 8.17188 14.0156 8.17188V6.17188ZM13.4531 8.73438H13.5V6.73438H13.4531V8.73438ZM12.5 7.73438V9.98438H14.5V7.73438H12.5ZM12.5 9.98438C12.5 10.7633 13.129 11.5469 14.0625 11.5469V9.54688C14.1981 9.54688 14.3134 9.60845 14.3852 9.68447C14.4493 9.75232 14.5 9.85322 14.5 9.98438H12.5ZM14.0625 11.5469H23.4375V9.54688H14.0625V11.5469ZM23.4375 11.5469C23.9034 11.5469 24.2855 11.324 24.5313 11.0782C24.7771 10.8324 25 10.4502 25 9.98438H23C23 9.79977 23.0822 9.69886 23.1171 9.66399C23.152 9.62911 23.2529 9.54688 23.4375 9.54688V11.5469ZM25 9.98438V0.5625H23V9.98438H25ZM25 0.5625C25 0.0966454 24.7771 -0.285511 24.5313 -0.531326C24.2855 -0.777142 23.9034 -1 23.4375 -1V1C23.2529 1 23.152 0.917767 23.1171 0.882889C23.0822 0.848011 23 0.747105 23 0.5625H25Z" fill="black"/>
</svg>
