<svg width="25" height="25" viewBox="0 0 25 25" fill="none" xmlns="http://www.w3.org/2000/svg">
<path d="M24.1719 20.7656L24.9152 20.0967L24.8976 20.0771L24.879 20.0585L24.1719 20.7656ZM19.4844 16.0781L20.1915 15.371L20.1523 15.3319L20.1091 15.2973L19.4844 16.0781ZM17.9375 15.75L17.1457 15.1392L15.9031 16.75H17.9375V15.75ZM16.25 17.4375H17.25V15.3929L15.6361 16.6481L16.25 17.4375ZM22.8125 23.6719L22.1054 22.9648L22.0868 22.9834L22.0692 23.0029L22.8125 23.6719ZM24.125 22.3594L23.456 21.6161L23.4365 21.6337L23.4179 21.6523L24.125 22.3594ZM24.879 20.0585L20.1915 15.371L18.7773 16.7852L23.4648 21.4727L24.879 20.0585ZM20.1091 15.2973C19.7859 15.0387 19.2879 14.75 18.6875 14.75V16.75C18.6619 16.75 18.6662 16.744 18.7048 16.7608C18.7432 16.7775 18.7971 16.8089 18.8597 16.859L20.1091 15.2973ZM18.6875 14.75H17.9375V16.75H18.6875V14.75ZM18.7293 16.3608C20.1192 14.5591 21 12.2849 21 9.75H19C19 11.8089 18.2871 13.6596 17.1457 15.1392L18.7293 16.3608ZM21 9.75C21 3.85397 16.146 -1 10.25 -1V1C15.0415 1 19 4.95853 19 9.75H21ZM10.25 -1C4.30397 -1 -0.5 3.85709 -0.5 9.75H1.5C1.5 4.95541 5.41478 1 10.25 1V-1ZM-0.5 9.75C-0.5 15.6929 4.30709 20.5 10.25 20.5V18.5C5.41166 18.5 1.5 14.5883 1.5 9.75H-0.5ZM10.25 20.5C12.7295 20.5 15.0066 19.6714 16.8639 18.2269L15.6361 16.6481C14.1184 17.8286 12.2705 18.5 10.25 18.5V20.5ZM15.25 17.4375V18.2344H17.25V17.4375H15.25ZM15.25 18.2344C15.25 18.7517 15.4295 19.2968 15.871 19.7384L17.2852 18.3241C17.2648 18.3037 17.2595 18.2913 17.2574 18.286C17.2547 18.2789 17.25 18.2634 17.25 18.2344H15.25ZM15.871 19.7384L20.5116 24.379L21.9259 22.9648L17.2852 18.3241L15.871 19.7384ZM20.5116 24.379C21.3491 25.2164 22.717 25.2728 23.5558 24.3408L22.0692 23.0029C22.0572 23.0162 22.0494 23.0199 22.0472 23.0209C22.0443 23.0222 22.0401 23.0234 22.0332 23.0234C22.0223 23.0234 21.9806 23.0196 21.9259 22.9648L20.5116 24.379ZM23.5196 24.379L24.8321 23.0665L23.4179 21.6523L22.1054 22.9648L23.5196 24.379ZM24.794 23.1027C25.7176 22.2714 25.6653 20.9301 24.9152 20.0967L23.4286 21.4346C23.4726 21.4835 23.4832 21.5311 23.4826 21.5597C23.4823 21.5737 23.4795 21.5834 23.4766 21.5898C23.4741 21.5954 23.4692 21.6043 23.456 21.6161L24.794 23.1027ZM10.25 14.75C7.47416 14.75 5.25 12.5258 5.25 9.75H3.25C3.25 13.6304 6.36959 16.75 10.25 16.75V14.75ZM5.25 9.75C5.25 7.01595 7.47924 4.75 10.25 4.75V2.75C6.36451 2.75 3.25 5.92155 3.25 9.75H5.25ZM10.25 4.75C12.979 4.75 15.25 7.02103 15.25 9.75H17.25C17.25 5.91647 14.0835 2.75 10.25 2.75V4.75ZM15.25 9.75C15.25 12.5208 12.9841 14.75 10.25 14.75V16.75C14.0784 16.75 17.25 13.6355 17.25 9.75H15.25Z" fill="black"/>
</svg>
