<svg width="22" height="24" viewBox="0 0 22 24" fill="none" xmlns="http://www.w3.org/2000/svg">
<path d="M17 15C15.9219 15 14.9375 15.375 14.1875 15.9844L9.35938 12.9844C9.45312 12.7031 9.45312 12.375 9.45312 12C9.45312 11.6719 9.45312 11.3438 9.35938 11.0625L14.1875 8.0625C14.9375 8.67188 15.9219 9 17 9C19.4844 9 21.5 7.03125 21.5 4.5C21.5 2.01562 19.4844 0 17 0C14.4688 0 12.5 2.01562 12.5 4.5C12.5 4.875 12.5 5.20312 12.5938 5.48438L7.76562 8.48438C7.01562 7.875 6.03125 7.5 5 7.5C2.46875 7.5 0.5 9.51562 0.5 12C0.5 14.5312 2.46875 16.5 5 16.5C6.03125 16.5 7.01562 16.1719 7.76562 15.5625L12.5938 18.5625C12.5 18.8438 12.5 19.1719 12.5 19.5469V19.5C12.5 22.0312 14.4688 24 17 24C19.4844 24 21.5 22.0312 21.5 19.5C21.5 17.0156 19.4844 15 17 15Z" fill="black"/>
</svg>
