<svg width="21" height="24" viewBox="0 0 21 24" fill="none" xmlns="http://www.w3.org/2000/svg">
<path d="M13.6875 15.9844L13.1597 16.8338L13.765 17.2099L14.3181 16.7605L13.6875 15.9844ZM8.85938 12.9844L7.91069 12.6681L7.66104 13.4171L8.3316 13.8338L8.85938 12.9844ZM8.85938 11.0625L8.3316 10.2131L7.66104 10.6298L7.91069 11.3787L8.85938 11.0625ZM13.6875 8.0625L14.3181 7.28638L13.765 6.83701L13.1597 7.21312L13.6875 8.0625ZM12.0938 5.48438L12.6215 6.33376L13.2921 5.9171L13.0424 5.16815L12.0938 5.48438ZM7.26562 8.48438L6.63503 9.26049L7.18811 9.70986L7.7934 9.33376L7.26562 8.48438ZM7.26562 15.5625L7.7934 14.7131L7.18811 14.337L6.63503 14.7864L7.26562 15.5625ZM12.0938 18.5625L13.0424 18.8787L13.2921 18.1298L12.6215 17.7131L12.0938 18.5625ZM16.5 14C15.1885 14 13.9822 14.4564 13.0569 15.2083L14.3181 16.7605C14.8928 16.2936 15.6553 16 16.5 16V14ZM14.2153 15.135L9.38715 12.135L8.3316 13.8338L13.1597 16.8338L14.2153 15.135ZM9.80806 13.3006C9.96346 12.8344 9.95312 12.3283 9.95312 12H7.95312C7.95312 12.4217 7.94279 12.5718 7.91069 12.6681L9.80806 13.3006ZM9.95312 12C9.95312 11.7131 9.96294 11.2109 9.80806 10.7463L7.91069 11.3787C7.94331 11.4766 7.95312 11.6306 7.95312 12H9.95312ZM9.38715 11.9119L14.2153 8.91188L13.1597 7.21312L8.3316 10.2131L9.38715 11.9119ZM13.0569 8.83862C14.0059 9.60966 15.2204 10 16.5 10V8C15.6233 8 14.8691 7.73409 14.3181 7.28638L13.0569 8.83862ZM16.5 10C19.5298 10 22 7.59033 22 4.5H20C20 6.47217 18.4389 8 16.5 8V10ZM22 4.5C22 1.46334 19.5367 -1 16.5 -1V1C18.4321 1 20 2.56791 20 4.5H22ZM16.5 -1C13.4097 -1 11 1.47016 11 4.5H13C13 2.56109 14.5278 1 16.5 1V-1ZM11 4.5C11 4.82829 10.9897 5.33442 11.1451 5.8006L13.0424 5.16815C13.0103 5.07183 13 4.92171 13 4.5H11ZM11.566 4.63499L6.73785 7.63499L7.7934 9.33376L12.6215 6.33376L11.566 4.63499ZM7.89622 7.70826C6.97529 6.96001 5.77018 6.5 4.5 6.5V8.5C5.29232 8.5 6.05596 8.78999 6.63503 9.26049L7.89622 7.70826ZM4.5 6.5C1.40967 6.5 -1 8.97016 -1 12H1C1 10.0611 2.52783 8.5 4.5 8.5V6.5ZM-1 12C-1 15.0835 1.41647 17.5 4.5 17.5V15.5C2.52103 15.5 1 13.979 1 12H-1ZM4.5 17.5C5.73827 17.5 6.95115 17.1065 7.89622 16.3386L6.63503 14.7864C6.0801 15.2373 5.32423 15.5 4.5 15.5V17.5ZM6.73785 16.4119L11.566 19.4119L12.6215 17.7131L7.7934 14.7131L6.73785 16.4119ZM11.1451 18.2463C10.9897 18.7125 11 19.2186 11 19.5469H13C13 19.1252 13.0103 18.975 13.0424 18.8787L11.1451 18.2463ZM13 19.5469V19.5H11V19.5469H13ZM11 19.5C11 22.5835 13.4165 25 16.5 25V23C14.521 23 13 21.479 13 19.5H11ZM16.5 25C19.5298 25 22 22.5903 22 19.5H20C20 21.4722 18.4389 23 16.5 23V25ZM22 19.5C22 16.4633 19.5367 14 16.5 14V16C18.4321 16 20 17.5679 20 19.5H22Z" fill="black"/>
</svg>
