<svg width="21" height="24" viewBox="0 0 21 24" fill="none" xmlns="http://www.w3.org/2000/svg">
<path d="M20.25 1.5H14.625L14.1562 0.65625C13.9688 0.28125 13.5938 0 13.1719 0H7.78125C7.35938 0 6.98438 0.28125 6.79688 0.65625L6.375 1.5H0.75C0.328125 1.5 0 1.875 0 2.25V3.75C0 4.17188 0.328125 4.5 0.75 4.5H20.25C20.625 4.5 21 4.17188 21 3.75V2.25C21 1.875 20.625 1.5 20.25 1.5ZM2.48438 21.8906C2.53125 23.1094 3.51562 24 4.73438 24H16.2188C17.4375 24 18.4219 23.1094 18.4688 21.8906L19.5 6H1.5L2.48438 21.8906Z" fill="black"/>
</svg>
