<svg width="22" height="24" viewBox="0 0 22 24" fill="none" xmlns="http://www.w3.org/2000/svg">
<path d="M15.125 1.5L14.2508 1.98564L14.5366 2.5H15.125V1.5ZM14.6562 0.65625L13.7618 1.10346L13.7715 1.1229L13.7821 1.14189L14.6562 0.65625ZM6.875 1.5V2.5H7.49303L7.76943 1.94721L6.875 1.5ZM2.98438 21.8906L3.98363 21.8522L3.98318 21.8405L3.98246 21.8288L2.98438 21.8906ZM18.9688 21.8906L17.9708 21.8259L17.97 21.839L17.9695 21.8522L18.9688 21.8906ZM20 6L20.9979 6.06476L21.067 5H20V6ZM2 6V5H0.936134L1.00191 6.06183L2 6ZM20.75 0.5H15.125V2.5H20.75V0.5ZM15.9992 1.01436L15.5304 0.170609L13.7821 1.14189L14.2508 1.98564L15.9992 1.01436ZM15.5507 0.209038C15.2304 -0.43158 14.5479 -1 13.6719 -1V1C13.6561 1 13.6604 0.994293 13.6842 1.01071C13.7103 1.02869 13.7408 1.06133 13.7618 1.10346L15.5507 0.209038ZM13.6719 -1H8.28125V1H13.6719V-1ZM8.28125 -1C7.40518 -1 6.72276 -0.43158 6.40245 0.209038L8.1913 1.10346C8.21237 1.06133 8.24284 1.02869 8.26891 1.01071C8.29271 0.994293 8.29701 1 8.28125 1V-1ZM6.40245 0.209038L5.98057 1.05279L7.76943 1.94721L8.1913 1.10346L6.40245 0.209038ZM6.875 0.5H1.25V2.5H6.875V0.5ZM1.25 0.5C0.236156 0.5 -0.5 1.36325 -0.5 2.25H1.5C1.5 2.34811 1.46225 2.40179 1.43879 2.42628C1.40958 2.45675 1.34534 2.5 1.25 2.5V0.5ZM-0.5 2.25V3.75H1.5V2.25H-0.5ZM-0.5 3.75C-0.5 4.72416 0.275841 5.5 1.25 5.5V3.5C1.3048 3.5 1.3715 3.52369 1.4239 3.5761C1.47631 3.6285 1.5 3.6952 1.5 3.75H-0.5ZM1.25 5.5H20.75V3.5H1.25V5.5ZM20.75 5.5C21.6367 5.5 22.5 4.76384 22.5 3.75H20.5C20.5 3.65466 20.5433 3.59042 20.5737 3.56121C20.5982 3.53775 20.6519 3.5 20.75 3.5V5.5ZM22.5 3.75V2.25H20.5V3.75H22.5ZM22.5 2.25C22.5 1.73727 22.2537 1.30824 21.9727 1.02727C21.6918 0.746296 21.2627 0.5 20.75 0.5V2.5C20.6773 2.5 20.6273 2.48219 20.6025 2.47063C20.5778 2.4591 20.565 2.44795 20.5585 2.44148C20.552 2.43501 20.5409 2.42221 20.5294 2.3975C20.5178 2.37273 20.5 2.32271 20.5 2.25H22.5ZM1.98512 21.9291C2.05393 23.7184 3.51258 25 5.23438 25V23C4.51867 23 4.00857 22.5004 3.98363 21.8522L1.98512 21.9291ZM5.23438 25H16.7188V23H5.23438V25ZM16.7188 25C18.4405 25 19.8992 23.7184 19.968 21.9291L17.9695 21.8522C17.9446 22.5004 17.4345 23 16.7188 23V25ZM19.9667 21.9554L20.9979 6.06476L19.0021 5.93524L17.9708 21.8259L19.9667 21.9554ZM20 5H2V7H20V5ZM1.00191 6.06183L1.98629 21.9525L3.98246 21.8288L2.99809 5.93817L1.00191 6.06183Z" fill="black"/>
</svg>
