<svg width="25" height="22" viewBox="0 0 25 22" fill="none" xmlns="http://www.w3.org/2000/svg">
<path d="M0.875 7.90625L0.221378 7.14943L0.211746 7.15775L0.202328 7.16631L0.875 7.90625ZM0.875 9.64062L0.202328 10.3806L0.211746 10.3891L0.221378 10.3974L0.875 9.64062ZM9.125 16.7656L9.77993 16.0099L9.77862 16.0088L9.125 16.7656ZM11 11.7969L11.0129 10.797L10 10.7839V11.7969H11ZM19.25 20.4688L20.2045 20.767L20.2051 20.7652L19.25 20.4688ZM20.5625 21.3594L19.9743 20.5506L19.9635 20.5585L19.9528 20.5667L20.5625 21.3594ZM11 5.42188H10V6.41565L10.9938 6.42186L11 5.42188ZM9.125 0.78125L9.77862 1.53807L9.77993 1.53694L9.125 0.78125ZM0.202328 7.16631C-0.749735 8.03182 -0.749735 9.51506 0.202328 10.3806L1.54767 8.90068C1.46848 8.82869 1.46848 8.71818 1.54767 8.64619L0.202328 7.16631ZM0.221378 10.3974L8.47138 17.5224L9.77862 16.0088L1.52862 8.8838L0.221378 10.3974ZM8.47007 17.5213C9.83059 18.7004 12 17.7033 12 15.875H10C10 15.9157 9.98983 15.9369 9.97968 15.9518C9.96648 15.9712 9.94244 15.9937 9.90711 16.01C9.87138 16.0265 9.83933 16.0296 9.81928 16.0275C9.80434 16.0259 9.79382 16.022 9.77993 16.0099L8.47007 17.5213ZM12 15.875V11.7969H10V15.875H12ZM10.9871 12.7968C12.7725 12.8198 14.2502 12.9467 15.4324 13.2114C16.6182 13.477 17.4318 13.8651 17.963 14.3545C18.9291 15.2448 19.3237 16.8574 18.2949 20.1723L20.2051 20.7652C21.2857 17.2832 21.1881 14.6067 19.3183 12.8838C18.4315 12.0666 17.2411 11.5669 15.8694 11.2598C14.4939 10.9517 12.8603 10.8208 11.0129 10.797L10.9871 12.7968ZM18.2955 20.1705C18.0203 21.0512 18.4613 21.8206 19.0351 22.2031C19.6007 22.5802 20.4639 22.6969 21.1722 22.152L19.9528 20.5667C19.9903 20.5379 20.0415 20.5228 20.0846 20.5236C20.1193 20.5242 20.137 20.534 20.1445 20.539C20.1521 20.5441 20.1754 20.5619 20.1941 20.6069C20.2169 20.6617 20.2179 20.7241 20.2045 20.767L18.2955 20.1705ZM21.1507 22.1681C23.4056 20.5282 25.5 17.3939 25.5 14.1406H23.5C23.5 16.6061 21.8444 19.1906 19.9743 20.5506L21.1507 22.1681ZM25.5 14.1406C25.5 12.2169 25.0939 10.6003 24.3057 9.26949C23.5164 7.93668 22.3819 6.95468 21.0283 6.24208C18.3646 4.83976 14.781 4.44549 11.0062 4.42189L10.9938 6.42186C14.719 6.44514 17.8854 6.84774 20.0967 8.01183C21.1806 8.58243 22.0148 9.32602 22.5849 10.2886C23.1561 11.2532 23.5 12.5019 23.5 14.1406H25.5ZM12 5.42188V1.67188H10V5.42188H12ZM12 1.67188C12 -0.156395 9.83059 -1.15356 8.47007 0.0255623L9.77993 1.53694C9.79382 1.52491 9.80434 1.52098 9.81928 1.51941C9.83933 1.5173 9.87138 1.52037 9.90711 1.53687C9.94244 1.55317 9.96648 1.57571 9.97968 1.59507C9.98983 1.60997 10 1.63118 10 1.67188H12ZM8.47138 0.0244255L0.221378 7.14943L1.52862 8.66307L9.77862 1.53807L8.47138 0.0244255Z" fill="black"/>
</svg>
