<svg width="22" height="24" viewBox="0 0 22 24" fill="none" xmlns="http://www.w3.org/2000/svg">
<path d="M19.25 12H7.625V7.17188C7.625 5.34375 9.07812 3.79688 10.9531 3.75C12.8281 3.75 14.375 5.29688 14.375 7.125V7.875C14.375 8.53125 14.8438 9 15.5 9H17C17.6094 9 18.125 8.53125 18.125 7.875V7.125C18.125 3.1875 14.8906 0 10.9531 0C7.01562 0.046875 3.875 3.28125 3.875 7.21875V12H2.75C1.48438 12 0.5 13.0312 0.5 14.25V21.75C0.5 23.0156 1.48438 24 2.75 24H19.25C20.4688 24 21.5 23.0156 21.5 21.75V14.25C21.5 13.0312 20.4688 12 19.25 12Z" fill="black"/>
</svg>
