<svg width="21" height="24" viewBox="0 0 21 24" fill="none" xmlns="http://www.w3.org/2000/svg">
<path d="M7.125 12H6.125V13H7.125V12ZM10.4531 3.75V2.75H10.4406L10.4281 2.75031L10.4531 3.75ZM10.4531 0V-1.00007L10.4412 -0.999928L10.4531 0ZM3.375 12V13H4.375V12H3.375ZM18.75 11H7.125V13H18.75V11ZM8.125 12V7.17188H6.125V12H8.125ZM8.125 7.17188C8.125 5.87372 9.15799 4.78269 10.4781 4.74969L10.4281 2.75031C7.99826 2.81106 6.125 4.81378 6.125 7.17188H8.125ZM10.4531 4.75C11.7848 4.75 12.875 5.85807 12.875 7.125H14.875C14.875 4.73568 12.8715 2.75 10.4531 2.75V4.75ZM12.875 7.125V7.875H14.875V7.125H12.875ZM12.875 7.875C12.875 9.08353 13.7915 10 15 10V8C14.9557 8 14.9294 7.99226 14.917 7.98734C14.9048 7.98249 14.9001 7.9781 14.8985 7.97649C14.8969 7.97488 14.8925 7.97017 14.8877 7.95797C14.8827 7.94559 14.875 7.91935 14.875 7.875H12.875ZM15 10H16.5V8H15V10ZM16.5 10C17.6341 10 18.625 9.11066 18.625 7.875H16.625C16.625 7.90655 16.6191 7.92578 16.6145 7.93671C16.6096 7.94829 16.6029 7.95794 16.5942 7.96632C16.577 7.98304 16.5462 8 16.5 8V10ZM18.625 7.875V7.125H16.625V7.875H18.625ZM18.625 7.125C18.625 2.6267 14.9344 -1 10.4531 -1V1C13.8469 1 16.625 3.7483 16.625 7.125H18.625ZM10.4412 -0.999928C5.94605 -0.946415 2.375 2.74373 2.375 7.21875H4.375C4.375 3.81877 7.0852 1.04016 10.465 0.999928L10.4412 -0.999928ZM2.375 7.21875V12H4.375V7.21875H2.375ZM3.375 11H2.25V13H3.375V11ZM2.25 11C0.418575 11 -1 12.4926 -1 14.25H1C1 13.5699 1.55017 13 2.25 13V11ZM-1 14.25V21.75H1V14.25H-1ZM-1 21.75C-1 23.5679 0.432091 25 2.25 25V23C1.53666 23 1 22.4633 1 21.75H-1ZM2.25 25H18.75V23H2.25V25ZM18.75 25C20.5074 25 22 23.5814 22 21.75H20C20 22.4498 19.4301 23 18.75 23V25ZM22 21.75V14.25H20V21.75H22ZM22 14.25C22 12.479 20.521 11 18.75 11V13C19.4165 13 20 13.5835 20 14.25H22Z" fill="black"/>
</svg>
