<svg width="21" height="24" viewBox="0 0 21 24" fill="none" xmlns="http://www.w3.org/2000/svg">
<path d="M13.875 13.5V12.5H13.6389L13.4278 12.6056L13.875 13.5ZM7.07812 13.5L7.52534 12.6056L7.31419 12.5H7.07812V13.5ZM10.5 13C14.3284 13 17.5 9.88549 17.5 6H15.5C15.5 8.77076 13.2341 11 10.5 11V13ZM17.5 6C17.5 2.16647 14.3335 -1 10.5 -1V1C13.229 1 15.5 3.27103 15.5 6H17.5ZM10.5 -1C6.61451 -1 3.5 2.17155 3.5 6H5.5C5.5 3.26595 7.72924 1 10.5 1V-1ZM3.5 6C3.5 9.88041 6.61959 13 10.5 13V11C7.72416 11 5.5 8.77584 5.5 6H3.5ZM14.6719 12.5H13.875V14.5H14.6719V12.5ZM13.4278 12.6056C12.5549 13.042 11.5868 13.25 10.5 13.25V15.25C11.8507 15.25 13.1326 14.9892 14.3222 14.3944L13.4278 12.6056ZM10.5 13.25C9.40685 13.25 8.39345 13.0396 7.52534 12.6056L6.63091 14.3944C7.8253 14.9916 9.15565 15.25 10.5 15.25V13.25ZM7.07812 12.5H6.28125V14.5H7.07812V12.5ZM6.28125 12.5C2.25057 12.5 -1 15.8168 -1 19.8281H1C1 16.902 3.37443 14.5 6.28125 14.5V12.5ZM-1 19.8281V21.75H1V19.8281H-1ZM-1 21.75C-1 23.5679 0.432091 25 2.25 25V23C1.53666 23 1 22.4633 1 21.75H-1ZM2.25 25H18.75V23H2.25V25ZM18.75 25C20.5074 25 22 23.5814 22 21.75H20C20 22.4498 19.4301 23 18.75 23V25ZM22 21.75V19.8281H20V21.75H22ZM22 19.8281C22 15.8071 18.6929 12.5 14.6719 12.5V14.5C17.5883 14.5 20 16.9117 20 19.8281H22Z" fill="black"/>
</svg>
