<svg width="31" height="14" viewBox="0 0 31 14" fill="none" xmlns="http://www.w3.org/2000/svg">
<path d="M23.75 0C20 0 17 3.04688 17 6.75C17 8.15625 17.375 9.46875 18.125 10.5H12.8281C13.5781 9.46875 13.9531 8.15625 13.9531 6.79688C13.9531 3.04688 10.9531 0.046875 7.20312 0.046875C3.5 0.046875 0.453125 3.04688 0.453125 6.79688C0.453125 10.5 3.5 13.5 7.25 13.5H23.75C27.4531 13.5 30.5 10.5 30.5 6.75C30.5 3.04688 27.4531 0 23.75 0ZM3.5 6.75C3.5 4.6875 5.14062 3 7.25 3C9.3125 3 11 4.6875 11 6.75C11 8.85938 9.3125 10.5 7.25 10.5C5.14062 10.5 3.5 8.85938 3.5 6.75ZM23.75 10.5C21.6406 10.5 20 8.85938 20 6.75C20 4.6875 21.6406 3 23.75 3C25.8125 3 27.5 4.6875 27.5 6.75C27.5 8.85938 25.8125 10.5 23.75 10.5Z" fill="black"/>
</svg>
