<svg width="31" height="14" viewBox="0 0 31 14" fill="none" xmlns="http://www.w3.org/2000/svg">
<path d="M18.125 10.5V11.5H20.0888L18.9337 9.91183L18.125 10.5ZM12.8281 10.5L12.0194 9.91183L10.8644 11.5H12.8281V10.5ZM23.75 -1C19.4432 -1 16 2.49912 16 6.75H18C18 3.59463 20.5568 1 23.75 1V-1ZM16 6.75C16 8.32917 16.4211 9.85735 17.3163 11.0882L18.9337 9.91183C18.3289 9.08015 18 7.98333 18 6.75H16ZM18.125 9.5H12.8281V11.5H18.125V9.5ZM13.6369 11.0882C14.5301 9.86001 14.9531 8.33301 14.9531 6.79688H12.9531C12.9531 7.97949 12.6262 9.07749 12.0194 9.91183L13.6369 11.0882ZM14.9531 6.79688C14.9531 2.49459 11.5054 -0.953125 7.20312 -0.953125V1.04688C10.4008 1.04688 12.9531 3.59916 12.9531 6.79688H14.9531ZM7.20312 -0.953125C2.95224 -0.953125 -0.546875 2.49007 -0.546875 6.79688H1.45312C1.45312 3.60368 4.04776 1.04688 7.20312 1.04688V-0.953125ZM-0.546875 6.79688C-0.546875 11.0658 2.96133 14.5 7.25 14.5V12.5C4.03867 12.5 1.45312 9.9342 1.45312 6.79688H-0.546875ZM7.25 14.5H23.75V12.5H7.25V14.5ZM23.75 14.5C28.0009 14.5 31.5 11.0568 31.5 6.75H29.5C29.5 9.9432 26.9054 12.5 23.75 12.5V14.5ZM31.5 6.75C31.5 2.49459 28.0054 -1 23.75 -1V1C26.9008 1 29.5 3.59916 29.5 6.75H31.5ZM4.5 6.75C4.5 5.23161 5.70105 4 7.25 4V2C4.5802 2 2.5 4.14339 2.5 6.75H4.5ZM7.25 4C8.76022 4 10 5.23978 10 6.75H12C12 4.13522 9.86478 2 7.25 2V4ZM10 6.75C10 8.29894 8.76839 9.5 7.25 9.5V11.5C9.85661 11.5 12 9.41981 12 6.75H10ZM7.25 9.5C5.69291 9.5 4.5 8.30709 4.5 6.75H2.5C2.5 9.41166 4.58834 11.5 7.25 11.5V9.5ZM23.75 9.5C22.1929 9.5 21 8.30709 21 6.75H19C19 9.41166 21.0883 11.5 23.75 11.5V9.5ZM21 6.75C21 5.23161 22.2011 4 23.75 4V2C21.0802 2 19 4.14339 19 6.75H21ZM23.75 4C25.2602 4 26.5 5.23978 26.5 6.75H28.5C28.5 4.13522 26.3648 2 23.75 2V4ZM26.5 6.75C26.5 8.29894 25.2684 9.5 23.75 9.5V11.5C26.3566 11.5 28.5 9.41981 28.5 6.75H26.5Z" fill="black"/>
</svg>
