<svg width="18" height="18" viewBox="0 0 18 18" fill="none" xmlns="http://www.w3.org/2000/svg">
<path d="M12.0938 9L11.3866 8.29289L10.683 8.99649L11.3831 9.70358L12.0938 9ZM16.7812 4.3125L16.103 3.5777L16.0883 3.59126L16.0741 3.60539L16.7812 4.3125ZM16.7812 2.25L16.0741 2.95711L16.0883 2.97124L16.103 2.9848L16.7812 2.25ZM15.75 1.21875L15.0152 1.89703L15.0288 1.91172L15.0429 1.92586L15.75 1.21875ZM13.6875 1.21875L14.3946 1.92586L14.4087 1.91172L14.4223 1.89703L13.6875 1.21875ZM9 5.90625L8.29642 6.61687L9.00351 7.31696L9.70711 6.61336L9 5.90625ZM4.26562 1.21875L3.53082 1.89703L3.54607 1.91355L3.56205 1.92937L4.26562 1.21875ZM2.20312 1.21875L2.91023 1.92586L2.92437 1.91172L2.93793 1.89703L2.20312 1.21875ZM1.17188 2.25L1.85015 2.9848L1.86485 2.97124L1.87898 2.95711L1.17188 2.25ZM1.17188 4.3125L1.87898 3.60539L1.86485 3.59126L1.85015 3.5777L1.17188 4.3125ZM5.85938 9L6.56999 9.70358L7.27008 8.99649L6.56648 8.29289L5.85938 9ZM1.17188 13.7344L1.85015 14.4692L1.86667 14.4539L1.88249 14.438L1.17188 13.7344ZM1.17188 15.7969L1.87898 15.0898L1.86485 15.0756L1.85015 15.0621L1.17188 15.7969ZM2.20312 16.8281L2.93793 16.1498L2.92437 16.1352L2.91023 16.121L2.20312 16.8281ZM4.26562 16.8281L3.56205 16.1175L3.54607 16.1333L3.53082 16.1498L4.26562 16.8281ZM9 12.1406L9.70711 11.4335L9.00351 10.7299L8.29642 11.43L9 12.1406ZM13.6875 16.8281L14.4223 16.1498L14.4087 16.1352L14.3946 16.121L13.6875 16.8281ZM15.75 16.8281L15.0429 16.121L15.0288 16.1352L15.0152 16.1498L15.75 16.8281ZM16.7812 15.7969L16.103 15.0621L16.0883 15.0756L16.0741 15.0898L16.7812 15.7969ZM16.7812 13.7344L16.0706 14.438L16.0865 14.4539L16.103 14.4692L16.7812 13.7344ZM12.8009 9.70711L17.4884 5.01961L16.0741 3.60539L11.3866 8.29289L12.8009 9.70711ZM17.4595 5.0473C18.4979 4.08884 18.4979 2.47366 17.4595 1.5152L16.103 2.9848C16.2834 3.15134 16.2834 3.41116 16.103 3.5777L17.4595 5.0473ZM17.4884 1.54289L16.4571 0.511642L15.0429 1.92586L16.0741 2.95711L17.4884 1.54289ZM16.4848 0.54047C15.5263 -0.497864 13.9112 -0.497864 12.9527 0.54047L14.4223 1.89703C14.5888 1.71661 14.8487 1.71661 15.0152 1.89703L16.4848 0.54047ZM12.9804 0.511642L8.29289 5.19914L9.70711 6.61336L14.3946 1.92586L12.9804 0.511642ZM9.70358 5.19563L4.9692 0.508133L3.56205 1.92937L8.29642 6.61687L9.70358 5.19563ZM5.00043 0.54047C4.04197 -0.497864 2.42678 -0.497864 1.46832 0.54047L2.93793 1.89703C3.10447 1.71661 3.36428 1.71661 3.53082 1.89703L5.00043 0.54047ZM1.49602 0.511642L0.464767 1.54289L1.87898 2.95711L2.91023 1.92586L1.49602 0.511642ZM0.493595 1.5152C-0.544739 2.47366 -0.544739 4.08884 0.493595 5.0473L1.85015 3.5777C1.66974 3.41116 1.66974 3.15134 1.85015 2.9848L0.493595 1.5152ZM0.464767 5.01961L5.15227 9.70711L6.56648 8.29289L1.87898 3.60539L0.464767 5.01961ZM5.14876 8.29642L0.461258 13.0308L1.88249 14.438L6.56999 9.70358L5.14876 8.29642ZM0.493595 12.9996C-0.544739 13.958 -0.544739 15.5732 0.493595 16.5317L1.85015 15.0621C1.66974 14.8955 1.66974 14.6357 1.85015 14.4692L0.493595 12.9996ZM0.464767 16.504L1.49602 17.5352L2.91023 16.121L1.87898 15.0898L0.464767 16.504ZM1.46832 17.5064C2.42678 18.5447 4.04197 18.5447 5.00043 17.5064L3.53082 16.1498C3.36428 16.3303 3.10447 16.3303 2.93793 16.1498L1.46832 17.5064ZM4.9692 17.5387L9.70358 12.8512L8.29642 11.43L3.56205 16.1175L4.9692 17.5387ZM8.29289 12.8477L12.9804 17.5352L14.3946 16.121L9.70711 11.4335L8.29289 12.8477ZM12.9527 17.5064C13.9112 18.5447 15.5263 18.5447 16.4848 17.5064L15.0152 16.1498C14.8487 16.3303 14.5888 16.3303 14.4223 16.1498L12.9527 17.5064ZM16.4571 17.5352L17.4884 16.504L16.0741 15.0898L15.0429 16.121L16.4571 17.5352ZM17.4595 16.5317C18.4979 15.5732 18.4979 13.958 17.4595 12.9996L16.103 14.4692C16.2834 14.6357 16.2834 14.8955 16.103 15.0621L17.4595 16.5317ZM17.4919 13.0308L12.8044 8.29642L11.3831 9.70358L16.0706 14.438L17.4919 13.0308Z" fill="black"/>
</svg>
